<?xml version="1.0" standalone="no"?>
<!DOCTYPE svg PUBLIC "-//W3C//DTD SVG 20010904//EN"
 "http://www.w3.org/TR/2001/REC-SVG-20010904/DTD/svg10.dtd">
<svg version="1.0" xmlns="http://www.w3.org/2000/svg"
 width="4448.000000pt" height="557.000000pt" viewBox="0 0 4448.000000 557.000000"
 preserveAspectRatio="xMidYMid meet">

<g transform="translate(0.000000,557.000000) scale(0.100000,-0.100000)"
fill="#000000" stroke="none">
<path d="M33170 3573 c0 -791 3 -1610 7 -1820 l6 -383 389 0 388 0 0 1273 c0
699 -3 1518 -7 1820 l-6 547 -389 0 -388 0 0 -1437z"/>
<path d="M23690 3552 c0 -786 3 -1605 7 -1820 l6 -392 388 0 388 0 3 742 c3
730 4 744 25 821 82 288 285 438 593 436 265 -1 419 -119 487 -373 15 -53 18
-159 22 -841 l6 -780 190 -3 c105 -2 281 0 393 3 l202 7 0 772 c0 787 -5 930
-39 1084 -89 408 -337 678 -713 777 -394 103 -838 24 -1112 -200 l-53 -43 -6
337 c-4 185 -7 463 -7 619 l0 282 -390 0 -390 0 0 -1428z"/>
<path d="M9241 4738 c-15 -35 -248 -577 -517 -1205 -269 -629 -491 -1143 -494
-1143 -3 0 -236 540 -519 1200 l-515 1200 -438 0 c-241 0 -438 -2 -438 -4 0
-2 335 -773 743 -1713 l744 -1708 398 1 c220 1 401 6 402 10 2 5 334 777 737
1717 l733 1707 -404 0 -404 0 -28 -62z"/>
<path d="M10333 4103 c4 -384 7 -1156 7 -1716 l0 -1019 883 5 c942 5 961 6
1207 58 386 84 749 290 968 551 233 278 351 577 382 972 38 470 -103 921 -393
1258 -268 311 -713 524 -1209 577 -61 7 -427 11 -974 11 l-877 0 6 -697z
m1768 11 c342 -58 606 -237 742 -502 85 -166 120 -320 119 -533 -1 -592 -379
-982 -996 -1029 -72 -5 -285 -10 -473 -10 l-343 0 0 1045 0 1045 428 0 c348 0
446 -3 523 -16z"/>
<path d="M422 4770 c-156 -41 -283 -144 -355 -288 l-42 -85 -3 -270 -3 -270
23 15 c53 34 239 138 313 175 215 107 299 120 389 60 150 -100 1335 -933 1358
-955 15 -14 30 -40 34 -57 14 -76 29 -64 -716 -585 -381 -267 -707 -491 -726
-499 -41 -17 -75 -9 -117 28 -32 29 -32 30 -35 135 l-4 105 74 -25 c53 -19 95
-27 153 -28 73 -1 87 2 155 35 78 38 210 140 210 163 0 7 -22 27 -48 44 -26
17 -89 64 -140 105 -163 130 -326 216 -487 257 -97 25 -204 26 -248 4 -65 -34
-157 -106 -161 -127 -12 -57 -31 -486 -31 -687 0 -208 2 -230 23 -291 47 -136
155 -256 287 -319 147 -69 332 -67 474 5 85 42 1868 1224 1910 1265 101 98
152 214 159 361 5 115 -8 183 -52 276 -65 135 -68 137 -1056 789 -498 329
-930 610 -960 625 -116 59 -249 73 -378 39z"/>
<path d="M4516 4783 l-959 -3 6 -698 c4 -383 7 -1155 7 -1714 l0 -1018 558 0
c306 0 905 3 1330 7 l772 6 0 324 0 323 -923 0 -924 0 -6 377 c-3 208 -4 379
-3 381 2 2 360 6 795 9 l791 6 0 81 c0 45 -3 186 -7 314 l-6 232 -789 0 -788
0 2 358 3 357 893 3 892 2 0 330 0 330 -342 -2 c-189 -2 -775 -4 -1302 -5z"/>
<path d="M15428 4753 l-738 -3 0 -335 0 -335 545 0 545 0 0 -1183 c0 -651 3
-1272 7 -1380 l6 -197 404 0 403 0 0 1378 0 1379 98 6 c53 4 299 7 546 7 l449
0 -6 212 c-4 116 -7 267 -7 335 l0 123 -757 -2 c-417 -2 -1090 -4 -1495 -5z"/>
<path d="M35403 4106 c-49 -22 -63 -60 -63 -170 0 -122 -10 -134 -133 -170
-113 -32 -127 -28 -205 73 -98 127 -130 129 -292 18 -159 -109 -166 -136 -66
-269 71 -94 72 -114 11 -194 -82 -106 -97 -111 -228 -69 -43 14 -89 25 -103
25 -34 0 -81 -26 -95 -52 -27 -50 -86 -247 -82 -271 8 -43 52 -73 148 -101
124 -37 135 -51 135 -166 0 -115 -11 -129 -135 -166 -96 -28 -140 -58 -148
-101 -5 -27 61 -239 87 -278 8 -12 29 -28 46 -35 35 -14 58 -11 190 25 90 25
108 18 174 -67 74 -94 74 -112 0 -206 -101 -130 -93 -159 66 -269 161 -111
194 -109 292 18 78 101 92 105 205 73 123 -36 133 -48 133 -170 0 -164 24
-184 226 -184 198 0 224 23 224 192 0 116 7 124 133 161 112 33 124 29 206
-76 66 -82 96 -102 148 -93 36 5 235 136 258 169 29 41 19 88 -31 153 -60 76
-84 115 -84 136 0 9 28 51 63 95 75 93 89 97 212 59 159 -50 185 -36 243 130
23 66 42 134 42 151 0 53 -41 87 -145 118 -129 38 -135 46 -135 165 0 119 6
127 135 165 104 31 145 64 145 118 0 17 -19 85 -42 151 -35 100 -46 121 -72
137 -41 25 -66 24 -166 -6 -128 -38 -140 -36 -200 36 -100 120 -99 118 -10
234 64 83 76 128 46 171 -23 32 -223 165 -259 170 -52 9 -82 -10 -148 -93 -83
-105 -97 -111 -207 -77 -127 39 -130 43 -134 175 -3 108 -3 109 -36 141 l-32
33 -143 2 c-106 2 -150 -1 -174 -11z m296 -651 c144 -34 299 -144 384 -273
243 -366 128 -869 -243 -1061 -108 -57 -191 -74 -315 -68 -164 8 -293 67 -414
188 -320 320 -266 886 108 1127 66 43 149 78 216 92 67 13 196 11 264 -5z"/>
<path d="M35487 3179 c-177 -42 -307 -218 -307 -419 0 -174 91 -324 238 -393
58 -27 78 -32 147 -31 106 0 182 33 258 113 62 65 91 115 112 198 39 149 0
305 -103 415 -96 103 -223 146 -345 117z"/>
<path d="M31283 4065 c-53 -23 -66 -54 -72 -176 -4 -61 -11 -113 -18 -120 -18
-18 -192 -66 -220 -61 -15 3 -50 36 -95 89 -69 83 -97 103 -143 103 -34 0
-257 -150 -273 -184 -24 -54 -18 -72 64 -178 30 -39 54 -80 54 -93 0 -22 -84
-145 -118 -172 -24 -19 -68 -16 -157 12 -156 48 -182 33 -245 -145 -63 -178
-54 -202 98 -250 116 -38 129 -44 138 -72 13 -38 11 -171 -2 -199 -14 -28 -32
-37 -141 -69 -144 -43 -155 -74 -93 -250 63 -178 89 -193 245 -145 80 25 120
30 149 19 14 -5 64 -67 108 -133 28 -41 22 -64 -36 -139 -82 -106 -88 -124
-64 -178 16 -34 239 -184 273 -184 46 0 74 20 141 100 37 45 78 86 92 91 18 7
48 2 123 -21 54 -17 102 -36 106 -43 4 -7 11 -60 14 -118 9 -170 32 -189 229
-189 194 0 220 20 220 167 0 142 6 150 151 192 57 16 82 19 102 12 14 -5 53
-46 88 -90 66 -85 104 -109 157 -97 15 4 75 39 134 79 115 77 146 115 133 165
-3 14 -33 61 -66 104 -74 100 -75 115 -8 199 28 35 58 70 67 77 24 18 65 15
160 -14 95 -29 141 -28 177 6 14 13 40 72 66 151 l44 129 -20 38 c-19 34 -28
40 -130 74 -139 46 -145 53 -145 168 0 115 6 122 145 168 102 34 111 40 130
74 l20 38 -44 129 c-26 79 -52 138 -66 151 -36 34 -82 35 -177 6 -95 -29 -136
-32 -160 -13 -9 6 -39 41 -67 76 -67 84 -66 99 8 198 69 92 76 112 61 158 -10
29 -32 49 -131 115 -164 110 -189 108 -286 -18 -78 -101 -97 -109 -201 -77
-139 41 -142 45 -142 188 0 105 -11 130 -66 153 -45 19 -267 19 -311 -1z m344
-665 c358 -124 551 -556 417 -933 -78 -218 -265 -392 -474 -441 -345 -81 -693
156 -775 528 -25 113 -17 303 18 403 81 235 255 402 477 459 80 20 257 12 337
-16z"/>
<path d="M31338 3131 c-73 -24 -116 -51 -167 -107 -89 -96 -133 -244 -111
-375 50 -297 345 -447 577 -294 294 195 222 693 -112 780 -75 19 -116 18 -187
-4z"/>
<path d="M38395 4070 c-241 -21 -464 -97 -658 -226 -179 -120 -321 -285 -417
-487 -83 -174 -120 -346 -120 -562 0 -216 37 -388 120 -562 97 -203 237 -366
418 -487 232 -154 481 -227 776 -227 316 -1 561 79 759 245 l70 59 -7 -121
c-15 -267 -96 -438 -259 -543 -219 -142 -644 -153 -1022 -27 -106 35 -284 124
-350 174 -26 20 -50 32 -54 28 -5 -5 -75 -130 -156 -279 -81 -148 -149 -273
-152 -277 -6 -11 131 -100 226 -147 210 -106 446 -172 737 -206 148 -17 475
-20 609 -5 611 68 990 359 1139 873 63 217 60 143 63 1505 l4 1242 -376 0
-375 0 0 -154 0 -154 -61 59 c-113 109 -249 186 -411 233 -146 42 -340 60
-503 46z m510 -680 c155 -49 297 -161 363 -287 96 -182 96 -435 0 -616 -155
-293 -597 -407 -937 -241 -215 106 -334 300 -334 549 0 119 20 202 70 298 83
158 234 269 428 313 93 21 321 13 410 -16z"/>
<path d="M42661 4028 c-23 -59 -702 -1701 -709 -1714 -6 -11 -120 252 -372
855 l-363 871 -409 0 -408 0 14 -32 c7 -18 266 -615 575 -1327 l561 -1294 -42
-79 c-53 -103 -123 -179 -196 -215 -49 -24 -72 -28 -162 -31 -154 -6 -271 31
-403 124 -26 19 -51 33 -55 30 -4 -2 -70 -129 -147 -280 l-140 -277 30 -25
c181 -151 543 -244 841 -215 159 16 259 42 380 101 205 99 353 252 487 500 33
62 1213 2839 1278 3008 l9 22 -380 0 -380 0 -9 -22z"/>
<path d="M28475 4029 c-238 -32 -510 -152 -629 -278 -17 -17 -33 -31 -38 -31
-4 0 -8 63 -8 140 l0 140 -375 0 -375 0 0 -948 c0 -522 3 -1118 7 -1325 l6
-377 391 2 391 3 0 735 c0 731 0 735 22 815 84 299 280 446 593 444 265 -1
419 -119 487 -373 15 -53 18 -159 22 -841 l6 -780 180 -3 c99 -2 276 0 393 3
l213 7 -3 852 c-4 773 -6 860 -22 946 -44 229 -131 419 -255 555 -137 150
-334 257 -553 300 -99 20 -354 28 -453 14z"/>
<path d="M21965 4020 c-525 -44 -961 -310 -1173 -718 -99 -190 -141 -355 -149
-587 -8 -259 30 -442 137 -660 196 -398 556 -649 1060 -737 113 -19 442 -17
560 5 280 51 498 157 678 331 106 102 241 312 216 335 -5 5 -115 66 -244 136
-129 70 -263 142 -296 161 l-61 34 -39 -63 c-21 -34 -68 -92 -105 -128 -239
-240 -667 -235 -914 11 -142 140 -202 316 -192 564 8 211 65 354 193 482 82
83 196 145 310 169 90 19 244 19 319 0 150 -38 286 -136 381 -275 l47 -70 64
35 c35 19 169 92 298 161 130 70 238 131 241 136 7 11 -55 124 -111 203 -239
336 -705 517 -1220 475z"/>
<path d="M18843 4010 c-335 -28 -639 -161 -867 -379 -258 -248 -389 -547 -403
-921 -14 -402 108 -730 372 -996 153 -154 326 -258 555 -335 353 -118 818
-117 1159 3 175 61 365 180 474 297 l48 52 -72 77 c-39 42 -135 146 -213 229
l-140 153 -31 -29 c-98 -92 -249 -173 -385 -207 -60 -15 -110 -19 -250 -18
-161 0 -182 3 -265 28 -132 40 -199 79 -291 171 -79 78 -142 179 -159 256 l-6
26 983 8 c541 4 984 8 986 10 2 2 8 52 14 112 19 204 -20 459 -99 658 -71 179
-167 320 -304 450 -224 209 -502 326 -847 355 -128 11 -125 11 -259 0z m311
-620 c91 -23 193 -75 258 -130 68 -59 143 -176 173 -272 14 -44 24 -82 23 -83
-2 -2 -283 -5 -626 -7 l-622 -3 0 21 c0 11 9 46 20 78 54 159 155 278 293 346
45 22 111 47 147 54 98 21 242 20 334 -4z"/>
<path d="M190 3719 c-51 -23 -114 -80 -137 -124 -13 -23 -19 -95 -30 -320 -7
-159 -11 -294 -10 -300 2 -5 14 9 25 32 32 62 86 111 159 146 92 42 184 41
348 -7 198 -57 290 -95 413 -169 64 -39 145 -81 181 -93 121 -43 272 -25 382
45 55 35 189 159 189 175 0 12 -234 179 -351 249 -245 147 -529 262 -857 347
-175 46 -244 50 -312 19z"/>
</g>
</svg>
