<svg width="56" height="57" viewBox="0 0 56 57" fill="none" xmlns="http://www.w3.org/2000/svg">
<g filter="url(#filter0_d_1_515)">
<circle cx="28.0193" cy="28.3266" r="24.1815" fill="white"/>
<g clip-path="url(#clip0_1_515)">
<path d="M23.5311 14.5882C21.4592 15.2585 19.692 15.8882 19.6108 15.9694C19.4279 16.1522 19.4279 16.4163 19.5904 17.9804C19.692 18.9351 19.6514 19.1179 19.2858 19.3616C18.9811 19.5851 18.8592 19.8897 18.8389 20.5194C18.8389 20.9866 18.717 22.0632 18.5748 22.896C18.1889 25.0288 18.2701 25.171 20.2404 25.0897L21.8045 25.0288L21.7842 24.0132C21.7233 21.6163 21.4389 19.7882 21.0529 19.4022C20.8295 19.1788 20.6873 18.7522 20.6873 18.3054C20.6873 17.6351 20.7279 17.5741 21.1342 17.696C21.3983 17.7569 21.7639 17.8179 21.967 17.8179C22.2514 17.8179 22.3123 18.0007 22.3123 18.8132C22.3123 19.3819 22.4139 19.8897 22.5154 19.9507C22.6373 20.0116 22.7186 20.8851 22.7186 21.8804C22.7186 23.3835 22.7795 23.7288 23.0842 23.9522C23.2873 24.0944 23.5514 24.6022 23.6936 25.0897C23.8358 25.5569 24.2217 26.2476 24.5467 26.6335C24.892 26.9991 25.1561 27.4054 25.1561 27.5069C25.1561 27.8522 22.0279 29.721 20.8701 30.1069C18.6561 30.8382 17.6608 32.1382 17.6404 34.3319C17.6404 35.2257 17.7217 35.5304 17.9654 35.6319C18.4326 35.7944 18.6561 35.3476 18.6561 34.2101C18.6561 32.5241 19.4889 31.5085 21.2561 31.0413L22.1092 30.7976L24.8717 32.4429C26.3951 33.3366 27.7967 34.0679 27.9998 34.0679C28.2029 34.0679 29.6045 33.3366 31.1279 32.4429L33.8904 30.7976L34.7436 31.0413C35.8404 31.3257 36.6529 31.8944 37.0389 32.646C37.4248 33.3976 37.4654 37.9272 37.0998 38.2929C36.9576 38.4351 36.4701 38.5366 36.0029 38.5366H35.1295L35.0686 37.5616C35.0076 36.7694 34.9467 36.6069 34.6014 36.6069C34.2561 36.6069 34.1951 36.7694 34.1342 37.5616L34.0733 38.5366H27.9998H21.9264L21.8654 37.5616C21.8045 36.7694 21.7436 36.6069 21.3983 36.6069C21.0529 36.6069 20.992 36.7694 20.9311 37.5616L20.8701 38.5366H19.9967C18.9811 38.5366 18.717 38.3132 18.6154 37.3179C18.5748 36.7694 18.4529 36.5866 18.1076 36.546C17.6811 36.4851 17.6404 36.5663 17.6404 37.4804C17.6404 38.2522 17.742 38.5569 18.1076 38.9022C18.5748 39.3491 18.6154 39.3491 28.0201 39.3491H37.4858L37.9123 38.8819C38.3186 38.4554 38.3592 38.2116 38.3592 35.7741C38.3592 33.6616 38.2779 32.9913 37.9733 32.321C37.5061 31.3054 36.592 30.5741 35.1295 30.1069C34.0326 29.7616 31.0061 27.9335 30.8842 27.5476C30.8436 27.446 31.0873 27.0397 31.4326 26.6538C31.7576 26.2679 32.1639 25.5569 32.3061 25.0897C32.4483 24.6022 32.7123 24.0944 32.9154 23.9522C33.2201 23.7288 33.2811 23.3835 33.2811 21.8804C33.2811 20.8851 33.3826 20.0116 33.4842 19.9507C33.6061 19.8897 33.6873 19.3819 33.6873 18.8335V17.8585L34.7639 17.7163C35.3326 17.6351 35.9826 17.4929 36.1858 17.371C36.5514 17.1882 36.6733 16.0913 36.3279 15.8882C35.7998 15.5632 28.4264 13.3491 27.8983 13.3694C27.5733 13.3694 25.6029 13.9179 23.5311 14.5882ZM34.9264 16.6601C34.8451 16.7413 34.0936 16.8632 33.3014 16.9038C32.4889 16.9444 31.7779 17.0257 31.717 17.0866C31.4936 17.3101 31.8592 17.8179 32.2654 17.8179C32.5904 17.8179 32.6717 17.9397 32.6717 18.5288V19.2397H27.9998H23.3279V18.5694V17.8788L25.6436 17.6351C27.0248 17.4726 28.5483 17.4319 29.4217 17.5132C30.8639 17.6554 30.8842 17.6554 30.8029 17.1882C30.7014 16.4366 28.7311 16.2538 25.3998 16.6601C23.0233 16.9647 21.1951 16.9444 20.992 16.6194C20.9514 16.5382 22.5154 15.9694 24.4654 15.3601L28.0404 14.2226L31.5748 15.3601C33.5248 15.9694 35.0279 16.5585 34.9264 16.6601ZM20.4842 20.4585C20.4842 20.5601 20.342 20.6616 20.1795 20.6616C20.017 20.6616 19.8748 20.5601 19.8748 20.4585C19.8748 20.3366 20.017 20.2554 20.1795 20.2554C20.342 20.2554 20.4842 20.3366 20.4842 20.4585ZM24.3029 20.7022C24.2014 21.3929 23.5311 21.4538 23.5311 20.7835C23.5311 20.3772 23.6326 20.2554 23.9576 20.2554C24.2623 20.2554 24.3639 20.3569 24.3029 20.7022ZM30.7217 20.9663C30.8639 21.6976 31.4733 22.2866 32.1029 22.2866C32.6108 22.2866 32.5701 23.0179 32.0623 23.3022C31.8592 23.4241 31.5748 23.8913 31.4326 24.3788C30.8233 26.6741 28.5076 27.8116 26.4358 26.8163C25.5826 26.4304 24.5467 25.0694 24.5467 24.3788C24.5467 24.1147 24.3233 23.6882 24.0389 23.4241C23.4498 22.8757 23.3686 22.2866 23.8967 22.2866C24.5264 22.2866 25.1358 21.6976 25.2779 20.9663L25.3998 20.2554H27.9998H30.5998L30.7217 20.9663ZM32.4686 20.7835C32.4686 21.4538 31.7983 21.3929 31.6967 20.7022C31.6358 20.3569 31.7373 20.2554 32.042 20.2554C32.367 20.2554 32.4686 20.3772 32.4686 20.7835ZM20.5451 21.8194C20.6061 21.921 20.7076 22.5101 20.7889 23.1397L20.9311 24.3179H20.0779C19.4076 24.3179 19.2451 24.2569 19.3467 24.0132C19.4076 23.8507 19.5092 23.2616 19.5904 22.6929C19.692 21.9007 19.7936 21.6772 20.0983 21.6772C20.3014 21.6772 20.5045 21.7382 20.5451 21.8194ZM29.7467 28.6647C29.6858 28.9897 29.6248 29.3757 29.6248 29.5179C29.6248 29.7413 29.2389 29.8022 27.9998 29.8022C26.7608 29.8022 26.3748 29.7413 26.3748 29.5179C26.3748 29.3757 26.3139 28.9897 26.2529 28.6647L26.1514 28.0757H27.9998H29.8686L29.7467 28.6647ZM26.0295 31.3866C26.2123 31.7522 26.2936 32.0366 26.192 31.996C25.5623 31.7319 23.3279 30.2897 23.3686 30.1679C23.4092 30.0866 23.8358 29.7616 24.3436 29.4366L25.2576 28.8679L25.4811 29.7819C25.5826 30.2897 25.8264 31.021 26.0295 31.3866ZM32.6717 30.1882C32.6717 30.2491 32.042 30.696 31.2498 31.1632C30.4779 31.6304 29.8279 31.996 29.8279 31.9757C29.8279 31.9351 30.0108 31.4069 30.2342 30.7569C30.4576 30.1272 30.6404 29.4366 30.6404 29.2132C30.6404 28.8272 30.7217 28.8476 31.6561 29.4366C32.2248 29.7819 32.6717 30.1272 32.6717 30.1882ZM29.0154 30.9397C29.0154 31.1632 28.142 32.646 27.9998 32.646C27.8576 32.646 26.9842 31.1632 26.9842 30.9397C26.9842 30.8788 27.4514 30.8179 27.9998 30.8179C28.5686 30.8179 29.0154 30.8788 29.0154 30.9397Z" fill="#253073"/>
</g>
</g>
<defs>
<filter id="filter0_d_1_515" x="0.137707" y="0.445019" width="55.7631" height="55.763" filterUnits="userSpaceOnUse" color-interpolation-filters="sRGB">
<feFlood flood-opacity="0" result="BackgroundImageFix"/>
<feColorMatrix in="SourceAlpha" type="matrix" values="0 0 0 0 0 0 0 0 0 0 0 0 0 0 0 0 0 0 127 0" result="hardAlpha"/>
<feOffset/>
<feGaussianBlur stdDeviation="1.85"/>
<feComposite in2="hardAlpha" operator="out"/>
<feColorMatrix type="matrix" values="0 0 0 0 0 0 0 0 0 0 0 0 0 0 0 0 0 0 0.25 0"/>
<feBlend mode="normal" in2="BackgroundImageFix" result="effect1_dropShadow_1_515"/>
<feBlend mode="normal" in="SourceGraphic" in2="effect1_dropShadow_1_515" result="shape"/>
</filter>
<clipPath id="clip0_1_515">
<rect width="26" height="26" fill="white" transform="translate(14.9998 13.3491)"/>
</clipPath>
</defs>
</svg>
