<svg width="50" height="49" viewBox="0 0 50 49" fill="none" xmlns="http://www.w3.org/2000/svg">
<circle cx="25.0186" cy="24.3266" r="24.1815" fill="white"/>
<path d="M12.8491 11.9491C12.4241 12.1491 11.8491 12.5991 11.5491 12.9741C10.9991 13.6491 10.9991 13.7741 10.9991 24.2491V34.8491L11.8491 35.7991L12.6991 36.7241H25.6741H38.6241L38.6991 32.4491C38.7491 28.3741 38.7241 28.1491 38.1991 27.3491C36.9241 25.4991 33.9491 24.9491 31.2741 26.0991C30.1491 26.5991 29.9741 26.5991 29.4991 26.2741C28.9991 25.9241 29.0741 25.8991 30.4741 25.7991C34.8991 25.4741 36.7741 20.3741 33.5991 17.1991C32.2741 15.8491 30.6741 15.4491 28.7491 15.9491C24.5241 17.0491 23.6491 22.8241 27.3491 25.1241L28.0991 25.5741L26.6991 25.4241C25.0241 25.2491 23.7741 25.6241 22.5991 26.6491C21.4741 27.6241 21.2491 28.6241 21.2491 32.3991V35.5991H17.3991C13.8991 35.5991 13.4991 35.5491 12.8991 35.0741L12.2491 34.5741V24.3241V14.0741L12.8741 13.4741L13.4741 12.8491H19.9741C23.6741 12.8491 26.7491 12.9491 27.1241 13.0991C27.4991 13.2491 27.9241 13.6991 28.1491 14.2491C28.6241 15.3991 29.3991 15.3491 29.3241 14.1241C29.2991 13.1741 28.6741 12.3991 27.5741 11.9491C26.4241 11.4491 13.9741 11.4741 12.8491 11.9491ZM31.6741 17.3491C33.3991 18.1241 34.3491 20.1991 33.7741 21.9241C33.6241 22.3741 33.0991 23.1241 32.6241 23.5991C31.9241 24.2991 31.5241 24.4491 30.3741 24.5491C29.1991 24.6491 28.8491 24.5741 28.0241 24.0241C25.4741 22.3241 25.6991 18.8241 28.4991 17.3991C29.8491 16.7241 30.3241 16.7241 31.6741 17.3491ZM28.6241 27.3491L30.0741 28.0991L31.3491 27.4991C33.8241 26.2991 35.4991 26.3991 36.8991 27.8741C37.6241 28.6241 37.6241 28.6491 37.6991 32.1241L37.7991 35.5991H36.7741H35.7741L35.6991 32.7991C35.6241 30.3491 35.5741 29.9741 35.1991 29.8991C34.7991 29.8241 34.7491 30.0741 34.7491 32.6991V35.5991H30.1241H25.5241L25.4491 32.7991C25.3741 30.1741 25.3491 29.9741 24.8741 29.9741C24.3991 29.9741 24.3741 30.1741 24.2991 32.7741L24.2241 35.5991H23.3741H22.4991V32.2741C22.4991 28.5491 22.7491 27.7741 24.2741 27.0241C25.5741 26.3741 26.9991 26.4991 28.6241 27.3491Z" fill="#253073"/>
<path d="M14.7241 18.1741C14.5241 18.6241 14.2991 18.7491 13.8491 18.6491C13.3741 18.5741 13.2491 18.6491 13.2491 19.0241C13.2491 19.5991 13.9741 20.3491 14.5241 20.3491C14.9741 20.3491 16.0491 18.6991 15.9491 18.1491C15.8241 17.4741 15.0491 17.4991 14.7241 18.1741Z" fill="#253073"/>
<path d="M16.5245 18.5741C16.3245 18.6991 16.2495 18.9741 16.3245 19.1991C16.4495 19.5491 16.9745 19.5991 19.7245 19.5991C22.9995 19.5991 23.5995 19.4491 22.9995 18.7241C22.7495 18.4241 22.0245 18.3491 19.7745 18.3491C18.1745 18.3491 16.7245 18.4491 16.5245 18.5741Z" fill="#253073"/>
<path d="M14.6241 22.0741C14.5241 22.3991 14.3241 22.4991 13.8741 22.3991C13.3491 22.2991 13.2491 22.3741 13.2491 22.9241C13.2491 23.4491 14.0991 24.3491 14.6241 24.3491C14.8491 24.3491 15.9991 22.3741 15.9991 21.9741C15.9991 21.4241 14.8241 21.4991 14.6241 22.0741Z" fill="#253073"/>
<path d="M16.3498 22.9741C16.0748 23.6991 16.5248 23.8491 18.9748 23.8491C21.3998 23.8491 22.0998 23.6241 21.8248 22.9491C21.6248 22.4241 16.5498 22.4491 16.3498 22.9741Z" fill="#253073"/>
<path d="M14.6988 25.8241C14.4988 26.0991 14.1238 26.2991 13.8738 26.2741C13.1238 26.1991 13.0738 27.1991 13.7988 27.6991C14.0988 27.9241 14.4488 28.0991 14.5488 28.0991C14.8488 28.0991 15.9988 26.2741 15.9988 25.7991C15.9988 25.1991 15.1238 25.2241 14.6988 25.8241Z" fill="#253073"/>
<path d="M16.349 26.7246C16.074 27.4246 16.599 27.6246 18.399 27.5496C19.924 27.4746 20.124 27.4246 20.124 26.9746C20.124 26.5246 19.924 26.4746 18.299 26.3996C16.824 26.3496 16.474 26.3996 16.349 26.7246Z" fill="#253073"/>
<path d="M14.7491 29.8491C14.5991 30.1491 14.2241 30.3491 13.8741 30.3491C13.4241 30.3491 13.2491 30.4991 13.2491 30.7991C13.2491 31.3491 13.9991 32.0991 14.5241 32.0991C14.9991 32.0991 16.0991 30.1991 15.8991 29.7241C15.6991 29.1991 15.0491 29.2741 14.7491 29.8491Z" fill="#253073"/>
<path d="M16.2491 31.0991C16.2491 31.5491 16.4241 31.5991 18.2491 31.5991C20.0741 31.5991 20.2491 31.5491 20.2491 31.0991C20.2491 30.6491 20.0741 30.5991 18.2491 30.5991C16.4241 30.5991 16.2491 30.6491 16.2491 31.0991Z" fill="#253073"/>
</svg>
