<svg width="58" height="57" viewBox="0 0 58 57" fill="none" xmlns="http://www.w3.org/2000/svg">
<g filter="url(#filter0_d_1_533)">
<circle cx="28.9699" cy="27.3266" r="24.1815" fill="white"/>
<path d="M17.9534 15.6003C17.7181 15.718 17.4592 16.2593 17.3886 16.7536L17.2238 17.6951H15.9057C15.1761 17.6951 14.4465 17.8128 14.2817 17.9775C14.0699 18.1893 13.9993 20.8255 13.9993 28.4043C13.9993 37.9602 14.0228 38.5957 14.4229 38.9488C14.8231 39.3018 16.1882 39.3489 29.1099 39.3489C42.5964 39.3489 43.3731 39.3253 43.7262 38.9252C44.0792 38.5251 44.1263 37.4659 44.1263 28.3808C44.1263 20.8255 44.0557 18.1893 43.8439 17.9775C43.6791 17.8128 42.9495 17.6951 42.2198 17.6951H40.9018L40.737 16.7536C40.431 14.753 37.7714 14.9413 37.7714 16.989V17.6951H35.912H34.0761L33.9114 16.7536C33.6054 14.753 30.9457 14.9413 30.9457 16.989V17.6951H29.0628H27.1798V16.989C27.1798 14.9413 24.5202 14.753 24.2142 16.7536L24.0495 17.6951H22.2136H20.3542V16.989C20.3542 15.718 19.0361 14.9648 17.9534 15.6003ZM19.1303 17.8128C19.0361 19.3662 18.6125 19.6486 18.5183 18.1893C18.4242 17.036 18.5654 16.5182 18.942 16.5182C19.1067 16.5182 19.1774 16.989 19.1303 17.8128ZM25.9559 18.0717C25.9089 18.7072 25.7912 19.225 25.65 19.225C25.3911 19.225 25.2028 17.3656 25.4146 16.8007C25.6735 16.0946 26.0265 16.9184 25.9559 18.0717ZM32.7816 18.0717C32.7345 18.7072 32.6168 19.225 32.4756 19.225C32.2167 19.225 32.0284 17.3656 32.2402 16.8007C32.4991 16.0946 32.8522 16.9184 32.7816 18.0717ZM39.5366 17.8834C39.5366 19.5309 39.0894 19.4603 38.9953 17.7892C38.9482 16.7771 38.9953 16.4947 39.2307 16.5653C39.419 16.6359 39.5366 17.1067 39.5366 17.8834ZM17.5533 19.3897C18.0005 20.3783 18.5183 20.6842 19.3421 20.4018C19.7893 20.237 20.0717 19.9075 20.2365 19.3897L20.4483 18.6365H22.2371C23.9788 18.6365 24.0024 18.6601 24.3554 19.3897C24.8262 20.4018 25.344 20.6842 26.1678 20.4018C26.615 20.237 26.8974 19.9075 27.0622 19.3897L27.274 18.6365H29.0863H30.8987L31.0634 19.3662C31.3929 20.849 33.4406 20.8725 33.8643 19.3897L34.0761 18.6365H35.8884H37.7243L37.8655 19.3426C38.148 20.8255 40.1015 20.8961 40.6193 19.4603C40.8782 18.7542 41.043 18.6365 41.6785 18.6365C43.0907 18.6365 43.1848 18.7778 43.1848 20.543V22.1671H29.0628H14.9407V20.6842C14.9407 18.9661 15.1761 18.6365 16.3529 18.6365C17.0826 18.6365 17.2473 18.7542 17.5533 19.3897ZM43.1378 30.5697L43.0671 38.0544H29.0628H15.0584L14.9878 30.5697L14.9407 23.1085H29.0628H43.1848L43.1378 30.5697Z" fill="#253073"/>
<path d="M16.3536 27.2038C16.3536 29.6516 16.4242 30.1459 16.7302 30.2636C16.942 30.3342 18.566 30.4048 20.3548 30.4048C22.8262 30.4048 23.65 30.3342 23.8618 30.0753C24.0501 29.8634 24.1207 28.8514 24.0736 27.0861L24.003 24.4029L20.1901 24.3323L16.3536 24.2852V27.2038ZM22.9439 27.345V29.2279H20.1195H17.295V27.345V25.4621H20.1195H22.9439V27.345Z" fill="#253073"/>
<path d="M20.5884 26.5213C19.8588 27.2745 19.7646 27.3216 19.388 26.9685C18.9173 26.5449 18.2347 26.6861 18.2347 27.1804C18.2347 27.5334 19.4351 28.7573 19.7882 28.7573C20.2354 28.7573 22.0477 26.6861 21.9535 26.2624C21.8359 25.5799 21.4357 25.6505 20.5884 26.5213Z" fill="#253073"/>
<path d="M25.2268 24.4502C24.9209 24.7326 25.0385 29.8165 25.3445 30.1225C25.7447 30.5226 32.382 30.5226 32.7821 30.1225C33.0881 29.8165 33.1823 25.3681 32.9234 24.662C32.8057 24.3325 32.2408 24.2854 29.0869 24.2854C27.0392 24.2854 25.2975 24.356 25.2268 24.4502ZM31.8877 27.3452V29.2281H29.0633H26.2389V27.3452V25.4622H29.0633H31.8877V27.3452Z" fill="#253073"/>
<path d="M27.65 26.3566C27.65 26.5919 27.7676 26.8979 27.9324 27.0627C28.1442 27.2745 28.1442 27.4157 27.9324 27.6276C27.5087 28.0512 27.5794 28.7573 28.0736 28.7573C28.309 28.7573 28.615 28.6396 28.7797 28.4749C28.9916 28.2631 29.1328 28.2631 29.3446 28.4749C29.5094 28.6396 29.8153 28.7573 30.0507 28.7573C30.545 28.7573 30.6156 28.0512 30.1919 27.6276C29.9801 27.4157 29.9801 27.2745 30.1919 27.0627C30.3567 26.8979 30.4744 26.5919 30.4744 26.3566C30.4744 25.8623 29.7683 25.7917 29.3446 26.2154C29.1328 26.4272 28.9916 26.4272 28.7797 26.2154C28.3561 25.7917 27.65 25.8623 27.65 26.3566Z" fill="#253073"/>
<path d="M34.1708 24.4505C33.8648 24.733 33.9825 29.8169 34.2885 30.1229C34.5945 30.4289 40.667 30.5465 41.3966 30.2641C41.7026 30.1464 41.7732 29.6521 41.7732 27.2043V24.2858H38.0544C36.0067 24.2858 34.2414 24.3564 34.1708 24.4505ZM40.8317 27.3455V29.2285H38.0073H35.1829V27.3455V25.4626H38.0073H40.8317V27.3455Z" fill="#253073"/>
<path d="M38.3612 26.4272C37.6786 27.0156 37.4903 27.0862 37.0667 26.8744C36.0546 26.333 35.7486 27.3922 36.6665 28.2395C36.9725 28.522 37.3726 28.7573 37.5609 28.7573C38.0317 28.7573 39.8911 26.8508 39.8911 26.3566C39.8911 25.674 39.2085 25.6975 38.3612 26.4272Z" fill="#253073"/>
<path d="M16.3998 34.1001L16.4704 37.1128H20.2363H24.0021V34.1707V31.2286L20.1657 31.158L16.3292 31.1109L16.3998 34.1001ZM22.943 34.1707V36.0536H20.1186H17.2942V34.1707V32.2878H20.1186H22.943V34.1707Z" fill="#253073"/>
<path d="M20.4707 33.4645C19.8823 34.0764 19.7646 34.1235 19.341 33.8175C18.7996 33.4409 18.2347 33.6057 18.2347 34.147C18.2347 34.6413 19.1762 35.5828 19.6705 35.5828C20.1412 35.5828 22.0006 33.6528 22.0006 33.1585C22.0006 32.523 21.2239 32.6877 20.4707 33.4645Z" fill="#253073"/>
<path d="M25.2038 31.4874C24.9449 32.1935 25.039 36.642 25.345 36.948C25.7451 37.3481 32.3825 37.3481 32.7826 36.948C33.0886 36.642 33.1827 32.1935 32.9238 31.4874C32.712 30.9225 25.4156 30.9225 25.2038 31.4874ZM31.8882 34.1706V36.0536H29.0638H26.2394V34.1706V32.2877H29.0638H31.8882V34.1706Z" fill="#253073"/>
<path d="M29.4148 33.4645C28.8263 34.0764 28.7087 34.1235 28.285 33.8175C27.7437 33.4409 27.1788 33.6057 27.1788 34.147C27.1788 34.6413 28.1202 35.5828 28.6145 35.5828C29.0852 35.5828 30.9447 33.6528 30.9447 33.1585C30.9447 32.523 30.1679 32.6877 29.4148 33.4645Z" fill="#253073"/>
<path d="M34.0989 31.4169C34.0518 31.5817 34.0283 32.9468 34.0518 34.4296L34.1224 37.1128H37.8883H41.6542L41.7248 34.1001L41.7954 31.1109H38.006C35.111 31.1109 34.1931 31.1815 34.0989 31.4169ZM40.8304 34.1707V36.0536H38.006H35.1816V34.1707V32.2878H38.006H40.8304V34.1707Z" fill="#253073"/>
<path d="M36.594 33.1816C36.594 33.417 36.7117 33.723 36.8764 33.8877C37.0883 34.0996 37.0883 34.2408 36.8764 34.4526C36.7117 34.6174 36.594 34.9234 36.594 35.1587C36.594 35.653 37.3001 35.7236 37.7238 35.2999C37.9356 35.0881 38.0768 35.0881 38.2886 35.2999C38.7123 35.7236 39.4184 35.653 39.4184 35.1587C39.4184 34.9234 39.3007 34.6174 39.136 34.4526C38.9241 34.2408 38.9241 34.0996 39.136 33.8877C39.3007 33.723 39.4184 33.417 39.4184 33.1816C39.4184 32.6874 38.7123 32.6168 38.2886 33.0404C38.0768 33.2522 37.9356 33.2522 37.7238 33.0404C37.3001 32.6168 36.594 32.6874 36.594 33.1816Z" fill="#253073"/>
</g>
<defs>
<filter id="filter0_d_1_533" x="0.78833" y="0.14502" width="56.3631" height="56.363" filterUnits="userSpaceOnUse" color-interpolation-filters="sRGB">
<feFlood flood-opacity="0" result="BackgroundImageFix"/>
<feColorMatrix in="SourceAlpha" type="matrix" values="0 0 0 0 0 0 0 0 0 0 0 0 0 0 0 0 0 0 127 0" result="hardAlpha"/>
<feOffset dy="1"/>
<feGaussianBlur stdDeviation="2"/>
<feComposite in2="hardAlpha" operator="out"/>
<feColorMatrix type="matrix" values="0 0 0 0 0 0 0 0 0 0 0 0 0 0 0 0 0 0 0.25 0"/>
<feBlend mode="normal" in2="BackgroundImageFix" result="effect1_dropShadow_1_533"/>
<feBlend mode="normal" in="SourceGraphic" in2="effect1_dropShadow_1_533" result="shape"/>
</filter>
</defs>
</svg>
