<svg width="58" height="57" viewBox="0 0 58 57" fill="none" xmlns="http://www.w3.org/2000/svg">
<g filter="url(#filter0_d_1_549)">
<circle cx="29.0504" cy="28.3266" r="24.1815" fill="white"/>
</g>
<path d="M21.2341 15.3335C18.981 16.1429 18.281 19.1179 19.9873 20.8022C20.7748 21.5897 21.431 21.8304 22.7216 21.7647C23.6841 21.6991 23.8373 21.7647 24.3404 22.421L24.9091 23.121L24.1216 23.9304C23.181 24.9147 22.7216 25.8335 22.5248 27.0147C22.3716 27.9116 22.3716 27.9116 21.4091 27.9116C20.5779 27.9116 20.3373 27.8022 19.7248 27.146C18.806 26.1835 17.7779 26.096 16.7716 26.9491C16.2248 27.4085 16.0935 27.671 16.0935 28.3929C16.0935 29.5304 16.3998 30.0772 17.2748 30.4272C18.281 30.8647 19.4623 30.5147 19.9654 29.6616C20.2935 29.0929 20.4685 29.0054 21.3654 29.0054C22.3716 29.0054 22.3935 29.0272 22.5466 29.8147C22.7435 30.9522 23.2248 31.8272 24.1435 32.7679L24.9091 33.5772L24.3404 34.4522C23.7935 35.2835 23.7279 35.3272 23.0716 35.0866C22.1529 34.7585 20.6435 34.9772 19.856 35.546C19.0029 36.1366 18.3904 37.6897 18.5654 38.7835C18.8498 40.446 20.2716 41.5616 22.0654 41.5397C24.3841 41.496 25.9154 39.046 24.9966 36.8366C24.6904 36.0929 24.6904 36.0054 25.2154 35.1522C25.806 34.1241 25.7404 34.146 26.9216 34.5835C28.081 34.9991 29.5248 34.9991 30.9466 34.5616C32.1935 34.1897 32.1935 34.1897 32.8935 35.3491C33.2873 36.0272 33.3091 36.1804 33.0466 36.6616C32.5873 37.471 32.631 39.221 33.1341 40.0304C34.031 41.4741 36.2404 41.9991 37.7498 41.1241C39.8279 39.8772 39.806 36.6397 37.706 35.3491C36.9185 34.8679 35.3654 34.7585 34.6873 35.1304C34.3154 35.3272 34.1841 35.2179 33.681 34.4741L33.1123 33.5991L33.7904 32.8116C34.5341 31.9804 35.2341 30.6241 35.4529 29.596C35.5623 29.0491 35.6498 29.0054 36.6123 29.0054C37.5091 29.0054 37.6841 29.0929 38.0123 29.6397C38.4935 30.4929 39.7185 30.8647 40.7248 30.4272C41.5998 30.0772 41.906 29.5304 41.906 28.3929C41.906 27.671 41.7748 27.4085 41.2279 26.9491C40.2216 26.096 39.1935 26.1835 38.2748 27.146C37.6623 27.8022 37.4216 27.9116 36.5685 27.9116C35.606 27.9116 35.5841 27.8897 35.431 27.0804C35.2341 26.0304 34.6216 24.8272 33.7904 23.8647L33.1123 23.0991L33.6373 22.3991C34.1404 21.7647 34.2716 21.6991 35.2998 21.7647C36.5248 21.8304 37.3341 21.5022 38.1873 20.6054C38.931 19.796 39.0623 17.6304 38.4279 16.6022C37.1591 14.5679 33.6373 14.721 32.631 16.8429C32.1498 17.871 32.1935 19.3366 32.7185 20.2116C33.2654 21.0866 33.2654 21.1085 32.631 21.8522L32.1279 22.4866L30.9685 22.1366C29.481 21.6991 28.1904 21.6991 26.8779 22.1366L25.8498 22.4866L25.2591 21.7647L24.6685 21.0429L25.1279 20.4304C25.3904 20.0804 25.6091 19.3804 25.6748 18.6804C25.7404 17.7179 25.6748 17.3897 25.2373 16.7772C24.231 15.2897 22.8091 14.7866 21.2341 15.3335ZM23.3123 16.4272C24.9091 17.2585 25.0841 19.1616 23.6623 20.2991C22.5685 21.196 20.4685 20.3866 20.1404 18.9429C19.9435 18.0679 20.556 16.8866 21.4091 16.4491C22.2841 16.0116 22.5248 16.0116 23.3123 16.4272ZM37.1154 16.8866C37.8373 17.5866 38.0123 18.396 37.6404 19.2929C36.6998 21.5241 33.3748 20.9554 33.3748 18.5491C33.3748 16.4272 35.606 15.4429 37.1154 16.8866ZM28.3873 23.4272C28.3435 23.7335 28.4091 24.1054 28.5404 24.2804C28.7154 24.4991 28.7373 24.6304 28.5623 24.7397C28.4529 24.8054 28.3435 25.4616 28.3435 26.1616C28.3435 26.9272 28.2341 27.4741 28.081 27.5179C27.731 27.6491 27.7748 29.0054 28.1466 29.246C28.6279 29.5522 29.5685 29.4866 29.8748 29.1147C30.0279 28.9179 30.5091 28.7866 30.9904 28.7866C31.6904 28.7866 31.8435 28.721 31.8435 28.3491C31.8435 27.9991 31.6904 27.9116 31.0341 27.9116C29.831 27.9116 29.4373 27.4304 29.4373 25.8991C29.4373 25.0679 29.3498 24.6304 29.1748 24.6304C28.9779 24.6304 28.9779 24.5647 29.1748 24.3679C29.3279 24.2147 29.4373 23.821 29.4373 23.4929C29.4373 22.771 29.481 22.771 30.8154 23.2304C32.1716 23.6897 33.6591 25.1772 34.1185 26.5335C34.5779 27.846 34.5779 27.8022 33.7685 27.8022C33.1779 27.8022 33.0248 27.8897 32.981 28.2835C32.9154 28.721 33.0029 28.7866 33.681 28.7866C34.5779 28.7866 34.5779 28.8085 34.1185 30.1647C33.6591 31.521 32.1716 33.0085 30.8154 33.4679C29.4591 33.9272 29.4373 33.9272 29.4373 33.0304C29.4373 32.3522 29.3716 32.2647 28.956 32.3304C28.5404 32.3741 28.4529 32.5272 28.4529 33.1179C28.4529 33.796 28.431 33.8179 27.7966 33.6866C26.1123 33.3366 24.5373 32.0022 23.8591 30.3835C23.356 29.1585 23.4216 28.7866 24.1654 28.7866C24.5373 28.7866 24.8873 28.6772 24.9529 28.5679C25.1716 28.2179 24.6248 27.6929 24.056 27.6929C23.4435 27.6929 23.3998 27.3866 23.8591 26.3147C24.4935 24.8054 25.8716 23.5804 27.4685 23.0772C28.3873 22.8147 28.4966 22.8585 28.3873 23.4272ZM18.7404 27.6929C19.331 28.021 19.2654 28.9179 18.631 29.3335C17.6466 29.9897 16.6404 28.896 17.3404 27.9335C17.6904 27.4304 18.106 27.3647 18.7404 27.6929ZM40.6591 27.9335C41.0529 28.4804 40.8998 29.1585 40.331 29.4647C39.3466 29.9897 38.2529 28.2835 39.2373 27.7147C39.8279 27.3647 40.331 27.4304 40.6591 27.9335ZM23.181 36.3335C24.7998 37.4054 24.2529 40.0304 22.3279 40.5116C21.5623 40.7085 20.3154 40.0522 19.9216 39.2866C18.8935 37.2741 21.2998 35.1085 23.181 36.3335ZM37.5529 36.6397C38.4279 37.5366 38.4498 38.7835 37.5529 39.7679C36.1966 41.2991 33.8123 40.2929 33.8123 38.171C33.8123 36.2022 36.1529 35.2397 37.5529 36.6397Z" fill="#253073"/>
<defs>
<filter id="filter0_d_1_549" x="0.868896" y="0.14502" width="56.363" height="56.363" filterUnits="userSpaceOnUse" color-interpolation-filters="sRGB">
<feFlood flood-opacity="0" result="BackgroundImageFix"/>
<feColorMatrix in="SourceAlpha" type="matrix" values="0 0 0 0 0 0 0 0 0 0 0 0 0 0 0 0 0 0 127 0" result="hardAlpha"/>
<feOffset/>
<feGaussianBlur stdDeviation="2"/>
<feComposite in2="hardAlpha" operator="out"/>
<feColorMatrix type="matrix" values="0 0 0 0 0 0 0 0 0 0 0 0 0 0 0 0 0 0 0.25 0"/>
<feBlend mode="normal" in2="BackgroundImageFix" result="effect1_dropShadow_1_549"/>
<feBlend mode="normal" in="SourceGraphic" in2="effect1_dropShadow_1_549" result="shape"/>
</filter>
</defs>
</svg>
