<svg width="70" height="70" viewBox="0 0 70 70" fill="none" xmlns="http://www.w3.org/2000/svg">
<g clip-path="url(#clip0_1_381)">
<rect opacity="0.2" x="0.903503" y="0.513184" width="68.6214" height="68.6214" rx="34.3107" fill="#253073"/>
<g clip-path="url(#clip1_1_381)">
<path d="M14.1444 21.7033C13.2265 22.1806 12.7859 23.3924 13.1163 24.6775C13.2632 25.265 13.7405 25.6689 14.6585 25.9627C16.2741 26.44 17.2288 26.0728 17.7429 24.7509C18.2202 23.5392 17.853 22.6213 16.7148 22.0705C15.1726 21.2994 15.0257 21.2994 14.1444 21.7033Z" fill="#253073"/>
<path d="M53.4696 21.9236C52.1478 22.6213 51.7806 23.5025 52.2579 24.7509C52.772 26.0728 53.7267 26.44 55.3423 25.9627C56.7743 25.522 57.2884 24.5306 56.8845 22.9884C56.7376 22.3275 55.1954 21.1158 54.7181 21.2994C54.6814 21.2994 54.1306 21.5931 53.4696 21.9236Z" fill="#253073"/>
<path d="M14.5114 43.7713C12.5653 44.3955 12.3817 47.1494 14.2543 47.9939C15.4293 48.5447 17.7059 47.5166 17.7793 46.415C17.8895 45.0931 17.7059 44.5791 16.9348 43.9181C16.0903 43.2205 16.1637 43.2205 14.5114 43.7713Z" fill="#253073"/>
<path d="M53.066 43.9184C51.6339 45.1301 51.8542 46.9294 53.5433 47.7739C54.5714 48.288 55.012 48.3247 55.7464 47.9942C57.4355 47.2231 57.4355 44.3223 55.7831 43.8817C55.3058 43.7715 54.6449 43.588 54.3878 43.4778C54.0941 43.3676 53.5066 43.5512 53.066 43.9184Z" fill="#253073"/>
<path d="M28.8317 34.0778C26.4817 39.6958 26.3715 39.9895 27.0325 39.9895C27.3262 39.9895 27.8403 39.3286 28.2075 38.5208L28.8684 37.052H31.145H33.4215L34.009 38.5575C34.4864 39.8059 35.2575 40.3567 35.4778 39.6223C35.6247 39.1083 31.4754 29.7083 31.1082 29.7083C30.8879 29.7083 29.8598 31.6543 28.8317 34.0778ZM32.7606 35.6567C32.7973 35.8403 32.0629 35.9504 31.145 35.9504C30.227 35.9504 29.4926 35.8036 29.4926 35.62C29.4926 35.4364 29.8598 34.5184 30.3004 33.527L31.0715 31.7278L31.9161 33.5637C32.3934 34.5551 32.7606 35.5098 32.7606 35.6567Z" fill="#253073"/>
<path d="M36.9101 30.1486C37.0203 30.4057 37.5343 30.6627 38.0484 30.7361L39.0398 30.8463V34.8486V38.851L38.0484 38.9611C37.5343 39.0346 37.0203 39.2916 36.9101 39.5486C36.8 39.9158 37.4242 39.9893 39.664 39.9158C42.5281 39.8057 43.6296 39.1814 41.3531 38.9611L40.1414 38.851V34.8486V30.8463L41.3164 30.7361C41.9406 30.6627 42.5281 30.4057 42.6382 30.1486C42.7484 29.8182 42.014 29.708 39.7742 29.708C37.5343 29.708 36.8 29.8182 36.9101 30.1486Z" fill="#253073"/>
<path d="M31.586 12.083C30.2641 12.8174 27.9508 14.8737 27.6204 15.608C27.5469 15.7916 27.0696 16.5627 26.5923 17.2971C25.8946 18.4721 25.5274 18.6924 24.4258 18.7291C23.6548 18.7659 22.9571 18.7659 22.7735 18.7291C22.0391 18.619 17.8165 19.9041 17.0087 20.5284C16.1274 21.226 16.0907 21.226 16.7883 21.7401C17.4126 22.2174 17.6696 22.1807 18.7712 21.5565C19.9829 20.8955 24.7196 20.1612 24.7196 20.6752C24.7196 20.7854 24.3891 22.1073 23.9485 23.576C23.5446 25.008 23.1407 26.5869 23.0673 27.0276C22.9571 27.7252 17.9266 33.0127 17.3391 33.0127C16.7883 33.0127 15.4298 28.9369 15.4665 27.4315C15.4665 26.844 15.3563 26.4033 15.1727 26.4033C14.9891 26.4033 14.5852 26.2932 14.2548 26.183C13.7407 25.9627 13.6673 26.183 13.7407 27.7252C13.7774 28.7166 13.961 29.708 14.1079 29.9284C14.2915 30.1487 14.4751 30.626 14.5485 31.0299C14.7321 31.8744 15.393 33.3432 15.9805 34.1877C16.3477 34.6651 16.2008 35.2158 15.1727 37.2354C13.704 40.0994 13.1532 43.9549 14.218 43.551C14.5852 43.4041 14.9891 43.294 15.0993 43.294C15.2462 43.294 15.393 42.8166 15.4298 42.1924C15.5399 40.5033 16.2008 38.4104 16.9352 37.4924L17.5962 36.6479L20.3868 39.4385C22.8102 41.8619 23.2141 42.4127 23.4712 43.9549C23.7649 45.7908 23.8383 46.158 23.9852 46.3049C24.0219 46.3783 24.0954 46.6721 24.1688 46.9658C24.2423 47.2596 24.4258 47.9205 24.5727 48.3979C24.8298 49.2791 24.8298 49.2791 22.6266 49.0955C21.4149 48.9854 19.7993 48.5448 18.9915 48.1408C17.743 47.5166 17.4493 47.4799 16.8618 47.9205C16.4579 48.2143 16.2008 48.4713 16.311 48.5448C18.3673 50.1604 21.0477 51.0049 24.1688 51.0049C25.454 51.0049 25.8212 51.1518 26.0048 51.7393C26.1149 52.1432 26.4087 52.4737 26.5923 52.4737C26.7758 52.4737 26.9227 52.6205 26.9227 52.8408C26.9227 53.2448 28.0977 54.7135 29.493 56.0721C31.9532 58.4588 35.3313 58.9729 38.379 57.4307C39.4438 56.8799 40.5821 56.1823 40.8758 55.8518C42.0141 54.5666 43.7032 52.2533 43.9235 51.6291C44.0704 51.1885 44.5844 51.0049 45.5391 50.9682C48.6235 50.858 51.7813 50.0869 53.0298 49.1323C53.911 48.4713 53.911 48.4713 53.2133 47.9573C52.5524 47.4799 52.3321 47.5166 51.0837 48.1408C50.3126 48.5448 48.6602 48.9854 47.4118 49.0955C45.1719 49.2791 45.1719 49.2424 45.429 48.3979C45.5758 47.9205 45.7227 47.333 45.7594 47.1494C45.8329 46.9291 45.943 46.5987 46.0532 46.4151C46.1633 46.1948 46.4938 45.0565 46.7508 43.8815C47.2282 41.8987 47.5219 41.4213 49.9454 39.0713L52.6258 36.4276L53.5438 38.3737C54.0579 39.4752 54.4985 41.0174 54.5719 41.8252C54.6087 42.633 54.7555 43.294 54.9024 43.294C55.0126 43.294 55.3798 43.4041 55.7102 43.5143C56.4813 43.808 56.518 41.7885 55.7469 39.6588C55.4532 38.851 55.3063 38.1533 55.3798 38.1533C55.4532 38.1533 55.1227 37.5658 54.6454 36.8315C53.6173 35.326 53.5071 34.408 54.2048 33.6737C54.9024 32.9393 56.2977 28.6065 56.2977 27.1744C56.2977 26.2198 56.1876 25.9994 55.7102 26.183C55.3798 26.2932 55.0126 26.4033 54.829 26.4033C54.6821 26.4033 54.5352 26.844 54.5352 27.3948C54.5352 28.8268 54.2415 29.8916 53.3602 31.7643L52.5891 33.3432L49.8352 30.5159C48.3298 28.9737 47.118 27.4682 47.118 27.2112C47.118 26.9541 46.9712 26.4401 46.7876 26.0729C46.5673 25.7057 46.3469 25.0448 46.2735 24.5307C46.1266 23.6494 45.9063 22.9885 45.2454 21.2994L44.8782 20.4182L47.3751 20.6385C48.7337 20.7487 50.4227 21.1158 51.0469 21.4463C52.1485 21.9971 53.7274 21.9237 53.7274 21.3362C53.6907 20.308 48.7704 18.6924 45.5758 18.6924C44.5477 18.6924 44.0704 18.5088 43.9235 18.0315C43.7766 17.701 43.4829 17.2237 43.2993 17.0033C43.079 16.7463 42.3079 15.7916 41.6102 14.8737C39.2235 11.7526 34.5235 10.4674 31.586 12.083ZM37.6446 13.8088C39.1133 14.5432 42.3446 17.8846 42.3446 18.6924C42.3446 18.8393 41.6837 19.0596 40.8391 19.2065C39.9946 19.3534 38.4157 19.7573 37.2774 20.1612C35.2579 20.8588 33.9727 20.8221 31.6962 19.9041C31.1454 19.6838 30.9618 19.6471 28.9055 19.2432C27.3633 18.9862 27.5837 18.1783 29.8235 15.8284C32.6508 12.8541 34.7438 12.3401 37.6446 13.8088ZM31.0719 21.4463L32.6141 21.9237L31.1454 22.5846C30.3376 22.9885 29.6399 23.3924 29.5665 23.5393C29.493 23.7229 29.1993 23.833 28.9423 23.833C28.6485 23.833 28.2079 24.0533 27.9508 24.3104C27.4001 24.8244 25.5641 26.0362 25.3071 26.0362C25.0501 26.0362 26.0048 22.2541 26.5188 21.3362C26.9962 20.4182 27.7305 20.4549 31.0719 21.4463ZM44.1805 23.0252C44.9883 26.2565 45.0251 26.1096 43.7032 25.4487C43.079 25.1182 42.3446 24.6041 42.0508 24.3471C41.7938 24.0533 41.3165 23.833 41.0227 23.833C40.729 23.833 40.5087 23.6494 40.5087 23.4659C40.5087 23.2455 40.3985 23.1354 40.2516 23.1721C40.068 23.1721 39.4071 22.9518 38.7094 22.658C37.5344 22.1073 37.4977 22.0705 38.1954 21.7034C38.5993 21.483 39.7376 21.1893 40.729 21.0424C41.7204 20.9323 42.6016 20.7487 42.6751 20.6752C43.0423 20.308 43.7766 21.4463 44.1805 23.0252ZM39.0032 24.3838C41.1329 25.5221 43.5563 26.9909 44.3641 27.6518L45.8329 28.9002L45.943 34.151C46.0165 37.1619 45.9063 39.8791 45.686 40.4299C45.2454 41.5682 42.2344 43.6979 38.0118 45.8276L34.9641 47.3698L31.0352 45.3135C28.8688 44.1752 26.4454 42.7065 25.6376 42.0455L24.1688 40.7971V34.8487V28.9002L25.6376 27.6518C26.7758 26.6971 34.3399 22.401 34.9641 22.3643C35.0376 22.3643 36.8368 23.2823 39.0032 24.3838ZM22.443 34.8487V39.2916L21.4516 38.2268C18.6243 35.1424 18.404 34.7752 18.9915 34.151C19.3219 33.8205 20.1665 32.8659 20.9376 32.0213C21.7087 31.1768 22.3696 30.4791 22.3696 30.4424C22.4063 30.4424 22.443 32.4252 22.443 34.8487ZM51.1938 35.0323C49.9087 36.758 48.0727 38.8877 47.8524 38.8877C47.7055 38.8877 47.5954 36.9783 47.5587 34.6283L47.5219 30.369L49.5048 32.4987C50.5696 33.6737 51.3407 34.8119 51.1938 35.0323ZM26.0782 44.0651C26.5923 44.5791 27.9876 45.3869 28.8688 45.7174C29.1993 45.8276 29.493 46.0846 29.493 46.2315C29.493 46.3783 30.154 46.7088 30.9618 46.9658C32.6876 47.5166 32.5407 47.7737 30.2274 48.3979C26.7024 49.3158 26.7024 49.3158 25.8579 46.8557C24.9032 44.0651 25.0133 43.0002 26.0782 44.0651ZM44.768 44.469C44.6212 44.9463 44.4376 45.7174 44.3274 46.1948C44.0337 47.6268 43.1157 49.0955 42.6383 49.0221C39.1501 48.3244 37.5712 47.9205 37.5712 47.7369C37.5712 47.6268 38.4157 47.1494 39.4071 46.6721C40.3985 46.2315 42.0141 45.3502 42.9688 44.7627C45.0251 43.4408 45.0618 43.4408 44.768 44.469ZM39.0399 49.9033C40.7657 50.344 42.2344 50.7846 42.3079 50.858C42.5282 51.0783 41.2063 52.9143 39.7743 54.3096C39.0399 55.044 37.6813 55.9252 36.7266 56.2924C34.5235 57.1002 32.6508 56.6596 30.668 54.7502C29.236 53.3549 27.4735 51.0416 27.6938 50.858C27.7673 50.7846 29.236 50.3807 30.9251 49.9401C32.6141 49.5362 34.1196 49.0955 34.2298 48.9487C34.4868 48.7283 34.8173 48.8018 39.0399 49.9033Z" fill="#253073"/>
<path d="M31.5112 24.4942C27.5455 26.6239 24.8283 28.57 24.5713 29.4512C24.3143 30.4793 24.3143 39.1817 24.5713 40.2465C24.9385 41.5684 33.1635 46.5989 34.9994 46.5989C36.8354 46.5989 45.0604 41.5684 45.4276 40.2465C45.7213 39.1817 45.6846 30.4793 45.4276 29.4512C45.0604 28.0559 36.7619 23.0989 34.8158 23.0989C34.4119 23.0989 32.9432 23.7231 31.5112 24.4942ZM33.9346 34.4817C35.0729 37.1989 35.9174 39.659 35.844 39.8793C35.4401 40.9075 34.2651 40.3567 33.6776 38.8879C33.0901 37.4192 33.0901 37.4192 31.0705 37.4192C29.0877 37.4192 29.051 37.4192 28.5002 38.8879C27.9127 40.32 26.8846 40.834 26.3705 39.9528C26.2237 39.7692 27.0682 37.2723 28.2432 34.445C31.0338 27.7622 31.1073 27.7622 33.9346 34.4817ZM42.894 29.7083C43.2612 30.2958 42.3432 31.177 41.3885 31.177C40.5072 31.177 40.5072 31.2137 40.5072 34.8489C40.5072 38.484 40.5072 38.5208 41.3885 38.5208C42.3432 38.5208 43.2612 39.402 42.894 39.9895C42.7838 40.1731 41.3151 40.3567 39.5526 40.3567C36.5049 40.3567 36.4315 40.32 36.5416 39.5122C36.6151 38.9247 36.9455 38.6676 37.6799 38.5942L38.6713 38.484V34.8489V31.2137L37.6799 31.1036C36.9455 31.0301 36.6151 30.7731 36.5416 30.1489C36.4315 29.3778 36.5049 29.3411 39.5526 29.3411C41.3151 29.3411 42.7838 29.5247 42.894 29.7083Z" fill="#253073"/>
<path d="M30.5198 33.9675C29.9323 35.3995 29.9323 35.3995 30.8502 35.5096C32.1354 35.6932 32.2455 35.4362 31.6213 33.894L31.0705 32.5354L30.5198 33.9675Z" fill="#253073"/>
</g>
</g>
<defs>
<clipPath id="clip0_1_381">
<rect width="68.6214" height="68.6214" fill="white" transform="translate(0.904053 0.512939)"/>
</clipPath>
<clipPath id="clip1_1_381">
<rect width="47" height="47" fill="white" transform="translate(11.4998 11.3489)"/>
</clipPath>
</defs>
</svg>
