<svg width="70" height="69" viewBox="0 0 70 69" fill="none" xmlns="http://www.w3.org/2000/svg">
<g clip-path="url(#clip0_1_347)">
<rect opacity="0.2" x="0.903519" y="0.153564" width="68.6214" height="68.6214" rx="34.3107" fill="#253073"/>
<path d="M42.7506 18.4747C42.4068 19.0059 42.0006 19.0997 39.9381 19.0997C37.7193 19.0997 37.5006 19.1622 37.5006 19.7247C37.5006 20.2872 37.7193 20.3497 39.9381 20.3497C42.0006 20.3497 42.4068 20.4434 42.7506 20.9747C43.1881 21.6934 45.2506 21.8497 45.8756 21.2247C46.3756 20.7247 46.3756 18.7247 45.8756 18.2247C45.2506 17.5997 43.1881 17.7559 42.7506 18.4747Z" fill="#253073"/>
<path d="M16.6264 18.8506C16.0952 19.3818 16.0952 43.1943 16.6264 43.7256C16.9077 44.0068 19.0014 44.1006 24.1264 44.1006H31.2514V46.6006V49.1006H30.0014H28.7514V50.9756V52.8506H35.0014H41.2514V50.9756V49.1006H40.0014H38.7514V46.6006V44.1006H45.8764C51.0014 44.1006 53.0952 44.0068 53.3764 43.7256C53.6264 43.4756 53.7514 42.1006 53.7514 39.6631V35.9756H45.0014H36.2514V27.2256V18.4756H26.6264C19.5639 18.4756 16.9077 18.5693 16.6264 18.8506ZM35.0014 20.9756V22.2256H26.2514H17.5014V21.3506C17.5014 19.7568 17.6264 19.7256 26.6264 19.7256H35.0014V20.9756ZM35.0014 30.3506V37.2256H43.7514H52.5014V39.6631C52.5014 41.1318 52.3452 42.2568 52.1264 42.4756C51.5952 43.0068 18.4077 43.0068 17.8764 42.4756C17.5952 42.1943 17.5014 39.6006 17.5014 32.7881V23.4756H26.2514H35.0014V30.3506ZM34.3764 45.3506C34.3764 46.3818 34.4702 46.6006 35.0014 46.6006C35.5327 46.6006 35.6264 46.3818 35.6264 45.3506C35.6264 44.1631 35.6889 44.1006 36.5639 44.1006H37.5014V46.6006V49.1006H35.0014H32.5014V46.6006V44.1006H33.4389C34.3139 44.1006 34.3764 44.1631 34.3764 45.3506ZM40.0014 50.9756C40.0014 51.5693 39.7827 51.6006 35.0014 51.6006C30.2202 51.6006 30.0014 51.5693 30.0014 50.9756C30.0014 50.3818 30.2202 50.3506 35.0014 50.3506C39.7827 50.3506 40.0014 50.3818 40.0014 50.9756Z" fill="#253073"/>
<path d="M18.1256 20.9756C18.1256 21.3818 18.3443 21.6006 18.7506 21.6006C19.1568 21.6006 19.3756 21.3818 19.3756 20.9756C19.3756 20.5693 19.1568 20.3506 18.7506 20.3506C18.3443 20.3506 18.1256 20.5693 18.1256 20.9756Z" fill="#253073"/>
<path d="M20.0006 20.9756C20.0006 21.3818 20.2193 21.6006 20.6256 21.6006C21.0318 21.6006 21.2506 21.3818 21.2506 20.9756C21.2506 20.5693 21.0318 20.3506 20.6256 20.3506C20.2193 20.3506 20.0006 20.5693 20.0006 20.9756Z" fill="#253073"/>
<path d="M21.8756 20.9756C21.8756 21.3818 22.0943 21.6006 22.5006 21.6006C22.9068 21.6006 23.1256 21.3818 23.1256 20.9756C23.1256 20.5693 22.9068 20.3506 22.5006 20.3506C22.0943 20.3506 21.8756 20.5693 21.8756 20.9756Z" fill="#253073"/>
<path d="M30.0006 26.2881V27.8506H28.7506H27.5006V29.1006V30.3506H26.2506H25.0006V31.9131V33.4756H23.7506H22.5006V34.7256V35.9756H21.2506H20.0006V37.2256C20.0006 38.2568 19.9068 38.4756 19.3756 38.4756C18.9693 38.4756 18.7506 38.6943 18.7506 39.1006C18.7506 39.7256 18.9693 39.7256 27.5006 39.7256C36.0318 39.7256 36.2506 39.7256 36.2506 39.1006C36.2506 38.5693 36.0318 38.4756 35.0006 38.4756H33.7506V31.6006V24.7256H31.8756H30.0006V26.2881ZM32.5006 32.2256C32.5006 38.2568 32.4693 38.4756 31.8756 38.4756C31.2818 38.4756 31.2506 38.2568 31.2506 32.2256C31.2506 26.1943 31.2818 25.9756 31.8756 25.9756C32.4693 25.9756 32.5006 26.1943 32.5006 32.2256ZM30.0006 33.7881C30.0006 38.2568 29.9693 38.4756 29.3756 38.4756C28.7818 38.4756 28.7506 38.2568 28.7506 33.7881C28.7506 29.3193 28.7818 29.1006 29.3756 29.1006C29.9693 29.1006 30.0006 29.3193 30.0006 33.7881ZM27.5006 35.0381C27.5006 38.2568 27.4693 38.4756 26.8756 38.4756C26.2818 38.4756 26.2506 38.2568 26.2506 35.0381C26.2506 31.8193 26.2818 31.6006 26.8756 31.6006C27.4693 31.6006 27.5006 31.8193 27.5006 35.0381ZM25.0006 36.6006C25.0006 38.2568 24.9381 38.4756 24.3756 38.4756C23.8131 38.4756 23.7506 38.2568 23.7506 36.6006C23.7506 34.9443 23.8131 34.7256 24.3756 34.7256C24.9381 34.7256 25.0006 34.9443 25.0006 36.6006ZM22.5006 37.8506C22.5006 38.2568 22.2818 38.4756 21.8756 38.4756C21.4693 38.4756 21.2506 38.2568 21.2506 37.8506C21.2506 37.4443 21.4693 37.2256 21.8756 37.2256C22.2818 37.2256 22.5006 37.4443 22.5006 37.8506Z" fill="#253073"/>
<path d="M37.5006 39.1006C37.5006 39.5068 37.7193 39.7256 38.1256 39.7256C38.5318 39.7256 38.7506 39.5068 38.7506 39.1006C38.7506 38.6943 38.5318 38.4756 38.1256 38.4756C37.7193 38.4756 37.5006 38.6943 37.5006 39.1006Z" fill="#253073"/>
<path d="M50.2506 19.0997C50.0006 19.4747 49.5006 19.7247 49.0318 19.7247C48.3756 19.7247 47.7818 20.1934 46.5631 21.6309L44.9068 23.5059L43.9381 22.5684C42.9693 21.6309 42.8443 21.5997 40.2193 21.5997C37.7193 21.5997 37.5006 21.6622 37.5006 22.2247C37.5006 22.7872 37.7193 22.8497 39.7818 22.8497C42.0318 22.8497 42.0631 22.8809 43.2818 24.0997C44.4068 25.2559 44.6256 25.3497 46.2506 25.3497C47.6256 25.3497 48.0631 25.4747 48.3756 25.9747C48.8131 26.6934 50.8756 26.8497 51.5006 26.2247C52.0006 25.7247 52.0006 23.7247 51.5006 23.2247C50.8756 22.5997 48.8443 22.7559 48.3131 23.5059C48.0631 23.8497 47.6256 24.0997 47.3131 24.0372C46.8756 23.9747 46.9693 23.6934 48.0006 22.4747C49.3756 20.8184 49.6881 20.6934 50.2506 21.5997C50.6881 22.3184 52.7506 22.4747 53.3756 21.8497C53.8756 21.3497 53.8756 19.3497 53.3756 18.8497C52.7506 18.2247 50.6881 18.3809 50.2506 19.0997Z" fill="#253073"/>
<path d="M37.5006 25.3506C37.5006 25.9131 37.7193 25.9756 39.7818 25.9756C42.2818 25.9756 43.1256 26.4443 43.1256 27.7881C43.1256 28.3818 42.9381 28.4756 41.8756 28.4756C40.9693 28.4756 40.5318 28.6318 40.2506 29.1006C39.9693 29.5381 39.5006 29.7256 38.6881 29.7256C37.7193 29.7256 37.5006 29.8506 37.5006 30.3506C37.5006 30.8506 37.7193 30.9756 38.6881 30.9756C39.5006 30.9756 39.9693 31.1631 40.2506 31.6006C40.5318 32.0381 40.9693 32.2256 41.8131 32.2256C43.2193 32.2256 43.7506 31.7881 43.7506 30.6006C43.7506 29.7881 43.8443 29.7256 44.9381 29.7256C46.4068 29.7256 46.8756 29.2881 46.8756 27.8506C46.8756 26.4756 46.4068 25.9756 45.1568 25.9756C44.5631 25.9756 43.9381 25.7256 43.5943 25.3506C43.0943 24.8193 42.6256 24.7256 40.2506 24.7256C37.7193 24.7256 37.5006 24.7881 37.5006 25.3506Z" fill="#253073"/>
<path d="M48.5006 28.2256C48.2818 28.4443 48.1256 29.0381 48.1256 29.5693C48.1256 30.1631 47.7818 31.0068 47.2818 31.6943L46.4068 32.8193L41.9693 32.8506C37.7193 32.8506 37.5006 32.8818 37.5006 33.4756C37.5006 34.0693 37.7193 34.1006 42.4693 34.1006H47.4381L48.4381 32.8506C49.1568 31.9443 49.6568 31.6006 50.2818 31.6006C50.7506 31.6006 51.2818 31.4443 51.5006 31.2256C52.0006 30.7256 52.0006 28.7256 51.5006 28.2256C51.0006 27.7256 49.0006 27.7256 48.5006 28.2256Z" fill="#253073"/>
</g>
<defs>
<clipPath id="clip0_1_347">
<rect width="68.6214" height="68.6214" fill="white" transform="translate(0.90406 0.15332)"/>
</clipPath>
</defs>
</svg>
