<svg width="70" height="69" viewBox="0 0 70 69" fill="none" xmlns="http://www.w3.org/2000/svg">
<g clip-path="url(#clip0_1_367)">
<rect opacity="0.2" x="0.903503" y="0.311768" width="68.6214" height="68.6214" rx="34.3107" fill="#253073"/>
<g clip-path="url(#clip1_1_367)">
<path d="M40.3123 16.5373C39.9685 16.881 39.6873 17.4435 39.6873 17.756C39.6873 18.506 38.7498 18.8498 37.4998 18.5685C36.7498 18.4123 36.4373 18.5373 35.781 19.2248C34.8435 20.256 34.781 21.1935 35.6248 22.256C35.9685 22.6935 36.2498 23.1935 36.2498 23.381C36.2498 23.5998 33.3123 23.7248 27.4685 23.7873L18.6873 23.881L18.0935 24.631C17.531 25.3185 17.4998 26.006 17.4998 36.256V47.1623H16.7498C15.2185 47.1623 14.9998 47.4123 14.9998 49.381C14.9998 51.506 15.5623 52.3185 17.2498 52.631C17.8123 52.7248 24.406 52.756 31.8748 52.7248L45.4685 52.631L45.5623 51.9435L45.656 51.2248H31.4685C18.1248 51.2248 17.2498 51.1935 16.781 50.6623C16.4685 50.3498 16.2498 49.7873 16.2498 49.4123C16.2498 48.7248 16.281 48.7248 23.4373 48.7248C29.4685 48.7248 30.6248 48.7873 30.6248 49.1623C30.6248 50.3185 31.4998 50.5998 34.9998 50.5998C38.4998 50.5998 39.3748 50.3185 39.3748 49.1623C39.3748 48.7873 40.531 48.7248 46.5623 48.7248H53.7498V49.4435C53.7498 50.8498 52.8748 51.2248 49.7185 51.2248C46.906 51.2248 46.8435 51.256 46.9373 51.9123C47.031 52.5685 47.2185 52.631 49.3748 52.7248C53.9998 52.9123 54.9998 52.3185 54.9998 49.381C54.9998 47.4123 54.781 47.1623 53.2498 47.1623H52.4998V38.5373V29.9435L51.8123 30.0373L51.0935 30.131L50.9373 38.5685L50.781 47.006H34.9998H19.2185V36.2248V25.4435L27.1248 25.3498C33.9373 25.2873 34.9998 25.3498 34.9998 25.756C34.9998 26.131 33.906 26.2248 27.4373 26.2873L19.8435 26.381V33.0998V39.8185L20.5623 39.9123L21.2498 40.006V33.9123V27.7873H25.9373C28.531 27.7873 30.6248 27.8498 30.6248 27.9123C30.6248 28.006 30.406 28.2873 30.1248 28.5373C29.781 28.9123 29.3123 28.9748 28.3748 28.8498C27.281 28.6623 27.031 28.7248 26.531 29.381C25.7498 30.4123 25.7498 32.0373 26.5623 32.4748C27.3748 32.9123 27.3748 33.7873 26.5623 34.506C25.8435 35.131 25.7498 36.131 26.3123 37.2873C26.7185 38.2248 27.4998 38.5373 28.7185 38.256C29.7185 38.0373 30.6248 38.6935 30.6248 39.6623C30.6248 40.4123 31.531 40.9123 32.781 40.9123C33.8123 40.9123 34.6873 40.2248 34.6873 39.381C34.6873 38.4435 35.4373 38.0685 36.781 38.2873C37.8748 38.4435 38.0935 38.381 38.6873 37.631C39.531 36.5373 39.5623 35.256 38.7498 34.506C38.406 34.1935 38.1248 33.6935 38.1248 33.4123C38.1248 33.131 38.406 32.631 38.7498 32.3185C39.4998 31.631 39.531 30.881 38.8748 29.5998C38.406 28.7248 38.281 28.6623 37.031 28.7873C35.7498 28.9435 34.6873 28.631 34.6873 28.131C34.6873 27.8185 38.9998 27.9435 39.3123 28.256C39.406 28.3498 39.656 28.881 39.8435 29.4435C40.1248 30.381 40.2498 30.4435 41.7185 30.4435C43.2185 30.4435 43.3123 30.381 43.8435 29.256C44.1248 28.631 44.4685 28.0998 44.6248 28.0998C44.7498 28.0998 45.7185 28.0373 46.8123 27.9748L48.7498 27.8498V36.4123V44.9748H34.9998H21.2498V43.0685C21.2498 41.2873 21.2185 41.1935 20.5623 41.2873C19.906 41.381 19.8435 41.5685 19.7498 43.506C19.6873 44.8185 19.8123 45.8185 20.031 46.0998C20.5623 46.756 49.4373 46.756 49.9685 46.0998C50.2185 45.8185 50.3123 42.881 50.2498 36.0373L50.156 26.381L49.4685 26.2873C49.0623 26.2248 48.7498 25.9748 48.7498 25.7248C48.7498 25.381 49.031 25.2873 49.781 25.3498C50.7498 25.4435 50.781 25.506 50.9373 27.006C51.0623 28.3185 51.1873 28.5685 51.8123 28.6623C52.4373 28.756 52.4998 28.6623 52.4998 27.0685C52.4998 24.5685 51.906 23.9435 49.2498 23.7873C47.031 23.631 46.7185 23.3185 47.8123 22.3185C48.7185 21.506 48.8435 20.7248 48.2185 19.6623C47.6248 18.631 47.6248 18.631 45.656 18.5998C44.3748 18.5685 44.2498 18.4748 43.9373 17.5373C43.7498 16.9748 43.3748 16.381 43.1248 16.2248C42.3435 15.7248 40.9685 15.881 40.3123 16.5373ZM42.4998 18.2248C42.4998 19.3498 43.906 20.3498 45.3748 20.2248C46.906 20.131 47.406 20.5998 46.5623 21.381C45.781 22.0998 45.6873 24.6935 46.406 25.2873C46.656 25.506 46.8748 25.881 46.8748 26.131C46.8748 26.506 46.656 26.5685 45.9373 26.4123C44.531 26.1623 42.8748 27.0373 42.5623 28.2248C42.2185 29.5685 41.406 29.631 41.0623 28.3498C40.656 26.9748 39.0935 26.0373 37.8435 26.4748C36.6248 26.9123 36.2498 26.131 37.1873 25.131C38.031 24.256 38.031 22.381 37.1873 21.5373C36.2498 20.5998 36.6873 20.006 38.0935 20.1935C39.5935 20.4123 40.8123 19.6623 41.0935 18.381C41.3435 17.1935 42.4998 17.0685 42.4998 18.2248ZM33.3748 28.6935C33.781 29.8498 35.3435 30.7248 36.5623 30.4435C37.7498 30.1935 37.9998 30.7248 37.2185 31.7248C36.3748 32.8185 36.3748 34.4748 37.2185 35.3185C38.156 36.256 37.781 36.8498 36.4373 36.631C35.0623 36.4123 33.8435 37.131 33.3748 38.4435C32.9998 39.5373 32.0935 39.5685 31.9373 38.506C31.781 37.3498 30.3435 36.4435 28.9685 36.631C27.4998 36.8185 27.1248 36.1935 28.0935 35.1623C28.9373 34.2873 28.9373 32.7873 28.0935 31.7248C27.281 30.6935 27.5623 30.2248 28.8435 30.4435C30.0623 30.6623 31.8748 29.6623 31.8748 28.7873C31.8748 27.4748 32.9373 27.4435 33.3748 28.6935ZM36.4998 48.9435C35.656 49.006 34.3435 49.006 33.531 48.9435C32.6873 48.881 33.3748 48.8498 34.9998 48.8498C36.6248 48.8498 37.3123 48.881 36.4998 48.9435Z" fill="#253073"/>
<path d="M40.4679 20.2566C39.4367 20.6941 38.7179 21.7253 38.5617 23.0066C38.1554 26.1003 41.9679 27.9441 44.1867 25.7253C46.7492 23.1628 43.8429 18.8816 40.4679 20.2566ZM43.1242 22.1628C44.2804 23.3191 43.9367 23.7253 41.8742 23.7253C40.2179 23.7253 39.9992 23.6628 39.9992 23.1316C39.9992 22.4441 41.0929 21.5378 41.9367 21.5378C42.2492 21.5378 42.7804 21.8191 43.1242 22.1628Z" fill="#253073"/>
<path d="M30.281 31.1948C29.5623 31.9136 29.3748 32.3823 29.3748 33.4136C29.3748 35.0386 29.781 35.7886 30.9373 36.3824C33.6248 37.7574 36.3123 35.8199 35.8435 32.8511C35.5623 31.2261 34.406 30.2886 32.6248 30.2886C31.4685 30.2886 31.031 30.4761 30.281 31.1948ZM34.2185 32.9136C34.6873 34.2886 33.5623 35.5386 32.1248 35.1948C30.5623 34.7886 30.4373 32.4448 31.9373 31.8823C32.9373 31.5073 33.8435 31.9136 34.2185 32.9136Z" fill="#253073"/>
</g>
</g>
<defs>
<clipPath id="clip0_1_367">
<rect width="68.6214" height="68.6214" fill="white" transform="translate(0.904053 0.311523)"/>
</clipPath>
<clipPath id="clip1_1_367">
<rect width="40" height="40" fill="white" transform="translate(14.9998 14.3506)"/>
</clipPath>
</defs>
</svg>
