<svg width="70" height="69" viewBox="0 0 70 69" fill="none" xmlns="http://www.w3.org/2000/svg">
<g clip-path="url(#clip0_1_404)">
<rect opacity="0.2" x="0.903564" y="0.0131836" width="68.6214" height="68.6214" rx="34.3107" fill="#253073"/>
<g clip-path="url(#clip1_1_404)">
<path d="M18.7701 18.1197L17.9998 18.89V34.3493V49.8087L18.7701 50.579L19.5404 51.3493H27.881C38.6654 51.3493 37.9216 51.9072 37.9216 43.7525V38.5993H37.2576H36.5935V42.1853V45.7712H27.9607H19.3279V33.8181V21.865H27.9607H36.5935V23.4587C36.5935 24.9728 36.6201 25.0525 37.2576 25.0525C37.9216 25.0525 37.9216 25.0525 37.9216 22.4228C37.9216 19.5275 37.7357 18.7572 36.8326 17.9072C36.2482 17.3759 35.9826 17.3493 27.881 17.3493H19.5404L18.7701 18.1197ZM36.0091 18.9962C36.1419 19.1822 36.3544 19.6072 36.4341 19.9259L36.6201 20.5368H27.9873C19.6201 20.5368 19.3279 20.5103 19.3279 20.0322C19.3279 19.74 19.5138 19.315 19.7529 19.1025C20.0982 18.7306 21.2138 18.6775 27.9341 18.6775C33.8576 18.6775 35.7966 18.7572 36.0091 18.9962ZM36.5138 48.1618C36.2482 50.1009 36.6201 50.0212 27.9341 50.0212C19.2216 50.0212 19.3279 50.0478 19.3279 48.1353V47.0993H27.9873H36.6732L36.5138 48.1618Z" fill="#253073"/>
<path d="M25.9685 48.5603C25.9685 49.1978 26.0216 49.2244 27.8279 49.2244C29.6341 49.2244 29.6873 49.1978 29.6873 48.5603C29.6873 47.9228 29.6341 47.8962 27.8279 47.8962C26.0216 47.8962 25.9685 47.9228 25.9685 48.5603Z" fill="#253073"/>
<path d="M43.3404 17.8541C41.1357 18.8634 39.6216 21.5197 39.8341 24.0166L39.9138 25.1587L37.2576 26.3009L34.6013 27.4166L33.8044 26.54C32.6623 25.265 31.6263 24.6275 29.8466 24.1228C25.0388 22.715 20.1248 26.4869 20.1248 31.5337C20.1248 33.3931 20.5232 34.615 21.5857 36.1556C22.3294 37.2447 22.4623 37.6431 22.3294 38.4134C22.2232 39.1306 22.3294 39.4494 22.8873 40.0869C23.2857 40.5119 23.8701 41.2822 24.1888 41.7603C24.5076 42.265 25.1716 42.9291 25.6498 43.1947C26.7123 43.8322 28.7576 43.8587 29.8732 43.3009C30.7232 42.8494 32.0779 41.415 32.0779 40.9369C32.0779 40.8041 32.3966 40.4322 32.7685 40.1134C33.3529 39.6619 33.4326 39.4228 33.3529 38.4931C33.2466 37.6431 33.3794 37.2181 33.8576 36.5806L34.4951 35.7306L37.1513 36.8728L39.8341 38.015L39.9138 39.8478C39.9669 41.9462 40.4185 42.9822 41.9326 44.4166L42.9685 45.4525V48.4009C42.9685 50.0212 43.0216 51.3494 43.1013 51.3494C43.181 51.3494 43.8716 51.0306 44.6154 50.6587L45.9966 49.9681L47.4044 50.6587L48.8123 51.3494V48.3744V45.4259L49.8748 44.4962C51.4154 43.1947 51.9998 41.8931 51.9998 39.8744C51.9732 36.1556 49.5826 33.765 45.8638 33.7916C43.8185 33.7916 41.7201 34.8806 40.8966 36.3681C40.6576 36.7931 40.3654 36.7134 37.9482 35.6775L35.2388 34.5353L35.4248 33.3134C35.6638 31.7994 35.6638 31.6134 35.4513 29.9666L35.2654 28.6384L37.9216 27.5494L40.5779 26.4337L41.1357 27.2041C42.3841 28.9572 45.3857 29.94 47.6169 29.3025C49.1044 28.8775 50.8576 27.39 51.4951 26.0087C52.531 23.7244 51.9466 20.5103 50.2466 18.89C48.5732 17.3228 45.5185 16.8712 43.3404 17.8541ZM47.8294 19.0494C52.0529 20.8556 51.3357 27.1509 46.7669 28.1072C44.6419 28.5322 41.9857 26.7791 41.3748 24.5478C41.0029 23.1666 41.2154 22.0509 42.0654 20.7494C43.2341 18.9431 45.8107 18.1728 47.8294 19.0494ZM30.2982 25.7166C31.4404 26.1947 32.8748 27.3634 32.8748 27.8416C32.8748 28.0275 32.5294 28.3197 32.1044 28.5056C31.5466 28.7181 31.3873 28.9572 31.4669 29.3291C31.6794 30.0994 31.9716 30.1791 32.9013 29.7009C33.3529 29.4619 33.7779 29.3291 33.8841 29.4087C34.1232 29.6744 34.2826 32.4103 34.0966 33.1806C33.9638 33.7119 33.8044 33.8447 33.406 33.7119C33.1138 33.6322 32.6357 33.4728 32.3701 33.3931C32.0248 33.2869 31.7591 33.4197 31.5466 33.7916C31.281 34.2962 31.3607 34.4025 32.2107 34.7744L33.1669 35.1728L32.4498 36.0759C31.7857 36.9525 31.6529 37.0056 30.1919 37.0056H28.6248V35.4384C28.6248 34.0837 28.7044 33.8181 29.2623 33.4462C30.5373 32.6228 30.3779 30.2322 28.9966 29.5947C27.3232 28.8509 25.6763 29.7806 25.6232 31.5337C25.5966 32.3572 25.756 32.7025 26.4466 33.3134C27.2169 34.0041 27.2966 34.2166 27.2966 35.5447V37.0056H25.6498C23.9763 36.9791 23.9763 36.9791 23.0732 35.8103C21.0544 33.1275 20.9216 30.4447 22.7013 27.8947C23.7904 26.3275 25.7294 25.3181 27.7216 25.3181C28.6248 25.3181 29.7669 25.5041 30.2982 25.7166ZM28.6248 31.1884C28.9966 31.8791 28.5185 32.5431 27.7216 32.4369C27.0841 32.3306 26.8451 31.5603 27.2966 31.0291C27.7482 30.4712 28.2794 30.5244 28.6248 31.1884ZM47.8294 35.5181C50.406 36.6072 51.4419 39.7681 50.0076 42.1853C48.3873 44.9478 44.9341 45.3994 42.6763 43.1416C40.9763 41.4416 40.7373 39.2634 42.0654 37.2181C43.2341 35.4119 45.8107 34.6416 47.8294 35.5181ZM32.0779 38.7322C32.0779 39.0775 31.4404 39.1306 27.9873 39.1306C24.2419 39.1306 23.2857 38.9978 23.7638 38.4931C23.8435 38.4134 25.756 38.3337 28.0138 38.3337C31.4404 38.3337 32.0779 38.3869 32.0779 38.7322ZM30.4841 40.99C30.0857 41.7072 28.8373 42.3181 27.7216 42.3181C26.8451 42.3181 25.1716 41.2556 25.1716 40.6978C25.1716 40.565 26.4201 40.4587 27.9607 40.4587C30.6701 40.4587 30.7498 40.4853 30.4841 40.99ZM47.4841 47.4447C47.4841 48.8525 47.431 48.9853 47.0326 48.7994C46.4216 48.5603 45.6248 48.5603 45.0404 48.7994C44.6154 48.9853 44.5623 48.8525 44.5623 47.4447V45.8775H46.0232H47.4841V47.4447Z" fill="#253073"/>
<path d="M45.3593 19.9525C45.3593 20.2447 45.1202 20.6697 44.8281 20.9353C43.739 21.9181 44.2968 23.6447 45.864 24.1228C46.3421 24.2556 46.3952 24.3884 46.1562 24.6009C45.8906 24.84 45.7843 24.84 45.7046 24.5744C45.6249 24.415 45.2796 24.2556 44.9343 24.2556C44.1374 24.2556 44.0577 25.1322 44.8281 25.7697C45.1202 26.0353 45.3593 26.5134 45.3593 26.8322C45.3593 27.3103 45.5187 27.4431 46.0234 27.4431C46.5281 27.4431 46.6874 27.3103 46.6874 26.8853C46.6874 26.5931 46.9265 26.0353 47.2187 25.6634C47.5109 25.2916 47.7499 24.7072 47.7499 24.3619C47.7499 23.7509 46.6343 22.6619 45.9968 22.6619C45.7843 22.6619 45.6249 22.5556 45.6249 22.4228C45.6249 22.0244 46.1031 21.8119 46.289 22.1306C46.3687 22.2634 46.7406 22.3962 47.1124 22.3962C47.9093 22.3962 47.9624 21.8119 47.2187 21.0681C46.9265 20.7759 46.6874 20.2978 46.6874 20.0056C46.6874 19.6072 46.5015 19.4744 46.0234 19.4744C45.5452 19.4744 45.3593 19.6072 45.3593 19.9525Z" fill="#253073"/>
<path d="M44.3766 37.5369C42.0656 38.9447 43.2344 42.5837 45.9703 42.5837C48.6 42.5572 49.7688 39.7681 47.9094 37.9087C46.8469 36.8462 45.7047 36.7134 44.3766 37.5369ZM46.9531 38.865C47.5906 39.5025 47.6172 40.1134 47.0328 40.7775C46.1828 41.7072 44.5625 41.1228 44.5625 39.8744C44.5625 39.1572 45.3063 38.3337 45.9438 38.3337C46.2094 38.3337 46.661 38.5728 46.9531 38.865Z" fill="#253073"/>
</g>
</g>
<defs>
<clipPath id="clip0_1_404">
<rect width="68.6214" height="68.6214" fill="white" transform="translate(0.904053 0.0129395)"/>
</clipPath>
<clipPath id="clip1_1_404">
<rect width="34" height="34" fill="white" transform="translate(17.9998 17.3489)"/>
</clipPath>
</defs>
</svg>
