<svg width="104" height="105" viewBox="0 0 104 105" fill="none" xmlns="http://www.w3.org/2000/svg">
<g clip-path="url(#clip0_1_926)">
<path d="M10.9454 23.3887H1.98047V83.8044H10.9454V23.3887Z" stroke="#3C4852" stroke-width="3.24816" stroke-miterlimit="10" stroke-linecap="round" stroke-linejoin="round"/>
<path d="M1.98047 23.3843L6.47593 10.5996L10.9454 23.3843" stroke="#3C4852" stroke-width="3.24816" stroke-miterlimit="10" stroke-linecap="round" stroke-linejoin="round"/>
<path d="M1.98047 83.8027V91.6762H10.9454V83.8027" stroke="#3C4852" stroke-width="3.24816" stroke-miterlimit="10" stroke-linecap="round" stroke-linejoin="round"/>
<path d="M101.375 10.7871H20.8203V91.3415H101.375V10.7871Z" stroke="#3C4852" stroke-width="3.24816" stroke-linecap="round" stroke-linejoin="round"/>
<path d="M31.2148 35.4746H57.2001" stroke="#3C4852" stroke-width="3.24816" stroke-linecap="round" stroke-linejoin="round"/>
<path d="M31.2148 44.5684H57.2001" stroke="#3C4852" stroke-width="3.24816" stroke-linecap="round" stroke-linejoin="round"/>
<path d="M31.2148 61.459H77.9884" stroke="#3C4852" stroke-width="3.24816" stroke-linecap="round" stroke-linejoin="round"/>
<path d="M31.2148 71.8535H85.784" stroke="#3C4852" stroke-width="3.24816" stroke-linecap="round" stroke-linejoin="round"/>
<path d="M78.4625 34.1777L72.793 50.4527H75.6278L77.5176 52.3674L83.1871 36.0924" stroke="#3C4852" stroke-width="2.16544" stroke-linecap="round" stroke-linejoin="round"/>
<path d="M90.5078 34.1777L96.1773 50.4527H93.3425L91.4527 52.3674L85.7832 36.0924" stroke="#3C4852" stroke-width="2.16544" stroke-linecap="round" stroke-linejoin="round"/>
<path d="M84.4863 39.373C90.9444 39.373 96.1796 34.1377 96.1796 27.6797C96.1796 21.2216 90.9444 15.9863 84.4863 15.9863C78.0283 15.9863 72.793 21.2216 72.793 27.6797C72.793 34.1377 78.0283 39.373 84.4863 39.373Z" fill="#08BD80"/>
</g>
<defs>
<clipPath id="clip0_1_926">
<rect width="103.944" height="103.944" fill="white" transform="translate(0.0332031 0.392578)"/>
</clipPath>
</defs>
</svg>
