<svg width="40" height="40" viewBox="0 0 40 40" fill="none" xmlns="http://www.w3.org/2000/svg">
<path d="M2.01562 0.148438C1.20312 0.445312 0.609375 0.984375 0.210938 1.79688L0 2.22656V16.25V30.2734L0.226562 30.7422C0.523438 31.3438 1.11719 31.9375 1.71875 32.2344L2.1875 32.4609L7.21094 32.4844C9.96875 32.4922 12.2266 32.5312 12.2266 32.5625C12.2266 32.5938 12.1953 32.7422 12.1562 32.8906C12.1094 33.0391 12.0391 33.3125 12 33.4844C11.9297 33.7344 11.8672 33.8203 11.7188 33.8594C11.4297 33.9297 10.8984 34.4453 10.7344 34.8047C10.6172 35.0547 10.5859 35.3203 10.5859 36.1484C10.5859 37.0859 10.6016 37.2031 10.7422 37.3438C10.8906 37.4922 11 37.5 14.1797 37.5H17.4609V36.875V36.25H14.6484H11.8359V35.9844C11.8359 35.8438 11.875 35.6094 11.9219 35.4688C12.0781 35.0234 12.2422 35 15 35H17.4609V34.375V33.75H15.3828C13.4453 33.75 13.3125 33.7422 13.3516 33.6094C13.375 33.5391 13.4297 33.3203 13.4766 33.125C13.5234 32.9297 13.5781 32.7109 13.6016 32.6328C13.6406 32.5078 13.8047 32.5 15.5547 32.5H17.4609V31.875V31.2578L10.1016 31.2344C2.79688 31.2109 2.73438 31.2109 2.38281 31.0469C1.92969 30.8359 1.61719 30.5234 1.42188 30.0781C1.28906 29.7969 1.25781 29.5156 1.22656 28.6094L1.1875 27.5H9.32812H17.4609V26.875V26.25H9.33594H1.21094L1.22656 14.5078L1.25 2.77344L1.41406 2.42188C1.78906 1.61719 2.30469 1.33594 3.48438 1.27344L4.33594 1.22656V0.617188V0H3.38281C2.64844 0.0078125 2.32812 0.0390625 2.01562 0.148438Z" fill="#040E50"/>
<path d="M5.58594 0.625V1.25H6.25H6.91406V0.625V0H6.25H5.58594V0.625Z" fill="#040E50"/>
<path d="M8.08594 0.625V1.25L22.6797 1.26562L37.2656 1.28906L37.5781 1.45312C38.0078 1.6875 38.3125 2 38.5078 2.42188L38.6719 2.77344V16.2109C38.6719 27.3906 38.6562 29.7031 38.5625 29.9531C38.4375 30.3047 38 30.8203 37.6797 30.9844L37.4609 31.0938L37.4453 21.0391L37.4219 10.9766L37.1953 10.5078C36.8984 9.90625 36.3047 9.3125 35.7031 9.01562L35.2344 8.78906H28.0859H20.9375L20.4688 9.01562C19.8672 9.3125 19.2734 9.90625 18.9766 10.5078L18.75 10.9766V24.375V37.7734L18.9766 38.2422C19.2734 38.8438 19.8672 39.4375 20.4688 39.7344L20.9375 39.9609H28.0859H35.2344L35.7031 39.7344C36.3047 39.4375 36.8984 38.8438 37.1953 38.2422L37.4219 37.7734L37.4609 35.125L37.5 32.4766L37.8281 32.3828C38.5938 32.1562 39.3125 31.5156 39.7109 30.7031L39.9219 30.2734V16.25V2.22656L39.6953 1.75781C39.3984 1.15625 38.8047 0.5625 38.2031 0.265625L37.7344 0.0390625L22.9141 0.015625L8.08594 0V0.625ZM35.0781 10.2031C35.6719 10.5234 36.125 11.1484 36.1328 11.6562V11.875H34.1406C31.8594 11.875 31.8906 11.8672 31.7969 12.5547C31.7188 13.1484 31.5469 13.5625 31.3203 13.6641C31.0781 13.7734 25.1484 13.7891 24.8594 13.6797C24.6406 13.5938 24.4531 13.1562 24.375 12.5547C24.2812 11.8672 24.3125 11.875 22.0312 11.875H20.0391V11.6562C20.0469 10.9688 20.7656 10.2109 21.5625 10.0703C21.7344 10.0391 24.7734 10.0234 28.3203 10.0312C34.7578 10.0391 34.7656 10.0391 35.0781 10.2031ZM23.25 13.6328C23.3281 13.9062 23.5078 14.2422 23.6641 14.4297C24.1719 15.0156 24.0391 15 28.0859 15C32.1328 15 32 15.0156 32.5078 14.4297C32.6641 14.2422 32.8438 13.9062 32.9219 13.6328L33.0703 13.1641L34.6406 13.1406L36.2109 13.125V24.0625V35H28.0859H19.9609V24.0625V13.125L21.5312 13.1406L23.1016 13.1641L23.25 13.6328ZM36.1797 36.7734C36.1094 37.4453 35.9219 37.8594 35.5312 38.2109C34.9531 38.7344 35.2812 38.7109 28.0469 38.7109C21.5391 38.7109 21.4844 38.7109 21.1328 38.5469C20.4297 38.2188 20.0859 37.6797 19.9922 36.7734L19.9375 36.25H28.0859H36.2344L36.1797 36.7734Z" fill="#040E50"/>
<path d="M25.5859 11.875V12.5H28.0859H30.5859V11.875V11.25H28.0859H25.5859V11.875Z" fill="#040E50"/>
<path d="M26.6406 17.6094C24.0547 18.2109 22.1484 20.0156 21.3984 22.5781C21.2812 22.9922 21.25 23.3359 21.25 24.4141C21.2578 25.6562 21.2734 25.7891 21.4766 26.4062C22.2891 28.875 24.2109 30.625 26.6484 31.1328C27.3906 31.2891 28.7891 31.2812 29.5547 31.125C32.1406 30.5937 34.3047 28.4297 34.8359 25.8437C35 25.0547 35 23.5937 34.8359 22.8828C34.2812 20.4297 32.5469 18.5547 30.1172 17.7734C29.5391 17.5859 29.3047 17.5547 28.2812 17.5312C27.4766 17.5078 26.9609 17.5391 26.6406 17.6094ZM29.8984 19.1172C31.5078 19.6719 32.7969 20.9844 33.3828 22.6484C33.5703 23.1875 33.5938 23.3437 33.5938 24.375C33.5938 25.4062 33.5703 25.5625 33.3828 26.1016C32.5625 28.4297 30.5078 29.9219 28.125 29.9219C26.9609 29.9219 26.0547 29.6641 25.125 29.0781C22.4375 27.3906 21.7188 23.7891 23.5391 21.1562C23.875 20.6719 24.6875 19.9219 25.2344 19.5937C26.6016 18.7656 28.3594 18.5859 29.8984 19.1172Z" fill="#040E50"/>
<path d="M28.5391 21.6953L26.8438 23.3906L26.375 22.9453C25.9609 22.5469 25.875 22.5 25.5781 22.5C25.25 22.5 25.2109 22.5312 24.1641 23.5781C23.1016 24.6406 23.0859 24.6562 23.0859 25V25.3438L24.7891 27.0469L26.4922 28.75H26.8359H27.1875L30.1328 25.7969L33.0859 22.8516V22.5C33.0859 22.1562 33.0703 22.1406 32.0078 21.0781C30.4844 19.5547 30.7344 19.5078 28.5391 21.6953ZM31.0547 22.0703L31.4844 22.5L29.1562 24.8281L26.8359 27.1484L25.7656 26.0703L24.6875 25L25.1328 24.5547L25.5781 24.1094L26.0469 24.5547C26.4609 24.9531 26.5469 25 26.8438 25C27.1797 25 27.1953 24.9844 28.8672 23.3203C29.7891 22.3984 30.5625 21.6406 30.5859 21.6406C30.6094 21.6406 30.8203 21.8359 31.0547 22.0703Z" fill="#040E50"/>
<path d="M25.5859 37.5V38.125H28.0859H30.5859V37.5V36.875H28.0859H25.5859V37.5Z" fill="#040E50"/>
<path d="M8.27344 2.60938C8.15625 2.70312 8.11719 2.84375 8.08594 3.35938L8.04688 3.99219L7.55469 4.19531L7.0625 4.39062L6.64062 3.99219C5.97656 3.35938 5.92969 3.375 4.63281 4.67188C3.33594 5.96875 3.32031 6.01562 3.95312 6.67969L4.35156 7.10156L4.15625 7.59375L3.95312 8.08594L3.32031 8.125C2.80469 8.15625 2.66406 8.19531 2.57031 8.3125C2.41406 8.53906 2.41406 11.4609 2.57031 11.6875C2.66406 11.8047 2.80469 11.8438 3.32031 11.875L3.95312 11.9141L4.15625 12.4062L4.35156 12.8984L3.95312 13.3203C3.32031 13.9844 3.33594 14.0312 4.63281 15.3281C5.92969 16.625 5.97656 16.6406 6.64062 16.0078L7.0625 15.6094L7.55469 15.8047L8.04688 16.0078L8.08594 16.6406C8.11719 17.1562 8.15625 17.2969 8.27344 17.3906C8.5 17.5469 11.4219 17.5469 11.6484 17.3906C11.7656 17.2969 11.8047 17.1562 11.8359 16.6406L11.875 16.0078L12.3672 15.8047L12.8594 15.6094L13.2812 16.0078C13.9453 16.6406 13.9922 16.625 15.2891 15.3281C16.5859 14.0312 16.6016 13.9844 15.9688 13.3203L15.5703 12.8984L15.7656 12.4062L15.9688 11.9141L16.6016 11.875C17.1172 11.8438 17.2578 11.8047 17.3516 11.6875C17.5078 11.4609 17.5078 8.53906 17.3516 8.3125C17.2578 8.19531 17.1172 8.15625 16.6016 8.125L15.9688 8.08594L15.7656 7.59375L15.5703 7.10156L15.9688 6.67969C16.6016 6.01562 16.5859 5.96875 15.2891 4.67188C13.9922 3.375 13.9453 3.35938 13.2812 3.99219L12.8594 4.39062L12.3672 4.19531L11.875 3.99219L11.8359 3.35938C11.8047 2.84375 11.7656 2.70312 11.6484 2.60938C11.4219 2.45312 8.5 2.45312 8.27344 2.60938ZM10.5859 4.26562C10.5859 4.54688 10.625 4.84375 10.6641 4.92188C10.7109 5.01562 10.9297 5.125 11.1953 5.20312C11.4375 5.27344 11.9297 5.46875 12.2812 5.64062C13.0234 6 13.125 5.99219 13.6172 5.52344L13.9453 5.20312L14.3516 5.60938L14.7578 6.01562L14.4375 6.34375C13.9688 6.83594 13.9609 6.9375 14.3203 7.67969C14.4922 8.03125 14.6875 8.52344 14.7578 8.76562C14.8359 9.03125 14.9453 9.25 15.0391 9.29688C15.1172 9.33594 15.4141 9.375 15.6953 9.375H16.2109V10V10.625H15.6953C15.4141 10.625 15.1172 10.6641 15.0391 10.7031C14.9453 10.75 14.8359 10.9688 14.7578 11.2344C14.6875 11.4766 14.4922 11.9688 14.3203 12.3203C13.9609 13.0625 13.9688 13.1641 14.4375 13.6562L14.7578 13.9844L14.3516 14.3906L13.9453 14.7969L13.6172 14.4766C13.125 14.0078 13.0234 14 12.2812 14.3594C11.9297 14.5312 11.4375 14.7266 11.1953 14.7969C10.9297 14.875 10.7109 14.9844 10.6641 15.0781C10.625 15.1562 10.5859 15.4531 10.5859 15.7344V16.25H9.96094H9.33594V15.7344C9.33594 15.4531 9.29688 15.1562 9.25781 15.0781C9.21094 14.9844 8.99219 14.875 8.72656 14.7969C8.48438 14.7266 7.99219 14.5312 7.64062 14.3594C6.89844 14 6.79688 14.0078 6.30469 14.4766L5.97656 14.7969L5.57031 14.3906L5.16406 13.9844L5.48438 13.6562C5.95312 13.1641 5.96094 13.0625 5.60156 12.3203C5.42969 11.9688 5.23438 11.4766 5.16406 11.2344C5.08594 10.9688 4.97656 10.75 4.88281 10.7031C4.80469 10.6641 4.50781 10.625 4.22656 10.625H3.71094V10V9.375H4.22656C4.50781 9.375 4.80469 9.33594 4.88281 9.29688C4.97656 9.25 5.08594 9.03125 5.16406 8.76562C5.23438 8.52344 5.42969 8.03125 5.60156 7.67969C5.96094 6.9375 5.95312 6.83594 5.48438 6.34375L5.16406 6.01562L5.57031 5.60938L5.97656 5.20312L6.30469 5.52344C6.79688 5.99219 6.89062 6 7.65625 5.63281C8.02344 5.46094 8.47656 5.27344 8.66406 5.22656C9.22656 5.08594 9.33594 4.92969 9.33594 4.29688V3.75H9.96094H10.5859V4.26562Z" fill="#040E50"/>
<path d="M8.96875 6.98437C8.17969 7.24219 7.48438 7.86719 7.08594 8.67187C6.89062 9.0625 6.875 9.17969 6.875 10C6.875 10.8359 6.89062 10.9297 7.10156 11.3672C7.39844 11.9687 7.99219 12.5625 8.59375 12.8594C9.03125 13.0703 9.125 13.0859 9.96094 13.0859C10.7969 13.0859 10.8906 13.0703 11.3281 12.8594C11.9297 12.5625 12.5234 11.9687 12.8203 11.3672C13.0312 10.9297 13.0469 10.8359 13.0469 10C13.0469 9.16406 13.0312 9.07031 12.8203 8.63281C12.5234 8.03125 11.9297 7.4375 11.3281 7.14844C10.9219 6.94531 10.7656 6.91406 10.0781 6.89844C9.57812 6.88281 9.17969 6.91406 8.96875 6.98437ZM10.7266 8.35156C11.875 8.9375 12.1172 10.4375 11.2031 11.3047C10.0625 12.3828 8.17188 11.5859 8.16406 10.0156C8.16406 9.28906 8.5625 8.65625 9.21875 8.35156C9.64062 8.15625 10.3438 8.15625 10.7266 8.35156Z" fill="#040E50"/>
<path d="M26.2109 3.125V3.75H30.2734H34.3359V3.125V2.5H30.2734H26.2109V3.125Z" fill="#040E50"/>
<path d="M35.5859 3.125V3.75H36.2109H36.8359V3.125V2.5H36.2109H35.5859V3.125Z" fill="#040E50"/>
<path d="M15.1485 16.9844C15.0313 17.0781 14.9922 17.2188 14.961 17.7344L14.9219 18.3672L14.4297 18.5703L13.9376 18.7656L13.5157 18.3672C12.8516 17.7344 12.8047 17.75 11.5079 19.0469C10.211 20.3438 10.1954 20.3906 10.8282 21.0547L11.2266 21.4766L11.0313 21.9688L10.8282 22.4609L10.1954 22.5C9.31256 22.5547 9.336 22.5156 9.336 24.2344V25.625H9.961H10.586V24.6875V23.75H11.1016C11.3829 23.75 11.6797 23.7109 11.7579 23.6719C11.8516 23.625 11.961 23.4062 12.0391 23.1406C12.1094 22.8984 12.3047 22.4062 12.4766 22.0547C12.836 21.3125 12.8282 21.2109 12.3594 20.7188L12.0391 20.3906L12.4454 19.9844L12.8516 19.5781L13.1797 19.8984C13.6719 20.3672 13.7657 20.375 14.5313 20.0078C14.8985 19.8359 15.3516 19.6484 15.5391 19.6016C16.1016 19.4609 16.211 19.3047 16.211 18.6719V18.125H17.1485H18.086V17.5V16.875H16.6954C15.6172 16.875 15.2657 16.8984 15.1485 16.9844Z" fill="#040E50"/>
<path d="M15.7656 21.3984C14.6562 21.8047 13.8281 22.8125 13.7344 23.8984L13.6875 24.375H14.3672H15.0391V24.1562C15.0469 23.4609 15.9141 22.5781 16.6016 22.5781H16.8359V21.9141V21.25H16.5078C16.3203 21.2578 15.9922 21.3203 15.7656 21.3984Z" fill="#040E50"/>
<path d="M2.46094 29.375V30H3.08594H3.71094V29.375V28.75H3.08594H2.46094V29.375Z" fill="#040E50"/>
<path d="M4.96094 29.375V30H6.83594H8.71094V29.375V28.75H6.83594H4.96094V29.375Z" fill="#040E50"/>
</svg>
