<svg width="40" height="40" viewBox="0 0 40 40" fill="none" xmlns="http://www.w3.org/2000/svg">
<path d="M3.5625 3.5625L2.5 4.625V20V35.375L3.5625 36.4375L4.625 37.5H13.75H22.875L23.9375 36.4375L25.0312 35.3438L24.9375 30.25L24.8438 25.1562H23.75H22.6562L22.5 29.625C22.375 33.5938 22.2812 34.1562 21.75 34.5625C21.25 34.9062 19.625 35 13.6875 35C6.65625 35 6.21875 34.9688 5.625 34.375C5.03125 33.7812 5 33.3438 5 20C5 3.75 4.6875 5 8.75 5C11.0312 5 11.25 5.0625 11.25 5.625C11.25 6.65625 12.3438 7.5 13.75 7.5C15.1562 7.5 16.25 6.65625 16.25 5.625C16.25 5.0625 16.4688 5 18.625 5C22.125 5 23.125 5.78125 21.25 7.03125C20.0625 7.8125 18.5625 9.90625 17.9688 11.5938C17.2812 13.5 17.375 16.8125 18.1562 18.875C18.9375 20.9688 20.8438 23.0312 22.9688 24.0625C25.2188 25.1562 28.875 25.3125 31.3125 24.375C33.4688 23.5625 35.5 21.6875 36.5625 19.5312C37.6875 17.2812 37.8125 13.625 36.875 11.1562C35.4375 7.34375 31.8438 5 27.4688 5C25.3438 5 25.25 4.96875 24.0938 3.75L22.9062 2.5H13.7812H4.625L3.5625 3.5625ZM30.4062 8.375L31.625 8.90625L30.9375 9.53125C30.375 10.0312 29.9062 10.125 28 10.0312C25.375 9.9375 24.125 10.3438 22.375 11.875C21.4375 12.7188 21.25 13.0938 21.3125 13.875C21.375 14.6875 21.5625 14.875 22.3125 14.9375C22.9062 15.0312 23.4375 14.8125 24.0312 14.2812C25.0625 13.3125 26.0312 12.8125 26.875 12.8125C27.7812 12.8125 27.375 13.3438 26 13.9375C24.5 14.5625 23.75 15.25 23.75 16.0938C23.75 16.4375 23.2188 17.2812 22.5312 17.9375L21.3438 19.0938L20.8125 17.8125C20.1562 16.125 20.1875 13.5938 20.9062 12.0312C21.5312 10.6562 23.0625 9.09375 24.5312 8.34375C25.8125 7.65625 28.9062 7.6875 30.4062 8.375ZM34.6875 15C34.6875 19.0312 31.5312 22.1875 27.5312 22.1875C26.6562 22.1875 25.375 21.9688 24.6562 21.6875L23.4062 21.1562L24.75 19.7812C26.0312 18.4688 26.0938 18.4375 26.25 19.125C26.4062 19.7188 26.6562 19.8438 27.5 19.8438C28.5312 19.8438 28.5938 19.7812 28.5938 18.75C28.5938 17.875 28.4688 17.6562 27.8438 17.5C27.1562 17.3438 27.1562 17.2812 27.625 16.9062C28.0625 16.5312 28.2188 16.5625 28.7188 17C29.0625 17.3125 29.6875 17.5 30.2188 17.4375C30.9062 17.375 31.125 17.1562 31.1875 16.4688C31.25 15.9375 31.0625 15.3125 30.75 14.9688C30.0625 14.1875 30.4375 13.8125 31.2188 14.5C31.5625 14.8125 32.1875 15 32.7188 14.9375C33.4062 14.875 33.625 14.6562 33.6875 13.9688C33.75 13.4375 33.5625 12.8125 33.25 12.4688C32.8125 11.9688 32.7812 11.8125 33.1562 11.375C33.5312 10.9062 33.625 10.9688 34.125 12.0625C34.4375 12.75 34.6562 14.0312 34.6875 15Z" fill="#040E50"/>
<path d="M10.25 21.4375L7.5 22.8125V26.875V30.9375L10.3125 32.3438C11.8438 33.125 13.4062 33.75 13.75 33.75C14.0938 33.75 15.6562 33.125 17.1875 32.3438L20 30.9375V26.875V22.8125L17.1875 21.4062C15.6562 20.625 14.0625 20 13.6875 20.0312C13.2812 20.0312 11.75 20.6562 10.25 21.4375ZM14.5312 23.1875C15.5 23.625 15.5312 23.875 14.5312 24.3125C13.9375 24.5938 13.5625 24.5938 12.9688 24.3125C12.5312 24.125 12.1875 23.875 12.1875 23.75C12.1875 23.5938 13.0938 23.0312 13.6562 22.8438C13.6875 22.8125 14.0938 22.9688 14.5312 23.1875ZM12.5 28.75V30.3125L11.25 29.6875C10.0312 29.0625 10 29 10 27.5V25.9375L11.25 26.5625C12.4688 27.1875 12.5 27.25 12.5 28.75ZM17.5 27.5C17.5 29 17.4688 29.0625 16.25 29.6875L15 30.3125V28.75C15 27.2812 15.0625 27.1875 16.1875 26.5938C16.8125 26.25 17.375 25.9688 17.4375 25.9375C17.4688 25.9375 17.5 26.625 17.5 27.5Z" fill="#040E50"/>
</svg>
