<svg width="40" height="40" viewBox="0 0 40 40" fill="none" xmlns="http://www.w3.org/2000/svg">
<path d="M15.2812 3.09375C13.25 3.75 10.5312 5.15625 9.8125 5.96875C9.375 6.4375 9.375 6.625 9.6875 7.03125C10.0312 7.46875 10.1875 7.4375 11.0625 6.84375C17.625 2.46875 25 3.0625 30.3438 8.40625C34.9375 13.0312 35.9688 19.25 33.0938 25.2188C32.7188 26.0625 31.3438 27.75 30.0938 29.0312C28.8438 30.2812 27.8125 31.5 27.8125 31.75C27.8125 32.0938 28.5938 32.1875 31.6875 32.1875C35.75 32.1875 36.4062 31.9688 35.5 30.9688C35.2188 30.6562 35 30.25 35 30.0625C35 29.2188 35.625 29.5312 37.1875 31.0938L38.8438 32.75L37.3438 34.3438C35.9062 35.875 35 36.3438 35 35.5625C35 35.375 35.2188 34.9688 35.5 34.6562C35.7812 34.3438 35.9062 33.9375 35.7812 33.7812C35.6562 33.5312 31.1562 33.4375 21.6875 33.4375C8.03125 33.4375 7.8125 33.4375 7.8125 34.0625C7.8125 34.6875 8.03125 34.6875 20.625 34.6875H33.4375V35.5938C33.4375 36.7812 34.1875 37.5 35.4062 37.5C36.1875 37.5 36.75 37.125 38.1875 35.7188C39.7188 34.1875 40 33.75 40 32.8125C40 31.875 39.7188 31.4375 38.1875 29.9062C36.6562 28.375 36.2188 28.125 35.25 28.125C33.9688 28.125 33.4375 28.7188 33.4375 30.125C33.4375 30.875 33.3438 30.9375 32.0625 30.9375H30.6875L31.7812 29.75C35.625 25.5625 37.0312 20.125 35.6562 14.7188C34.875 11.5312 33.9062 9.8125 31.5 7.3125C29.4375 5.15625 26.9688 3.6875 24.2188 2.96875C21.7188 2.34375 17.5 2.375 15.2812 3.09375Z" fill="#040E50"/>
<path d="M16.4688 5.3125C11.2188 6.65625 7.15625 11.4062 6.375 17.1562C6.21875 18.4688 6.25 18.7812 6.6875 18.9375C6.96875 19.0625 7.46875 18.9062 7.78125 18.625C8.4375 18.0312 9.0625 17.9688 9.0625 18.5312C9.0625 19 6.21875 21.875 5.75 21.875C5.3125 21.875 2.5 18.9688 2.5 18.5C2.5 17.9688 3.125 18.0312 3.78125 18.625C4.6875 19.4375 5.1875 18.9688 5.40625 17.125C5.65625 14.7812 6.4375 12.625 7.84375 10.5C8.53125 9.46875 9.03125 8.46875 8.9375 8.21875C8.1875 6.34375 4.6875 11.625 4.15625 15.375C4 16.4375 3.875 16.5625 3.09375 16.5625C1.96875 16.5625 0.9375 17.5625 0.9375 18.6562C0.9375 19.875 4.5625 23.4375 5.78125 23.4375C7 23.4375 10.625 19.875 10.625 18.6562C10.625 17.6562 9.625 16.5625 8.75 16.5625C7.84375 16.5625 7.96875 15.7188 9.21875 13.1875C13.8125 4.03125 26.625 4.34375 31.0312 13.6875C31.9375 15.5625 32.0312 16.0625 32.0312 18.5938C32.0312 21 31.9062 21.6875 31.1875 23.2188C30.7188 24.2188 30.0312 25.4688 29.6562 25.9688C28.625 27.4062 26.1562 29.25 24.1562 30.0312C22.4375 30.7188 21.8125 30.75 11.25 30.9062L0.15625 31.0938V32.8125V34.5312H3.28125C5.84375 34.5312 6.40625 34.4375 6.40625 34.0625C6.40625 33.6875 5.875 33.5625 3.84375 33.5C1.53125 33.4375 1.25 33.3438 1.25 32.8125C1.25 32.25 1.6875 32.2188 12.4062 32.125L23.5938 32.0312L25.7188 31.0312C31.2812 28.375 34.5625 22.2188 33.4688 16.375C32.6562 11.8438 29.7812 8.09375 25.75 6.1875C23.9375 5.34375 23.25 5.1875 20.6562 5.125C19 5.0625 17.125 5.15625 16.4688 5.3125Z" fill="#040E50"/>
<path d="M17.0937 10.75C13.6562 12.0312 11.6875 14.9688 11.75 18.75C11.8125 21.9688 13.125 24.25 15.9062 25.875C17.1562 26.625 17.6562 26.7188 20 26.7188C22.3437 26.7188 22.8437 26.625 24.0937 25.875C26.9375 24.1875 28.2187 21.9688 28.2187 18.5938C28.25 16.8125 28.0937 16.0938 27.4062 14.75C26.8125 13.6562 26.375 13.125 25.9375 13.125C24.9687 13.125 24.9687 13.5312 25.9687 15.4688C26.5312 16.5938 26.875 17.75 26.875 18.5938C26.875 20.4688 25.4687 23.0625 23.8125 24.2188C22.5625 25.0625 22.2187 25.1562 20 25.1562C17.7812 25.1562 17.4375 25.0625 16.1875 24.2188C14.5312 23.0625 13.125 20.4688 13.125 18.5938C13.125 16.7188 14.5312 14.125 16.1875 13C17.8437 11.8438 20.75 11.5312 22.625 12.3125C23.2812 12.5938 23.9375 12.7188 24.0937 12.625C24.6562 12.2812 24.3437 11.3438 23.5312 10.9375C22.2187 10.3438 18.5 10.2188 17.0937 10.75Z" fill="#040E50"/>
<path d="M19.5938 15.5312C19.5001 15.6875 19.3438 17.1562 19.2188 18.8125C19.0001 21.7812 19.0001 21.875 19.6251 21.875C20.0001 21.875 20.3438 21.7812 20.4063 21.625C20.5001 21.5 20.6563 20.0312 20.7813 18.3438C21.0001 15.4062 21.0001 15.3125 20.3751 15.3125C20.0001 15.3125 19.6563 15.4062 19.5938 15.5312Z" fill="#040E50"/>
<path d="M15.375 16.9688C14.6562 17.6875 14.0625 18.4375 14.0625 18.5938C14.0625 19.125 16.6875 21.5625 17.25 21.5625C18.125 21.5625 17.9375 20.5313 16.875 19.5313L15.9375 18.625L16.875 17.6563C17.375 17.125 17.8125 16.4375 17.8125 16.1563C17.8125 15.2188 16.75 15.5938 15.375 16.9688Z" fill="#040E50"/>
<path d="M22.1875 16.1563C22.1875 16.4375 22.625 17.125 23.125 17.6563L24.0625 18.625L23.125 19.5313C22.0938 20.5313 21.875 21.5625 22.7188 21.5625C23.2812 21.5625 25.9375 19.1563 25.9375 18.625C25.9375 18.4375 25.3438 17.6875 24.625 16.9688C23.25 15.5938 22.1875 15.2188 22.1875 16.1563Z" fill="#040E50"/>
</svg>
