<svg width="40" height="40" viewBox="0 0 40 40" fill="none" xmlns="http://www.w3.org/2000/svg">
<g clip-path="url(#clip0_130_472)">
<path d="M6.25 1.71875C6.25 2.59375 6.375 2.8125 6.875 2.8125C7.375 2.8125 7.5 2.59375 7.5 1.71875C7.5 0.84375 7.375 0.625 6.875 0.625C6.375 0.625 6.25 0.84375 6.25 1.71875Z" fill="#040E50"/>
<path d="M2.96885 1.875C2.71885 2.25 3.59385 3.75 4.0626 3.75C4.53135 3.75 4.7501 3.125 4.5626 2.3125C4.34385 1.53125 3.34385 1.25 2.96885 1.875Z" fill="#040E50"/>
<path d="M9.09375 2.3125C8.65625 3.125 8.84375 3.75 9.53125 3.75C10.0312 3.75 10.625 2.8125 10.625 2.0625C10.625 1.28125 9.53125 1.46875 9.09375 2.3125Z" fill="#040E50"/>
<path d="M4.34364 4.31245C3.09364 5.43745 2.74989 7.6562 3.62489 8.9687C4.03114 9.5937 4.15614 10.3437 4.12489 11.6562C4.06239 13.1874 4.15614 13.5937 4.74989 14.2499C5.74989 15.3124 7.78114 15.2812 8.93739 14.2187C9.68739 13.4999 9.74989 13.2812 9.59364 11.8437C9.43739 10.6249 9.53114 9.99995 10.0624 8.93745C10.8749 7.2187 10.6561 5.5937 9.37489 4.31245C8.62489 3.5937 8.21864 3.43745 6.90614 3.43745C5.62489 3.43745 5.15614 3.5937 4.34364 4.31245ZM8.24989 5.3437C9.28114 6.1562 9.28114 7.18745 8.28114 9.2187L7.53114 10.7812L7.49989 9.4687C7.49989 8.4687 7.65614 8.06245 8.12489 7.81245C8.46864 7.62495 8.74989 7.2187 8.74989 6.9062C8.74989 6.37495 8.49989 6.31245 6.71864 6.37495C5.59364 6.4062 4.68739 6.3437 4.68739 6.2187C4.68739 5.81245 6.31239 4.68745 6.87489 4.68745C7.18739 4.68745 7.78114 4.9687 8.24989 5.3437ZM6.24989 9.43745C6.24989 10.0937 6.18739 10.6249 6.12489 10.6249C5.99989 10.6249 4.37489 7.24995 4.37489 6.9687C4.37489 6.9062 4.81239 7.1562 5.31239 7.56245C6.06239 8.0937 6.24989 8.4687 6.24989 9.43745ZM8.43739 12.3437C8.43739 12.5937 8.21864 12.8124 7.96864 12.8124C7.68739 12.8124 7.40614 13.0312 7.31239 13.2812C7.18739 13.5312 6.93739 13.7499 6.68739 13.7499C6.43739 13.7499 6.24989 13.5312 6.24989 13.2812C6.24989 13.0312 6.03114 12.8124 5.78114 12.8124C5.53114 12.8124 5.31239 12.5937 5.31239 12.3437C5.31239 11.9999 5.68739 11.8749 6.87489 11.8749C8.06239 11.8749 8.43739 11.9999 8.43739 12.3437Z" fill="#040E50"/>
<path d="M15.8437 3.87494C14.0937 4.34369 13.9062 4.49994 14.1875 5.18744C14.3437 5.56244 14.625 5.65619 15.25 5.49994C19.75 4.49994 21.6562 4.53119 24.875 5.62494C27.6562 6.59369 29.375 7.81244 29.375 8.81244C29.375 9.87494 30.125 10.6249 31.1875 10.6249C32.7187 10.6249 34.7187 14.7499 35.1562 18.8437C35.4062 21.2187 35.25 21.7187 34.375 21.1874C33.9062 20.8749 33.6875 20.8749 33.375 21.1874C33.0937 21.4687 33.2187 21.8437 33.9375 22.8749C34.4375 23.6249 35.1562 24.2499 35.5 24.3124C36.3125 24.4374 38.625 22.4374 38.3125 21.9062C38.1562 21.6562 37.75 21.5937 37.3125 21.6874C36.5625 21.8749 36.5625 21.8437 36.5625 19.7499C36.5625 18.5937 36.3437 16.8124 36.0937 15.8437C35.5937 13.9687 34 10.4999 33.4375 10.1562C33.2812 10.0624 33.125 9.43744 33.125 8.78119C33.125 7.31244 32.6875 6.87494 31.2187 6.87494C30.5625 6.87494 29.9375 6.71869 29.8437 6.56244C29.5 5.99994 26.0312 4.40619 24.1562 3.90619C22 3.34369 17.9062 3.34369 15.8437 3.87494ZM31.75 8.46869C32.0625 8.99994 31.3437 9.59369 30.9062 9.15619C30.5312 8.78119 30.7812 8.12494 31.25 8.12494C31.4062 8.12494 31.625 8.28119 31.75 8.46869Z" fill="#040E50"/>
<path d="M0.625 4.37495C0.625 5.06245 1.6875 5.74995 2.375 5.49995C2.96875 5.2812 2.9375 4.68745 2.28125 4.18745C1.4375 3.56245 0.625 3.6562 0.625 4.37495Z" fill="#040E50"/>
<path d="M11.5001 4.09375C10.7501 4.5 10.7813 5.625 11.5001 5.625C12.3751 5.625 13.2501 4.84375 13.0313 4.25C12.8126 3.6875 12.2813 3.625 11.5001 4.09375Z" fill="#040E50"/>
<path d="M15.25 12.25L10.9375 14.7812V20V25.2188L15.3438 27.7812C17.7812 29.1562 19.875 30.3125 20 30.3125C20.125 30.3125 22.2188 29.1562 24.6562 27.7812L29.0625 25.2188V20V14.7812L24.6562 12.2188C22.2188 10.8438 20.0938 9.6875 19.875 9.71875C19.6875 9.71875 17.5938 10.875 15.25 12.25ZM23.25 13.1562C25.9688 14.7188 26.5312 15.1562 26.2188 15.5C26.0312 15.75 25.6875 15.9375 25.4688 15.9375C25.125 15.9375 19.3125 12.75 18.7812 12.3125C18.6562 12.2188 19.625 11.3125 19.9062 11.25C19.9062 11.25 21.4375 12.0938 23.25 13.1562ZM20.5312 15.0312C22.75 16.3438 23.6562 17.0312 23.4062 17.2188C23.1562 17.375 22.5938 17.2188 22.0312 16.875C21.5312 16.5625 20 15.6875 18.6875 14.9062C16.5625 13.7188 16 13.125 16.9375 13.125C17.0938 13.125 18.7188 14 20.5312 15.0312ZM18.2188 16.375C21.5 18.2812 21.5625 18.3438 20.75 18.7188C20.0312 19.0312 19.6562 18.9062 17.0938 17.4688C13.2812 15.3125 13.25 15.2812 13.9375 14.7812C14.25 14.5625 14.5625 14.375 14.6562 14.375C14.75 14.375 16.3438 15.2812 18.2188 16.375ZM17.5938 19.4688L19.375 20.4688V24.3125C19.375 28.8125 19.7812 28.625 15.4375 26.0625L12.5 24.3438V20.4375V16.5625L14.1562 17.5C15.0312 18.0312 16.5938 18.9062 17.5938 19.4688ZM27.5 20.4688V24.3438L24.5625 26.0625C20.2188 28.625 20.625 28.8125 20.625 24.3125C20.625 20.4688 20.625 20.4062 21.4062 20.0625C22.1875 19.7188 22.1875 19.7188 22.1875 21.125C22.1875 22.9062 22.75 23.1562 24.5938 22.1875L25.9375 21.4688V19.5C25.9375 17.8125 26.0312 17.4688 26.625 17.0625C27 16.7812 27.375 16.5625 27.4062 16.5625C27.4688 16.5625 27.5 18.3125 27.5 20.4688ZM24.3125 20.6562C23.75 21.0312 23.5625 19.1875 24.125 18.5312C24.4688 18.0938 24.5312 18.1875 24.625 19.2188C24.6875 19.9688 24.5625 20.5 24.3125 20.6562Z" fill="#040E50"/>
<path d="M2.65615 16.6562C1.34365 17.7812 1.3749 18.625 2.6874 18.3125C3.4374 18.125 3.4374 18.1562 3.4374 20.25C3.4374 21.4062 3.65615 23.1875 3.90615 24.1562C4.40615 26.0312 5.9999 29.5 6.5624 29.8437C6.71865 29.9375 6.8749 30.5625 6.8749 31.2187C6.8749 32.6875 7.3124 33.125 8.78115 33.125C9.4374 33.125 10.0624 33.2812 10.1561 33.4375C10.4999 34 14.0311 35.625 16.0311 36.125C19.5311 37.0312 26.1249 36.3125 25.8749 35.0312C25.7499 34.4375 25.0624 34.4375 22.3436 35C19.1561 35.6562 14.9999 34.8125 11.9999 32.9062C10.9374 32.2187 10.6249 31.8437 10.6249 31.1875C10.6249 30.125 9.8749 29.375 8.78115 29.375C7.2499 29.375 5.3124 25.25 4.8124 20.9687C4.5624 18.7812 4.78115 18.2812 5.6249 18.8125C6.09365 19.125 6.3124 19.125 6.6249 18.8125C6.90615 18.5312 6.78115 18.1562 6.0624 17.125C5.5624 16.375 4.84365 15.75 4.4999 15.6875C4.15615 15.625 3.3749 16.0625 2.65615 16.6562ZM9.2499 30.9687C9.5624 31.5 8.84365 32.0937 8.40615 31.6562C8.03115 31.2812 8.28115 30.625 8.7499 30.625C8.90615 30.625 9.1249 30.7812 9.2499 30.9687Z" fill="#040E50"/>
<path d="M31 25.6875C30.7813 25.9062 30.625 26.25 30.625 26.4375C30.625 27.0937 30.0938 27.2187 29.25 26.8125C28.5 26.5 28.3125 26.5625 27.4688 27.375C26.5625 28.2187 26.5313 28.5312 27.0313 29.75C27.1875 30.125 27 30.375 26.3438 30.6875C25.625 31.0312 25.4375 31.3125 25.375 32.4375C25.2813 33.5937 25.375 33.7812 26.0313 34.0312C27.0938 34.4375 27.2813 34.8437 26.8125 35.5937C26.5 36.125 26.5313 36.375 27.0938 37.0937C27.6563 37.8437 27.9375 37.9687 29.1563 37.9062C30.4063 37.8437 30.5938 37.9062 30.6875 38.5312C30.7813 39.125 31 39.2187 32.2813 39.3125C33.5938 39.4062 33.7813 39.3437 34.0313 38.6562C34.375 37.7187 34.875 37.375 35.1563 37.8125C35.5 38.375 36.75 38.1562 37.4375 37.4062C38.1563 36.6562 38.3438 35.5 37.8125 35.1562C37.375 34.875 37.7188 34.375 38.6563 34.0312C39.3438 33.7812 39.4063 33.5937 39.3125 32.2812C39.2188 31 39.125 30.7812 38.5313 30.6875C37.9063 30.5937 37.8438 30.4062 37.9063 29.1562C37.9688 27.9375 37.8438 27.6562 37.0938 27.0937C36.375 26.5312 36.125 26.5 35.5938 26.8125C34.8438 27.2812 34.4375 27.0937 34.0625 26.0625C33.8125 25.4375 33.5313 25.3125 32.5625 25.3125C31.9063 25.3125 31.2188 25.4687 31 25.6875ZM33.1875 27.6875C33.7188 28.3437 34.0625 28.4687 35.125 28.375L36.4063 28.3125L36.3125 29.5C36.1875 30.7187 36.875 31.875 37.7188 31.875C37.9375 31.875 38.125 32.0937 38.125 32.3437C38.125 32.5937 37.9063 32.8125 37.6563 32.8125C36.9375 32.8125 36.1875 34.2187 36.3125 35.375C36.4063 36.375 36.375 36.4062 35.375 36.3125C34.2188 36.1875 32.8125 36.9375 32.8125 37.6562C32.8125 37.9062 32.5938 38.125 32.3438 38.125C32.0938 38.125 31.875 37.9375 31.875 37.7187C31.875 36.875 30.7188 36.1875 29.5 36.3125L28.3125 36.4062L28.375 35.125C28.4688 34.0625 28.3438 33.7187 27.6875 33.1875C26.7813 32.5 26.625 31.875 27.3438 31.875C27.9688 31.875 28.4375 30.875 28.4375 29.5625C28.4375 28.4687 28.4688 28.4375 29.5625 28.4375C30.875 28.4375 31.875 27.9687 31.875 27.3437C31.875 26.625 32.5 26.7812 33.1875 27.6875Z" fill="#040E50"/>
<path d="M29.8125 29.8124C28.9688 30.6562 28.75 31.1249 28.75 32.1562C28.75 33.6562 29.25 34.8437 30.125 35.4374C32.75 37.1249 36.0938 35.4687 36.0938 32.4687C36.0938 30.1249 34.625 28.7499 32.1562 28.7499C31.125 28.7499 30.6875 28.9374 29.8125 29.8124ZM33.9062 30.7812C34.3438 31.1874 34.6875 31.9062 34.6875 32.3437C34.6875 33.3124 33.4062 34.6874 32.5 34.6874C29.3438 34.6874 29.4375 30.1249 32.5938 30.0312C32.9062 29.9999 33.5 30.3437 33.9062 30.7812Z" fill="#040E50"/>
</g>
<defs>
<clipPath id="clip0_130_472">
<rect width="40" height="40" fill="white"/>
</clipPath>
</defs>
</svg>
