<svg width="39" height="39" viewBox="0 0 39 39" fill="none" xmlns="http://www.w3.org/2000/svg">
<path d="M22.5234 10.625V21.25H30.6484H38.7734V10.625V0H30.6484H22.5234V10.625ZM37.5234 10.625V20H30.6484H23.7734V10.625V1.25H30.6484H37.5234V10.625Z" fill="#040E50"/>
<path d="M25.6484 3.75C25.6484 4.34375 25.8672 4.375 29.3984 4.375C32.9297 4.375 33.1484 4.34375 33.1484 3.75C33.1484 3.15625 32.9297 3.125 29.3984 3.125C25.8672 3.125 25.6484 3.15625 25.6484 3.75Z" fill="#040E50"/>
<path d="M25.6484 6.875C25.6484 7.40625 25.8672 7.5 26.8984 7.5C27.9297 7.5 28.1484 7.40625 28.1484 6.875C28.1484 6.34375 27.9297 6.25 26.8984 6.25C25.8672 6.25 25.6484 6.34375 25.6484 6.875Z" fill="#040E50"/>
<path d="M30.0234 6.875C30.0234 7.46875 30.2422 7.5 32.8359 7.5C35.4297 7.5 35.6484 7.46875 35.6484 6.875C35.6484 6.28125 35.4297 6.25 32.8359 6.25C30.2422 6.25 30.0234 6.28125 30.0234 6.875Z" fill="#040E50"/>
<path d="M25.6484 9.375C25.6484 9.96875 25.8672 10 30.6484 10C35.4297 10 35.6484 9.96875 35.6484 9.375C35.6484 8.78125 35.4297 8.75 30.6484 8.75C25.8672 8.75 25.6484 8.78125 25.6484 9.375Z" fill="#040E50"/>
<path d="M25.6484 12.5C25.6484 13.0938 25.8672 13.125 28.4609 13.125C31.0547 13.125 31.2734 13.0938 31.2734 12.5C31.2734 11.9062 31.0547 11.875 28.4609 11.875C25.8672 11.875 25.6484 11.9062 25.6484 12.5Z" fill="#040E50"/>
<path d="M33.1484 12.5C33.1484 13.0312 33.3672 13.125 34.3984 13.125C35.4297 13.125 35.6484 13.0312 35.6484 12.5C35.6484 11.9688 35.4297 11.875 34.3984 11.875C33.3672 11.875 33.1484 11.9688 33.1484 12.5Z" fill="#040E50"/>
<path d="M25.6484 15C25.6484 15.5938 25.8672 15.625 30.6484 15.625C35.4297 15.625 35.6484 15.5938 35.6484 15C35.6484 14.4062 35.4297 14.375 30.6484 14.375C25.8672 14.375 25.6484 14.4062 25.6484 15Z" fill="#040E50"/>
<path d="M25.6484 17.5C25.6484 18.0625 25.8672 18.125 27.8359 18.125C29.8047 18.125 30.0234 18.0625 30.0234 17.5C30.0234 16.9375 29.8047 16.875 27.8359 16.875C25.8672 16.875 25.6484 16.9375 25.6484 17.5Z" fill="#040E50"/>
<path d="M0.398438 2.25C-0.132812 2.78125 -0.132812 19.7188 0.398438 20.25C0.929688 20.7812 19.1172 20.7812 19.6484 20.25C20.1797 19.7188 20.1797 2.78125 19.6484 2.25C19.1172 1.71875 0.929688 1.71875 0.398438 2.25ZM18.3984 3.5C18.9297 4.03125 18.9297 18.4688 18.3984 19C17.8672 19.5312 2.17969 19.5312 1.64844 19C1.11719 18.4688 1.11719 4.03125 1.64844 3.5C2.17969 2.96875 17.8672 2.96875 18.3984 3.5Z" fill="#040E50"/>
<path d="M10.6484 5.625C10.2422 6.03125 10.0234 6.65625 10.0234 7.5C10.0234 8.34375 10.2422 8.96875 10.6484 9.375C11.0547 9.78125 11.6797 10 12.5234 10C14.1797 10 15.0234 9.15625 15.0234 7.5C15.0234 6.65625 14.8047 6.03125 14.3984 5.625C13.9922 5.21875 13.3672 5 12.5234 5C11.6797 5 11.0547 5.21875 10.6484 5.625ZM13.3047 7.5C13.3047 8.0625 13.1172 8.3125 12.5859 8.375C11.8359 8.5 11.3984 7.8125 11.7109 7C11.8047 6.71875 12.1797 6.5625 12.5859 6.625C13.1172 6.6875 13.3047 6.9375 13.3047 7.5Z" fill="#040E50"/>
<path d="M4.58599 12.5C3.24224 13.8438 2.24224 15.125 2.36724 15.3125C2.80474 16 3.67974 15.5312 5.55474 13.6875L7.52349 11.75L9.49224 13.6875C10.5547 14.75 11.6485 15.625 11.8985 15.625C12.1485 15.625 12.8047 15.1875 13.3672 14.625L14.3985 13.625L15.4297 14.625C16.461 15.625 17.336 15.9062 17.6797 15.3125C17.9297 14.9062 15.086 11.875 14.461 11.875C14.1797 11.875 13.4922 12.3125 12.9297 12.875L11.8985 13.875L9.92974 11.9375C8.86724 10.875 7.74224 10 7.49224 10C7.21099 10 5.92974 11.125 4.58599 12.5Z" fill="#040E50"/>
<path d="M4.08594 23.5C2.92969 24.0937 1.67969 25.0312 1.11719 25.7187C0.242188 26.8437 0.179688 27.125 0.179688 29.3437C0.179688 31.5 0.273438 31.875 1.05469 32.9062C1.80469 33.9062 1.89844 34.2812 1.89844 36.375C1.89844 39.25 2.27344 39.4375 4.27344 37.4687L5.58594 36.1562L8.52344 36.2187C11.2422 36.2812 11.5547 36.2187 13.4609 35.25C14.6172 34.6562 15.8672 33.7187 16.4297 33.0312C17.3047 31.9062 17.3672 31.625 17.3672 29.375C17.3672 27.125 17.3047 26.8437 16.4297 25.7187C15.8672 25.0312 14.6172 24.0937 13.4609 23.5C11.6797 22.5937 11.2109 22.5 8.77344 22.5C6.33594 22.5 5.86719 22.5937 4.08594 23.5ZM11.5859 24.375C12.9609 24.75 14.6172 25.9375 15.3984 27.0937C16.1797 28.3125 16.1484 30.5 15.2734 31.75C13.7109 34.0312 11.1172 34.9375 7.27344 34.5625C5.24219 34.4062 5.17969 34.4062 4.17969 35.375L3.14844 36.375V34.6562C3.14844 33.3125 2.99219 32.6875 2.36719 31.875C0.460938 29.2812 1.99219 25.7812 5.61719 24.5C6.96094 24 10.0547 23.9375 11.5859 24.375Z" fill="#040E50"/>
<path d="M3.46094 29.375C3.46094 30.2188 3.55469 30.3125 4.39844 30.3125C5.24219 30.3125 5.33594 30.2188 5.33594 29.375C5.33594 28.5312 5.24219 28.4375 4.39844 28.4375C3.55469 28.4375 3.46094 28.5312 3.46094 29.375Z" fill="#040E50"/>
<path d="M7.83594 29.375C7.83594 30.2188 7.92969 30.3125 8.77344 30.3125C9.61719 30.3125 9.71094 30.2188 9.71094 29.375C9.71094 28.5312 9.61719 28.4375 8.77344 28.4375C7.92969 28.4375 7.83594 28.5312 7.83594 29.375Z" fill="#040E50"/>
<path d="M12.2109 29.375C12.2109 30.2188 12.3047 30.3125 13.1484 30.3125C13.9922 30.3125 14.0859 30.2188 14.0859 29.375C14.0859 28.5312 13.9922 28.4375 13.1484 28.4375C12.3047 28.4375 12.2109 28.5312 12.2109 29.375Z" fill="#040E50"/>
<path d="M19.1484 23.5C18.6172 24.0312 18.6172 37.8438 19.1484 38.375C19.6797 38.9062 37.8672 38.9062 38.3984 38.375C38.9297 37.8438 38.9297 24.0312 38.3984 23.5C37.8672 22.9688 19.6797 22.9688 19.1484 23.5ZM37.1484 24.75C37.6797 25.2812 37.6797 36.5938 37.1484 37.125C36.6172 37.6562 20.9297 37.6562 20.3984 37.125C19.8672 36.5938 19.8672 25.2812 20.3984 24.75C20.9297 24.2188 36.6172 24.2188 37.1484 24.75Z" fill="#040E50"/>
<path d="M25.7735 26.0313C25.711 26.25 25.6797 27.9063 25.711 29.7188L25.8047 32.9688L26.7735 33.0625C27.4922 33.125 28.3985 32.7813 30.0547 31.8125C32.211 30.5313 32.3672 30.375 32.3672 29.375C32.3672 28.375 32.211 28.2188 30.1797 27C27.961 25.6563 26.086 25.25 25.7735 26.0313ZM28.961 28.1875C29.8985 28.75 30.6485 29.2813 30.6485 29.375C30.6485 29.5625 27.3672 31.5625 27.086 31.5625C26.9922 31.5625 26.8985 30.5625 26.8985 29.375C26.8985 28.1563 26.9922 27.1875 27.086 27.1875C27.1797 27.1875 28.0235 27.6563 28.961 28.1875Z" fill="#040E50"/>
<path d="M32.5234 34.0625C32.5234 34.25 30.5547 34.375 27.2109 34.375C22.1172 34.375 21.8984 34.4062 21.8984 35C21.8984 35.5938 22.1172 35.625 27.2109 35.625C30.5547 35.625 32.5234 35.75 32.5234 35.9375C32.5234 36.0938 32.8047 36.25 33.1484 36.25C33.4922 36.25 33.7734 36.0938 33.7734 35.9375C33.7734 35.75 34.2109 35.625 34.7109 35.625C35.4297 35.625 35.6484 35.5 35.6484 35C35.6484 34.5 35.4297 34.375 34.7109 34.375C34.2109 34.375 33.7734 34.2188 33.7734 34.0625C33.7734 33.875 33.4922 33.75 33.1484 33.75C32.8047 33.75 32.5234 33.875 32.5234 34.0625Z" fill="#040E50"/>
</svg>
