<svg width="40" height="40" viewBox="0 0 40 40" fill="none" xmlns="http://www.w3.org/2000/svg">
<g clip-path="url(#clip0_130_512)">
<path d="M16.4375 0.499989C16.0938 0.812489 15.9375 1.56249 15.9375 2.84374C15.9375 3.93749 15.8125 4.68749 15.5938 4.68749C15.4062 4.68749 14.3438 5.06249 13.2188 5.49999L11.1875 6.31249L10.0312 5.18749C8.40625 3.59374 7.53125 3.68749 5.5625 5.59374C3.5 7.53124 3.40625 8.53124 5.125 10.2812L6.28125 11.4375L5.53125 13.1562C5.09375 14.0937 4.6875 15.0937 4.59375 15.375C4.4375 15.8125 4.03125 15.9375 2.71875 15.9375C0.34375 15.9375 0 16.4062 0 19.5937C0 21.25 0.125 22.2187 0.40625 22.4375C0.625 22.625 1.625 22.8125 2.65625 22.875L4.5 22.9687L4.875 24.25C5.0625 24.9375 5.46875 25.9687 5.78125 26.5625L6.3125 27.5625L5.21875 28.7187C3.4375 30.5937 3.4375 30.9687 5.5 33.125C7.65625 35.375 8.25 35.4687 10.0938 33.7812C11.3438 32.625 11.4688 32.5937 12.1875 33C12.625 33.2187 13.625 33.6562 14.4688 33.9062L15.9375 34.4375V36.25C15.9375 38.625 16.4688 39.0625 19.375 39.0625C22.2812 39.0625 22.8125 38.625 22.8125 36.25C22.8125 34.6562 22.9062 34.375 23.4688 34.2187C23.8125 34.0937 24.1562 34.0625 24.1875 34.125C24.2188 34.1562 24.5312 34.8125 24.8438 35.5625C25.5625 37.2187 27.625 39.125 29.3438 39.6875C31.75 40.4687 32.5 39.1875 30.125 38.2812C27.0312 37.0937 25.4375 34.625 25.6875 31.4687C26.2188 25.0625 34.875 23.4375 37.875 29.1875C38.6875 30.75 38.7812 33.4375 38.0312 34.875C37.3438 36.2187 35.1562 38.125 34.0312 38.3437C32.9688 38.5312 32.5312 39.2187 33.0625 39.75C34.0938 40.7812 38.2812 37.9687 39.4062 35.4687C40.25 33.625 40.1875 30.5625 39.25 28.5625C38.4688 26.875 36.7188 25.2187 35.0625 24.625C34.3125 24.3437 34.0625 24.0625 34.125 23.5937C34.2188 23.0625 34.4688 22.9687 36.0938 22.875C38.2812 22.75 38.8125 22.4062 38.6875 21.1562C38.5625 19.9375 37.9062 19.7187 37.5 20.75C37.2188 21.5 37.0625 21.5625 35.1875 21.5625H33.1562L32.7812 22.7812C32.4375 23.9062 32.3125 24 31.2188 24.125C30.5312 24.1875 30 24.2187 30 24.2187C31.5312 20.5312 31.0938 16.2812 28.8438 12.9062C25.75 8.24999 19.6562 6.68749 14.2812 9.15624C12.0938 10.1562 10.125 12.2187 8.9375 14.6875C8.09375 16.5 7.96875 17.0312 7.96875 19.5312C7.96875 21.9062 8.09375 22.625 8.8125 24.125C9.90625 26.5 11.7812 28.4375 14.125 29.7187C16.9062 31.1875 20.875 31.375 23.75 30.1875C24.1562 30.0312 24.2188 30.2187 24.125 31.25C24 32.4062 23.9062 32.5312 22.8125 32.8125C21.4375 33.1875 21.25 33.5312 21.25 35.8125V37.5H19.375H17.5V35.6562C17.5 33.5625 17.125 33 15.5625 32.6562C15 32.5312 13.875 32.0937 13.0625 31.6875C12.25 31.2812 11.4062 30.9375 11.1875 30.9375C10.9688 30.9375 10.1875 31.5312 9.46875 32.25L8.125 33.5625L6.71875 32.1875L5.34375 30.8125L6.71875 29.3437C8.21875 27.75 8.25 27.4062 7.0625 25.5625C6.84375 25.1562 6.40625 24.125 6.09375 23.2187L5.59375 21.5937L3.5 21.5L1.40625 21.4062V19.5312V17.6562L3.28125 17.5625C4.28125 17.5 5.28125 17.3437 5.5 17.1875C5.6875 17 6 16.2812 6.25 15.5625C6.46875 14.8125 6.96875 13.5312 7.40625 12.6875L8.1875 11.1562L6.6875 9.65624L5.1875 8.12499L6.40625 6.87499C7.0625 6.18749 7.78125 5.62499 7.96875 5.62499C8.15625 5.62499 8.875 6.18749 9.53125 6.87499C10.1875 7.56249 10.9375 8.12499 11.1562 8.12499C11.375 8.12499 12.375 7.68749 13.3438 7.18749C14.3125 6.65624 15.3125 6.24999 15.5938 6.24999C15.875 6.24999 16.4375 6.03124 16.8125 5.74999C17.4062 5.34374 17.5 4.99999 17.5 3.40624V1.56249H19.375H21.25V3.40624C21.25 4.99999 21.3438 5.34374 21.9375 5.74999C22.3125 6.03124 22.875 6.24999 23.1562 6.24999C23.4375 6.24999 24.4375 6.65624 25.4062 7.18749C26.375 7.68749 27.375 8.12499 27.5938 8.12499C27.8125 8.12499 28.5625 7.56249 29.2188 6.87499C29.875 6.18749 30.5938 5.62499 30.7812 5.62499C30.9688 5.62499 31.6875 6.18749 32.3438 6.87499L33.5625 8.12499L32.0625 9.65624L30.5625 11.1562L31.3438 12.6875C31.75 13.5312 32.2812 14.7812 32.5 15.4687C33.0938 17.3437 33.3125 17.5 35.375 17.5C36.9688 17.5 37.2812 17.5937 37.4062 18.125C37.5 18.4687 37.8438 18.75 38.1562 18.75C38.5938 18.75 38.75 18.5312 38.75 17.875C38.75 16.5312 37.875 15.9375 35.9688 15.9375C34.7188 15.9375 34.3125 15.8125 34.1562 15.375C34.0625 15.0937 33.6562 14.0937 33.2188 13.1562L32.4688 11.4375L33.625 10.2812C35.3438 8.53124 35.25 7.53124 33.1875 5.59374C31.2188 3.68749 30.3438 3.59374 28.7188 5.18749L27.5625 6.31249L25.5312 5.49999C24.4062 5.06249 23.3438 4.68749 23.1562 4.68749C22.9375 4.68749 22.8125 3.93749 22.8125 2.84374C22.8125 0.281239 22.4688 -1.14441e-05 19.375 -1.14441e-05C17.5625 -1.14441e-05 16.7812 0.124989 16.4375 0.499989ZM18.6875 9.87499C18.5625 10.5625 15.5938 11.375 15.25 10.8437C14.9688 10.375 15.0625 10.2812 16.7812 9.81249C18.75 9.28124 18.8125 9.28124 18.6875 9.87499ZM22.7188 10.0312C23.4062 10.25 23.6562 10.5 23.5312 10.8125C23.4375 11.125 23.1562 11.2187 22.8438 11.0625C22.5625 10.9375 21.8438 10.75 21.25 10.6562C20.5625 10.5312 20.125 10.25 20.0625 9.90624C19.9375 9.31249 20.375 9.34374 22.7188 10.0312ZM13.125 12.9687C12.125 14 11.25 14.375 11.25 13.8125C11.25 13.6562 11.7812 13.0312 12.4062 12.375C13.1875 11.625 13.6562 11.3437 13.875 11.5625C14.0938 11.7812 13.8438 12.2187 13.125 12.9687ZM26.9375 12.9687C27.5938 13.7187 27.6562 14.0625 27.0938 14.0625C26.4688 14.0625 24.5938 11.9687 24.8438 11.5625C25.0625 11.1875 25.875 11.7187 26.9375 12.9687ZM22.1875 12.5312C26.0938 14.2812 27.7188 18.0312 26.4062 22.3125C25.9062 23.9687 26.0625 24.5 27.2188 24.8437C27.75 25.0312 27.6562 25.1875 26.4375 26.4062C25.6875 27.1562 24.5 28.0937 23.8125 28.4375C20.1875 30.3437 15.0938 29.4062 12.1562 26.375L11.0938 25.2812L12.0312 24.5625L12.9688 23.8125L12.4062 22.3125C10.1562 16 16.3125 9.87499 22.1875 12.5312ZM10.9375 15.6562C10.9375 16.7187 10.1875 18.75 9.78125 18.75C9.3125 18.75 9.40625 17.6562 10.0312 16C10.3125 15.3125 10.9375 15.0312 10.9375 15.6562ZM28.7188 15.875C28.875 16.1562 29.0938 16.9375 29.2188 17.5937C29.4062 18.5 29.3438 18.75 28.9688 18.75C28.5625 18.75 27.8125 16.7187 27.8125 15.6562C27.8125 15.125 28.375 15.25 28.7188 15.875ZM10.6562 21.625C10.8438 22.375 11.0625 23.0625 11.125 23.1562C11.1875 23.2812 11.0312 23.4687 10.7812 23.5625C10.25 23.75 9.9375 23.1562 9.53125 21.3125C9.375 20.5312 9.4375 20.3125 9.8125 20.3125C10.0938 20.3125 10.4062 20.8125 10.6562 21.625ZM29.2812 21.1562C28.9375 22.8125 28.4688 23.75 28.0312 23.5625C27.6875 23.4375 27.6875 23.1562 28.0938 21.875C28.5938 20.1875 29.5938 19.5937 29.2812 21.1562Z" fill="#040E50"/>
<path d="M18.0312 18.0625C17.3749 18.7812 17.3437 20.4062 17.9687 20.9375C18.2187 21.1562 19.0312 21.3437 19.7812 21.375C20.6874 21.4062 21.5937 21.6875 22.4374 22.2812C23.9374 23.25 24.9999 23.375 24.9999 22.5625C24.9999 22.25 24.2499 21.5625 23.1249 20.8437C21.9374 20.125 21.2499 19.4687 21.2499 19.125C21.2499 17.6875 18.9999 16.9687 18.0312 18.0625ZM19.6874 19.5312C19.6874 19.7812 19.5624 20 19.3749 20C19.2187 20 19.0624 19.7812 19.0624 19.5312C19.0624 19.2812 19.2187 19.0625 19.3749 19.0625C19.5624 19.0625 19.6874 19.2812 19.6874 19.5312Z" fill="#040E50"/>
<path d="M32.5 30.2188C31.5313 31.0625 31.125 31.25 30.875 31C30.6563 30.7812 30.125 30.625 29.625 30.625C28.625 30.625 27.9688 31.5625 28.25 32.6562C28.5 33.625 30.4688 35.3125 31.3438 35.3125C32.3438 35.3125 35.9375 31.625 35.9375 30.5938C35.9375 28.75 34.3125 28.5625 32.5 30.2188ZM32.9688 32.1875C32.1563 33.0312 31.3125 33.625 31.1563 33.5312C30.9688 33.4062 31.0938 33.2188 31.4375 33.0938C31.75 32.9688 32.5313 32.375 33.0938 31.75C33.6875 31.125 34.25 30.625 34.3438 30.625C34.4375 30.625 33.8125 31.3125 32.9688 32.1875Z" fill="#040E50"/>
</g>
<defs>
<clipPath id="clip0_130_512">
<rect width="40" height="40" fill="white"/>
</clipPath>
</defs>
</svg>
