<svg width="40" height="40" viewBox="0 0 40 40" fill="none" xmlns="http://www.w3.org/2000/svg">
<g clip-path="url(#clip0_130_489)">
<path d="M3.75019 1.00001C0.65644 2.87501 -0.71856 6.50001 0.31269 10.1563C0.75019 11.7188 2.31269 13.7188 3.87519 14.6875C4.87519 15.2813 4.93769 15.4063 4.65644 16.3438C4.34394 17.4688 4.31269 22.5625 4.65644 23.75C4.84394 24.4063 4.68769 24.6563 3.46894 25.4688C1.37519 26.8438 0.18769 28.9688 0.0626902 31.5313C-0.0935598 34.0313 0.59394 36.0625 1.46894 35.875C1.87519 35.7813 2.00019 35.5313 1.93769 35C1.46894 31.5938 1.53144 30.4375 2.28144 29.0625C4.37519 25.125 9.59394 24.4688 12.5939 27.7813C14.0002 29.3438 14.5002 30.9063 14.2502 32.9375C13.6877 37.875 7.46894 40.25 3.71894 37C3.15644 36.5 2.18769 36.7188 2.18769 37.3438C2.18769 37.9375 3.53144 38.9375 5.15644 39.5625C8.43769 40.8125 12.5627 39.5 14.5314 36.5625C15.3752 35.2813 15.5627 35.1563 16.4064 35.3438C17.8752 35.6563 22.5627 35.6563 23.6564 35.3438C24.5939 35.0625 24.7189 35.125 25.3127 36.125C28.5002 41.25 35.9377 41.3125 39.0002 36.25C39.9064 34.75 40.0002 34.3125 40.0002 32.1875C40.0002 30.5938 39.8127 29.4375 39.4064 28.5938C38.9064 27.4688 37.1877 25.6875 35.8439 24.8438C35.4064 24.5625 35.3752 24.25 35.6877 22.0938C35.9689 20.2188 35.9689 19.1563 35.6877 17.4063C35.4377 16 35.4064 15.125 35.5939 15.0625C36.6877 14.6875 38.5314 12.9063 39.2502 11.5313C39.9689 10.0938 40.0627 9.59376 39.9377 7.31251C39.8439 5.03126 39.7189 4.59376 38.9064 3.40626C38.3752 2.65626 37.3439 1.62501 36.5939 1.09376C35.3127 0.218759 35.0939 0.156259 32.1877 0.156259C29.2814 0.156259 29.0627 0.218759 27.7814 1.09376C26.5627 1.93751 25.2502 3.50001 24.9377 4.40626C24.8752 4.59376 24.0314 4.56251 22.5939 4.31251C20.8439 4.03126 19.7814 4.03126 17.9064 4.31251C15.7502 4.62501 15.4377 4.59376 15.1564 4.15626C14.3752 2.90626 12.5939 1.15626 11.5314 0.593759C10.6564 0.156259 9.68769 8.58717e-06 7.87519 8.58717e-06C5.68769 8.58717e-06 5.28144 0.0937586 3.75019 1.00001ZM10.2502 1.75001C13.9064 3.25001 15.3439 7.28126 13.5314 10.875C12.9377 12.0625 12.7814 12.5938 13.0627 12.875C13.2502 13.0625 13.5939 13.125 13.8439 13.0313C14.5939 12.75 15.7189 10 15.9064 8.00001C16.0939 6.18751 16.1564 6.09376 17.0314 5.90626C18.5627 5.56251 21.9377 5.59376 23.2189 5.96876L24.3752 6.28126V8.06251C24.4064 12.3125 27.6877 15.5938 31.9377 15.625H33.7189L34.0314 16.7813C34.4689 18.3125 34.4689 21.375 34.0314 22.875C33.7502 24 33.6564 24.0625 32.3752 24.0625C30.2189 24.0625 28.1564 24.9375 26.5627 26.5313C24.9689 28.125 24.3752 29.6563 24.3752 32.125V33.6875L22.2814 34.0625C20.4064 34.375 19.3127 34.3438 16.8439 33.875C16.0939 33.7188 16.0002 33.5625 15.8752 31.7813C15.5002 27.4063 12.5939 24.5 8.21894 24.125C6.43769 24 6.28144 23.9063 6.12519 23.1563C5.65644 20.6875 5.62519 19.5938 5.93769 17.7188L6.31269 15.625H8.00019C10.1252 15.625 12.1877 14.8438 12.1877 14.0313C12.1877 13.3125 11.6564 13.2813 9.68769 13.9375C8.40644 14.3438 7.87519 14.375 6.62519 14.0625C1.71894 12.9063 -0.15606 6.81251 3.31269 3.31251C5.21894 1.40626 7.96894 0.781258 10.2502 1.75001ZM34.1877 1.59376C36.5627 2.25001 38.7502 5.31251 38.7502 8.03126C38.7502 9.62501 37.2502 12.1563 35.7189 13.125C33.8752 14.3125 32.5002 14.5 30.5002 13.9375C27.2814 13 25.0939 9.37501 25.9064 6.37501C26.4377 4.37501 27.7189 2.84376 29.4689 2.00001C31.2502 1.18751 32.3439 1.09376 34.1877 1.59376ZM34.8439 26.2188C37.1564 27.25 38.7502 29.7813 38.7502 32.3438C38.7189 34.4063 36.5939 37.3438 34.5939 38.0938C33.1877 38.625 30.7189 38.5 29.4064 37.8125C27.0002 36.5938 25.3127 33.4375 25.8127 31.125C26.3127 28.7813 27.9377 26.8125 30.0002 25.9688C31.2502 25.4688 33.5002 25.5938 34.8439 26.2188Z" fill="#040E50"/>
<path d="M7.40625 5.03122L6.65625 5.99997L5.71875 5.18747C5.1875 4.74997 4.59375 4.37497 4.40625 4.37497C3.4375 4.37497 3.125 7.21872 3.90625 8.74997C4.375 9.62497 4.34375 9.68747 3.75 9.68747C3.28125 9.68747 3.125 9.90622 3.125 10.4375C3.125 11.4375 4.75 12 6.9375 11.8125C9.40625 11.5625 11 10.0312 11.5938 7.34372C12.3438 3.78122 12.5 4.15622 10.1875 4.12497C8.28125 4.09372 8.09375 4.15622 7.40625 5.03122ZM9.9375 6.53122C10 6.90622 9.875 7.65622 9.65625 8.15622C9.03125 9.74997 6.875 11 6.875 9.81247C6.875 9.56247 6.46875 8.96872 5.9375 8.53122C4.90625 7.65622 4.625 6.65622 5.5625 7.03122C6.75 7.56247 8.125 7.59372 8.28125 7.06247C8.375 6.78122 8.5 6.34372 8.59375 6.06247C8.8125 5.34372 9.8125 5.68747 9.9375 6.53122Z" fill="#040E50"/>
<path d="M23.4378 14.3437C22.9378 15.2812 19.9691 16.25 17.5628 16.25C16.4066 16.25 15.2816 16.375 15.0316 16.5312C14.5316 16.8437 14.1878 19.5625 14.5003 20.7812C14.6253 21.2187 15.0316 21.75 15.4378 21.9062C16.0941 22.2187 16.1878 22.5312 16.3128 24.25C16.4378 26.4062 16.5941 26.75 17.3441 26.4687C17.6878 26.3125 17.8128 25.7812 17.8128 24.2187C17.8128 22 17.7503 22.0312 20.0941 22.1562C21.0628 22.2187 21.2503 22.1562 21.2503 21.625C21.2503 21.1562 20.9691 20.9375 20.3128 20.7812C19.4378 20.5937 19.3753 20.4687 19.3753 19.25C19.3753 17.9375 19.3753 17.9375 21.0316 17.375C21.9066 17.0937 22.8441 16.75 23.0628 16.6562C23.3441 16.5625 23.4378 17.1562 23.4378 19.1875C23.4378 21.625 23.3753 21.875 22.8441 21.875C21.7503 21.875 21.7816 22.5312 22.9691 23.625C24.9691 25.4375 25.0003 25.375 25.0003 19.2187C25.0003 14 24.9691 13.75 24.3753 13.75C24.0628 13.75 23.6253 14.0312 23.4378 14.3437ZM17.8128 19.2187C17.8128 20.5625 17.7816 20.625 16.8753 20.625C15.9691 20.625 15.9378 20.5625 15.9378 19.2187C15.9378 17.875 15.9691 17.8125 16.8753 17.8125C17.7816 17.8125 17.8128 17.875 17.8128 19.2187Z" fill="#040E50"/>
<path d="M31.5938 3.9375C31.2188 4.40625 30.9375 5.21875 30.9375 5.8125C30.9375 6.65625 30.8125 6.875 30.3125 6.875C29.4688 6.875 29.4688 8.125 30.3125 8.34375C30.8125 8.46875 30.9375 8.8125 31 10.4375C31.0938 12.0938 31.1562 12.3438 31.7188 12.3438C32.2812 12.3438 32.3438 12.0938 32.4375 10.375C32.5312 8.71875 32.625 8.4375 33.0938 8.4375C33.7188 8.4375 34.1875 7.65625 33.875 7.15625C33.7812 7 33.4375 6.875 33.0938 6.875C32.5625 6.875 32.4688 6.6875 32.5625 5.875C32.6562 5 32.8125 4.8125 33.5938 4.6875C34.2812 4.5625 34.5625 4.34375 34.625 3.8125C34.7188 3.1875 34.5938 3.125 33.4688 3.125C32.5 3.125 32.0938 3.3125 31.5938 3.9375Z" fill="#040E50"/>
<path d="M28.3125 28.5C27.9375 29 27.8125 29.9688 27.8125 32.0313C27.8125 36.1875 27.875 36.25 32.3438 36.25C36.6562 36.25 36.5625 36.3438 36.5625 31.9375C36.5625 27.8438 36.5312 27.8125 32.0938 27.8125C29.0312 27.8125 28.75 27.875 28.3125 28.5ZM35 32.1875V35.0313L32.2812 34.9375L29.5312 34.8438L29.4375 32.0938L29.3438 29.375H32.1875H35V32.1875Z" fill="#040E50"/>
<path d="M30.5626 31.0937C29.7188 32.9687 31.5938 34.7187 33.2501 33.625C33.8438 33.25 34.0626 32.8437 34.0626 32.0937C34.0626 30.75 33.5938 30.3125 32.1251 30.3125C31.1563 30.3125 30.8438 30.4687 30.5626 31.0937Z" fill="#040E50"/>
<path d="M5.75029 29.1562C5.65654 29.4062 5.62529 30.8437 5.68779 32.375C5.78154 34.6875 5.87529 35.1562 6.31279 35.25C6.93779 35.375 11.2503 32.9062 11.469 32.2812C11.719 31.6562 11.094 31.0937 8.90654 29.8437C6.78154 28.6875 6.00029 28.5 5.75029 29.1562ZM8.50029 31.4375L9.46904 31.9375L8.56279 32.5312C7.31279 33.3437 7.18779 33.2812 7.18779 32.0312C7.18779 30.7812 7.21904 30.7812 8.50029 31.4375Z" fill="#040E50"/>
</g>
<defs>
<clipPath id="clip0_130_489">
<rect width="40" height="40" fill="white"/>
</clipPath>
</defs>
</svg>
