<svg width="40" height="40" viewBox="0 0 40 40" fill="none" xmlns="http://www.w3.org/2000/svg">
<g clip-path="url(#clip0_130_485)">
<path d="M7.43773 16C4.40648 24.8125 2.03148 32.2188 2.09398 32.4063C2.31273 33 3.06273 32.9063 3.40648 32.2188C3.68773 31.7188 14.0627 1.62503 14.0627 1.34378C14.0627 1.28128 14.4065 1.25003 14.844 1.25003C15.4065 1.25003 15.6252 1.09378 15.6252 0.625027C15.6252 0.0937767 15.4065 2.67029e-05 14.2815 2.67029e-05H12.9065L7.43773 16Z" fill="#040E50"/>
<path d="M16.8752 0.625C16.8752 1.21875 17.0939 1.25 21.0939 1.25C23.4064 1.25 25.3127 1.3125 25.3127 1.375C25.3127 1.46875 22.6252 9.375 19.3439 18.9687C15.6252 29.8437 13.1252 36.6875 12.7189 37.1562C11.5002 38.5 10.3439 38.75 5.65644 38.75H1.28144L2.03144 36.5312C2.84394 34.1562 2.81269 33.75 1.87519 33.75C1.15644 33.75 -0.0935599 37.25 0.0626901 38.8125L0.15644 39.8437L5.71894 39.9375C10.8752 40 11.3752 39.9687 12.4377 39.375C13.0939 39 13.9064 38.2812 14.2502 37.7187C14.6252 37.1562 16.0314 33.4375 17.3752 29.4687C18.7502 25.4687 19.9064 22.1875 20.0002 22.1875C20.0939 22.1875 21.3127 25.625 22.7502 29.7812C26.3439 40.3125 26.0627 40.0625 34.2814 39.9375L39.8439 39.8437L39.9377 38.75C40.0002 38 38.9377 34.5312 36.6252 27.8125C33.6564 19.25 33.1252 17.9687 32.5627 17.875C32.0939 17.8125 31.8752 17.9375 31.8752 18.25C31.8752 18.5312 33.3439 23.0625 35.1564 28.3437C36.9689 33.5937 38.4377 38.0937 38.4377 38.3125C38.4377 38.6562 37.5627 38.75 34.2189 38.75C29.6564 38.75 28.5002 38.4687 27.3127 37.1562C26.9064 36.7187 25.3752 32.7812 23.7189 27.9687L20.8439 19.5312L23.5939 11.3437C25.1252 6.8125 26.4689 3.3125 26.5939 3.53125C26.6877 3.71875 27.7502 6.75 28.9377 10.2187C30.8752 15.9375 31.1564 16.5625 31.8127 16.5625C32.1877 16.5625 32.5002 16.4062 32.5002 16.1875C32.5002 16 31.2814 12.25 29.7814 7.90625L27.0939 0H21.9689C17.0939 0 16.8752 0.03125 16.8752 0.625Z" fill="#040E50"/>
</g>
<defs>
<clipPath id="clip0_130_485">
<rect width="40" height="40" fill="white"/>
</clipPath>
</defs>
</svg>
