<svg width="40" height="40" viewBox="0 0 40 40" fill="none" xmlns="http://www.w3.org/2000/svg">
<path d="M9.28125 1.78125C9.15625 1.875 9.0625 2.65625 9.0625 3.5V5H5.03125C1.78125 5 0.875 5.09375 0.5 5.5C0.0625 5.90625 0 7.40625 0 17C0 27.2812 0.03125 28.0625 0.5625 28.5312C1.0625 29 2.125 29.0625 8.84375 29.0625H16.5625V30.9375V32.7812L13.375 32.875L10.1562 32.9688L10.0625 34.9062C9.96875 36.75 9.9375 36.875 9.21875 36.875C8.59375 36.875 8.4375 37.0312 8.4375 37.6562V38.4375H20H31.5625V37.6562C31.5625 37.0312 31.4062 36.875 30.7812 36.875C30.0625 36.875 30.0312 36.75 29.9375 34.9062L29.8438 32.9688L26.6562 32.875L23.4375 32.7812V30.9375V29.0625H31.1875C38.3125 29.0625 39 29 39.4688 28.5C39.9375 27.9688 40 26.7188 40 16.9375C40 7.40625 39.9375 5.90625 39.5 5.5C39.125 5.09375 38.25 5 35 5H30.9688L30.875 3.34375L30.7812 1.71875L20.125 1.625C14.2812 1.59375 9.40625 1.65625 9.28125 1.78125ZM29.0625 6.28125V9.4375L25.5625 13.6562C23.625 15.9375 21.9375 18.0938 21.8125 18.4375C21.6875 18.75 21.5 19.875 21.375 20.9062C21.125 23.2812 21.4062 23.4375 24.1875 22.5C25.9062 21.9375 26.4062 21.5938 27.625 20.0938L29.0625 18.375V22V25.625H20H10.9375V14.375V3.125H20H29.0625V6.28125ZM9.0625 15V23.4375H5.3125H1.5625V15V6.5625H5.3125H9.0625V15ZM38.4375 15V23.4375H34.6875H30.9375V19.8125V16.1562L32.2812 14.5625C35.0312 11.3438 35.2812 10.4375 33.875 8.78125C33.2812 8.03125 32.8125 7.8125 32 7.8125C31.1562 7.8125 30.9375 7.6875 30.9375 7.1875C30.9375 6.59375 31.1562 6.5625 34.6875 6.5625H38.4375V15ZM32.625 9.875C33.2188 10.4375 33.25 10.6875 32.75 11.1875C32.5 11.4375 32.1875 11.375 31.4688 10.875C30.5938 10.25 30.5625 10.1875 31.125 9.78125C31.8438 9.25 32.0312 9.28125 32.625 9.875ZM31.25 12.9688C31.25 13.0312 30.0312 14.5312 28.5312 16.3125C27.0625 18.0938 25.7812 19.5938 25.75 19.6562C25.5625 19.875 24.0625 18.75 24.0625 18.4062C24.0625 18.2188 25.2812 16.625 26.7812 14.8438L29.5312 11.625L30.375 12.25C30.875 12.5625 31.25 12.9062 31.25 12.9688ZM9.0625 25.5938C9.0625 27.25 8.625 27.1875 20 27.1875C31.375 27.1875 30.9375 27.25 30.9375 25.5938C30.9375 25.0312 31.1875 25 34.6875 25H38.4375V26.25V27.5H20H1.5625V26.25V25H5.3125C8.8125 25 9.0625 25.0312 9.0625 25.5938ZM21.875 30.9375V32.8125H20H18.125V30.9375V29.0625H20H21.875V30.9375ZM28.4375 35.625V36.875H20H11.5625V35.625V34.375H20H28.4375V35.625Z" fill="#040E50"/>
<path d="M11.875 5C11.875 5.90625 11.9375 5.9375 13.2812 5.9375C14.625 5.9375 14.6875 5.90625 14.6875 5C14.6875 4.09375 14.625 4.0625 13.2812 4.0625C11.9375 4.0625 11.875 4.09375 11.875 5Z" fill="#040E50"/>
<path d="M15.9375 5V5.9375H21.7188H27.5V5V4.0625H21.7188H15.9375V5Z" fill="#040E50"/>
<path d="M11.875 8.28125V9.0625H19.6875H27.5V8.28125V7.5H19.6875H11.875V8.28125Z" fill="#040E50"/>
<path d="M11.875 11.7188C11.875 12.3438 12.0312 12.5 12.6562 12.5C13.2812 12.5 13.4375 12.3438 13.4375 11.7188C13.4375 11.0938 13.2812 10.9375 12.6562 10.9375C12.0312 10.9375 11.875 11.0938 11.875 11.7188Z" fill="#040E50"/>
<path d="M14.375 11.7188C14.375 12.375 14.5312 12.5 15.3125 12.5C16.0938 12.5 16.25 12.375 16.25 11.7188C16.25 11.0625 16.0938 10.9375 15.3125 10.9375C14.5312 10.9375 14.375 11.0625 14.375 11.7188Z" fill="#040E50"/>
<path d="M17.1875 11.7188V12.5H20.9375H24.6875V11.7188V10.9375H20.9375H17.1875V11.7188Z" fill="#040E50"/>
<path d="M11.875 15V15.9375H14.0625H16.25V15V14.0625H14.0625H11.875V15Z" fill="#040E50"/>
<path d="M17.1875 15V15.9375H19.6875H22.1875V15V14.0625H19.6875H17.1875V15Z" fill="#040E50"/>
<path d="M11.875 20.3125V21.25H15.625H19.375V20.3125V19.375H15.625H11.875V20.3125Z" fill="#040E50"/>
<path d="M11.875 23.5938V24.375H16.4062H20.9375V23.5938V22.8125H16.4062H11.875V23.5938Z" fill="#040E50"/>
<path d="M35.9375 26.4062C35.9375 27.0312 36.0938 27.1875 36.7188 27.1875C37.3438 27.1875 37.5 27.0312 37.5 26.4062C37.5 25.7812 37.3438 25.625 36.7188 25.625C36.0938 25.625 35.9375 25.7812 35.9375 26.4062Z" fill="#040E50"/>
</svg>
