<svg width="40" height="40" viewBox="0 0 40 40" fill="none" xmlns="http://www.w3.org/2000/svg">
<path d="M7.15625 7.15625L6.25 8.0625V20V31.9375L7.15625 32.8438L8.0625 33.75H20H31.9375L32.8438 32.8438L33.75 31.9375V20V8.0625L32.8438 7.15625L31.9375 6.25H20H8.0625L7.15625 7.15625ZM32.2188 7.78125C32.8125 8.40625 33.125 9.03125 33.125 9.65625C33.125 10.5312 33.0312 10.625 32.1875 10.625C31.6875 10.625 31.25 10.75 31.25 10.9375C31.25 11.0938 31.6875 11.25 32.1875 11.25H33.125V21.2812V31.3125L32.2188 32.2188L31.3125 33.125H20H8.6875L7.78125 32.2188L6.875 31.3125V21.2812V11.25H14.6875C19.6875 11.25 22.5 11.125 22.5 10.9375C22.5 10.75 19.6875 10.625 14.6875 10.625H6.875V9.65625C6.875 9.03125 7.1875 8.40625 7.78125 7.78125L8.6875 6.875H20H31.3125L32.2188 7.78125Z" fill="#040E50"/>
<path d="M9.62499 7.53127C8.71874 8.03127 8.90624 9.62502 9.87499 10.0625C10.9062 10.5313 11.6875 10.0938 11.8125 8.93752C12 7.46877 10.9062 6.78127 9.62499 7.53127ZM11.0937 8.75002C11.0937 9.00002 10.8437 9.25002 10.5625 9.31252C10.1562 9.37502 9.99999 9.21877 9.99999 8.75002C9.99999 8.28127 10.1562 8.12502 10.5625 8.18752C10.8437 8.25002 11.0937 8.50002 11.0937 8.75002Z" fill="#040E50"/>
<path d="M24.125 8.62502C23.5937 9.00002 23.4375 9.40627 23.4375 10.5C23.4375 11.25 23.5937 11.875 23.75 11.875C23.9375 11.875 24.0625 11.5 24.0625 11.0625C24.0625 9.37502 24.5 9.06252 26.9687 9.06252C28.3437 9.06252 29.4062 9.21877 29.625 9.43752C30.1562 9.96877 30.1562 25.3438 29.625 25.875C29.4062 26.0938 28.375 26.25 27.1562 26.25C24.0625 26.25 24.0625 26.2813 24.0625 20.2813C24.0625 17.1875 23.9375 15.3125 23.75 15.3125C23.5625 15.3125 23.4375 17.2813 23.4375 20.5625C23.4375 27.1875 23.3437 27.0313 27.0312 27.0313C31.0937 27.0313 30.9375 27.4375 30.9375 17.5938V9.65627L30.1562 8.90627C29.5 8.21877 29.125 8.12502 27.125 8.12502C25.5625 8.12502 24.5937 8.28127 24.125 8.62502Z" fill="#040E50"/>
<path d="M25.375 12.0938L25.4688 13.9062L27.125 14L28.75 14.0938V12.2188V10.3125H27.0312H25.2812L25.375 12.0938ZM28.125 12.1875C28.125 13.0312 28.0312 13.125 27.1875 13.125C26.3438 13.125 26.25 13.0312 26.25 12.1875C26.25 11.3438 26.3438 11.25 27.1875 11.25C28.0312 11.25 28.125 11.3438 28.125 12.1875Z" fill="#040E50"/>
<path d="M23.1562 13.2188C22.5938 14.8438 20 16.9688 20 15.7812C20 15.0312 17.1875 15.125 16.9688 15.875C16.9062 16.1875 16.1875 16.6562 15.25 17C13.0312 17.7812 10.5938 20.25 9.875 22.4375C9.46875 23.6562 9.15625 24.0625 8.71875 24.0625C8.21875 24.0625 8.125 24.2812 8.125 25.625V27.1875H9.6875H11.25V25.625C11.25 24.4375 11.125 24.0625 10.7812 24.0625C10.125 24.0625 10.1875 23.6562 11.0938 21.9062C12.4375 19.25 16.2188 16.6562 16.9375 17.9375C17.0938 18.2188 17.4375 18.4375 17.6562 18.4375C17.9062 18.4375 18.125 18.5312 18.125 18.6562C18.125 18.75 17.0625 20.875 15.7812 23.3438C14.5 25.7812 13.4375 27.9688 13.4375 28.1562C13.4375 28.375 13.75 28.4375 14.25 28.3125C15.5312 27.9688 15.9375 28.5625 15.9375 30.6875C15.9375 33.1875 16.6875 33.0312 16.8125 30.5C16.9062 28.8438 16.8438 28.6562 15.9375 27.8125L14.9688 26.9062L16.5312 23.8438L18.0938 20.7812V22.5312C18.125 23.75 17.9688 24.4375 17.6562 24.6875C16.9688 25.25 17.0625 26.4688 17.8438 26.875C18.3438 27.1562 18.6562 27.125 19.25 26.7188C20.125 26.1562 20.1875 25.6875 19.5312 24.8125C19.2812 24.4688 19.0938 23.5312 19.0938 22.6562L19.0625 21.0938L20.625 24.0312C22.1562 26.875 22.2812 27.5 21.4062 27.5C21.1562 27.5 20.8125 27.7812 20.625 28.0938C20.2188 28.875 20.2188 32.5 20.625 32.5C20.8125 32.5 20.9375 31.875 20.9375 31.125C20.9375 30.3438 21.0938 29.3438 21.25 28.9062C21.5312 28.1562 21.6875 28.0938 22.6562 28.25C23.25 28.375 23.75 28.375 23.75 28.25C23.75 28.125 22.625 25.875 21.25 23.2188C19.4062 19.7188 18.8438 18.4375 19.2188 18.4375C19.4688 18.4375 19.8438 18.0938 20 17.6562C20.1562 17.2188 20.5 16.875 20.75 16.875C21.9062 16.875 24.0625 14.25 24.0625 12.8125C24.0625 11.8438 23.5312 12.0625 23.1562 13.2188ZM19.375 16.7188C19.375 17.3438 19.2188 17.5 18.5938 17.5C17.9688 17.5 17.8125 17.3438 17.8125 16.7188C17.8125 16.0938 17.9688 15.9375 18.5938 15.9375C19.2188 15.9375 19.375 16.0938 19.375 16.7188ZM10.3125 25.625C10.3125 26.0312 10.0938 26.25 9.6875 26.25C9.28125 26.25 9.0625 26.0312 9.0625 25.625C9.0625 25.2188 9.28125 25 9.6875 25C10.0938 25 10.3125 25.2188 10.3125 25.625ZM18.8125 26C18.625 26.1875 18.3438 26.2812 18.25 26.1562C18.125 26.0625 18.125 25.7188 18.25 25.4375C18.4062 25.0312 18.5312 24.9688 18.8125 25.25C19.0938 25.5312 19.0938 25.7188 18.8125 26Z" fill="#040E50"/>
<path d="M25.3125 17.6562V19.375H27.0312H28.75V17.6562V15.9375H27.0312H25.3125V17.6562ZM28.125 17.6562C28.125 18.6562 28.0625 18.75 27.1875 18.75C26.3125 18.75 26.25 18.6562 26.25 17.6562C26.25 16.6562 26.3125 16.5625 27.1875 16.5625C28.0625 16.5625 28.125 16.6562 28.125 17.6562Z" fill="#040E50"/>
<path d="M25.375 23.0312L25.4688 24.8438L27.125 24.9375L28.75 25.0312V23.1562V21.25H27.0312H25.2812L25.375 23.0312ZM28.125 23.125C28.125 23.9688 28.0312 24.0625 27.1875 24.0625C26.3438 24.0625 26.25 23.9688 26.25 23.125C26.25 22.2812 26.3438 22.1875 27.1875 22.1875C28.0312 22.1875 28.125 22.2812 28.125 23.125Z" fill="#040E50"/>
</svg>
