<svg width="40" height="40" viewBox="0 0 40 40" fill="none" xmlns="http://www.w3.org/2000/svg">
<g clip-path="url(#clip0_130_547)">
<path d="M0.6875 0.718696C0.21875 1.2187 0 1.8437 0 2.68745C0 4.43745 0.96875 5.31245 2.84375 5.31245C4.03125 5.31245 4.40625 5.4687 5.3125 6.4062C6.46875 7.5937 7.5 7.8437 7.5 6.93745C7.5 6.62495 7 5.9062 6.40625 5.31245C5.46875 4.4062 5.3125 4.06245 5.3125 2.81245C5.3125 1.68745 5.15625 1.18745 4.59375 0.687446C3.5625 -0.281304 1.59375 -0.250054 0.6875 0.718696ZM3.5 1.7812C4.21875 2.43745 4.21875 2.9062 3.40625 3.62495C2.9375 4.0312 2.65625 4.12495 2.28125 3.87495C1.28125 3.24995 1.09375 2.5937 1.6875 1.9062C2.40625 1.12495 2.75 1.0937 3.5 1.7812Z" fill="#040E50"/>
<path d="M35.375 0.718696C34.875 1.24995 34.6875 1.8437 34.6875 2.8437C34.6875 4.0312 34.5312 4.4062 33.5938 5.31245C33 5.9062 32.5 6.62495 32.5 6.93745C32.5 7.8437 33.5312 7.5937 34.6875 6.4062C35.5938 5.4687 35.9375 5.31245 37.1875 5.31245C38.3125 5.31245 38.8125 5.1562 39.3125 4.5937C40.2812 3.56245 40.25 1.5937 39.2812 0.687446C38.25 -0.281304 36.2812 -0.250054 35.375 0.718696ZM38.1875 1.7812C38.9062 2.43745 38.9062 2.9062 38.0938 3.62495C37.4062 4.2187 36.75 4.0312 36.125 3.0312C35.875 2.6562 35.9688 2.37495 36.375 1.9062C37.0938 1.12495 37.4375 1.0937 38.1875 1.7812Z" fill="#040E50"/>
<path d="M15.9375 3.4375C15.5312 3.84375 15.3125 4.46875 15.3125 5.3125C15.3125 6.40625 15.1875 6.625 14.4688 6.90625C13.75 7.15625 13.5312 7.09375 12.6562 6.25C12.125 5.75 11.4062 5.3125 11.0625 5.3125C10.2812 5.3125 5.3125 10.2812 5.3125 11.0938C5.3125 11.4062 5.75 12.125 6.25 12.6562C7.09375 13.5312 7.15625 13.75 6.90625 14.4688C6.625 15.1875 6.40625 15.3125 5.3125 15.3125C3.15625 15.3125 2.8125 15.9375 2.8125 20C2.8125 24.0625 3.15625 24.6875 5.3125 24.6875C6.40625 24.6875 6.625 24.8125 6.90625 25.5312C7.15625 26.25 7.09375 26.4688 6.25 27.3438C5.75 27.875 5.3125 28.5938 5.3125 28.9375C5.3125 29.7188 10.2812 34.6875 11.0938 34.6875C11.4062 34.6875 12.125 34.25 12.6562 33.75C13.5312 32.9062 13.75 32.8438 14.4688 33.0938C15.1875 33.375 15.3125 33.5938 15.3125 34.6875C15.3125 36.8438 15.9375 37.1875 20 37.1875C24.0625 37.1875 24.6875 36.8438 24.6875 34.6875C24.6875 33.5938 24.8125 33.375 25.5312 33.0938C26.25 32.8438 26.4688 32.9062 27.3438 33.75C27.875 34.25 28.5938 34.6875 28.9375 34.6875C29.7188 34.6875 34.6875 29.7188 34.6875 28.9062C34.6875 28.5938 34.25 27.875 33.75 27.3438C32.9062 26.4688 32.8438 26.25 33.0938 25.5312C33.375 24.8125 33.5938 24.6875 34.6875 24.6875C36.8438 24.6875 37.1875 24.0625 37.1875 20C37.1875 15.9375 36.8438 15.3125 34.6875 15.3125C33.5938 15.3125 33.375 15.1875 33.0938 14.4688C32.8438 13.75 32.9062 13.5312 33.75 12.6562C34.25 12.125 34.6875 11.4062 34.6875 11.0625C34.6875 10.2812 29.7188 5.3125 28.9062 5.3125C28.5938 5.3125 27.875 5.75 27.3438 6.25C26.4688 7.09375 26.25 7.15625 25.5312 6.90625C24.8125 6.625 24.6875 6.40625 24.6875 5.3125C24.6875 3.5625 23.8125 2.75 22.0938 2.875C21 2.9375 20.75 3.09375 20.6875 3.65625C20.5938 4.3125 20.7188 4.375 21.8438 4.375H23.125V5.6875C23.125 7.375 23.3125 7.625 24.8125 8.25C26.4375 8.9375 26.6875 8.90625 27.9062 7.8125L28.9688 6.90625L31.0312 9L33.0938 11.0938L32.1562 12.125C31.0938 13.2812 31.0625 13.5625 31.75 15.1875C32.375 16.6875 32.625 16.875 34.3125 16.875H35.625V20V23.125H34.3125C32.625 23.125 32.375 23.3125 31.75 24.8125C31.0625 26.4375 31.0938 26.7188 32.1562 27.875L33.0938 28.9062L31.0312 31L28.9688 33.0938L27.9062 32.1875C26.6875 31.0938 26.4375 31.0625 24.8125 31.75C23.3125 32.375 23.125 32.625 23.125 34.2812V35.625H20H16.875V34.2812C16.875 32.625 16.6875 32.375 15.1875 31.75C13.5625 31.0625 13.3125 31.0938 12.0938 32.1875L11.0312 33.0938L8.96875 31L6.90625 28.9062L7.84375 27.875C8.90625 26.7188 8.9375 26.4375 8.25 24.8125C7.625 23.3125 7.375 23.125 5.71875 23.125H4.375V20V16.875H5.71875C7.375 16.875 7.625 16.6875 8.25 15.1875C8.9375 13.5625 8.90625 13.2812 7.84375 12.125L6.90625 11.0938L8.96875 9L11.0312 6.90625L12.0938 7.8125C13.3125 8.90625 13.5625 8.9375 15.1875 8.25C16.6875 7.625 16.875 7.375 16.875 5.6875C16.875 4.40625 16.9062 4.375 17.9375 4.375C19.1562 4.375 19.5938 3.9375 19.0625 3.28125C18.5 2.59375 16.6875 2.6875 15.9375 3.4375Z" fill="#040E50"/>
<path d="M16.7187 10.8438C10.0937 13.2188 8.12494 21.7188 12.9999 26.7188C14.7187 28.5001 16.6874 29.4063 19.2187 29.6251C22.3437 29.8751 26.0937 28.4688 25.0624 27.4376C24.8124 27.1876 24.2187 27.2188 22.8437 27.6563C19.5312 28.6563 16.4999 27.9688 14.2812 25.7188C12.5312 24.0001 12.0312 22.6876 12.0312 20.0001C12.0312 17.3126 12.5312 16.0001 14.2812 14.2813C15.9999 12.5313 17.3124 12.0313 19.9999 12.0313C22.6874 12.0313 23.9999 12.5313 25.7187 14.2813C28.5312 17.0626 28.9374 21.5938 26.6562 24.6251C25.8437 25.7188 25.8124 26.6563 26.5937 26.8126C27.3124 26.9376 28.9062 24.4063 29.3749 22.4376C29.8749 20.4376 29.6249 17.6876 28.8124 15.8438C27.9999 14.0313 25.9687 12.0001 24.0937 11.1563C22.0937 10.2813 18.7499 10.1251 16.7187 10.8438Z" fill="#040E50"/>
<path d="M13.125 20V23.4375H15C16.625 23.4375 16.875 23.375 16.875 22.8438C16.875 22.2188 16.3125 21.875 15.2812 21.875C14.9062 21.875 14.6875 21.6562 14.6875 21.2812C14.6875 20.8125 14.9375 20.625 15.7188 20.5625C16.3438 20.5 16.7188 20.3125 16.7188 20C16.7188 19.6875 16.3438 19.5 15.7188 19.4375C14.9375 19.375 14.6875 19.1875 14.6875 18.7188C14.6875 18.3438 14.9062 18.125 15.2812 18.125C16.3125 18.125 16.875 17.7812 16.875 17.1562C16.875 16.625 16.625 16.5625 15 16.5625H13.125V20Z" fill="#040E50"/>
<path d="M17.5 20C17.5 23.2188 17.5312 23.4375 18.125 23.4375C18.625 23.4375 18.75 23.2188 18.75 22.4375V21.4375L19.8125 22.4688C20.5 23.125 21.0938 23.4375 21.375 23.3438C22.0938 23.0625 22 22.4062 21.125 21.5938L20.375 20.9062L21.125 20.1562C22.7812 18.5 21.6562 16.5625 19.0625 16.5625H17.5V20ZM19.8438 18.2188C20.5 18.7188 20.2188 19.375 19.3438 19.375C18.9062 19.375 18.75 19.1562 18.75 18.5938C18.75 17.7188 19 17.625 19.8438 18.2188Z" fill="#040E50"/>
<path d="M22.3126 16.9687C22.2189 17.2187 22.2189 18.7187 22.2501 20.3437C22.3439 23.125 22.3751 23.2812 23.0626 23.375C23.6876 23.4687 23.7501 23.3437 23.7501 22.2187C23.7501 20.9687 23.7814 20.9375 24.8126 20.9375C26.6876 20.9375 27.5939 18.5312 26.2501 17.1875C25.5001 16.4375 22.5939 16.2812 22.3126 16.9687ZM24.7189 18.125C25.4376 18.5312 25.5001 19.25 24.8126 19.5C23.9376 19.8437 23.7501 19.7187 23.7501 18.75C23.7501 17.7187 23.8439 17.6562 24.7189 18.125Z" fill="#040E50"/>
<path d="M5.3125 33.5938C4.40625 34.5312 4.0625 34.6875 2.8125 34.6875C0.9375 34.6875 0 35.5938 0 37.375C0 39.0625 0.96875 40 2.6875 40C4.4375 40 5.3125 39.0312 5.3125 37.1562C5.3125 35.9688 5.46875 35.5938 6.40625 34.6875C7.59375 33.5312 7.84375 32.5 6.9375 32.5C6.625 32.5 5.90625 33 5.3125 33.5938ZM3.5 36.4688C4.21875 37.125 4.21875 37.5938 3.40625 38.3125C2.9375 38.7188 2.65625 38.8125 2.28125 38.5625C1.28125 37.9375 1.09375 37.2812 1.6875 36.5938C2.40625 35.8125 2.75 35.7812 3.5 36.4688Z" fill="#040E50"/>
<path d="M32.5 33.0625C32.5 33.375 33 34.0938 33.5938 34.6875C34.5312 35.5938 34.6875 35.9375 34.6875 37.1875C34.6875 39.0625 35.5938 40 37.375 40C39.0625 40 40 39.0312 40 37.3125C40 35.5625 39.0312 34.6875 37.1562 34.6875C35.9688 34.6875 35.5938 34.5312 34.6875 33.5938C33.5312 32.4062 32.5 32.1562 32.5 33.0625ZM38.1875 36.4688C38.9062 37.125 38.9062 37.5938 38.0938 38.3125C37.625 38.7188 37.3438 38.8125 36.9688 38.5625C35.9688 37.9375 35.7812 37.2812 36.375 36.5938C37.0938 35.8125 37.4375 35.7812 38.1875 36.4688Z" fill="#040E50"/>
</g>
<defs>
<clipPath id="clip0_130_547">
<rect width="40" height="40" fill="white"/>
</clipPath>
</defs>
</svg>
