<svg width="37" height="38" viewBox="0 0 37 38" fill="none" xmlns="http://www.w3.org/2000/svg">
<path d="M2.875 0.398438C2.65625 0.617188 2.5 1.64844 2.5 2.89844C2.5 4.49219 2.40625 5.02344 2.0625 5.02344C1.84375 5.02344 1.28125 5.39844 0.8125 5.83594L0 6.67969V17.5234V28.3672L0.8125 29.2109L1.65625 30.0234H6.875H12.125L11.6562 31.8984L11.1875 33.7734H9.53125C7.5 33.7734 6.25 34.8047 6.25 36.4609V37.5234H16.25H26.25V36.4609C26.25 34.8047 25 33.7734 22.9688 33.7734H21.3125L20.8438 31.8984C20.4062 30.1484 20.4062 30.0234 20.9375 30.0234C21.2188 30.0234 21.7188 30.3047 22.0312 30.6484C22.6875 31.3984 23.5312 31.4609 24.0625 30.8047C24.6875 30.0547 25 30.2734 25 31.4297V32.5234H27.5H30V31.4297C30 30.2734 30.3125 30.0547 30.9375 30.8047C31.5625 31.5859 32.3125 31.3359 33.6875 29.9297C35.0938 28.5234 35.2812 27.8359 34.5312 27.2109C33.7812 26.5859 34 26.2734 35.1562 26.2734H36.25V23.7734V21.2734H35.1562C34 21.2734 33.7812 20.9609 34.5312 20.3359C35.2812 19.7109 35.0938 18.9922 33.75 17.6797L32.5 16.4609V11.5547C32.5 6.67969 32.5 6.67969 31.6875 5.83594C31.2188 5.39844 30.6562 5.02344 30.4375 5.02344C30.0938 5.02344 30 4.49219 30 2.89844C30 1.64844 29.8438 0.617188 29.625 0.398438C29.0938 -0.132812 3.40625 -0.132812 2.875 0.398438ZM28.375 1.64844C28.5938 1.86719 28.75 2.71094 28.75 3.52344V5.02344H16.25H3.75V3.52344C3.75 2.71094 3.90625 1.86719 4.125 1.64844C4.65625 1.11719 27.8438 1.11719 28.375 1.64844ZM28.75 10.6484V15.0234H26.875H25V16.1172C25 17.2734 24.6875 17.4922 24.0625 16.7422C23.5312 16.0859 22.8125 16.1484 21.9688 16.9609L21.25 17.6172V15.7109V13.7734H18.75H16.25V16.2734V18.7734H18.125C19.75 18.7734 20 18.8359 20 19.3672C20 19.6797 20.2188 20.1172 20.4688 20.3359C20.7188 20.5547 20.9375 20.8359 20.9375 20.9922C20.9375 21.4297 4.5625 21.3359 4.125 20.8984C3.84375 20.6172 3.75 18.5234 3.75 13.3984V6.27344H16.25H28.75V10.6484ZM2.84375 22.1172C3.125 22.4297 4.875 22.5234 10.9688 22.5234C18.5312 22.5234 18.75 22.5547 18.75 23.1484C18.75 23.7734 18.5312 23.7734 10 23.7734H1.21875L1.3125 15.7109C1.375 9.08594 1.5 7.52344 1.875 7.05469C2.28125 6.55469 2.34375 7.27344 2.4375 14.0859C2.46875 19.0547 2.625 21.8359 2.84375 22.1172ZM31.1875 11.9297C31.2812 16.1797 31.125 17.2109 30.2812 17.2109C30.125 17.2109 30 14.8047 30 11.8359C30 6.71094 30.0312 6.49219 30.5625 6.99219C31 7.46094 31.125 8.27344 31.1875 11.9297ZM20 16.2734V17.5234H18.75H17.5V16.2734V15.0234H18.75H20V16.2734ZM28.75 17.3359C28.75 18.2109 28.9062 18.4609 29.6875 18.7734C30.5312 19.1172 30.7188 19.0859 31.2812 18.5859C31.875 18.0547 31.9062 18.0547 32.5625 18.7109C33.2188 19.3359 33.2188 19.3984 32.6875 19.9922C32.3125 20.3984 32.1875 20.8359 32.3438 21.3359C32.5 21.8672 32.375 21.8047 31.9062 21.0234C30.9375 19.4922 29.5 18.7734 27.5 18.7734C25.5 18.7734 24.0625 19.4922 23.0938 21.0234C22.625 21.8047 22.5 21.8672 22.6562 21.3359C22.8125 20.8359 22.6875 20.3984 22.3125 19.9922C21.7812 19.3984 21.7812 19.3359 22.4375 18.7109C23.0938 18.0547 23.125 18.0547 23.7188 18.5859C24.2812 19.0859 24.4688 19.1172 25.3125 18.7734C26.0938 18.4609 26.25 18.2109 26.25 17.3359C26.25 16.3047 26.2812 16.2734 27.5 16.2734C28.7188 16.2734 28.75 16.3047 28.75 17.3359ZM29.875 21.3984C30.75 22.2734 30.9375 22.7109 30.9375 23.7734C30.9375 24.8359 30.75 25.2734 29.875 26.1484C29 27.0234 28.5625 27.2109 27.5 27.2109C26.4375 27.2109 26 27.0234 25.125 26.1484C23.9062 24.9297 23.7188 23.3672 24.5938 21.8984C25.2188 20.8047 26.0625 20.3984 27.625 20.3672C28.5625 20.3359 29.0312 20.5547 29.875 21.3984ZM22.5 23.7109V25.2109L21.25 25.0859C20.0312 24.9609 20 24.9297 20 23.7734C20 22.6172 20.0312 22.5547 21.1875 22.4297C21.8125 22.3672 22.375 22.3047 22.4375 22.2734C22.4688 22.2422 22.5 22.8672 22.5 23.7109ZM35 23.7734C35 24.9297 34.9688 24.9609 33.75 25.0859L32.5 25.2109V23.7734V22.3359L33.75 22.4609C34.9688 22.5859 35 22.6172 35 23.7734ZM18.75 25.6484C18.75 26.1484 18.9688 26.2734 19.8438 26.2734C21 26.2734 21.2188 26.5859 20.4688 27.2109C20.2188 27.4297 20 27.8672 20 28.2109C20 28.7734 19.7188 28.8047 11.25 28.7109C1.4375 28.6172 1.65625 28.6484 1.34375 26.3047L1.15625 25.0234H9.96875C18.5312 25.0234 18.75 25.0234 18.75 25.6484ZM24.75 28.1797C25.5312 28.6484 25.5938 28.7734 25.0625 28.6172C24.5625 28.4609 24.125 28.5859 23.7188 28.9609C23.125 29.4922 23.0625 29.4922 22.4375 28.8359C21.7812 28.2109 21.7812 28.1484 22.3125 27.5547C22.6875 27.1484 22.8125 26.7109 22.6562 26.2109C22.5 25.6797 22.625 25.7422 23.0938 26.5234C23.4688 27.0859 24.1875 27.8047 24.75 28.1797ZM32.3438 26.3047C32.2188 26.7109 32.3438 27.1484 32.6875 27.5547C33.2188 28.1484 33.2188 28.2109 32.5625 28.8359C31.9375 29.4922 31.875 29.4922 31.2812 28.9609C30.875 28.5859 30.4375 28.4609 29.9375 28.6172C29.4062 28.7734 29.5 28.6484 30.25 28.1797C30.8125 27.8047 31.5312 27.0859 31.8125 26.5859C32.4375 25.4922 32.625 25.3984 32.3438 26.3047ZM28.8125 30.0234C28.6875 31.2422 28.6562 31.2734 27.5 31.2734C26.3438 31.2734 26.3125 31.2422 26.1875 30.0234L26.0625 28.7734H27.5H28.9375L28.8125 30.0234ZM19.1562 31.8984L19.625 33.7734H16.25H12.875L13.3438 31.8984L13.8125 30.0234H16.25H18.6875L19.1562 31.8984ZM24.2812 35.7422C24.7812 36.2422 24.4062 36.2734 16.3125 36.2734C7.9375 36.2734 6.90625 36.1484 8.875 35.3359C9.21875 35.1797 12.7188 35.0859 16.625 35.1172C22.9062 35.1797 23.7812 35.2422 24.2812 35.7422Z" fill="#040E50"/>
<path d="M5 3.14844C5 3.55469 5.21875 3.77344 5.625 3.77344C6.03125 3.77344 6.25 3.55469 6.25 3.14844C6.25 2.74219 6.03125 2.52344 5.625 2.52344C5.21875 2.52344 5 2.74219 5 3.14844Z" fill="#040E50"/>
<path d="M7.5 3.14844C7.5 3.55469 7.71875 3.77344 8.125 3.77344C8.53125 3.77344 8.75 3.55469 8.75 3.14844C8.75 2.74219 8.53125 2.52344 8.125 2.52344C7.71875 2.52344 7.5 2.74219 7.5 3.14844Z" fill="#040E50"/>
<path d="M10 3.14844C10 3.55469 10.2188 3.77344 10.625 3.77344C11.0312 3.77344 11.25 3.55469 11.25 3.14844C11.25 2.74219 11.0312 2.52344 10.625 2.52344C10.2188 2.52344 10 2.74219 10 3.14844Z" fill="#040E50"/>
<path d="M7.25 8.14844C5.75 9.08594 5 10.4922 5 12.5234C5 15.6484 6.875 17.5234 10 17.5234C13.125 17.5234 15 15.6484 15 12.5234C15 10.4922 14.25 9.08594 12.75 8.14844C11.3438 7.30469 8.65625 7.30469 7.25 8.14844ZM12.375 10.1484C13.5 11.2734 13.7812 12.8359 13.0938 14.1172C12.5938 15.1172 12.2812 14.5234 12.4375 12.8672C12.625 10.8984 11.875 10.0234 10 10.0234C8.125 10.0234 7.375 10.8984 7.5625 12.8672C7.71875 14.5234 7.40625 15.1172 6.90625 14.1172C6.09375 12.6484 6.84375 10.1172 8.25 9.42969C8.625 9.27344 9.4375 9.11719 10.125 9.11719C11.0625 9.08594 11.5312 9.30469 12.375 10.1484ZM10.7812 12.5234C10.7812 13.0859 10.5938 13.3359 10.0625 13.3984C9.3125 13.5234 8.875 12.8359 9.1875 12.0234C9.28125 11.7422 9.65625 11.5859 10.0625 11.6484C10.5938 11.7109 10.7812 11.9609 10.7812 12.5234ZM11.0938 15.6484C11.2188 15.8359 10.7812 15.9609 10 15.9609C9.21875 15.9609 8.78125 15.8359 8.90625 15.6484C9 15.4609 9.5 15.3359 10 15.3359C10.5 15.3359 11 15.4609 11.0938 15.6484Z" fill="#040E50"/>
<path d="M16.25 10.0234V12.5234H18.75H21.25V10.0234V7.52344H18.75H16.25V10.0234ZM20 10.0234V11.2734H18.75H17.5V10.0234V8.77344H18.75H20V10.0234Z" fill="#040E50"/>
<path d="M22.5 8.14844C22.5 8.71094 22.7188 8.77344 25 8.77344C27.2812 8.77344 27.5 8.71094 27.5 8.14844C27.5 7.58594 27.2812 7.52344 25 7.52344C22.7188 7.52344 22.5 7.58594 22.5 8.14844Z" fill="#040E50"/>
<path d="M22.5 10.6484C22.5 11.2109 22.7188 11.2734 25 11.2734C27.2812 11.2734 27.5 11.2109 27.5 10.6484C27.5 10.0859 27.2812 10.0234 25 10.0234C22.7188 10.0234 22.5 10.0859 22.5 10.6484Z" fill="#040E50"/>
<path d="M22.5 13.1484C22.5 13.7109 22.7188 13.7734 25 13.7734C27.2812 13.7734 27.5 13.7109 27.5 13.1484C27.5 12.5859 27.2812 12.5234 25 12.5234C22.7188 12.5234 22.5 12.5859 22.5 13.1484Z" fill="#040E50"/>
<path d="M7.5 19.3984C7.5 19.9609 7.71875 20.0234 10 20.0234C12.2812 20.0234 12.5 19.9609 12.5 19.3984C12.5 18.8359 12.2812 18.7734 10 18.7734C7.71875 18.7734 7.5 18.8359 7.5 19.3984Z" fill="#040E50"/>
<path d="M25.625 21.8984C25.2188 22.3047 25 22.9297 25 23.7734C25 24.6172 25.2188 25.2422 25.625 25.6484C26.0312 26.0547 26.6562 26.2734 27.5 26.2734C29.1562 26.2734 30 25.4297 30 23.7734C30 22.9297 29.7812 22.3047 29.375 21.8984C28.9688 21.4922 28.3438 21.2734 27.5 21.2734C26.6562 21.2734 26.0312 21.4922 25.625 21.8984ZM28.2812 23.7734C28.2812 24.3359 28.0938 24.5859 27.5625 24.6484C27.1562 24.7109 26.7812 24.5547 26.6875 24.2734C26.375 23.4609 26.8125 22.7734 27.5625 22.8984C28.0938 22.9609 28.2812 23.2109 28.2812 23.7734Z" fill="#040E50"/>
</svg>
