<svg width="40" height="40" viewBox="0 0 40 40" fill="none" xmlns="http://www.w3.org/2000/svg">
<g clip-path="url(#clip0_130_558)">
<path d="M7.8125 5.46875V10.9688L8.53125 10.875C9.21875 10.7812 9.21875 10.6875 9.3125 6L9.40625 1.25H10.3125H11.25V6.125V10.9688L11.9688 10.875C12.6562 10.7812 12.6562 10.75 12.6562 5.46875V0.15625L10.25 0.0625L7.8125 -0.03125V5.46875Z" fill="#040E50"/>
<path d="M13.125 7.3437C13.125 10.9375 13.125 10.9687 13.8438 10.875C14.5 10.7812 14.5312 10.625 14.625 8.0312L14.7188 5.31245H15.625H16.5625V8.1562C16.5625 10.9062 16.5938 10.9687 17.2812 10.875C17.9375 10.7812 17.9688 10.6562 17.9688 7.3437V3.9062L15.5625 3.81245L13.125 3.7187V7.3437Z" fill="#040E50"/>
<path d="M21.375 5.75C20.5625 6.4375 20.5 6.65625 20.375 9.46875L20.25 12.4688L11.0312 12.5625L1.8125 12.6562L0.90625 13.6875L0 14.6875V23.6875C0.03125 30.25 0.125 32.7812 0.40625 33.1562C1.03125 33.9688 2.0625 34.375 3.5625 34.375C4.75 34.375 5 34.2812 5 33.7812C5 33.125 4.40625 32.8125 3.125 32.8125C2.03125 32.8125 1.25 31.8125 1.25 30.4062V29.375H15.0938H28.9375L28.1562 31.0938L27.3438 32.8125H17.5938C12.25 32.8125 7.65625 32.9062 7.375 33C7.09375 33.0938 6.875 33.4688 6.875 33.7812C6.875 34.3125 7.125 34.375 9.53125 34.375C11 34.375 12.1875 34.4375 12.1875 34.5312C12.1875 34.625 11.9688 35.625 11.6875 36.7188L11.1875 38.7188L9.875 38.8125C9 38.875 8.59375 39.0625 8.59375 39.375C8.59375 39.7812 9.65625 39.8438 15.875 39.9375C22.9062 40 23.125 40 23.125 39.4062C23.125 38.9062 22.875 38.7812 21.8125 38.6875L20.5 38.5938L19.9688 36.4688L19.4375 34.375H23.4688C26.875 34.375 27.5 34.4375 27.5 34.8438C27.5 35.625 28.625 37.5938 29.5938 38.5C30.7812 39.625 31.875 40 34.0312 40C37.5 40 40 37.4062 40 33.8125C40 31.7188 39.4375 30.4062 38.0312 29.1562C36.6562 27.9375 35.0625 27.4062 33.25 27.5625L31.875 27.6562V25.5625V23.4375H33.3125C34.8125 23.4375 35.8438 23.0312 36.4688 22.2188C36.7188 21.9062 36.8438 20.5312 36.875 18.5C36.875 15.5312 36.8438 15.3125 36.25 15.3125C35.6875 15.3125 35.625 15.5312 35.625 18.0625C35.625 21.7188 35.4688 21.875 31.6875 21.875C29.1562 21.875 28.75 21.9688 27.7812 22.6562L26.7188 23.4688L26.5625 22.75C26.4062 22.125 26.1562 22 24.4375 21.875C23.1875 21.7812 22.375 21.5625 22.1875 21.25C22.0312 21 21.875 17.7188 21.875 14V7.1875L22.625 6.71875C23.2812 6.28125 24.2812 6.21875 29.0625 6.3125C35.9062 6.4375 35.625 6.25 35.625 10.5312C35.625 13.2188 35.6562 13.4375 36.25 13.4375C36.8438 13.4375 36.875 13.2188 36.875 10C36.875 6.75 36.8438 6.5 36.0938 5.78125C35.3438 5 35.3438 5 28.7812 5C22.3438 5 22.2188 5 21.375 5.75ZM20.3125 17.3125C20.3125 19.0625 20.4688 20.9688 20.6562 21.5312C21.0625 22.6875 22.3125 23.4375 23.9062 23.4375C24.9375 23.4375 25 23.5 25 24.5312C25 26.1562 25.6875 26.2188 27.6562 24.7188C30.0938 22.875 30.3125 22.9375 30.3125 25.7812V28.125H15.7812H1.25V21.9062C1.25 16.125 1.28125 15.6562 1.90625 14.875L2.53125 14.0625H11.4375H20.3125V17.3125ZM33.125 29.5312C33.125 29.8125 32.8125 30.125 32.4375 30.2812C31.1875 30.7812 30.25 32.0625 30.0938 33.5625C30 34.3438 29.7188 35.0312 29.5 35.125C28.7812 35.4062 28.9375 32.5625 29.6875 31.3125C30.6875 29.7188 33.125 28.4375 33.125 29.5312ZM36.25 29.75C37.3125 30.4688 37.8125 31.25 37.2188 31.25C36.5938 31.25 34.6875 29.9375 34.6875 29.5C34.6875 28.875 35.0625 28.9375 36.25 29.75ZM35.25 32.1875C36.6875 33.5312 35.7812 35.9375 33.875 35.9375C31.8125 35.9375 30.8438 33.7812 32.25 32.2812C33.0938 31.4062 34.3438 31.3438 35.25 32.1875ZM38.5938 33.125C39.1562 34.875 37.1875 37.8125 35.0312 38.4688C33.5625 38.9062 31.6562 38.4375 30.6562 37.375C29.6875 36.3438 30.3438 36 31.5938 36.9062C32.375 37.4375 32.8438 37.5312 34.1562 37.4062C36.2188 37.2188 37.5 35.9375 37.5 34.125C37.5 32.4688 38.1875 31.8438 38.5938 33.125ZM18.3438 36.0938C19.0312 38.8438 19.1562 38.75 15.7812 38.75C14.1562 38.75 12.8125 38.6875 12.8125 38.5938C12.8125 38.5 13.0312 37.5 13.3125 36.375L13.8438 34.3438L15.875 34.4375L17.9375 34.5312L18.3438 36.0938Z" fill="#040E50"/>
<path d="M3.78103 16.75C2.90603 17.875 2.93728 19.2187 3.90603 20.1562C5.18728 21.4687 7.49978 21.0937 7.49978 19.5937C7.49978 19.0937 7.34353 19.0312 6.24978 19.2187C5.21853 19.375 4.96853 19.3437 4.78103 18.9062C4.43728 17.9687 5.12478 17.3437 6.37478 17.4375C7.31228 17.5312 7.49978 17.4375 7.49978 16.9375C7.49978 15.625 4.74978 15.5 3.78103 16.75Z" fill="#040E50"/>
<path d="M8.34375 16.1563C8.21875 16.25 8.125 17.3125 8.125 18.5C8.125 20.75 8.5625 21.4375 9.5 20.6563C9.8125 20.4063 10 20.375 10.1563 20.625C10.25 20.7813 10.625 20.9375 10.9688 20.9375C11.625 20.9375 11.75 20.2813 11.25 19.375C11.0313 18.9688 11.0313 18.7188 11.25 18.5938C11.6875 18.3125 11.6563 16.7813 11.1875 16.3125C10.7813 15.9063 8.6875 15.7813 8.34375 16.1563Z" fill="#040E50"/>
<path d="M13.0002 16.3125C12.6252 17.5 12.2189 20.4062 12.3752 20.6562C12.6877 21.1875 13.5002 20.9375 13.6877 20.25L13.8439 19.5625L14.0939 20.25C14.4064 21.0625 15.2502 21.1562 15.8127 20.375C16.2189 19.875 16.2189 19.875 16.2502 20.375C16.2502 20.9375 17.3127 21.1875 17.6252 20.6875C17.7502 20.4687 17.5627 19.2812 17.0002 16.625C16.8127 15.75 15.6252 15.6875 15.4064 16.5625C15.3127 16.9062 15.1252 17.1875 15.0002 17.1875C14.8752 17.1875 14.6877 16.9062 14.5939 16.5625C14.4064 15.875 13.1877 15.6875 13.0002 16.3125Z" fill="#040E50"/>
<path d="M3.125 22.7812C3.125 23.0938 3.34375 23.4688 3.625 23.5625C3.90625 23.6562 7.1875 23.75 10.9375 23.75C16.5 23.75 17.8125 23.6562 18.125 23.2812C18.9375 22.3125 18.1562 22.1875 10.5938 22.1875C3.46875 22.1875 3.125 22.2188 3.125 22.7812Z" fill="#040E50"/>
<path d="M3.24992 25.1562C2.87492 26.0938 3.46867 26.25 7.46867 26.25C11.4374 26.25 12.3124 26.0312 11.9687 25.125C11.7187 24.4688 3.49992 24.5 3.24992 25.1562Z" fill="#040E50"/>
<path d="M2.71875 6.12505C2.59375 6.25005 2.5 7.4063 2.5 8.6563C2.5 10.875 2.53125 10.9688 3.21875 10.875C3.8125 10.7813 3.90625 10.5625 4 9.12505C4.09375 7.56255 4.125 7.50005 5.03125 7.50005C5.9375 7.50005 5.9375 7.5313 5.9375 9.25005C5.9375 10.875 5.96875 10.9688 6.65625 10.875C7.3125 10.7813 7.34375 10.625 7.34375 8.43755V6.0938L5.15625 6.00005C3.9375 5.9688 2.84375 6.00005 2.71875 6.12505Z" fill="#040E50"/>
<path d="M24.4376 8C23.0938 8.9375 23.7501 11.875 25.3126 11.875C26.8751 11.875 27.5313 8.9375 26.1876 8C25.8126 7.71875 25.4063 7.5 25.3126 7.5C25.2188 7.5 24.8126 7.71875 24.4376 8Z" fill="#040E50"/>
<path d="M31.5625 7.71875C30.8437 8 30.625 8.46875 30.625 9.875C30.625 11.2812 31.0625 11.875 32.0625 11.875C33.6875 11.875 34.375 9.375 33.125 8.125C32.4687 7.46875 32.3437 7.4375 31.5625 7.71875Z" fill="#040E50"/>
<path d="M28.1877 9.75C28.2502 11.25 28.4064 11.7188 28.7502 11.7188C29.0939 11.7188 29.2502 11.25 29.3127 9.75C29.4064 7.96875 29.3439 7.8125 28.7502 7.8125C28.1564 7.8125 28.0939 7.96875 28.1877 9.75Z" fill="#040E50"/>
<path d="M24.6875 14.2188C24.6875 16.0312 24.75 16.25 25.3125 16.25C25.875 16.25 25.9375 16.0312 25.9375 14.2188C25.9375 12.4062 25.875 12.1875 25.3125 12.1875C24.75 12.1875 24.6875 12.4062 24.6875 14.2188Z" fill="#040E50"/>
<path d="M27.5625 12.5624C27.0625 13.0624 27.0625 15.3749 27.5625 15.8749C28.1563 16.4687 29.625 16.3437 30 15.6562C30.8125 14.1249 30.125 12.1874 28.8125 12.1874C28.3125 12.1874 27.7813 12.3437 27.5625 12.5624Z" fill="#040E50"/>
<path d="M31.4375 12.6875C31.1875 13.3125 31.1875 15.125 31.4375 15.75C31.5312 16.0312 31.9062 16.25 32.2188 16.25C32.75 16.25 32.8125 16 32.8125 14.2188C32.8125 12.4375 32.75 12.1875 32.2188 12.1875C31.9062 12.1875 31.5312 12.4062 31.4375 12.6875Z" fill="#040E50"/>
<path d="M24.281 17.125C23.5623 17.9062 23.5935 19.7812 24.3123 20.4062C25.5623 21.5312 26.8748 20.6875 26.8748 18.75C26.8748 16.8125 25.406 15.875 24.281 17.125Z" fill="#040E50"/>
<path d="M28.2498 16.9688C28.1561 17.2188 28.1248 18.1875 28.1873 19.0938C28.2498 20.3438 28.4061 20.7812 28.7498 20.7812C29.3748 20.7812 29.4373 16.8438 28.8436 16.6562C28.6248 16.5625 28.3748 16.7188 28.2498 16.9688Z" fill="#040E50"/>
<path d="M31.125 17.0625C30.4687 17.6875 30.4687 19.8125 31.125 20.4375C31.8125 21.125 32.6875 21.0625 33.25 20.25C34.625 18.2812 32.7188 15.4375 31.125 17.0625Z" fill="#040E50"/>
</g>
<defs>
<clipPath id="clip0_130_558">
<rect width="40" height="40" fill="white"/>
</clipPath>
</defs>
</svg>
