<svg width="37" height="40" viewBox="0 0 37 40" fill="none" xmlns="http://www.w3.org/2000/svg">
<path d="M0.90625 0.90625L0 1.8125V20V38.1875L0.90625 39.0938L1.8125 40H12.4375H23.0312L23.8125 39.2188C24.875 38.1875 25 37.3125 25 32C25 29.2188 25.125 27.5 25.3125 27.5C25.5 27.5 25.625 28.375 25.625 29.4688C25.625 31.6875 26.1875 32.5938 27.6562 32.5938C28.5625 32.5938 29.6875 31.6875 29.6875 30.9688C29.6875 30.6875 30.5625 31.3438 31.8125 32.5938C33.5312 34.2812 34.125 34.6875 34.9062 34.6875C36.1562 34.6875 36.875 33.9688 36.875 32.75C36.875 32.0312 36.4375 31.3438 34.7812 29.6562C33.625 28.4375 32.9062 27.5 33.1875 27.5C34 27.5 34.75 26.375 34.625 25.2812C34.5625 24.5 34.3125 24.125 33.5938 23.75C33.0938 23.5 32.5312 23.0938 32.4062 22.9062C32.0625 22.3438 31.2812 22.4062 31.0625 22.9688C30.9062 23.3125 30.4062 23.4375 29.1875 23.4375C27.0312 23.4375 25.9375 23.9375 25.7188 25.0312C25.5938 25.7188 25.375 25.9375 24.5625 26L23.5938 26.0938L23.4375 31.8125C23.2812 37.375 23.25 37.5625 22.5312 38.1562C21.8438 38.7188 21.1875 38.75 12.3438 38.75C3.5 38.75 2.84375 38.7188 2.15625 38.1562L1.40625 37.5625V20V2.4375L2.15625 1.84375C2.59375 1.5 3.375 1.25 4.09375 1.25C5.21875 1.25 5.3125 1.3125 5.625 2.4375C6.21875 4.6875 6.625 4.84375 12.1562 4.9375C17.0625 5.03125 17.0938 5.03125 18.0312 4.25C18.625 3.75 19.0625 3 19.1875 2.34375C19.4062 1.3125 19.4688 1.25 20.6562 1.25C21.5625 1.25 22.125 1.46875 22.6562 2.03125C23.4375 2.78125 23.4375 2.8125 23.4375 9.21875C23.4375 14.8125 23.5 15.6562 23.9375 15.8438C24.2188 15.9375 24.5625 15.8438 24.7188 15.5938C25.0312 15.0938 25.0938 4.03125 24.8125 2.53125C24.6875 2 24.25 1.21875 23.8125 0.78125L23.0312 0H12.4375H1.8125L0.90625 0.90625ZM17.8125 1.65625C17.8125 1.875 17.5938 2.375 17.3125 2.75C16.875 3.40625 16.625 3.4375 12.375 3.4375C7.6875 3.4375 7.5 3.375 7.0625 1.9375L6.84375 1.25H12.3125C16.5625 1.25 17.8125 1.34375 17.8125 1.65625ZM33.2188 25.4688C33.1875 25.625 32.4688 25.8438 31.6562 25.9375C29.3125 26.1875 29.5 26.8438 32.6562 30C34.125 31.4375 35.3125 32.75 35.3125 32.875C35.3125 33.5938 34.2812 32.8438 31.8438 30.4375C28.75 27.3438 28.2188 27.25 28.0625 29.5938C28 30.4062 27.8438 31.0625 27.6562 31.0312C27.3125 30.9375 27.0312 26.125 27.3125 25.4062C27.4375 25.0625 28.1562 25 30.375 25.0625C32.125 25.125 33.25 25.2812 33.2188 25.4688Z" fill="#212B69"/>
<path d="M10.625 2.50006C10.625 3.09381 10.7812 3.15631 12.4375 3.06256C13.7812 3.00006 14.2188 2.84381 14.2188 2.50006C14.2188 2.15631 13.7812 2.00006 12.4375 1.93756C10.7812 1.84381 10.625 1.90631 10.625 2.50006Z" fill="#212B69"/>
<path d="M20.7189 2.40625C20.0626 2.65625 20.2501 3.75 20.9064 3.75C21.2501 3.75 21.6251 3.59375 21.7501 3.40625C22.0001 2.96875 21.2189 2.21875 20.7189 2.40625Z" fill="#212B69"/>
<path d="M6.15625 8.06244C5.6875 8.56244 5.625 9.46869 5.625 14.2499C5.625 18.6249 5.71875 20.0312 6.0625 20.4999C6.46875 21.0312 7 21.0937 12.0938 21.1874C19.6875 21.3124 19.1875 21.7812 19.3125 14.6249C19.4062 9.46869 19.375 9.15619 18.75 8.34369C18.0938 7.49994 18.0625 7.49994 14.0312 7.49994C10.2188 7.49994 10 7.53119 10 8.12494C10 8.71869 10.2188 8.74994 13.375 8.74994C15.5938 8.74994 16.9375 8.87494 17.2812 9.15619C17.7812 9.49994 17.8125 10.0937 17.75 14.5312L17.6562 19.5312L12.6875 19.6249C9.3125 19.6874 7.59375 19.5937 7.3125 19.3437C6.625 18.7812 6.6875 9.90619 7.375 9.24994C7.625 8.96869 8 8.74994 8.15625 8.74994C8.3125 8.74994 8.4375 8.46869 8.4375 8.12494C8.4375 7.31244 6.875 7.24994 6.15625 8.06244Z" fill="#212B69"/>
<path d="M8.87509 12.6562C8.75009 12.9374 8.81259 13.3124 9.00009 13.4999C9.46884 13.9687 10.3751 13.5312 10.2501 12.9062C10.1251 12.1874 9.12509 11.9999 8.87509 12.6562Z" fill="#212B69"/>
<path d="M11.6876 12.6562C11.3438 13.5 12.0001 13.7812 14.0938 13.6875C15.8438 13.5937 16.0938 13.5312 16.0938 12.9687C16.0938 12.4062 15.8438 12.3437 13.9688 12.25C12.2813 12.1875 11.8438 12.25 11.6876 12.6562Z" fill="#212B69"/>
<path d="M8.84397 14.8437C8.50022 15.7812 9.21897 15.9687 12.6877 15.875C15.844 15.7812 16.094 15.75 16.094 15.1562C16.094 14.5625 15.844 14.5312 12.5627 14.4375C9.59397 14.375 9.03147 14.4375 8.84397 14.8437Z" fill="#212B69"/>
<path d="M24.8125 16.4062C24.5 17.1562 25.0937 17.5625 26.2812 17.4375C27.0937 17.375 27.3437 17.1875 27.3437 16.7187C27.3437 16.2187 27.0937 16.0625 26.1562 16C25.3125 15.9375 24.9375 16.0312 24.8125 16.4062Z" fill="#212B69"/>
<path d="M28.8124 16.6251C28.8749 17.0626 29.2186 17.3751 29.8124 17.5313C30.9061 17.8438 31.2499 17.6563 31.2499 16.8751C31.2499 16.2501 30.6561 15.9376 29.4686 15.9376C28.8749 15.9376 28.7186 16.0626 28.8124 16.6251Z" fill="#212B69"/>
<path d="M21.7501 16.75C21.0626 17.4375 21.0938 18.4375 21.8126 18.4375C22.5313 18.4375 23.4376 17.5 23.4376 16.7812C23.4376 16.0938 22.4063 16.0938 21.7501 16.75Z" fill="#212B69"/>
<path d="M30.9375 20C30.9375 21.1563 31 21.2813 31.6562 21.1875C32.2188 21.125 32.3438 20.9063 32.3438 20C32.3438 19.0938 32.2188 18.875 31.6562 18.8125C31 18.7188 30.9375 18.8438 30.9375 20Z" fill="#212B69"/>
<path d="M21.0627 20.125C20.7502 20.9688 21.0939 22.3438 21.6564 22.4375C22.0939 22.5313 22.1877 22.3125 22.1877 21.125C22.1877 20.0313 22.0627 19.6875 21.7189 19.6875C21.4377 19.6875 21.1564 19.875 21.0627 20.125Z" fill="#212B69"/>
<path d="M21.0001 24.9062C21.0626 25.875 21.2188 26.125 21.8126 26.1875C22.3126 26.2812 22.5001 26.125 22.5001 25.7188C22.5001 24.5 22.0938 23.75 21.5001 23.75C21.0001 23.75 20.9063 23.9375 21.0001 24.9062Z" fill="#212B69"/>
<path d="M6.3748 26.0625C6.28105 26.4687 6.2498 28.375 6.3123 30.2812C6.3748 33.1875 6.4998 33.8437 7.0623 34.5937C8.5623 36.5625 11.4998 36.6875 13.3436 34.8437L14.4061 33.7812L14.3123 29.625C14.2186 25.7187 14.1873 25.4687 13.5936 25.4687C12.9998 25.4687 12.9686 25.7187 12.8748 29.4375C12.7811 33.2812 12.7811 33.4375 11.9686 34.0625C10.9686 34.8437 9.65605 34.875 8.71855 34.0937C8.03105 33.5312 7.96855 33.2187 7.8123 29.5C7.6873 26.0312 7.59355 25.4687 7.1248 25.375C6.7498 25.3125 6.53105 25.5312 6.3748 26.0625Z" fill="#212B69"/>
<path d="M17.0312 25.6875C16.9375 25.9375 16.9062 28.375 16.9375 31.0938C17.0312 35.8438 17.0625 36.0938 17.6562 36.0938C18.25 36.0938 18.2812 35.875 18.2812 30.7812C18.2812 25.9688 18.2188 25.4688 17.7188 25.375C17.4375 25.3125 17.125 25.4688 17.0312 25.6875Z" fill="#212B69"/>
</svg>
