<svg width="40" height="40" viewBox="0 0 40 40" fill="none" xmlns="http://www.w3.org/2000/svg">
<g clip-path="url(#clip0_130_594)">
<path d="M0 20V40H20H40V20V0H20H0V20ZM38.4375 4.6875V7.8125H20H1.5625V4.6875V1.5625H20H38.4375V4.6875ZM38.4375 23.9062V38.4375H20H1.5625V23.9062V9.375H20H38.4375V23.9062Z" fill="#00175B"/>
<path d="M3.90638 3.28125C3.00013 4.15625 2.93763 4.875 3.62513 5.875C4.18763 6.71875 6.25013 6.84375 6.87513 6.0625C7.53138 5.28125 7.37513 3.71875 6.59388 3.0625C5.62513 2.28125 4.81263 2.34375 3.90638 3.28125ZM5.53138 4.875C5.25013 5.15625 4.65638 4.6875 4.87513 4.3125C5.00013 4.125 5.18763 4.125 5.40638 4.34375C5.59388 4.53125 5.65638 4.75 5.53138 4.875Z" fill="#00175B"/>
<path d="M9.74998 3.00003C8.93748 3.56253 8.81248 5.31253 9.56248 6.06253C10.2187 6.75003 11.9687 6.68753 12.5937 6.00003C13.1562 5.40628 13.2812 4.15628 12.875 3.56253C12.5937 3.12503 11.4062 2.50003 10.875 2.50003C10.625 2.50003 10.125 2.71878 9.74998 3.00003ZM11.5625 4.71878C11.5625 4.87503 11.3437 5.00003 11.0937 5.00003C10.625 5.00003 10.4687 4.62503 10.8125 4.28128C11.0625 4.03128 11.5625 4.31253 11.5625 4.71878Z" fill="#00175B"/>
<path d="M15.4998 3.15627C14.5935 3.87502 14.4685 4.84377 15.1873 5.87502C15.7498 6.68752 17.4998 6.81252 18.2498 6.06252C18.9998 5.31252 18.8748 3.56252 18.0623 3.00002C17.1248 2.34377 16.4998 2.37502 15.4998 3.15627ZM17.0935 4.87502C16.8123 5.15627 16.2185 4.68752 16.4373 4.31252C16.5623 4.12502 16.7498 4.12502 16.9685 4.34377C17.156 4.53127 17.2185 4.75002 17.0935 4.87502Z" fill="#00175B"/>
<path d="M20.625 4.53125V5.3125H28.75H36.875V4.53125V3.75H28.75H20.625V4.53125Z" fill="#00175B"/>
<path d="M16.5625 11.7187C16.375 12.1875 16.25 12.625 16.25 12.75C16.25 12.875 16.125 13.1562 15.9688 13.375C15.75 13.7187 15.4688 13.6875 14.375 13.125L13.0312 12.4375L10.8438 14.625L8.625 16.8437L9.1875 18.0937C9.84375 19.5312 9.75 19.8437 8.28125 20.3125L7.1875 20.6875V23.875V27.0937L8.46875 27.4687C9.84375 27.875 9.84375 27.875 9.03125 29.9375C8.625 30.9375 8.625 30.9375 10.75 33.0937L12.9062 35.2812L14.0312 34.8125C14.6562 34.5312 15.3125 34.25 15.5 34.1562C15.7188 34.0937 16.0625 34.5937 16.3125 35.375L16.7812 36.7188H20H23.2188L23.6875 35.375C23.9062 34.6562 24.25 34.0625 24.4062 34.0625C24.5625 34.0625 25.25 34.3437 25.9062 34.6562L27.0938 35.2812L29.25 33.0937C31.375 30.9375 31.375 30.9375 30.9688 29.9375C30.1562 27.9062 30.1562 27.9062 31.625 27.4375L32.9688 26.9687L33.0625 23.8437L33.1562 20.6875L31.9688 20.3125C30.25 19.75 30.125 19.5625 30.7812 18.125L31.375 16.8437L29.1562 14.625L26.9688 12.4375L25.625 13.125C24.9062 13.5 24.25 13.75 24.1875 13.6562C24.125 13.5937 23.875 13 23.6562 12.3125L23.2188 11.0937L20.0312 11C16.875 10.9062 16.875 10.9062 16.5625 11.7187ZM22.3438 13.75C22.8125 15.1562 23.9375 15.5937 25.5 15.0312C26.625 14.625 26.6562 14.6562 27.9688 15.9375L29.3125 17.2812L28.8438 18.2812C28.1562 19.7187 28.625 20.9375 30.0312 21.4062C31.0938 21.7812 31.0938 21.7812 31.1875 23.8125L31.2812 25.8437L30.0312 26.3125C28.5 26.9062 28.1562 27.9062 28.9062 29.375L29.4375 30.4062L28.0625 31.7812L26.6562 33.1562L25.5625 32.625C24.5938 32.1875 24.3438 32.1562 23.5938 32.5312C23.0312 32.8125 22.5625 33.375 22.3438 34.0625L21.9688 35.1562H20H18.0312L17.6562 34.0625C17.125 32.5 16.0312 32 14.5312 32.7187L13.4062 33.25L12 31.8437L10.5938 30.4062L11.1562 29.25C11.6562 28.1875 11.6562 28 11.2188 27.25C10.9688 26.7812 10.3125 26.3125 9.75 26.125L8.71875 25.8437L8.8125 23.8125C8.90625 21.7812 8.90625 21.7812 9.96875 21.4062C11.375 20.9375 11.8438 19.7187 11.1562 18.2812L10.6875 17.2812L12.0625 15.9062L13.4375 14.5625L14.4688 15.0625C15.3438 15.5 15.6562 15.5 16.5 15.125C17.0625 14.9062 17.5 14.5937 17.5 14.4062C17.5 14.25 17.625 13.75 17.8125 13.2812C18.0938 12.5 18.2188 12.4687 20.0625 12.5625C21.9375 12.6562 21.9688 12.6875 22.3438 13.75Z" fill="#00175B"/>
<path d="M19.0625 14.2188C19.0625 14.875 19.2188 15 20 15C20.7812 15 20.9375 14.875 20.9375 14.2188C20.9375 13.5625 20.7812 13.4375 20 13.4375C19.2188 13.4375 19.0625 13.5625 19.0625 14.2188Z" fill="#00175B"/>
<path d="M12.5624 16.3125C12.0624 16.8125 12.0937 17.3437 12.6562 17.8125C13.0624 18.125 13.2499 18.0937 13.7499 17.6562C14.3437 17.125 14.3437 17.0625 13.8749 16.5C13.2499 15.8437 13.0624 15.8125 12.5624 16.3125Z" fill="#00175B"/>
<path d="M17.5626 16.4062C14.6563 17.3125 12.5938 19.875 12.2813 22.9375C12.0313 25.3125 12.6251 27.2188 14.1563 28.9688C15.8438 30.8438 17.4063 31.5625 20.0001 31.5625C22.5938 31.5625 24.1563 30.8438 25.8438 28.9688C29.5938 24.6875 27.7188 18 22.3126 16.375C20.5313 15.8438 19.3438 15.8438 17.5626 16.4062ZM21.7813 17.9688C24.5313 18.7812 26.5313 21.7188 26.1563 24.4062C25.9063 26.25 24.9376 27.875 23.4688 28.9062C22.3126 29.7188 21.8751 29.8438 20.0001 29.8438C18.1251 29.8438 17.6876 29.7188 16.5313 28.9062C12.3126 25.9062 13.2813 19.5 18.1563 17.9688C19.9376 17.4062 19.9063 17.4062 21.7813 17.9688Z" fill="#00175B"/>
<path d="M26.156 16.5C25.656 17.0625 25.656 17.125 26.2498 17.6563C26.8435 18.2188 26.9373 18.2188 27.406 17.7188C27.906 17.2188 27.906 17.1563 27.3123 16.5625C26.6873 15.9375 26.656 15.9375 26.156 16.5Z" fill="#00175B"/>
<path d="M9.6875 23.9062C9.6875 24.5312 9.84375 24.6875 10.4688 24.6875C11.0938 24.6875 11.25 24.5312 11.25 23.9062C11.25 23.2812 11.0938 23.125 10.4688 23.125C9.84375 23.125 9.6875 23.2812 9.6875 23.9062Z" fill="#00175B"/>
<path d="M28.75 23.9062C28.75 24.5312 28.9062 24.6875 29.5312 24.6875C30.1562 24.6875 30.3125 24.5312 30.3125 23.9062C30.3125 23.2812 30.1562 23.125 29.5312 23.125C28.9062 23.125 28.75 23.2812 28.75 23.9062Z" fill="#00175B"/>
<path d="M12.5 30.1562C12.1875 30.5312 12.1875 30.7188 12.5 31.0938C12.7188 31.3438 13.0625 31.5625 13.2812 31.5625C13.5 31.5625 13.8438 31.3438 14.0625 31.0938C14.375 30.7188 14.375 30.5312 14.0625 30.1562C13.8438 29.9062 13.5 29.6875 13.2812 29.6875C13.0625 29.6875 12.7188 29.9062 12.5 30.1562Z" fill="#00175B"/>
<path d="M25.9375 30.1562C25.625 30.5312 25.625 30.7188 25.9375 31.0938C26.1562 31.3438 26.5 31.5625 26.7188 31.5625C26.9375 31.5625 27.2812 31.3438 27.5 31.0938C27.8125 30.7188 27.8125 30.5312 27.5 30.1562C27.2812 29.9062 26.9375 29.6875 26.7188 29.6875C26.5 29.6875 26.1562 29.9062 25.9375 30.1562Z" fill="#00175B"/>
<path d="M19.1875 32.9375C18.875 33.75 19.3125 34.4375 20.0625 34.3125C20.5937 34.25 20.7812 34 20.7812 33.4375C20.7812 32.875 20.5937 32.625 20.0625 32.5625C19.6562 32.5 19.2812 32.6563 19.1875 32.9375Z" fill="#00175B"/>
</g>
<defs>
<clipPath id="clip0_130_594">
<rect width="40" height="40" fill="white"/>
</clipPath>
</defs>
</svg>
