<svg width="40" height="40" viewBox="0 0 40 40" fill="none" xmlns="http://www.w3.org/2000/svg">
<g clip-path="url(#clip0_130_621)">
<path d="M0.84375 0.875C0.375 1.40625 0.3125 3.1875 0.3125 20.0625C0.3125 37.6875 0.34375 38.6875 0.875 39.1562C1.40625 39.625 2.875 39.6875 15.6562 39.6875C26.5625 39.6875 30 39.5938 30.375 39.2812C30.75 39 30.9375 38.1562 31.0625 36.25C31.1562 34.7812 31.3438 32.8438 31.4375 31.9375C31.5312 31.0312 31.4688 29.875 31.2812 29.3438C30.9688 28.4375 31.1875 27.9688 35.3125 20.8438C37.7188 16.6875 39.6875 12.9375 39.6875 12.5312C39.6875 11.4062 37.7812 9.6875 36.5 9.6875C35.0938 9.6875 34.4688 10.3125 32.625 13.5938L31.0938 16.3438L31 10.875L30.9375 5.40625L28.3125 2.875L25.6875 0.3125H13.5312C2.125 0.3125 1.3125 0.34375 0.84375 0.875ZM24.6875 3.71875C24.6875 6.53125 24.7188 6.5625 27.2188 6.5625H29.375V12.875V19.2188L27.5625 22.3125C25.8125 25.3438 25.75 25.4062 24.2188 25.7812C23.125 26.0625 22.3438 26.5312 21.5 27.4375C20.0312 29 19.1875 29.3438 18.9062 28.4375C18.7188 27.8125 17.625 27.1875 16.7188 27.1875C16.5 27.1875 15.875 27.5312 15.375 27.9688C14.0625 29.0625 11.4062 29.0938 10.4062 28C9.78125 27.3438 9.6875 26.9375 9.6875 24.8125C9.71875 22.6562 9.8125 22.25 10.4688 21.4688L11.2188 20.625H15.8125C20.3125 20.625 20.375 20.625 21 21.4062C21.4375 21.9688 21.9062 22.1875 22.6875 22.1875C24.8438 22.1875 25.7812 19.8125 24.2188 18.25C23.5312 17.5625 23.4375 17.1875 23.4375 15.25C23.4375 13.2812 23.5312 13 24.2188 12.4375C25.9688 11.0625 24.5625 8.15625 22.3438 8.5625C21.8438 8.65625 21.2188 9.03125 20.9688 9.375C20.5938 9.90625 20.1875 10 17.7812 10C14.625 10 13.75 9.5625 13.75 8C13.75 6.75 12.9375 5.9375 11.6875 5.9375C10.9688 5.9375 10.5312 5.75 10.3125 5.3125C10.0625 4.84375 9.65625 4.6875 8.75 4.6875C7.8125 4.6875 7.5 4.84375 7.34375 5.3125C7.1875 5.78125 6.875 5.9375 6.125 5.9375C4.84375 5.9375 3.59375 7.125 3.90625 8.09375C4.03125 8.53125 3.90625 8.84375 3.46875 9.125C2.5625 9.6875 2.5625 11.875 3.46875 12.4375C3.90625 12.7188 4.03125 13.0312 3.90625 13.4688C3.59375 14.4062 5.15625 16 6.125 15.75C6.625 15.625 6.9375 15.75 7.25 16.2188C7.8125 17.125 9.84375 17.1562 10.3125 16.25C10.5625 15.8125 10.9375 15.625 11.5625 15.6875C12.7812 15.7812 13.75 14.8438 13.75 13.625C13.75 12 14.5938 11.5625 17.6875 11.5625C20.1875 11.5625 20.4688 11.625 21.125 12.375C21.7812 13.0625 21.875 13.4688 21.875 15.4062C21.8438 17.3438 21.75 17.7812 21.0938 18.5L20.3438 19.375H15.75C11.25 19.375 11.1875 19.375 10.5625 18.5938C10.125 18.0312 9.65625 17.8125 8.875 17.8125C6.71875 17.8125 5.75 20.2188 7.34375 21.6875C8.0625 22.3438 8.125 22.6562 8.125 24.8438C8.125 27.0312 8.0625 27.3125 7.34375 27.875C6.34375 28.6562 6.3125 30.1562 7.25 31.1562C8.15625 32.125 9.5 32.0938 10.5 31.0938C11.5938 30 14.1562 30 15.4062 31.0938C16.4688 32.0312 16.4688 32.5625 15.4688 33.5625C14.5 34.5312 14.4688 35.8125 15.375 36.7812C16.5625 38.0625 18.75 37.4688 19.1875 35.7812C19.4062 34.9688 18.6562 33.125 18.125 33.125C17.5625 33.125 17.8125 31.7188 18.4375 31.3125C18.7812 31.0938 19.0625 30.7188 19.0625 30.4375C19.0625 29.6562 19.5938 30.2188 19.7812 31.25C20.0312 32.4375 20.75 32.4688 21.9375 31.3438C22.8438 30.4688 23.0938 29.5312 22.4375 29.2812C22.125 29.1875 22.125 29.0312 22.4688 28.625C22.875 28.125 24.4375 27.1875 24.8438 27.1875C24.9375 27.1875 25 28.25 25 29.5312C25 31.3438 25.125 31.9375 25.4688 32.0625C25.7188 32.1562 26.8438 31.75 27.9688 31.0938L30 29.9688V31.3125C30 32.9688 29.125 34.4688 27.7812 35.1875C27 35.5938 26.3125 35.6562 24.8125 35.5C22.5625 35.2812 21.9688 35.6875 23.125 36.625C24 37.3438 27.125 37.4062 28.4375 36.7188L29.375 36.2188V37.1875V38.125H15.625H1.875V20V1.875H13.2812H24.6875V3.71875ZM27.3438 4.0625L28.25 5H27.25C26.3438 5 26.25 4.90625 26.25 4.0625C26.25 3.53125 26.2812 3.125 26.3438 3.125C26.4062 3.125 26.8438 3.53125 27.3438 4.0625ZM10.0625 7.375C10.5625 7.625 11.1875 7.78125 11.4375 7.6875C11.7188 7.5625 11.875 7.75 11.875 8.15625C11.875 9 12.75 10.625 13.2188 10.6562C13.5 10.6562 13.5 10.7188 13.1875 10.8438C12.6562 11.0312 11.875 12.625 11.875 13.4375C11.875 13.8125 11.75 14.0312 11.5938 13.9375C11.2188 13.6875 9.0625 14.625 9.0625 15C9.0625 15.1562 8.5625 14.9375 7.90625 14.5312C7.25 14.0625 6.53125 13.8125 6.1875 13.9375C5.71875 14.0625 5.625 13.9375 5.625 13.1875C5.625 12.6875 5.34375 11.9375 5.03125 11.5312C4.4375 10.7812 4.4375 10.75 5.03125 10.0312C5.34375 9.625 5.625 8.90625 5.625 8.375C5.625 7.8125 5.75 7.53125 5.96875 7.65625C6.40625 7.9375 8.21875 7.1875 8.5625 6.59375C8.78125 6.25 8.90625 6.21875 9 6.5C9.0625 6.71875 9.53125 7.09375 10.0625 7.375ZM23.3438 10.5C23.5938 11.1562 22.9375 11.8125 22.4688 11.3438C22.0625 10.9375 22.3125 10 22.8125 10C23 10 23.2188 10.2188 23.3438 10.5ZM37.5 11.875C38.0312 12.4062 38.0938 12.625 37.7812 13.2188C37.5938 13.5938 37.375 13.9375 37.3438 14C37.25 14.0938 35.3438 13.2188 35.0312 12.9375C34.7812 12.7188 35.9688 11.25 36.4062 11.25C36.6562 11.25 37.1562 11.5312 37.5 11.875ZM36.25 15.6562C36.25 15.8438 29.5312 27.6875 29.2188 28.0625C29.1875 28.125 28.625 27.8438 28 27.4688L26.875 26.8125L27.4375 25.8125C27.7812 25.2812 28.8125 23.5 29.75 21.875C30.6875 20.25 32.0625 17.9062 32.7812 16.6562L34.0938 14.4062L35.1562 14.9062C35.75 15.1875 36.25 15.5312 36.25 15.6562ZM9.375 20C9.375 20.3438 9.1875 20.625 8.9375 20.625C8.375 20.625 8.03125 20.125 8.28125 19.6875C8.625 19.125 9.375 19.3438 9.375 20ZM23.2812 20C23.2812 20.25 23.0312 20.5 22.75 20.5625C22.3438 20.625 22.1875 20.4688 22.1875 20C22.1875 19.5312 22.3438 19.375 22.75 19.4375C23.0312 19.5 23.2812 19.75 23.2812 20ZM9.28125 29.8125C9.15625 30.0938 8.9375 30.3125 8.75 30.3125C8.21875 30.3125 8 29.3438 8.46875 29.0312C9.03125 28.6875 9.53125 29.1875 9.28125 29.8125ZM17.4062 29.8125C17.2812 30.0938 17.0625 30.3125 16.875 30.3125C16.3438 30.3125 16.125 29.3438 16.5938 29.0312C17.1562 28.6875 17.6562 29.1875 17.4062 29.8125ZM27.4688 29.0312C27.8125 29.25 27.75 29.375 27.2188 29.6562C26.6562 29.9688 26.5625 29.9375 26.5625 29.375C26.5625 28.6875 26.7812 28.5938 27.4688 29.0312ZM17.4062 35.4375C17.2812 35.7188 17.0625 35.9375 16.875 35.9375C16.3438 35.9375 16.125 34.9688 16.5938 34.6562C17.1562 34.3125 17.6562 34.8125 17.4062 35.4375Z" fill="#00175B"/>
<path d="M7.125 7.96873C6.03125 8.59373 5.625 9.34373 5.625 10.7812C5.625 12.25 6.03125 13 7.1875 13.5937C9.15625 14.625 11.1875 13.8125 11.875 11.75C12.25 10.5625 11.7812 8.96873 10.8438 8.18748C10.0625 7.53123 8.09375 7.43748 7.125 7.96873ZM9.5625 9.31248C10.7812 10.125 10.5938 12.0312 9.21875 12.375C8.25 12.625 7.1875 11.8125 7.1875 10.8437C7.1875 9.59373 8.625 8.65623 9.5625 9.31248Z" fill="#00175B"/>
</g>
<defs>
<clipPath id="clip0_130_621">
<rect width="40" height="40" fill="white"/>
</clipPath>
</defs>
</svg>
