<svg width="38" height="39" viewBox="0 0 38 39" fill="none" xmlns="http://www.w3.org/2000/svg">
<path d="M18.125 0.9375C18.125 1.65625 18.25 1.875 18.75 1.875C19.25 1.875 19.375 1.65625 19.375 0.9375C19.375 0.21875 19.25 0 18.75 0C18.25 0 18.125 0.21875 18.125 0.9375Z" fill="#00175B"/>
<path d="M12.8125 2.34374C12.4688 2.74999 12.5313 2.96874 13.125 3.59374C13.8125 4.31249 13.9063 4.34374 14.4375 3.84374C15 3.34374 15 3.31249 14.3125 2.59374C13.5313 1.74999 13.3438 1.71874 12.8125 2.34374Z" fill="#00175B"/>
<path d="M23.1877 2.59374C22.5002 3.31249 22.5002 3.34374 23.0627 3.84374C23.5939 4.34374 23.6877 4.31249 24.3752 3.59374C24.9689 2.96874 25.0314 2.74999 24.6877 2.34374C24.1564 1.71874 23.9689 1.74999 23.1877 2.59374Z" fill="#00175B"/>
<path d="M16.5627 2.71875C13.469 3.96875 12.094 8.25 13.8127 11.2812C14.1877 11.9688 14.594 12.5 14.6877 12.5C15.0627 12.5 15.6252 14.0938 15.6252 15.1562C15.6252 16.8438 16.5002 17.5 18.7502 17.5C21.0002 17.5 21.8752 16.8438 21.8752 15.1562C21.8752 14.0938 22.4377 12.5 22.8127 12.5C23.4065 12.5 24.3752 9.9375 24.3752 8.3125C24.3752 4.71875 22.5002 2.71875 19.0627 2.59375C17.9377 2.5625 16.8127 2.59375 16.5627 2.71875ZM21.4377 5.09375C22.4065 5.96875 22.594 6.40625 22.719 7.6875C22.844 8.78125 22.719 9.5625 22.3752 10.1875C21.5627 11.6562 20.719 12.5 20.0315 12.5C19.5315 12.5 19.3752 12.3125 19.3752 11.625C19.3752 10.9688 19.0627 10.4688 18.094 9.71875C17.4065 9.15625 16.9065 8.59375 17.0315 8.5C17.1252 8.40625 17.3752 8.5 17.5627 8.6875C18.0315 9.15625 19.5627 9.1875 19.844 8.75C19.9377 8.5625 20.1877 8.4375 20.3752 8.4375C20.5627 8.4375 20.4377 8.75 20.0627 9.125C19.5002 9.75 19.469 9.90625 19.844 10.4375C20.2815 11 20.344 11 21.094 10.5C21.8127 10.0312 21.9065 9.78125 21.8127 8.5C21.719 7.09375 21.6877 7.03125 20.6877 6.9375C20.1252 6.875 19.4377 7 19.1877 7.21875C18.844 7.5 18.6565 7.5 18.3127 7.21875C18.0627 7 17.3752 6.875 16.8127 6.9375C15.8127 7.03125 15.7815 7.09375 15.6877 8.46875C15.594 9.875 15.6565 9.96875 16.844 10.8125C18.2502 11.8125 18.5002 12.5 17.469 12.5C16.3127 12.5 14.719 10.125 14.6877 8.34375C14.6877 5.8125 16.3752 4.0625 18.7815 4.0625C20.094 4.0625 20.5002 4.21875 21.4377 5.09375ZM20.6252 14.0625C20.6252 14.25 19.7815 14.375 18.7502 14.375C17.719 14.375 16.8752 14.25 16.8752 14.0625C16.8752 13.875 17.719 13.75 18.7502 13.75C19.7815 13.75 20.6252 13.875 20.6252 14.0625ZM19.469 16C18.9377 16.25 18.5627 16.25 18.0627 16C17.4377 15.7188 17.5002 15.6562 18.7502 15.6562C20.0002 15.6562 20.0627 15.7188 19.469 16Z" fill="#00175B"/>
<path d="M10.625 8.125C10.625 8.625 10.8438 8.75 11.5625 8.75C12.2812 8.75 12.5 8.625 12.5 8.125C12.5 7.625 12.2812 7.5 11.5625 7.5C10.8438 7.5 10.625 7.625 10.625 8.125Z" fill="#00175B"/>
<path d="M25 8.125C25 8.625 25.2188 8.75 25.9375 8.75C26.6562 8.75 26.875 8.625 26.875 8.125C26.875 7.625 26.6562 7.5 25.9375 7.5C25.2188 7.5 25 7.625 25 8.125Z" fill="#00175B"/>
<path d="M8.34375 15.3125L4.03125 16.1562L2 18.1562C0.90625 19.25 0 20.375 0 20.6875C0 21.1875 1.59375 21.875 2.75 21.875C3.03125 21.875 3.125 23.2812 3.125 27.8125V33.7188L4.3125 34.0312C10 35.5625 18.125 37.5 18.75 37.5C20.0625 37.5 24.0625 36.4688 24.0625 36.125C24.0625 35.9375 23.9375 35.5625 23.75 35.3125C23.5312 34.9375 23.25 34.9375 21.8125 35.2812C20.9062 35.5312 19.9688 35.7812 19.7812 35.8438C19.4688 35.9688 19.375 34.4062 19.375 28.7188V21.4375L20.75 22.9688L22.0938 24.5312L24.25 24.125C25.4375 23.9062 27.9062 23.4062 29.7812 23L33.125 22.2812V23.625C33.125 24.7812 33.2188 25 33.75 25C34.2812 25 34.375 24.7812 34.375 23.4688V21.9375L35.875 21.6875C38.0625 21.2812 37.9688 20.5938 35.4062 18.0938L33.2812 16.0312L28.3438 15.1562C24.0938 14.375 23.3438 14.3125 23.0938 14.7188C22.5938 15.5312 23 15.7812 25.6562 16.2812C27.0938 16.5312 28.0625 16.8438 27.7812 16.9375C27.5312 17.0312 25.375 17.4375 23.0312 17.8125L18.7188 18.5312L14.4375 17.8125C12.0938 17.4375 9.96875 17 9.75 16.875C9.53125 16.7812 10.5312 16.4688 12 16.25C14.7188 15.8438 14.8438 15.75 14.5 14.875C14.25 14.2188 13.5312 14.2812 8.34375 15.3125ZM10.875 18.8125C14.1562 19.375 16.875 19.9375 16.875 20.0938C16.875 20.2188 16.3438 20.9062 15.7188 21.5938L14.5312 22.8438L8.375 21.5L2.1875 20.1562L3.34375 18.9688C4 18.3438 4.59375 17.8125 4.6875 17.8125C4.78125 17.8125 7.5625 18.25 10.875 18.8125ZM34.1562 19L35.3125 20.1562L29.125 21.5L22.9688 22.8438L21.8125 21.5938C21.1562 20.9062 20.625 20.2188 20.625 20.0938C20.625 19.875 30.7188 17.9375 32.3438 17.8438C32.7188 17.8125 33.5 18.3125 34.1562 19ZM18.125 28.7188V35.875L11.25 34.1562L4.375 32.4375V27.3438V22.2812L7.75 23C9.59375 23.4062 12.0625 23.9375 13.25 24.125L15.4062 24.5312L16.6875 23.0312C17.4062 22.2188 18 21.5625 18.0625 21.5625C18.0938 21.5625 18.125 24.7812 18.125 28.7188Z" fill="#00175B"/>
<path d="M28.75 25.5938C28.75 26.375 28.1875 26.75 27.7188 26.2812C27.1562 25.7188 26.4062 25.875 25.5312 26.8125C24.625 27.75 24.4688 28.4062 25.0312 28.9688C25.5 29.4375 25.125 30 24.3438 30C23.8125 30 23.75 30.2188 23.75 31.875C23.75 33.5312 23.8125 33.75 24.3438 33.75C25.125 33.75 25.5 34.3125 25.0312 34.7812C24.4688 35.3438 24.625 36 25.5312 36.9375C26.4062 37.875 27.1562 38.0312 27.7188 37.4688C28.1875 37 28.75 37.375 28.75 38.1562C28.75 38.6875 28.9688 38.75 30.625 38.75C32.2812 38.75 32.5 38.6875 32.5 38.1562C32.5 37.375 33.0625 37 33.5312 37.4688C34.0938 38.0312 34.8438 37.875 35.7188 36.9375C36.625 36 36.7812 35.3438 36.2188 34.7812C35.75 34.3125 36.125 33.75 36.9062 33.75C37.4375 33.75 37.5 33.5312 37.5 31.875C37.5 30.2188 37.4375 30 36.9062 30C36.125 30 35.75 29.4375 36.2188 28.9688C36.7812 28.4062 36.625 27.6562 35.6875 26.7812C34.75 25.875 34.0938 25.7188 33.5312 26.2812C33.0625 26.75 32.5 26.375 32.5 25.5938C32.5 25.0625 32.2812 25 30.625 25C28.9688 25 28.75 25.0625 28.75 25.5938ZM30.9375 26.6875C30.9375 27.4062 31.8438 27.9375 33.1875 28C34.4375 28.0625 34.4375 28.0625 34.5 29.3125C34.5625 30.6562 35.0938 31.5625 35.8125 31.5625C36.0625 31.5625 36.25 31.6875 36.25 31.875C36.25 32.0312 36.0625 32.1875 35.8125 32.1875C35.0938 32.1875 34.5625 33.0938 34.5 34.4375C34.4375 35.6875 34.4375 35.6875 33.1875 35.75C31.8438 35.8125 30.9375 36.3438 30.9375 37.0625C30.9375 37.3125 30.8125 37.5 30.625 37.5C30.4688 37.5 30.3125 37.3125 30.3125 37.0625C30.3125 36.3438 29.4062 35.8125 28.0625 35.75C26.8125 35.6875 26.8125 35.6875 26.75 34.4375C26.6875 33.0938 26.1562 32.1875 25.4375 32.1875C25.1875 32.1875 25 32.0312 25 31.875C25 31.6875 25.1875 31.5625 25.4375 31.5625C26.1562 31.5625 26.6875 30.6562 26.75 29.3125C26.8125 28.0625 26.8125 28.0625 28.0625 28C29.4062 27.9375 30.3125 27.4062 30.3125 26.6875C30.3125 26.4375 30.4688 26.25 30.625 26.25C30.8125 26.25 30.9375 26.4375 30.9375 26.6875Z" fill="#00175B"/>
<path d="M28.0938 29.3438C27.3125 30.125 27.1875 30.5 27.1875 31.875C27.1875 33.25 27.3125 33.625 28.0938 34.4062C28.875 35.1875 29.25 35.3125 30.625 35.3125C32 35.3125 32.375 35.1875 33.1562 34.4062C33.9375 33.625 34.0625 33.25 34.0625 31.875C34.0625 30.5 33.9375 30.125 33.1562 29.3438C32.375 28.5625 32 28.4375 30.625 28.4375C29.25 28.4375 28.875 28.5625 28.0938 29.3438ZM31.9375 30.5312C33.125 31.5938 32.2812 33.75 30.6875 33.75C29 33.75 28.1562 31.8125 29.2812 30.5625C29.9062 29.875 31.1875 29.8438 31.9375 30.5312Z" fill="#00175B"/>
</svg>
