<svg width="40" height="37" viewBox="0 0 40 37" fill="none" xmlns="http://www.w3.org/2000/svg">
<path d="M1.40625 0.374969C0 1.18747 0.03125 1.09372 0 14.9375V28.1562L0.78125 28.9062C1.53125 29.6875 1.625 29.6875 6.875 29.6875H12.1875V31.25V32.8125H10.6875C8.90625 32.8125 8.125 33.4375 8.125 34.9375C8.125 36.9062 8 36.875 19.6875 36.875C31.4375 36.875 31.25 36.9062 31.25 34.8437C31.25 33.4062 30.5625 32.8125 28.875 32.8125H27.5V31.25V29.6875H32.6562C37.75 29.6875 37.8438 29.6875 38.5938 28.9062L39.375 28.1562V14.8437V1.53122L38.5938 0.781219L37.8438 -3.05176e-05H19.9375C7.0625 0.0312195 1.84375 0.124969 1.40625 0.374969ZM37.8438 1.78122C38.1875 2.18747 38.3125 4.37497 38.375 12.25L38.4688 22.1875H19.8438H1.25V12.0312C1.25 2.71872 1.28125 1.87497 1.8125 1.59372C2.15625 1.37497 8.5625 1.28122 19.875 1.24997C35.8125 1.24997 37.4688 1.31247 37.8438 1.78122ZM38.375 25.2812C38.3125 26.4687 38.0625 27.6562 37.8438 27.9375C37.4688 28.375 35.6562 28.4375 19.7188 28.4375C6.34375 28.4375 1.90625 28.3437 1.625 28.0625C1.40625 27.8437 1.25 26.75 1.25 25.4062V23.125H19.875H38.5L38.375 25.2812ZM26.25 31.25V32.8125H19.8438H13.4375V31.25V29.6875H19.8438H26.25V31.25ZM29.8125 34.25C30.4375 34.8437 30.4375 34.8437 29.8125 35.4375C29.4062 35.875 28.0625 35.9375 19.8438 35.9375C14.625 35.9375 10.1562 35.8437 9.875 35.75C9.1875 35.5 9.21875 34.1562 9.9375 33.9687C10.2188 33.875 14.7188 33.8125 19.9062 33.7812C28.0938 33.75 29.4062 33.8125 29.8125 34.25Z" fill="#00175B"/>
<path d="M20.8438 10.8437C19.7188 13.9062 18.7188 16.6562 18.5938 16.9374C18.4375 17.3124 18.5312 17.5624 18.875 17.6874C19.1562 17.8124 19.4688 17.8124 19.5625 17.7187C19.9688 17.3437 24.0625 5.8437 23.9062 5.5937C23.3438 4.7187 22.75 5.74995 20.8438 10.8437Z" fill="#00175B"/>
<path d="M32.0938 7.06252C31.9688 7.18752 31.875 9.31252 31.875 11.7813C31.875 15.9063 31.9062 16.2813 32.4375 16.1875C32.9062 16.0938 32.9688 15.625 32.9688 11.5938C32.9688 7.37502 32.7812 6.37502 32.0938 7.06252Z" fill="#00175B"/>
<path d="M6.43738 8C6.15613 8.78125 6.21863 12.5312 6.56238 13.7188C6.93738 15.0938 7.68738 15.5938 9.24988 15.625C10.1874 15.625 10.6874 15.4375 11.1874 14.9062C11.8124 14.25 11.8749 13.8438 11.8749 10.8125C11.8749 7.78125 11.8124 7.46875 11.3436 7.5625C10.8749 7.65625 10.7811 8.09375 10.6874 10.625C10.6249 13.1562 10.5311 13.6562 9.96863 14.125C9.62488 14.4062 9.09363 14.5625 8.81238 14.4688C7.74988 14.0938 7.49988 13.375 7.49988 10.4062C7.49988 8.125 7.40613 7.5 7.06238 7.5C6.81238 7.5 6.53113 7.71875 6.43738 8Z" fill="#00175B"/>
<path d="M12.9686 7.8125C12.8436 8 13.1873 8.9375 13.7186 9.90625L14.6873 11.6562L13.7498 13.2812C12.6561 15.1875 12.5936 15.625 13.3748 15.625C13.7186 15.625 14.2498 15.0938 14.6561 14.3438L15.3748 13.0625L16.0623 14.25C16.7498 15.5 17.8123 16.0625 17.8123 15.1875C17.8123 14.9062 17.4373 14 16.9686 13.1562L16.1248 11.625L16.9686 10.0625C17.4373 9.21875 17.8123 8.28125 17.8123 8C17.8123 7.0625 16.8748 7.5 16.2498 8.78125C15.4998 10.1875 15.0623 10.0938 14.3748 8.4375C13.9998 7.5 13.3436 7.21875 12.9686 7.8125Z" fill="#00175B"/>
<path d="M24.6875 10.875C24.6875 14.0312 24.75 14.3125 25.4062 14.9375C25.9062 15.4062 26.5312 15.625 27.4375 15.625C29.7812 15.625 30.4375 14.3125 30.25 10C30.1875 8.0625 30.0625 7.65625 29.625 7.5625C29.125 7.46875 29.0625 7.75 29.0625 10.375C29.0625 13.375 28.8438 14.0938 27.75 14.4688C27.4688 14.5625 26.9375 14.4062 26.5938 14.125C26.0312 13.6562 25.9375 13.1562 25.875 10.625C25.7812 8.09375 25.6875 7.65625 25.25 7.5625C24.75 7.46875 24.6875 7.78125 24.6875 10.875Z" fill="#00175B"/>
<path d="M14.0625 24.9687C13.625 25.8125 13.6562 26.4375 14.25 27C15 27.75 16.1562 27.625 16.75 26.7187C17.2187 26 17.2187 25.875 16.75 25.1562C16.0937 24.1875 14.5625 24.0625 14.0625 24.9687Z" fill="#00175B"/>
<path d="M18.5 24.75C18.2812 24.9688 18.125 25.5 18.125 25.9375C18.125 26.9688 18.6562 27.5 19.6875 27.5C20.7188 27.5 21.25 26.9688 21.25 25.9375C21.25 24.9062 20.7188 24.375 19.6875 24.375C19.25 24.375 18.7188 24.5312 18.5 24.75Z" fill="#00175B"/>
<path d="M22.875 24.7499C22.4062 25.2187 22.4062 26.6562 22.875 27.1249C23.5625 27.8124 24.9688 27.5624 25.375 26.7187C25.9062 25.5624 25.2812 24.3749 24.125 24.3749C23.6562 24.3749 23.0938 24.5312 22.875 24.7499Z" fill="#00175B"/>
</svg>
