<svg width="38" height="38" viewBox="0 0 38 38" fill="none" xmlns="http://www.w3.org/2000/svg">
<path d="M6 0.390381C5.5 0.890381 5.5 2.89038 6 3.39038C6.625 4.01538 8.6875 3.85913 9.125 3.14038C9.46875 2.57788 9.875 2.51538 12.25 2.51538H15V3.76538V5.01538H7.5H0V17.5154V30.0154H7.1875H14.375V31.8904V33.7654H10.9375H7.5V35.6404V37.5154H18.75H30V35.6404V33.7654H26.5625H23.125V31.8904V30.0154H30.3125H37.5V17.5154V5.01538H30H22.5V3.76538V2.51538H25.25C27.625 2.51538 28.0312 2.57788 28.375 3.14038C28.8125 3.85913 30.875 4.01538 31.5 3.39038C32 2.89038 32 0.890381 31.5 0.390381C30.875 -0.234619 28.8125 -0.0783691 28.375 0.640381C28 1.20288 27.625 1.26538 24.625 1.26538H21.25V3.14038V5.01538H18.75H16.25V3.14038V1.26538H12.875C9.875 1.26538 9.5 1.20288 9.125 0.640381C8.6875 -0.0783691 6.625 -0.234619 6 0.390381ZM15 9.17163C15 12.0154 14.9688 12.1091 14.0625 12.9841C13.0625 13.9529 12.875 14.6404 13.5 15.2654C13.7812 15.5466 13.7188 15.6404 13.1875 15.6404C12.7188 15.6404 12.5 15.8279 12.5 16.2654C12.5 16.8591 12.2812 16.8904 9.4375 16.8904C6.75 16.8904 6.34375 16.8279 6 16.2654C5.5625 15.5466 3.5 15.3904 2.875 16.0154C2.375 16.5154 2.375 18.5154 2.875 19.0154C3.5 19.6404 5.5625 19.4841 6 18.7654C6.34375 18.2029 6.75 18.1404 9.4375 18.1404C12.2812 18.1404 12.5 18.1716 12.5 18.7654C12.5 19.2029 12.7188 19.3904 13.1875 19.3904C13.7188 19.3904 13.7812 19.4841 13.5 19.7654C12.9062 20.3591 13.0625 21.0154 14.125 22.1091C15.1875 23.2029 15.875 23.3904 16.5 22.7654C16.7812 22.4841 16.875 22.5466 16.875 23.0779C16.875 23.7029 17.0312 23.7654 18.75 23.7654C20.4688 23.7654 20.625 23.7029 20.625 23.0779C20.625 22.5466 20.7188 22.4841 21 22.7654C21.5938 23.3591 22.25 23.2029 23.3438 22.1404C24.4375 21.0779 24.625 20.3904 24 19.7654C23.7188 19.4841 23.7812 19.3904 24.3125 19.3904C24.7812 19.3904 25 19.2029 25 18.7654C25 18.1716 25.2188 18.1404 28.0625 18.1404C30.75 18.1404 31.1562 18.2029 31.5 18.7654C31.9375 19.4841 34 19.6404 34.625 19.0154C35.125 18.5154 35.125 16.5154 34.625 16.0154C34 15.3904 31.9375 15.5466 31.5 16.2654C31.1562 16.8279 30.75 16.8904 28.0625 16.8904C25.2188 16.8904 25 16.8591 25 16.2654C25 15.8279 24.7812 15.6404 24.3125 15.6404C23.7812 15.6404 23.7188 15.5466 24 15.2654C24.625 14.6404 24.4375 13.9529 23.4375 12.9841C22.5312 12.1091 22.5 12.0154 22.5 9.17163V6.26538H29.375H36.25V16.2654V26.2654H18.75H1.25V16.2654V6.26538H8.125H15V9.17163ZM21.25 9.20288C21.25 10.8591 21.125 12.2654 20.9375 12.3591C20.7812 12.4529 20.625 12.2654 20.625 11.9216C20.625 11.3279 20.4375 11.2654 18.75 11.2654C17.0625 11.2654 16.875 11.3279 16.875 11.9216C16.875 12.2654 16.75 12.4529 16.5625 12.3591C16.375 12.2654 16.25 10.8591 16.25 9.20288V6.26538H18.75H21.25V9.20288ZM19.375 13.2654C19.375 14.1404 20.25 14.5466 21.4688 14.2654C22.1562 14.0779 22.2188 14.1404 22.0312 14.7029C21.6562 15.8591 22.0938 16.8904 22.9688 16.8904C23.5312 16.8904 23.75 17.0466 23.75 17.5154C23.75 17.9841 23.5312 18.1404 22.9688 18.1404C22.125 18.1404 21.6562 19.1716 22.0312 20.2966C22.1875 20.8591 22.125 20.8904 21.1562 20.7341C20.0625 20.5779 19.0625 21.2029 19.0625 22.0779C19.0625 22.3279 18.8438 22.5154 18.5938 22.5154C18.3125 22.5154 18.125 22.2341 18.125 21.7654C18.125 20.8904 17.25 20.4841 16.0312 20.7654C15.3438 20.9529 15.2812 20.8904 15.4688 20.3279C15.8438 19.1716 15.4062 18.1404 14.5312 18.1404C13.9688 18.1404 13.75 17.9841 13.75 17.5154C13.75 17.0466 13.9688 16.8904 14.5 16.8904C15.375 16.8904 15.7812 16.0154 15.5 14.7966C15.3125 14.1091 15.375 14.0466 15.9375 14.2341C17.0938 14.6091 18.125 14.1716 18.125 13.2966C18.125 12.7341 18.2812 12.5154 18.75 12.5154C19.2188 12.5154 19.375 12.7341 19.375 13.2654ZM36.25 28.1404C36.25 28.7654 36.0312 28.7654 18.75 28.7654C1.46875 28.7654 1.25 28.7654 1.25 28.1404C1.25 27.5154 1.46875 27.5154 18.75 27.5154C36.0312 27.5154 36.25 27.5154 36.25 28.1404ZM21.875 31.8904V33.7654H18.75H15.625V31.8904V30.0154H18.75H21.875V31.8904ZM28.75 35.6404C28.75 36.2654 28.5312 36.2654 18.75 36.2654C8.96875 36.2654 8.75 36.2654 8.75 35.6404C8.75 35.0154 8.96875 35.0154 18.75 35.0154C28.5312 35.0154 28.75 35.0154 28.75 35.6404Z" fill="#00175B"/>
<path d="M2.5 8.14038C2.5 8.70288 2.71875 8.76538 4.375 8.76538H6.25V11.5779V14.3904H8.75C11.0312 14.3904 11.25 14.3279 11.25 13.7654C11.25 13.2029 11.0312 13.1404 9.375 13.1404H7.5V10.3279V7.51538H5C2.71875 7.51538 2.5 7.57788 2.5 8.14038Z" fill="#00175B"/>
<path d="M30 10.3279V13.1404H28.125C26.4688 13.1404 26.25 13.2029 26.25 13.7654C26.25 14.3279 26.4688 14.3904 28.75 14.3904H31.25V11.5779V8.76538H33.125C34.7812 8.76538 35 8.70288 35 8.14038C35 7.57788 34.7812 7.51538 32.5 7.51538H30V10.3279Z" fill="#00175B"/>
<path d="M16.875 15.6404C16.4688 16.0466 16.25 16.6716 16.25 17.5154C16.25 18.3591 16.4688 18.9841 16.875 19.3904C17.2812 19.7966 17.9062 20.0154 18.75 20.0154C20.4062 20.0154 21.25 19.1716 21.25 17.5154C21.25 16.6716 21.0312 16.0466 20.625 15.6404C20.2188 15.2341 19.5938 15.0154 18.75 15.0154C17.9062 15.0154 17.2812 15.2341 16.875 15.6404ZM19.5312 17.5154C19.5312 18.0779 19.3438 18.3279 18.8125 18.3904C18.0625 18.5154 17.625 17.8279 17.9375 17.0154C18.0312 16.7341 18.4062 16.5779 18.8125 16.6404C19.3438 16.7029 19.5312 16.9529 19.5312 17.5154Z" fill="#00175B"/>
</svg>
