<svg width="35" height="39" viewBox="0 0 35 39" fill="none" xmlns="http://www.w3.org/2000/svg">
<path d="M15.8665 0.761778C15.179 1.26178 14.3665 1.54303 13.5853 1.54303C12.1478 1.54303 10.554 2.91803 10.554 4.16803C10.554 4.63678 10.054 5.51178 9.30403 6.38678C7.92903 7.94928 7.71028 9.19928 8.52278 10.6055C8.77278 11.043 8.96028 12.2305 8.99153 13.3243C8.99153 15.0743 9.08528 15.293 9.99153 16.0743L10.9603 16.8868L9.92903 19.1368C9.36653 20.3868 8.83528 21.793 8.74153 22.293L8.58528 23.1993L10.4603 22.9805C12.3353 22.7618 12.3353 22.793 12.7415 23.6993C13.2103 24.8243 14.1478 25.7305 14.5853 25.4805C14.7728 25.3555 15.4915 24.043 16.179 22.543C16.8665 21.0743 17.5853 19.7618 17.7728 19.6368C17.9603 19.543 18.429 19.5118 18.8353 19.6055C19.3978 19.6993 19.804 20.2618 20.554 22.043C21.7728 24.793 22.3353 24.9805 23.5228 23.1055L24.304 21.8555L25.9915 22.043C27.0228 22.168 27.7415 22.1055 27.8665 21.918C27.9603 21.7305 27.5853 20.4805 26.9915 19.1368L25.929 16.668L26.679 16.0118C27.304 15.4493 27.429 15.043 27.429 13.3555C27.4603 12.2305 27.6478 11.043 27.8978 10.6055C28.7103 9.19928 28.4915 7.73053 27.304 6.57428C26.6478 5.94928 26.1165 5.01178 25.8978 4.19928C25.4915 2.51178 24.3353 1.54303 22.7728 1.54303C22.0853 1.54303 21.179 1.23053 20.4915 0.761778C18.9915 -0.269472 17.3353 -0.238222 15.8665 0.761778ZM19.8665 2.32428C20.554 2.79303 21.4603 3.10553 22.1165 3.10553C23.554 3.10553 24.1165 3.57428 24.554 5.13678C24.7415 5.85553 25.3353 6.82428 25.8665 7.32428C26.8978 8.29303 27.0228 9.10553 26.3353 10.293C26.0853 10.7305 25.8978 11.8868 25.8665 12.8555V14.668L24.3978 15.418C23.5228 15.8555 22.5853 16.668 22.179 17.3243C21.4603 18.4493 21.3978 18.4805 20.1478 18.2618C18.5228 17.9493 17.8978 17.9493 16.304 18.2618C15.054 18.4805 14.9915 18.4493 14.304 17.3555C13.8978 16.6368 13.0228 15.918 12.0853 15.418L10.554 14.668V12.6993C10.5228 11.6055 10.3353 10.418 10.0853 9.98053C9.46028 8.85553 9.49153 8.66803 10.7103 7.35553C11.304 6.69928 11.8665 5.69928 11.9915 5.10553C12.2728 3.63678 12.8665 3.10553 14.2728 3.10553C15.0228 3.10553 15.8665 2.82428 16.5228 2.35553C17.8978 1.38678 18.4603 1.38678 19.8665 2.32428ZM25.054 18.7305C25.7103 20.3868 25.7103 20.3868 24.679 20.1993C23.6478 19.9805 23.304 20.168 22.7415 21.2305L22.3353 22.0118L21.9603 21.1368C21.6478 20.3555 21.7103 20.168 22.8665 18.918C23.5853 18.1368 24.2415 17.5118 24.3353 17.5118C24.4603 17.4805 24.7728 18.043 25.054 18.7305ZM15.0228 19.9805C15.4603 19.9805 15.4603 20.1055 14.9603 21.2305C14.2103 22.918 14.0853 23.0118 13.6478 22.043C13.3353 21.3868 13.054 21.2305 12.054 21.2305C11.3978 21.2305 10.8665 21.168 10.8665 21.0743C10.8665 20.9805 11.2103 20.1993 11.6478 19.3243L12.4603 17.7618L13.4915 18.8868C14.054 19.4805 14.7415 19.9805 15.0228 19.9805Z" fill="#00175B"/>
<path d="M15.179 4.35543C10.8665 6.69918 10.8665 13.1992 15.2102 15.5117C18.0227 16.9804 21.679 16.1367 23.4602 13.5429C25.3665 10.7929 24.7415 7.01168 22.0227 4.85543C20.9602 4.01168 20.5227 3.88668 18.5852 3.82418C16.804 3.73043 16.0852 3.85543 15.179 4.35543ZM20.7415 5.91793C21.304 6.29293 22.054 7.16793 22.429 7.98043C23.554 10.2929 22.8977 12.3554 20.554 13.9492C17.679 15.9179 13.554 13.5742 13.554 9.94918C13.554 6.38668 17.7102 4.04293 20.7415 5.91793Z" fill="#00175B"/>
<path d="M19.0228 8.91801L17.0853 10.6993L16.3666 10.0118C15.5228 9.23051 14.7728 9.16801 14.4916 9.85551C14.3666 10.1993 14.7103 10.793 15.5228 11.6055C16.9916 13.0743 16.9603 13.0743 20.0541 10.2305C21.6478 8.76176 22.1791 8.07426 22.0228 7.69926C21.6791 6.82426 21.0853 7.07426 19.0228 8.91801Z" fill="#00175B"/>
<path d="M0.960186 13.793C0.366436 14.4492 0.303936 15.0117 0.0851863 20.6055C-0.0710637 24.8555 -0.00856365 26.9805 0.241436 27.6055C0.428936 28.1055 1.77269 29.7305 3.21019 31.2305C4.67894 32.6992 5.86644 34.0117 5.86644 34.1367C5.86644 34.2617 5.52269 34.3555 5.08519 34.3555C4.17894 34.3555 3.67894 35.1367 3.67894 36.543C3.67894 38.6992 3.77269 38.7305 9.39769 38.7305C12.9602 38.7305 14.6164 38.6055 14.8664 38.3555C15.0852 38.1367 15.2414 37.3242 15.2414 36.5117C15.2414 34.9805 14.6789 34.043 13.8039 34.043C13.4602 34.043 13.3664 33.4805 13.3664 31.293C13.3664 28.1367 13.0852 27.418 11.1477 25.6992C10.3977 25.043 9.39769 24.1367 8.96019 23.668C7.96019 22.6367 6.80394 22.1367 5.92894 22.3867C5.33519 22.543 5.30394 22.3867 5.17894 18.793C5.08519 15.543 4.99144 14.8867 4.42894 14.1367C3.55394 12.9492 1.89769 12.793 0.960186 13.793ZM3.36644 15.4805C3.55394 15.918 3.67894 18.0742 3.67894 20.2617C3.67894 24.168 3.71019 24.293 4.58519 25.4805C5.99144 27.418 7.64769 28.8242 8.17894 28.6367C9.02269 28.293 8.74144 27.3867 7.24144 25.8867C6.14769 24.7617 5.92894 24.3867 6.24144 24.1367C6.55394 23.8555 7.27269 24.3555 9.24144 26.1992L11.8039 28.6367V31.3242V33.9805L9.61644 34.1055C7.61644 34.1992 7.42894 34.1367 7.42894 33.6055C7.42894 33.2617 6.14769 31.668 4.42894 29.918L1.42894 26.8867L1.64769 21.0117C1.77269 17.793 1.92894 15.043 2.02269 14.8867C2.30394 14.3867 3.08519 14.6992 3.36644 15.4805ZM13.6477 36.4492C13.5852 37.1992 13.5852 37.2305 13.4602 36.6055C13.3664 36.168 13.0852 35.918 12.6789 35.918C12.2102 35.918 12.0852 36.0742 12.2102 36.543C12.3664 37.1367 12.2102 37.168 9.27269 37.1992C7.58519 37.2305 5.99144 37.2617 5.80394 37.293C5.24144 37.3242 5.08519 36.1992 5.61644 35.8867C5.83519 35.7305 7.74144 35.6055 9.86644 35.6055H13.6789L13.6477 36.4492Z" fill="#00175B"/>
<path d="M30.7727 13.668C29.8665 14.6367 29.6165 15.918 29.6165 19.2617C29.6165 22.4492 29.5852 22.543 28.9602 22.3867C28.054 22.1367 26.8977 22.6367 25.8977 23.668C25.4602 24.1367 24.4602 25.043 23.7102 25.6992C21.7727 27.418 21.4915 28.1367 21.4915 31.293C21.4915 33.4805 21.3977 34.043 21.054 34.043C20.179 34.043 19.6165 34.9805 19.6165 36.5117C19.6165 37.3242 19.7727 38.1367 19.9915 38.3555C20.2415 38.6055 21.8977 38.7305 25.4602 38.7305C31.0852 38.7305 31.179 38.6992 31.179 36.543C31.179 35.1367 30.679 34.3555 29.7727 34.3555C29.3352 34.3555 28.9915 34.2617 28.9915 34.1367C28.9915 34.0117 30.179 32.6992 31.6477 31.2305C33.0852 29.7305 34.429 28.1055 34.6165 27.6055C34.8665 26.9805 34.929 24.8555 34.7727 20.6055C34.554 15.043 34.4915 14.4492 33.8977 13.793C33.1165 12.9492 31.4915 12.8555 30.7727 13.668ZM32.8352 14.8867C32.929 15.043 33.0852 17.793 33.2102 21.0117L33.429 26.8867L30.429 29.918C28.7102 31.668 27.429 33.2617 27.429 33.6055C27.429 34.1367 27.2415 34.1992 25.2415 34.1055L23.054 33.9805V31.3242V28.6367L25.6477 26.1992C27.5852 24.3555 28.304 23.8555 28.6165 24.1367C28.929 24.3867 28.7102 24.7617 27.6165 25.8867C26.1165 27.3867 25.8352 28.293 26.679 28.6367C27.2102 28.8242 28.8665 27.418 30.2727 25.4805C31.1477 24.293 31.179 24.168 31.179 20.2617C31.179 18.0742 31.304 15.918 31.4915 15.4805C31.7727 14.6992 32.554 14.3867 32.8352 14.8867ZM29.2415 35.8867C29.7727 36.1992 29.6165 37.3242 29.054 37.293C28.8665 37.2617 27.2727 37.2305 25.5852 37.1992C22.6477 37.168 22.4915 37.1367 22.6477 36.543C22.7727 36.0742 22.6477 35.918 22.179 35.918C21.7727 35.918 21.4915 36.168 21.3977 36.6055C21.2727 37.2305 21.2727 37.1992 21.2102 36.4492L21.179 35.6055H25.0227C27.1165 35.6055 29.0227 35.7305 29.2415 35.8867Z" fill="#00175B"/>
</svg>
