<svg width="39" height="39" viewBox="0 0 39 39" fill="none" xmlns="http://www.w3.org/2000/svg">
<path d="M18.0237 0.5C17.3362 1.1875 17.3987 2.59375 18.1487 3.28125C18.7737 3.875 19.055 5.9375 18.4925 5.9375C18.3362 5.9375 18.1175 6.1875 17.9925 6.53125C17.8675 6.9375 17.6175 7.0625 17.0237 6.9375C15.8987 6.71875 14.93 7.6875 15.18 8.78125C15.3362 9.4375 15.2425 9.625 14.7425 9.78125C13.8362 10 13.8362 11.6562 14.7112 12.2812C15.1175 12.5625 15.2737 12.9062 15.1487 13.25C15.055 13.5312 15.18 14.125 15.4925 14.5625C15.8987 15.1875 16.2112 15.3438 16.8987 15.25C17.4925 15.1562 17.8675 15.2812 18.1175 15.6875C18.3362 16.0312 18.8362 16.25 19.3987 16.25C19.9612 16.25 20.4612 16.0312 20.68 15.6875C20.93 15.2812 21.305 15.1562 21.8987 15.25C22.5862 15.3438 22.8987 15.1875 23.305 14.5625C23.6175 14.125 23.7425 13.5312 23.6487 13.25C23.5237 12.9062 23.68 12.5625 24.0862 12.2812C24.9612 11.6562 24.9612 10 24.055 9.78125C23.555 9.625 23.4612 9.4375 23.6175 8.78125C23.8675 7.6875 22.8987 6.71875 21.7737 6.9375C21.18 7.0625 20.93 6.9375 20.805 6.53125C20.68 6.1875 20.4612 5.9375 20.305 5.9375C19.7425 5.9375 20.0237 3.875 20.6487 3.28125C21.9612 2.09375 21.1487 0 19.3987 0C18.8987 0 18.2737 0.21875 18.0237 0.5ZM19.7112 1.71875C19.7112 1.96875 19.5862 2.1875 19.43 2.1875C19.0237 2.1875 18.7425 1.6875 18.9925 1.4375C19.3362 1.09375 19.7112 1.25 19.7112 1.71875ZM17.8362 8.5625C17.8362 8.625 17.6175 8.84375 17.3675 9.0625C16.9925 9.375 16.8987 9.375 16.8987 8.9375C16.8987 8.65625 17.1175 8.4375 17.3675 8.4375C17.6175 8.4375 17.8362 8.5 17.8362 8.5625ZM21.8987 8.9375C21.8987 9.375 21.805 9.375 21.43 9.0625C21.18 8.84375 20.9612 8.625 20.9612 8.5625C20.9612 8.5 21.18 8.4375 21.43 8.4375C21.68 8.4375 21.8987 8.65625 21.8987 8.9375ZM20.4612 10.1875C20.7425 10.4375 20.9612 10.7812 20.9612 10.875C20.9612 11.4375 19.93 12.5 19.3987 12.5C18.8675 12.5 17.8362 11.4375 17.8362 10.875C17.8362 10.4375 18.8362 9.6875 19.3987 9.6875C19.7112 9.6875 20.2112 9.90625 20.4612 10.1875ZM16.5862 11.0938C16.5862 11.375 16.3987 11.4688 16.1175 11.375C15.8675 11.25 15.7425 11.0625 15.8362 10.9062C16.0862 10.4688 16.5862 10.5938 16.5862 11.0938ZM22.9612 10.9062C23.055 11.0625 22.93 11.25 22.68 11.375C22.3987 11.4688 22.2112 11.375 22.2112 11.0938C22.2112 10.5938 22.7112 10.4688 22.9612 10.9062ZM19.805 14.2812C19.7112 14.5 19.5237 14.6875 19.3987 14.6875C19.2737 14.6875 19.0862 14.5 18.9925 14.2812C18.8987 14.0625 19.0862 13.875 19.3987 13.875C19.7112 13.875 19.8987 14.0625 19.805 14.2812Z" fill="#00175B"/>
<path d="M0.742377 3.28125C-0.226373 3.96875 -0.257623 5.71875 0.711127 6.375C1.64863 7.03125 2.39863 7 3.14863 6.25C3.71113 5.6875 4.17988 5.625 7.67988 5.625H11.5861V10C11.5861 12.5 11.4611 14.375 11.3049 14.375C11.1486 14.375 10.9299 14.625 10.8049 14.9688C10.6799 15.375 10.4299 15.5 9.83613 15.375C8.74238 15.1875 7.74238 16.125 7.96113 17.2188C8.08613 17.875 7.99238 18.0938 7.52363 18.2188C6.64863 18.4375 6.64863 20.4688 7.52363 20.9375C7.99238 21.1875 8.11738 21.4688 7.96113 22.0312C7.71113 23.0312 8.86738 24.1875 9.86738 23.9375C10.4299 23.7812 10.7111 23.9062 10.9611 24.375C11.3986 25.2188 12.9611 25.2188 13.5549 24.375C13.8361 23.9688 14.1799 23.8125 14.5236 23.9375C14.8049 24.0312 15.3986 23.9062 15.8361 23.5938C16.4924 23.1875 16.6174 22.875 16.5236 22.1562C16.4299 21.4688 16.5236 21.125 16.9611 20.9062C17.7736 20.4688 17.7424 18.4375 16.8986 18.2188C16.4299 18.0938 16.3361 17.875 16.4611 17.2188C16.6799 16.0938 15.6799 15.1562 14.5549 15.4375C13.9924 15.5938 13.7736 15.5 13.7736 15.1875C13.7736 14.9375 13.5549 14.5938 13.3049 14.4688C12.9299 14.25 12.8361 13.2188 12.7736 9.21875L12.6799 4.21875L8.17988 4.125C4.74238 4.0625 3.58613 3.9375 3.33613 3.59375C2.77363 2.875 1.52363 2.75 0.742377 3.28125ZM2.21113 4.84375C2.21113 5.09375 2.08613 5.3125 1.92988 5.3125C1.52363 5.3125 1.24238 4.8125 1.49238 4.5625C1.83613 4.21875 2.21113 4.375 2.21113 4.84375ZM12.6799 16.375C13.0549 16.75 13.0236 16.8125 12.3986 16.75C11.9611 16.75 11.7111 16.5625 11.8049 16.3125C11.9924 15.8438 12.1486 15.8438 12.6799 16.375ZM10.9299 16.9688C10.8674 17 10.5861 17.2188 10.3049 17.4375C9.86738 17.75 9.74238 17.75 9.58613 17.3438C9.46113 17 9.61738 16.875 10.2424 16.875C10.6799 16.875 10.9924 16.9062 10.9299 16.9688ZM15.0236 17.1562C15.0236 17.7188 14.4611 17.8125 14.0861 17.3438C13.7736 16.9375 13.8049 16.875 14.3674 16.875C14.7111 16.875 15.0236 17 15.0236 17.1562ZM13.2111 18.6562C13.9924 19.3438 13.9299 20.2188 13.0236 20.7812C11.6174 21.7188 10.1799 20.2812 11.1174 18.875C11.6799 18 12.3986 17.9062 13.2111 18.6562ZM9.39863 19.7188C9.39863 20.2812 9.33613 20.3438 8.92988 20C8.52363 19.6562 8.52363 19.5312 8.83613 19.3438C9.39863 18.9688 9.39863 18.9688 9.39863 19.7188ZM16.2111 19.5C16.1486 19.5312 15.8674 19.75 15.5861 19.9688C15.0861 20.3438 15.0236 20.3125 15.0236 19.75C15.0236 19.2812 15.1799 19.1562 15.6486 19.2812C16.0236 19.375 16.2424 19.4688 16.2111 19.5ZM10.4299 21.9062C10.5861 22 10.4299 22.1875 10.0861 22.25C9.61738 22.375 9.52363 22.2812 9.64863 21.8125C9.71113 21.5 9.86738 21.3438 9.99238 21.4688C10.0861 21.5938 10.3049 21.8125 10.4299 21.9062ZM12.6486 22.9688C12.4924 23.3438 12.3361 23.375 12.0236 23.0938C11.4299 22.625 11.4611 22.5 12.2111 22.5C12.6174 22.5 12.7736 22.6562 12.6486 22.9688Z" fill="#00175B"/>
<path d="M36.0549 3.125C35.6487 3.28125 35.3362 3.5625 35.3362 3.71875C35.3362 3.9375 33.5549 4.09375 30.7424 4.125L26.1174 4.21875L26.0237 9.21875C25.9612 13.2188 25.8674 14.25 25.4924 14.4688C25.2424 14.5938 25.0237 14.9375 25.0237 15.1875C25.0237 15.5 24.8049 15.5938 24.2424 15.4375C23.1174 15.1562 22.1174 16.0938 22.3362 17.2188C22.4612 17.875 22.3674 18.0938 21.8987 18.2188C21.0549 18.4375 21.0237 20.4688 21.8362 20.9062C22.2737 21.125 22.3674 21.4688 22.2737 22.1562C22.1799 22.875 22.3049 23.1875 22.9612 23.5938C23.3987 23.9062 23.9924 24.0312 24.2737 23.9375C24.6174 23.8125 24.9612 23.9688 25.2424 24.375C25.8362 25.2188 27.3987 25.2188 27.8362 24.375C28.0862 23.9062 28.3674 23.7812 28.9299 23.9375C29.9299 24.1875 31.0862 23.0312 30.8362 22.0312C30.6799 21.4688 30.8049 21.1875 31.2737 20.9375C32.1487 20.4688 32.1487 18.4375 31.2737 18.2188C30.8049 18.0938 30.7112 17.875 30.8362 17.2188C31.0549 16.125 30.0549 15.1875 28.9612 15.375C28.3674 15.5 28.1174 15.375 27.9924 14.9688C27.8674 14.625 27.6487 14.375 27.4924 14.375C27.3362 14.375 27.2112 12.5 27.2112 10V5.625H31.1174C34.6174 5.625 35.0862 5.6875 35.6487 6.25C36.8987 7.5 38.7737 6.625 38.7737 4.84375C38.7737 4.09375 38.5549 3.625 38.0862 3.3125C37.3049 2.75 37.0549 2.71875 36.0549 3.125ZM37.2737 4.84375C37.2737 5 37.1174 5.1875 36.9299 5.25C36.7424 5.3125 36.5862 5.125 36.5862 4.84375C36.5862 4.5625 36.7424 4.375 36.9299 4.4375C37.1174 4.5 37.2737 4.6875 37.2737 4.84375ZM26.9924 16.3125C27.0862 16.5625 26.8362 16.75 26.3987 16.75C25.8362 16.8125 25.7737 16.7188 26.0549 16.375C26.5237 15.8438 26.8049 15.8438 26.9924 16.3125ZM24.7112 17.3438C24.3362 17.8125 23.7737 17.7188 23.7737 17.1562C23.7737 17 24.0862 16.875 24.4299 16.875C24.9924 16.875 25.0237 16.9375 24.7112 17.3438ZM29.2112 17.3438C29.0549 17.75 28.9299 17.75 28.4924 17.4375C28.2112 17.2188 27.9299 17 27.8674 16.9688C27.8049 16.9062 28.1174 16.875 28.5549 16.875C29.1799 16.875 29.3362 17 29.2112 17.3438ZM27.6799 18.875C28.6174 20.2812 27.1799 21.7188 25.7737 20.7812C24.8987 20.2188 24.8049 19.5 25.5549 18.6875C26.2424 17.9062 27.0862 17.9688 27.6799 18.875ZM23.7737 19.6875C23.7737 20.25 23.6799 20.2812 23.1487 19.9375C22.5862 19.5625 22.5549 19.5312 23.0862 19.3125C23.3674 19.2188 23.6487 19.0938 23.7112 19.0938C23.7424 19.0625 23.7737 19.3438 23.7737 19.6875ZM30.3362 19.5312C30.3362 19.5625 30.1174 19.7812 29.8674 20C29.4612 20.3125 29.3987 20.2812 29.3987 19.75C29.3987 19.2812 29.5549 19.125 29.8674 19.25C30.1174 19.375 30.3362 19.4688 30.3362 19.5312ZM29.1799 21.8438C29.2737 22.2812 29.1799 22.375 28.7424 22.2812C28.3049 22.1562 28.2737 22.0312 28.5549 21.6875C29.0237 21.1562 28.9924 21.1562 29.1799 21.8438ZM26.8987 22.9688C26.6799 23.2188 26.4612 23.4375 26.4299 23.4375C26.3674 23.4375 26.2737 23.2188 26.1487 22.9688C26.0237 22.6562 26.1799 22.5 26.6487 22.5C27.1799 22.5 27.2112 22.5625 26.8987 22.9688Z" fill="#00175B"/>
<path d="M5.80493 11.0938L5.02368 11.8438V21.0625V30.2812L5.83618 30.9062C6.58618 31.5 7.08618 31.5625 10.8362 31.5625C15.0237 31.5625 15.0237 31.5625 15.0237 32.3125C15.0237 32.6875 14.8674 33.4688 14.6799 34.0312C14.3987 34.875 14.1799 35 13.2737 35C12.1174 35 10.9612 35.9062 10.9612 36.8125C10.9612 37.125 11.1799 37.6875 11.4612 38.0625C11.9299 38.75 12.0237 38.75 19.3987 38.75C26.7737 38.75 26.8674 38.75 27.3362 38.0625C27.6174 37.6875 27.8362 37.125 27.8362 36.8125C27.8362 35.875 26.6799 35 25.5237 35C24.2424 35 24.1487 34.875 23.8987 33L23.6799 31.5625H27.8987C31.7112 31.5625 32.2112 31.5 32.9612 30.9062L33.7737 30.2812V20.7812C33.7737 11.3125 33.7737 11.2812 33.0862 10.8125C32.1487 10.1562 28.3049 10.125 28.0549 10.75C27.7737 11.4688 28.5237 11.8438 30.4924 11.9375L32.3674 12.0312L32.4612 19.125L32.5237 26.25H19.3987H6.27368V19.4375C6.27368 14.5625 6.36743 12.5312 6.64868 12.25C6.86743 12.0312 7.74243 11.875 8.61743 11.875C10.2737 11.875 11.0237 11.4688 10.7424 10.75C10.6174 10.4375 9.99243 10.3125 8.55493 10.3125C6.83618 10.3125 6.46118 10.4375 5.80493 11.0938ZM32.5237 28.4062C32.5237 30.2812 32.3674 30.3125 19.3987 30.3125C6.42993 30.3125 6.27368 30.2812 6.27368 28.4062V27.5H19.3987H32.5237V28.4062ZM22.3362 32.7188C22.4612 33.375 22.6174 34.1562 22.7112 34.4375C22.8674 34.9375 22.5549 35 19.3987 35C16.2424 35 15.9299 34.9375 16.0549 34.4375C16.1487 34.1562 16.3049 33.375 16.4299 32.7188L16.6174 31.5625H19.3674H22.1487L22.3362 32.7188ZM25.9299 36.5312C26.1487 36.6875 26.2424 36.9688 26.1487 37.1562C25.8362 37.625 12.9612 37.625 12.6487 37.1562C12.5549 36.9688 12.6487 36.6875 12.8674 36.5312C13.4299 36.1875 25.3674 36.1875 25.9299 36.5312Z" fill="#00175B"/>
<path d="M17.6486 28.5938C17.3361 29.4063 17.9611 29.7188 19.5861 29.625C20.8674 29.5313 21.1174 29.4375 21.1174 28.9063C21.1174 28.375 20.8674 28.2813 19.4611 28.1875C18.1799 28.125 17.7736 28.1875 17.6486 28.5938Z" fill="#00175B"/>
</svg>
