<svg width="38" height="38" viewBox="0 0 38 38" fill="none" xmlns="http://www.w3.org/2000/svg">
<path d="M9.53769 0.8125L8.72519 1.65625V8.78125C8.72519 14.9375 8.66269 15.9375 8.25644 15.9375C7.47519 15.9375 6.53769 14.75 6.53769 13.7812C6.53769 13.3125 6.81894 12.5312 7.19394 12.0625C8.50644 10.4062 7.16269 9.65625 5.78769 11.2812C5.16269 12.0312 4.97519 12.5625 4.97519 13.8125C4.97519 15.1875 5.10019 15.5 6.03769 16.4375C6.69394 17.0938 7.41269 17.5 7.91269 17.5C8.69394 17.5 8.72519 17.5625 8.72519 19.4375C8.72519 20.8438 8.63144 21.2812 8.41269 20.9375C8.25644 20.6875 8.10019 20.25 8.10019 19.9688C8.10019 19.6562 7.53769 19.25 6.66269 18.9062C5.44394 18.4375 5.10019 18.4375 4.47519 18.75C3.50644 19.2812 3.19394 18.9688 3.72519 18C4.03769 17.375 4.03769 17.0312 3.56894 15.8438C3.16269 14.7188 2.85019 14.4062 2.13144 14.25C0.975193 14.0312 0.975193 13.4688 2.13144 13.25C2.85019 13.0938 3.16269 12.7812 3.56894 11.6562C4.03769 10.4688 4.03769 10.125 3.72519 9.5C3.19394 8.53125 3.50644 8.21875 4.47519 8.75C5.10019 9.0625 5.44394 9.0625 6.63144 8.59375C7.75644 8.15625 8.06894 7.875 8.22519 7.125C8.56894 5.375 8.47519 5 7.63144 5C7.06894 5 6.85019 5.15625 6.85019 5.625C6.85019 5.96875 6.56894 6.53125 6.22519 6.875C5.63144 7.46875 5.53769 7.46875 4.88144 7.03125C3.91269 6.34375 3.31894 6.4375 2.38144 7.4375C1.41269 8.4375 1.35019 8.96875 2.00644 9.875C2.38144 10.4375 2.38144 10.625 1.97519 11.1875C1.69394 11.5938 1.16269 11.875 0.725193 11.875C-0.0248075 11.875 -0.0560574 11.9375 0.0376926 13.6562C0.131443 15.25 0.225193 15.4688 0.818943 15.5625C1.22519 15.625 1.72519 15.9688 1.97519 16.3125C2.38144 16.875 2.38144 17.0625 2.00644 17.625C1.35019 18.5312 1.41269 19.0625 2.38144 20.0625C3.31894 21.0625 3.91269 21.1562 4.88144 20.4688C5.53769 20.0312 5.63144 20.0312 6.22519 20.625C6.56894 20.9688 6.85019 21.5312 6.85019 21.875C6.85019 22.375 7.06894 22.5 7.78769 22.5H8.72519V29.1875V35.8438L9.53769 36.6875L10.3814 37.5H18.7252H27.0689L27.9127 36.6875L28.7252 35.8438V28.7188C28.7252 22.5625 28.7877 21.5625 29.1939 21.5625C29.9752 21.5625 30.9127 22.75 30.9127 23.7188C30.9127 24.1875 30.6314 24.9688 30.2564 25.4375C28.9439 27.0938 30.2877 27.8438 31.6627 26.2188C32.2877 25.4688 32.4752 24.9375 32.4752 23.6875C32.4752 22.3125 32.3502 22 31.4127 21.0625C30.7564 20.4062 30.0377 20 29.5377 20C28.7564 20 28.7252 19.9375 28.7252 18.0312C28.7252 16.6562 28.8189 16.2188 29.0377 16.5625C29.1939 16.8125 29.3502 17.25 29.3502 17.5312C29.3502 17.8438 29.9127 18.25 30.7877 18.5938C32.0064 19.0625 32.3502 19.0625 32.9752 18.75C33.9439 18.2188 34.2564 18.5312 33.7252 19.5C33.4127 20.125 33.4127 20.4688 33.8814 21.6562C34.2877 22.7812 34.6002 23.0938 35.3189 23.25C35.8189 23.3438 36.2252 23.5625 36.2252 23.75C36.2252 23.9375 35.8189 24.1562 35.3189 24.25C34.6002 24.4062 34.2877 24.7188 33.8814 25.8438C33.4127 27.0312 33.4127 27.375 33.7252 28C34.2564 28.9688 33.9439 29.2812 32.9752 28.75C32.3502 28.4375 32.0064 28.4375 30.8189 28.9062C29.6939 29.3438 29.3814 29.625 29.2252 30.375C28.8814 32.125 28.9752 32.5 29.8189 32.5C30.3814 32.5 30.6002 32.3438 30.6002 31.875C30.6002 31.5312 30.8814 30.9688 31.2252 30.625C31.8189 30.0312 31.9127 30.0312 32.5689 30.4688C33.5064 31.125 34.0377 31.0625 35.0377 30.0938C36.0064 29.1562 36.1314 28.5625 35.4439 27.625C35.0689 27.0625 35.0689 26.875 35.4752 26.3125C35.7252 25.9688 36.2252 25.625 36.6314 25.5625C37.2252 25.4688 37.3189 25.25 37.4127 23.6562C37.5064 21.9375 37.4752 21.875 36.7252 21.875C36.2877 21.875 35.7564 21.5938 35.4752 21.1875C35.0689 20.625 35.0689 20.4375 35.4439 19.875C36.1314 18.9375 36.0064 18.3438 35.0377 17.4062C34.0377 16.4375 33.5064 16.375 32.5689 17.0312C31.9127 17.4688 31.8189 17.4688 31.2252 16.875C30.8814 16.5312 30.6002 15.9688 30.6002 15.625C30.6002 15.125 30.3814 15 29.6627 15H28.7252V8.3125V1.65625L27.9127 0.8125L27.0689 0H18.7252H10.3814L9.53769 0.8125ZM26.7564 1.96875C27.2877 2.5 27.3189 3.59375 27.3189 18.75C27.3189 33.9062 27.2877 35 26.7564 35.5312C26.2564 36.0312 25.4752 36.0938 18.7252 36.0938C11.9752 36.0938 11.1939 36.0312 10.6939 35.5312C10.1627 35.0312 10.1314 33.875 10.0377 19.25C9.97519 9.1875 10.0689 3.21875 10.2877 2.6875C10.4439 2.21875 10.9127 1.71875 11.2877 1.5625C11.6939 1.40625 15.1939 1.3125 19.1002 1.34375C25.4439 1.40625 26.2564 1.46875 26.7564 1.96875Z" fill="#040E50"/>
<path d="M16.2251 3.125C16.2251 3.6875 16.4438 3.75 18.7251 3.75C21.0063 3.75 21.2251 3.6875 21.2251 3.125C21.2251 2.5625 21.0063 2.5 18.7251 2.5C16.4438 2.5 16.2251 2.5625 16.2251 3.125Z" fill="#040E50"/>
<path d="M13.7876 16.9688C13.0688 17.6875 12.4751 18.5 12.4751 18.75C12.4751 19.4063 15.0063 21.875 15.6626 21.875C16.5376 21.875 16.3188 20.9375 15.2251 19.7813L14.2251 18.75L15.2251 17.7188C15.7876 17.1563 16.2251 16.4375 16.2251 16.1563C16.2251 15.2188 15.1626 15.5938 13.7876 16.9688Z" fill="#040E50"/>
<path d="M18.5688 16C18.1626 17.25 17.4751 20.375 17.4751 21.0937C17.4751 21.75 17.6001 21.9062 18.1626 21.8125C18.7251 21.75 18.9438 21.3437 19.4126 19.5312C20.1626 16.5625 20.1626 15.625 19.3501 15.625C19.0063 15.625 18.6313 15.8125 18.5688 16Z" fill="#040E50"/>
<path d="M21.2251 16.1562C21.2251 16.4375 21.6626 17.1562 22.2251 17.7188L23.2251 18.75L22.2251 19.7812C21.1313 20.9062 20.9126 21.875 21.7563 21.875C22.4126 21.875 24.9751 19.4062 24.9751 18.7812C24.9751 18.125 22.4438 15.625 21.7876 15.625C21.4751 15.625 21.2251 15.8438 21.2251 16.1562Z" fill="#040E50"/>
<path d="M31.2877 5.6875C31.3502 6.09375 31.6002 6.40625 31.8502 6.40625C32.1002 6.40625 32.3502 6.09375 32.4127 5.6875C32.5065 5.15625 32.3502 5 31.8502 5C31.3502 5 31.194 5.15625 31.2877 5.6875Z" fill="#040E50"/>
<path d="M31.2877 8.1875C31.3502 8.59375 31.6002 8.90625 31.8502 8.90625C32.1002 8.90625 32.3502 8.59375 32.4127 8.1875C32.5065 7.65625 32.3502 7.5 31.8502 7.5C31.3502 7.5 31.194 7.65625 31.2877 8.1875Z" fill="#040E50"/>
<path d="M31.2877 10.6875C31.3502 11.0938 31.6002 11.4062 31.8502 11.4062C32.1002 11.4062 32.3502 11.0938 32.4127 10.6875C32.5065 10.1562 32.3502 10 31.8502 10C31.3502 10 31.194 10.1562 31.2877 10.6875Z" fill="#040E50"/>
<path d="M4.9751 26.7188C4.9751 27.2812 5.13135 27.5 5.6001 27.5C6.06885 27.5 6.2251 27.2812 6.2251 26.7188C6.2251 26.1562 6.06885 25.9375 5.6001 25.9375C5.13135 25.9375 4.9751 26.1562 4.9751 26.7188Z" fill="#040E50"/>
<path d="M4.9751 29.2188C4.9751 29.7812 5.13135 30 5.6001 30C6.06885 30 6.2251 29.7812 6.2251 29.2188C6.2251 28.6562 6.06885 28.4375 5.6001 28.4375C5.13135 28.4375 4.9751 28.6562 4.9751 29.2188Z" fill="#040E50"/>
<path d="M4.9751 31.7188C4.9751 32.2812 5.13135 32.5 5.6001 32.5C6.06885 32.5 6.2251 32.2812 6.2251 31.7188C6.2251 31.1562 6.06885 30.9375 5.6001 30.9375C5.13135 30.9375 4.9751 31.1562 4.9751 31.7188Z" fill="#040E50"/>
</svg>
