<svg width="40" height="40" viewBox="0 0 40 40" fill="none" xmlns="http://www.w3.org/2000/svg">
<g clip-path="url(#clip0_130_645)">
<path d="M19.375 1.875C19.375 3.53125 19.4375 3.75 20 3.75C20.5625 3.75 20.625 3.53125 20.625 1.875C20.625 0.21875 20.5625 0 20 0C19.4375 0 19.375 0.21875 19.375 1.875Z" fill="#00175B"/>
<path d="M12.8125 5.5C12.8125 6.25 14.375 8.125 15.0312 8.125C15.9688 8.125 15.9688 7.625 15 6.28125C14.0625 5 12.8125 4.53125 12.8125 5.5Z" fill="#00175B"/>
<path d="M25.0002 6.25C24.0002 7.53125 23.9689 8.125 24.9689 8.125C25.6252 8.125 27.1877 6.25 27.1877 5.5C27.1877 4.59375 26.0002 5 25.0002 6.25Z" fill="#00175B"/>
<path d="M19.0938 5.8125C18.7188 6.09375 17.75 7.625 17 9.1875C15.7188 11.7812 15.5312 12.0312 14.5938 12.1875C13.8438 12.3125 13.5938 12.5 13.5938 12.9688C13.5938 13.5 13.7812 13.5938 14.9375 13.5312C15.6875 13.5 16.4688 13.3438 16.6562 13.1562C16.875 13 17.6562 11.5938 18.4375 10.0312C19.1875 8.46875 19.9062 7.1875 20.0312 7.1875C20.1562 7.1875 20.9062 8.5 21.6562 10.125C22.4062 11.7188 23.1875 13.125 23.3438 13.2188C23.5312 13.3438 25.125 13.6562 26.9062 13.9062C28.6562 14.1875 30.1875 14.4688 30.2812 14.5625C30.375 14.6562 29.25 15.875 27.8125 17.3125C25.1562 19.875 25.1562 19.9062 22.5938 20.4375C20.1875 20.9375 19.9375 20.9375 17.4375 20.4375C14.8438 19.875 14.8438 19.875 12.25 17.375C10.8438 16 9.6875 14.7812 9.6875 14.6562C9.6875 14.5312 10.25 14.3438 10.9375 14.2188C11.9062 14.0625 12.1875 13.875 12.1875 13.375C12.1875 12.7812 12.0312 12.75 10.4375 12.875C9.40625 12.9688 8.5625 13.2188 8.40625 13.4688C7.9375 14.2188 8.09375 15.5 8.75 16.0938C9.09375 16.4062 9.375 16.75 9.375 16.875C9.375 16.9688 8.46875 17.25 7.375 17.4688C5.4375 17.8438 5.28125 17.9688 2.6875 20.625C1.21875 22.125 0 23.5 0 23.6875C0 24.1875 0.5625 24.4375 2.96875 25L5.15625 25.5312L5.3125 31.125L5.46875 36.7188L6.71875 37.125C7.40625 37.3438 8.5625 37.625 9.3125 37.7188C10.625 37.9062 10.6875 37.875 10.5625 37.1875C10.5 36.5625 10.1562 36.375 8.53125 36L6.5625 35.5938V30.75C6.5625 28.0938 6.6875 25.9375 6.84375 25.9375C6.96875 25.9375 8.65625 26.2812 10.5625 26.7188C12.4688 27.1562 14.3438 27.5 14.75 27.5C15.1875 27.5 16.1562 26.8125 17.4062 25.5625L19.375 23.625V27.125C19.375 30.4062 19.4062 30.625 20 30.625C20.5938 30.625 20.625 30.4062 20.625 27.125V23.625L22.625 25.5938L24.625 27.5938L26.2188 27.375C28.375 27.0938 28.75 26.9062 28.75 26.1875C28.75 25.5938 28.625 25.5625 26.9375 25.75L25.1562 25.9375L23.3125 24.0938C21.5312 22.3125 21.5 22.2188 22.2188 22.0625C22.625 21.9688 25.375 21.3125 28.2812 20.6562L33.5938 19.4062L35.5625 21.3438C37.8125 23.5625 38.0625 23.2812 33.0625 24.375C30.4062 24.9688 30 25.125 30 25.6875C30 26.2812 30.125 26.3125 31.7188 26.125L33.4375 25.9375V30.7812C33.4375 33.4375 33.375 35.625 33.3125 35.625C33.2188 35.625 30.4375 36.25 27.0938 37.0312C23.7188 37.8125 20.9062 38.4375 20.8125 38.4375C20.7188 38.4375 20.625 37.0312 20.625 35.3125C20.625 32.4062 20.5938 32.1875 20 32.1875C19.4062 32.1875 19.375 32.4062 19.375 35.3125C19.375 37.0312 19.2812 38.4375 19.1562 38.4375C19 38.4375 17.75 38.1562 16.3125 37.8125C14.875 37.4688 13.375 37.1875 12.9688 37.1875C12.125 37.1875 11.6562 37.7188 12.125 38.1875C12.5 38.5625 18.8125 40 20.0625 40C21.0938 40 32.875 37.375 33.9688 36.875C34.6562 36.5938 34.6875 36.4375 34.75 31.0312L34.8438 25.5L37.0312 25.0312C39.375 24.5 40 24.2188 40 23.6875C40 23.5 38.7812 22.125 37.3125 20.625C34.7188 17.9688 34.5625 17.8438 32.625 17.4688C31.5312 17.25 30.625 16.9688 30.625 16.875C30.625 16.75 30.9062 16.4062 31.25 16.0938C31.9062 15.5 32.0625 14.2188 31.5938 13.4688C31.4375 13.2188 29.9688 12.8438 27.875 12.5625L24.4375 12.0625L23.0938 9.28125C21.9062 6.84375 20.7188 5.3125 20.0312 5.3125C19.9062 5.3125 19.5 5.53125 19.0938 5.8125ZM11.5 18.9062C11.4375 18.9688 10.9062 18.9062 10.3125 18.8125C9.28125 18.6562 9.28125 18.625 10 18.4375C10.625 18.25 11.8125 18.625 11.5 18.9062ZM30.5625 18.5938C30.5 18.625 30 18.75 29.4062 18.875C28.5625 19.0312 28.4375 19 28.7188 18.625C28.9062 18.4062 29.4062 18.2812 29.8438 18.375C30.2812 18.4375 30.625 18.5625 30.5625 18.5938ZM12.7812 20.9062C15.75 21.5938 18.25 22.1875 18.3125 22.25C18.375 22.3125 17.5938 23.2188 16.5625 24.2188L14.6875 26.0625L10.7188 25.1875C8.5 24.7188 5.75 24.0938 4.59375 23.8438L2.4375 23.3438L4.40625 21.375C5.625 20.125 6.5625 19.4375 6.875 19.5312C7.125 19.5938 9.78125 20.2188 12.7812 20.9062Z" fill="#00175B"/>
<path d="M5.71851 8.03125C5.49976 8.59375 7.46851 10.625 8.28101 10.625C9.34351 10.625 9.15601 9.625 7.93726 8.5625C6.56226 7.40625 5.99976 7.25 5.71851 8.03125Z" fill="#00175B"/>
<path d="M32.0623 8.5625C30.8436 9.625 30.6561 10.625 31.7186 10.625C32.5311 10.625 34.4998 8.59375 34.2811 8.03125C33.9998 7.25 33.4373 7.40625 32.0623 8.5625Z" fill="#00175B"/>
</g>
<defs>
<clipPath id="clip0_130_645">
<rect width="40" height="40" fill="white"/>
</clipPath>
</defs>
</svg>
