<svg width="37" height="39" viewBox="0 0 37 39" fill="none" xmlns="http://www.w3.org/2000/svg">
<path d="M16.6167 0.418091C14.5229 1.48059 13.8354 4.48059 15.1167 6.94934L15.8667 8.44934H15.1792C14.1792 8.44934 12.0854 10.0743 11.4917 11.3556C11.1167 12.1056 10.9604 13.2618 10.9604 15.1368C10.9604 17.6056 11.0229 17.9181 11.7417 18.6056C12.4917 19.3868 12.5542 19.3868 18.2729 19.3868C23.8042 19.3868 24.0854 19.3556 24.8667 18.6681C26.2729 17.4493 26.3042 12.9806 24.9292 10.8868C24.0542 9.63684 22.3667 8.44934 21.3667 8.44934H20.6167L21.3042 7.51184C22.2729 6.23059 22.4604 3.60559 21.7417 2.07434C20.8667 0.230591 18.4917 -0.550659 16.6167 0.418091ZM19.4917 1.60559C21.6792 2.60559 21.2417 7.10559 18.9292 7.69934C16.2104 8.38684 14.5229 3.91809 16.7417 1.94934C17.6479 1.19934 18.3667 1.10559 19.4917 1.60559ZM21.8979 10.0743C23.6792 10.9806 24.7104 12.8556 24.7104 15.1681C24.7104 16.6993 24.0854 18.1368 23.4292 18.1368C23.2729 18.1368 23.1479 17.1681 23.1479 15.9806C23.1479 14.5743 22.9917 13.7306 22.7417 13.4806C22.0542 12.9493 21.8979 13.3868 21.8979 15.8556V18.1368H18.4604H15.0229V15.8243C15.0229 14.1368 14.8979 13.4806 14.5854 13.3556C13.8979 13.0743 13.7729 13.4181 13.7729 15.8556C13.7729 17.5118 13.6479 18.1368 13.3667 18.1368C12.4917 18.1368 12.2104 17.3556 12.2104 15.0743C12.2104 12.2306 12.9292 10.8556 14.8354 9.98059C16.7104 9.13684 20.0854 9.16809 21.8979 10.0743Z" fill="#00175B"/>
<path d="M5.55388 8.6993C5.08513 9.1993 5.02263 10.1368 5.02263 15.8555V22.418L4.24138 22.2618C3.21013 22.0743 3.21013 22.6993 4.30388 23.8243C5.33513 24.918 5.83513 24.918 6.96013 23.8555C8.08513 22.793 8.11638 22.0743 7.05388 22.2618L6.27263 22.418L6.33513 15.9805L6.42888 9.54305L9.02263 9.4493C11.2726 9.3868 11.6164 9.29305 11.5226 8.8243C11.4289 8.3868 10.9914 8.29305 8.74138 8.1993C6.46013 8.1368 5.99138 8.1993 5.55388 8.6993Z" fill="#00175B"/>
<path d="M25.5542 8.35559C25.4292 8.44934 25.3354 8.73059 25.3354 8.94934C25.3354 9.26184 26.0542 9.38684 27.9292 9.44934L30.4917 9.54309L30.5854 15.9806L30.6479 22.4181L29.8667 22.2618C28.8042 22.0743 28.8354 22.7931 29.9604 23.8556C31.0542 24.9181 31.4917 24.9181 32.5854 23.8556C33.7104 22.7931 33.7417 22.0743 32.6792 22.2618L31.8979 22.4181V15.7931C31.8979 7.82434 32.0542 8.13684 28.2417 8.13684C26.8667 8.13684 25.6479 8.23059 25.5542 8.35559Z" fill="#00175B"/>
<path d="M17.8351 21.2306C17.8351 22.3244 17.7726 22.4181 17.0539 22.2619C15.9914 22.0744 16.0226 22.7931 17.1476 23.8556C18.2101 24.8869 18.7726 24.9181 19.6476 23.9806C20.5226 23.0744 20.5539 22.1994 19.7101 22.1994C19.3039 22.1994 19.0851 21.9806 19.0851 21.6056C19.0851 20.6681 18.7414 20.0119 18.2726 20.0119C17.9601 20.0119 17.8351 20.3869 17.8351 21.2306Z" fill="#00175B"/>
<path d="M3.77277 26.0118C3.02277 26.5118 2.58527 27.1056 2.39777 27.9493C2.11652 29.0431 2.14777 29.3556 2.96027 31.2618C3.08527 31.5743 2.83527 31.9181 2.21027 32.2618C0.0540223 33.4806 -0.758478 36.8556 0.835273 38.1056C1.58527 38.6993 2.08527 38.7618 5.71027 38.7618C7.92902 38.7618 9.99152 38.6368 10.304 38.4493C11.2728 37.9493 11.679 36.5118 11.304 35.0743C10.9603 33.9181 9.42902 32.1681 8.42902 31.8243C8.11652 31.7306 8.14777 31.5118 8.55402 30.9493C8.86652 30.5118 9.08527 29.6056 9.08527 28.8556C9.08527 26.0431 6.08527 24.4493 3.77277 26.0118ZM7.02277 27.2306C9.05402 28.8243 7.02277 31.9806 4.74152 30.7931C3.24152 30.0431 3.02277 28.5431 4.24152 27.3556C5.17902 26.4181 5.92902 26.3868 7.02277 27.2306ZM8.36652 33.3243C9.83527 34.2618 10.6165 36.2306 9.83527 37.0118C9.11652 37.7618 1.96027 37.6056 1.49152 36.8556C0.741523 35.6681 2.27277 33.2618 4.08527 32.8243C5.42902 32.5118 7.46027 32.7306 8.36652 33.3243Z" fill="#00175B"/>
<path d="M29.8355 25.6368C28.023 26.3556 27.2105 29.2931 28.3667 30.9493C28.773 31.5118 28.8042 31.7306 28.4917 31.8243C27.4917 32.1681 25.9605 33.9181 25.6167 35.0743C25.2417 36.5118 25.648 37.9493 26.6167 38.4493C26.9292 38.6368 28.9917 38.7618 31.2105 38.7618C34.8355 38.7618 35.3355 38.6993 36.0855 38.1056C37.6792 36.8556 36.8667 33.4806 34.7105 32.2618C34.0855 31.9181 33.8355 31.5743 33.9605 31.2618C34.773 29.3556 34.8042 29.0431 34.523 27.9493C34.0542 25.9493 31.773 24.8556 29.8355 25.6368ZM32.6792 27.3556C33.898 28.5431 33.6792 30.0431 32.1792 30.7931C29.8667 32.0118 27.8667 28.8243 29.898 27.2306C30.9917 26.3868 31.7417 26.4181 32.6792 27.3556ZM34.023 33.3868C34.8355 33.9181 35.648 35.3243 35.648 36.1993C35.648 37.3243 35.023 37.5118 31.2417 37.5118C28.3042 37.5118 27.4605 37.4181 27.0855 37.0118C26.8042 36.7618 26.5855 36.4493 26.5855 36.3868C26.5855 35.8868 27.5542 34.1368 28.0855 33.6368C29.398 32.4806 32.4292 32.3556 34.023 33.3868Z" fill="#00175B"/>
<path d="M16.5854 26.4181C16.3042 27.1056 16.2104 27.1681 15.4917 26.8243C14.7729 26.5118 14.5854 26.5743 13.6792 27.4493C12.8042 28.3243 12.7417 28.5431 13.0854 29.0743C13.5854 29.9181 13.5854 29.9806 12.6792 30.3243C11.9917 30.5743 11.8979 30.8243 11.8979 32.0431C11.8979 33.2618 11.9917 33.5118 12.6792 33.7618C13.5854 34.1056 13.5854 34.1681 13.0854 35.0118C12.7417 35.5431 12.8354 35.7618 13.6167 36.5743C14.5542 37.5743 15.2729 37.7618 15.8979 37.1368C16.1479 36.8868 16.3354 36.9806 16.5542 37.6056C16.8354 38.3556 17.0542 38.4493 18.4604 38.4493C19.8042 38.4493 20.0229 38.3556 20.0229 37.8556C20.0229 37.0118 20.4917 36.7931 21.2729 37.2618C21.8042 37.6056 22.0229 37.5431 22.8979 36.6681C23.7729 35.7931 23.8354 35.5743 23.5229 34.8868C23.1479 34.0431 23.3042 33.7618 24.1479 33.7618C24.6167 33.7618 24.7104 33.5118 24.7104 32.0431C24.7104 30.5431 24.6167 30.3243 24.1167 30.3243C23.3979 30.3243 22.9917 29.8243 23.4604 29.5431C24.0542 29.1681 23.7729 28.2618 22.8354 27.3556C21.9917 26.5431 21.8042 26.4806 21.2417 26.8243C20.4917 27.2931 20.0229 27.0743 20.0229 26.2306C20.0229 25.7306 19.8042 25.6368 18.4604 25.6368C17.0542 25.6368 16.8354 25.7306 16.5854 26.4181ZM18.7729 27.3556C18.7729 27.9493 20.1479 28.5118 21.2417 28.3868C21.9604 28.2931 22.0542 28.3868 21.9604 29.1056C21.8667 30.2306 22.3979 31.5743 22.9917 31.5743C23.2417 31.5743 23.4604 31.7931 23.4604 32.0431C23.4604 32.2931 23.2417 32.5118 22.9917 32.5118C22.3979 32.5118 21.8354 33.8868 21.9604 34.9806C22.0542 35.6993 21.9604 35.7931 21.2417 35.6993C20.1479 35.5743 18.7729 36.1368 18.7729 36.7306C18.7729 36.9806 18.5542 37.1993 18.3042 37.1993C18.0542 37.1993 17.8354 36.9806 17.8354 36.7306C17.8354 36.1368 16.3667 35.5431 15.4604 35.7618C14.6479 35.9806 14.3354 35.6993 14.6792 35.0431C15.0229 34.3868 14.2417 32.5118 13.6167 32.5118C13.3667 32.5118 13.1479 32.2931 13.1479 32.0431C13.1479 31.7931 13.3667 31.5743 13.6167 31.5743C14.3042 31.5743 15.0542 29.6993 14.6792 29.0118C14.3667 28.4181 14.4604 28.3556 15.5229 28.4181C16.4917 28.5118 17.8354 27.8868 17.8354 27.3556C17.8354 27.1056 18.0542 26.8868 18.3042 26.8868C18.5542 26.8868 18.7729 27.1056 18.7729 27.3556Z" fill="#00175B"/>
<path d="M16.4289 30.1681C14.7414 31.8243 15.9289 34.6993 18.3039 34.6993C19.8352 34.6993 20.9602 33.5743 20.9602 32.0431C20.9602 30.5118 19.8352 29.3868 18.3039 29.3868C17.5227 29.3868 16.9289 29.6368 16.4289 30.1681ZM19.3352 31.0118C20.2727 31.9493 19.4289 33.6056 18.1164 33.3868C17.1164 33.2306 16.7102 32.4181 17.1477 31.4493C17.5539 30.5743 18.6789 30.3556 19.3352 31.0118Z" fill="#00175B"/>
</svg>
