<svg width="35" height="40" viewBox="0 0 35 40" fill="none" xmlns="http://www.w3.org/2000/svg">
<path d="M6.51428 2.62737L0.108033 5.37737L0.0142825 10.8149C-0.0794675 17.3461 0.264283 19.7524 1.76428 22.7524C3.20178 25.6586 5.48303 27.9086 8.57678 29.4086C11.0455 30.6586 13.233 30.9399 15.483 30.3774L16.483 30.1274L16.5768 34.5961L16.6705 39.0649L25.0768 39.1586C31.0143 39.2211 33.608 39.1274 33.8893 38.8774C34.233 38.5961 34.3268 36.6899 34.3268 29.0961V19.6586L32.8268 18.1899L31.3268 16.7211H28.7643H26.2018L26.1393 11.0649L26.0455 5.37737L19.9518 2.78362C16.608 1.34612 13.6705 0.0961189 13.3893 0.00236893C13.1393 -0.0601311 10.0455 1.09612 6.51428 2.62737ZM18.9518 4.12737L24.6393 6.53362V11.6274V16.7211H23.7018H22.7643V12.0961V7.47112L18.1705 5.53362C15.608 4.47112 13.3268 3.59612 13.0768 3.59612C12.8268 3.59612 10.5143 4.47112 7.98303 5.53362L3.35803 7.50237L3.45178 13.2836C3.54553 18.7524 3.57678 19.1586 4.35803 20.7836C5.82678 23.9086 8.48303 26.2524 11.608 27.1899C13.0143 27.5961 13.2955 27.5961 14.8268 27.0649L16.5143 26.5024V27.3461C16.5143 28.2524 15.8268 28.7211 13.8893 29.0649C11.6393 29.5024 7.42053 27.4399 5.01428 24.6899C2.26428 21.5336 1.51428 18.7524 1.51428 11.4086V6.53362L7.07678 4.15862C10.108 2.84612 12.7643 1.75237 12.9205 1.75237C13.108 1.72112 15.7955 2.78362 18.9518 4.12737ZM17.483 7.03362L21.0455 8.56487L21.1393 12.6274L21.233 16.7211H18.858H16.5143V20.6274V24.5649L15.2018 25.1586C14.4518 25.5024 13.5143 25.7836 13.0768 25.7836C10.8893 25.7836 7.45178 23.1586 5.95178 20.3149C5.17053 18.8461 5.10803 18.4711 5.01428 13.7211L4.88928 8.68987L8.92053 6.93987C11.108 6.00237 13.1393 5.28362 13.4205 5.34612C13.7018 5.40862 15.5455 6.18987 17.483 7.03362ZM29.9518 19.0336C29.9518 20.4399 30.2643 20.7836 31.5455 20.7836H32.7643V29.2211V37.6586H25.4205H18.0768V27.9711V18.2836H24.0143H29.9518V19.0336Z" fill="#00175B"/>
<path d="M14.0145 12.7836L11.702 15.1274L10.6708 14.1899C9.63952 13.3149 8.32702 13.0336 7.57702 13.5336C6.95202 13.9399 6.45202 15.1899 6.63952 15.9086C6.73327 16.2836 7.70202 17.4711 8.82702 18.5336C11.702 21.2836 11.7645 21.2836 16.1083 16.9399C19.827 13.2211 20.1708 12.5961 19.1395 11.1586C18.7958 10.6586 18.3583 10.4711 17.5145 10.4711C16.4833 10.4711 16.077 10.7211 14.0145 12.7836ZM17.8895 12.2836C17.9833 12.4399 16.6083 13.9711 14.8583 15.7211L11.6708 18.9086L9.82702 17.0649C7.70202 14.9086 7.95202 14.0649 10.1395 16.0649C11.7958 17.6274 11.7333 17.6586 14.952 14.4086C17.2958 12.0336 17.577 11.8149 17.8895 12.2836Z" fill="#00175B"/>
<path d="M19.9829 21.2211C19.7641 21.4711 19.6391 22.3461 19.7016 23.3461L19.7954 25.0023L21.9204 25.0961L24.0454 25.1898L23.9516 23.0648L23.8579 20.9398L22.1079 20.8461C20.8579 20.7836 20.2641 20.8773 19.9829 21.2211ZM22.7641 23.1273C22.7641 23.7523 22.6079 23.9086 21.9829 23.9086C21.3579 23.9086 21.2016 23.7523 21.2016 23.1273C21.2016 22.5023 21.3579 22.3461 21.9829 22.3461C22.6079 22.3461 22.7641 22.5023 22.7641 23.1273Z" fill="#00175B"/>
<path d="M25.2017 21.9399C25.1079 22.0649 25.0767 22.6899 25.0767 23.2836L25.1079 24.3774L27.2329 24.4711C29.3267 24.5649 29.4829 24.4711 29.3579 23.3774C29.3267 23.1899 29.7017 22.9711 30.1704 22.9086C30.7017 22.8461 31.0454 22.6274 31.0454 22.3461C31.0454 21.9711 30.4829 21.8461 28.1704 21.7836C26.6079 21.7524 25.2642 21.8149 25.2017 21.9399Z" fill="#00175B"/>
<path d="M19.7954 26.5023C19.6704 26.9086 19.6392 27.8461 19.7017 28.6273L19.7954 30.0023H21.8267H23.8579V27.9711V25.9398L21.9204 25.8461C20.1079 25.7523 19.9517 25.8148 19.7954 26.5023ZM22.7642 27.9711C22.7642 28.4398 22.5454 28.5961 21.9829 28.5961C21.4204 28.5961 21.2017 28.4398 21.2017 27.9711C21.2017 27.5023 21.4204 27.3461 21.9829 27.3461C22.5454 27.3461 22.7642 27.5023 22.7642 27.9711Z" fill="#00175B"/>
<path d="M25.358 26.7836C25.108 27.1273 25.0455 28.2523 25.233 29.2836C25.233 29.4398 26.1705 29.5336 27.2955 29.5336C29.2955 29.5336 29.483 29.4398 29.358 28.3461C29.3268 28.1273 29.6393 27.9711 30.0768 27.9711C31.0143 27.9711 31.3893 27.4711 30.8893 26.8773C30.3893 26.2836 25.7955 26.2211 25.358 26.7836Z" fill="#00175B"/>
<path d="M19.8581 31.0023C19.4519 31.4086 19.6394 34.4398 20.0769 34.8148C20.3269 35.0336 21.2331 35.1586 22.2019 35.0961L23.8581 35.0023L23.9519 32.8773L24.0456 30.7836H22.0456C20.9519 30.7836 19.9519 30.8773 19.8581 31.0023ZM22.7644 32.9711C22.7644 33.4398 22.5456 33.5961 21.9831 33.5961C21.4206 33.5961 21.2019 33.4398 21.2019 32.9711C21.2019 32.5023 21.4206 32.3461 21.9831 32.3461C22.5456 32.3461 22.7644 32.5023 22.7644 32.9711Z" fill="#00175B"/>
<path d="M25.233 31.6273C25.0455 32.6898 25.108 33.8148 25.358 34.1273C25.7955 34.6898 28.8268 34.6586 29.3268 34.0648C29.5143 33.8148 29.608 33.4711 29.483 33.2836C29.358 33.0961 29.608 32.9711 30.0768 32.9711C30.858 32.9711 31.233 32.5023 30.9518 31.7836C30.7955 31.3773 25.2955 31.2211 25.233 31.6273Z" fill="#00175B"/>
</svg>
