<svg width="39" height="39" viewBox="0 0 39 39" fill="none" xmlns="http://www.w3.org/2000/svg">
<path d="M19.6134 0.453979C18.9259 0.672729 18.0822 1.17273 17.6759 1.54773L16.9572 2.20398L15.3947 1.42273C10.9572 -0.827271 5.92592 0.797729 3.89467 5.14148C3.48842 5.98523 3.14467 7.11023 3.14467 7.64148C3.14467 8.36023 2.92592 8.70398 2.20717 9.11023C-0.761581 10.7977 -0.730331 15.6415 2.26967 17.4852C2.83217 17.829 3.61342 18.1102 4.01967 18.1102H4.70717V25.2977V32.4852H3.61342H2.51967V34.079C2.51967 36.0165 3.17592 37.204 4.70717 38.079C5.86342 38.704 6.26967 38.7352 19.3947 38.7352C34.0197 38.7352 34.4259 38.704 35.5197 37.0165C36.2072 35.954 36.6134 34.2977 36.3947 33.3602C36.2384 32.6102 36.0509 32.4852 35.1447 32.4852H34.0822V25.329V18.204L35.3634 17.9852C39.1134 17.3915 40.3009 12.454 37.2072 10.3602C36.3322 9.76648 36.0509 9.29773 35.7384 7.92273C35.2384 5.73523 34.6134 4.82898 32.9884 3.89148C32.0197 3.29773 31.2384 3.11023 29.8634 3.11023C28.2072 3.11023 27.9572 3.01648 26.7384 1.89148C24.7384 0.0477295 22.1447 -0.483521 19.6134 0.453979ZM24.3009 2.04773C24.8947 2.36023 25.8009 3.11023 26.3322 3.76648L27.2697 4.95398L29.3634 4.76648C31.3947 4.61023 31.5197 4.64148 32.6134 5.57898C33.8947 6.73523 34.5509 8.32898 34.2384 9.67273C34.0509 10.5477 34.1134 10.6415 35.4259 11.204C37.2384 11.9852 37.8634 13.2977 37.1134 14.8602C36.6134 15.8602 35.5822 16.5477 34.5197 16.5477C34.2384 16.5477 34.0822 16.204 34.0822 15.4227C34.0822 14.6102 33.8322 14.079 33.1759 13.3915C32.3009 12.5477 32.1134 12.4852 29.7384 12.4852C26.9259 12.4852 26.7697 12.3602 27.7072 10.5165C28.4259 9.11023 28.7072 9.01648 29.5509 9.86023C30.5197 10.829 31.7072 10.7977 32.7384 9.79773C33.3634 9.17273 33.4884 8.82898 33.3322 8.01648C33.0509 6.67273 32.4884 6.17273 31.1134 6.14148C30.1759 6.11023 29.8009 6.29773 29.2697 6.95398C28.8947 7.42273 28.3634 7.79773 28.0509 7.79773C27.3634 7.79773 25.9884 9.89148 25.7697 11.2977C25.5822 12.3602 25.4572 12.4852 24.6759 12.4852C23.8322 12.4852 23.8322 12.454 24.2697 11.6102C24.4884 11.1415 24.7072 10.1102 24.7072 9.32898C24.7072 8.29773 24.8634 7.79773 25.1759 7.67273C25.9572 7.39148 26.3634 5.95398 25.9259 4.92273C25.3322 3.48523 23.1447 3.20398 22.1447 4.42273C21.3634 5.29773 21.4572 6.32898 22.3634 7.42273C23.2697 8.51648 23.3634 9.79773 22.6134 11.3915C22.1759 12.329 21.9259 12.4852 21.0509 12.4852C19.8009 12.4852 19.7072 11.954 20.8009 10.9227C21.8322 9.95398 21.8322 8.67273 20.7697 7.82898C19.7072 6.98523 18.8322 6.98523 17.9259 7.86023C16.9884 8.73523 16.9884 9.98523 17.9884 10.9227C19.0822 11.954 18.9884 12.4852 17.7384 12.4852C16.8634 12.4852 16.6134 12.329 16.1759 11.3915C15.4572 9.86023 15.5197 9.07898 16.4259 8.23523C17.9884 6.79773 17.0197 4.36023 14.8634 4.36023C14.1134 4.36023 13.6447 4.57898 13.1759 5.17273C12.3322 6.26648 12.3634 6.92273 13.3009 8.04773C13.7384 8.57898 14.0822 9.39148 14.0822 9.86023C14.0822 10.3602 14.3009 11.1415 14.5197 11.6102C14.9572 12.454 14.9572 12.4852 14.1134 12.4852C13.3322 12.4852 13.2072 12.3602 13.0197 11.2977C12.8009 9.92273 11.4572 7.79773 10.7697 7.79773C10.5197 7.79773 9.98842 7.42273 9.58217 6.95398C8.17592 5.32898 5.64467 6.20398 5.64467 8.32898C5.64467 9.64148 6.58217 10.6102 7.83217 10.6102C8.36342 10.6102 9.05092 10.329 9.39467 9.98523C10.2384 9.14148 10.4572 9.20398 11.0509 10.454C11.9572 12.3915 11.8634 12.4852 9.05092 12.4852C6.67592 12.4852 6.48842 12.5477 5.61342 13.3915C4.95717 14.079 4.70717 14.6102 4.70717 15.4227C4.70717 16.2352 4.58217 16.5477 4.20717 16.5477C3.33217 16.5477 1.95717 15.329 1.58217 14.204C1.08217 12.7352 1.92592 10.9852 3.45717 10.2352C4.45717 9.73523 4.58217 9.54773 4.73842 7.95398C4.95717 5.95398 6.11342 4.01648 7.61342 3.07898C10.2384 1.48523 12.7697 1.54773 15.3634 3.29773L16.9884 4.39148L17.9572 3.48523C19.9884 1.54773 22.1759 1.04773 24.3009 2.04773ZM24.5822 6.20398C24.2697 6.70398 23.4572 6.61023 23.2384 6.04773C22.9884 5.36023 23.8009 4.89148 24.3634 5.42273C24.5822 5.67273 24.6759 6.01648 24.5822 6.20398ZM15.5822 6.45398C15.7384 6.98523 14.7697 7.36023 14.3322 6.92273C14.1447 6.73523 14.1134 6.45398 14.2384 6.23523C14.5197 5.79773 15.3947 5.95398 15.5822 6.45398ZM8.36342 7.98523C8.61342 8.64148 7.95717 9.29773 7.48842 8.82898C7.08217 8.42273 7.33217 7.48523 7.83217 7.48523C8.01967 7.48523 8.23842 7.70398 8.36342 7.98523ZM31.7697 8.70398C31.4884 9.14148 30.7384 9.14148 30.4884 8.73523C30.3634 8.54773 30.4572 8.17273 30.6759 7.92273C31.0197 7.51648 31.1134 7.51648 31.5197 7.92273C31.7697 8.17273 31.8634 8.51648 31.7697 8.70398ZM19.8947 9.07898C20.2072 9.61023 19.4884 10.204 19.0509 9.76648C18.6759 9.39148 18.9259 8.73523 19.3947 8.73523C19.5509 8.73523 19.7697 8.89148 19.8947 9.07898ZM32.0197 14.454C32.4572 14.7665 32.5197 15.2352 32.4572 17.1727C32.3634 19.3602 32.3009 19.5165 31.6134 19.6102C31.2072 19.6727 30.8009 19.9852 30.7384 20.329C30.6134 20.7977 30.4572 20.8602 30.1447 20.6102C29.3009 19.8915 27.2697 21.8602 27.6134 23.1102C27.7072 23.4852 27.6134 23.7352 27.3634 23.7352C26.8634 23.7352 26.5822 24.4227 26.5822 25.6102C26.5822 26.7977 26.8634 27.4852 27.3634 27.4852C27.5822 27.4852 27.7072 27.7665 27.6134 28.1727C27.4259 29.204 29.0822 30.7352 30.1447 30.5477C30.7072 30.4227 30.9572 30.5165 30.9572 30.7977C30.9572 31.0477 31.3009 31.2977 31.7384 31.4227C34.0822 32.0165 31.3634 32.1727 19.3947 32.1727C7.42592 32.1727 4.70717 32.0165 7.05092 31.4227C7.48842 31.2977 7.83217 31.0477 7.83217 30.7977C7.83217 30.5165 8.08217 30.4227 8.64467 30.5477C9.70717 30.7352 11.3634 29.204 11.1759 28.1727C11.0822 27.7665 11.2072 27.4852 11.4259 27.4852C11.9259 27.4852 12.2072 26.7977 12.2072 25.6102C12.2072 24.4227 11.9259 23.7352 11.4259 23.7352C11.1759 23.7352 11.0822 23.4852 11.1759 23.1102C11.5197 21.8602 9.48842 19.8915 8.64467 20.6102C8.33217 20.8602 8.17592 20.7977 8.05092 20.329C7.98842 19.9852 7.58217 19.6727 7.17592 19.6102C6.48842 19.5165 6.42592 19.3602 6.33217 17.2352C6.26967 15.7977 6.39467 14.7665 6.61342 14.4852C7.11342 13.8602 31.1759 13.829 32.0197 14.454ZM8.42592 22.4227C9.14467 22.329 9.23842 22.454 9.33217 23.4227C9.39467 24.079 9.70717 24.7352 10.1134 25.0477L10.8009 25.6102L10.0822 26.1727C9.58217 26.5477 9.33217 27.1102 9.30092 27.829C9.23842 28.829 9.17592 28.8915 8.26967 28.7977C7.51967 28.704 7.14467 28.8602 6.76967 29.4227L6.26967 30.1102V29.3602C6.26967 28.7665 6.58217 28.4227 7.42592 27.954C9.58217 26.7977 9.51967 23.9227 7.30092 22.8602C6.55092 22.5165 6.26967 22.1727 6.26967 21.6102V20.829L6.92592 21.6727C7.39467 22.2977 7.83217 22.4852 8.42592 22.4227ZM32.3009 22.3915C32.1759 22.454 31.6134 22.7665 31.0509 23.1102C29.1759 24.2352 29.3947 27.0477 31.4259 28.0165C32.2384 28.4227 32.5197 28.7352 32.5197 29.329V30.1102L32.0197 29.4227C31.6447 28.8602 31.2697 28.704 30.5197 28.7977C29.6134 28.8915 29.5509 28.829 29.4884 27.829C29.4572 27.1102 29.2072 26.5477 28.7072 26.1727L27.9884 25.579L28.7072 25.079C29.2072 24.7352 29.3947 24.2977 29.3947 23.3915C29.3947 22.2352 29.4259 22.204 30.3009 22.3602C31.0197 22.5165 31.3009 22.3915 31.7697 21.7665C32.3634 20.9852 32.3634 20.9852 32.4572 21.6415C32.5197 22.0165 32.4572 22.3602 32.3009 22.3915ZM7.39467 25.8602C7.26967 26.204 6.98842 26.579 6.73842 26.6727C6.36342 26.7977 6.26967 26.5477 6.26967 25.3602V23.9227L6.92592 24.579C7.36342 25.0165 7.51967 25.4227 7.39467 25.8602ZM32.4572 26.1415C32.3634 26.954 32.3322 26.954 31.8322 26.4227C31.5197 26.1102 31.2697 25.6727 31.2697 25.454C31.2697 25.2352 31.5197 24.7977 31.8322 24.4852C32.3322 23.954 32.3634 23.954 32.4572 24.6102C32.5197 24.9852 32.5197 25.6727 32.4572 26.1415ZM15.3322 34.6102C15.3322 36.0477 15.8009 36.2352 19.4259 36.2352C22.5509 36.2352 22.8322 36.1727 23.2697 35.5477C23.5509 35.1727 23.7697 34.6102 23.7697 34.2977C23.7697 33.7665 24.2072 33.7352 29.4259 33.7352H35.0822L34.8947 34.6102C34.7697 35.079 34.2697 35.829 33.7384 36.2977L32.8322 37.1727H19.3947H5.98842L5.17592 36.454C4.73842 36.079 4.26967 35.2977 4.11342 34.7352L3.80092 33.7352H9.58217H15.3322V34.6102ZM22.2072 34.204C22.2072 34.579 21.7072 34.6727 19.5509 34.6727C17.3947 34.6727 16.8947 34.579 16.8947 34.204C16.8947 33.829 17.3947 33.7352 19.5509 33.7352C21.7072 33.7352 22.2072 33.829 22.2072 34.204Z" fill="#00175B"/>
<path d="M17.4884 16.1415C17.2696 16.7665 17.0821 16.8602 16.8321 16.6102C16.2384 16.0165 15.7384 16.1727 14.5509 17.204C13.4259 18.204 13.1759 18.954 13.8009 19.579C14.0196 19.7977 13.8946 19.954 13.3634 20.1102C12.7696 20.2352 12.5509 20.5477 12.3946 21.5165C12.1759 22.954 12.6134 24.3602 13.3009 24.3602C13.6446 24.3602 13.7071 24.579 13.5821 25.2352C13.4571 25.9227 13.6134 26.3602 14.2696 27.1415C15.0196 28.0165 15.2696 28.1415 16.1759 28.0165C17.0196 27.8602 17.2071 27.9227 17.2071 28.3915C17.2071 29.0165 18.0196 29.3602 19.4571 29.3602C20.6759 29.3602 21.2696 29.0477 21.2696 28.3915C21.2696 27.704 21.3946 27.6727 22.1759 28.1727C22.6759 28.4852 22.9571 28.3915 23.8634 27.704C25.1446 26.7352 25.5509 25.7977 25.0196 25.1415C24.7071 24.7665 24.8009 24.6102 25.4571 24.3602C26.2071 24.079 26.2696 23.9227 26.2696 22.2977C26.2696 20.829 26.1759 20.5165 25.6446 20.3915C25.1759 20.2665 25.0821 20.0477 25.2071 19.4852C25.5509 18.1415 23.2696 15.6727 22.4259 16.5165C21.9259 17.0165 21.5821 16.954 21.5821 16.2665C21.5821 15.5477 20.9884 15.2977 19.2071 15.2977C17.9884 15.2977 17.7696 15.3915 17.4884 16.1415ZM20.3946 17.6727C20.8946 18.2977 21.2696 18.454 22.1759 18.3602L23.3009 18.2665L23.3946 19.7352C23.4571 20.829 23.6446 21.329 24.1134 21.5477C24.8946 21.9852 24.8946 23.0165 24.1134 23.2665C23.3946 23.4852 23.0196 24.4227 23.3009 25.2665C23.5196 26.0477 22.9571 26.3915 21.6759 26.2665C20.8946 26.204 20.5821 26.3602 20.1759 26.9852C19.8634 27.4227 19.4571 27.7977 19.2384 27.7977C19.0196 27.7977 18.6134 27.4227 18.3009 26.9852C17.8946 26.329 17.5821 26.204 16.6446 26.2977L15.4884 26.3915L15.3946 24.8915C15.3009 23.6415 15.1759 23.329 14.5196 23.0477C13.7384 22.6727 13.4571 21.5477 14.2071 21.5477C14.8946 21.5477 15.4571 20.6102 15.4884 19.3915C15.4884 18.3915 15.5821 18.2665 16.2696 18.329C17.5821 18.4227 18.3946 18.1415 18.6134 17.4852C18.8946 16.6415 19.6446 16.704 20.3946 17.6727Z" fill="#00175B"/>
<path d="M17.2695 19.829C16.207 20.7352 15.8945 21.7977 16.332 23.329C16.6445 24.4852 18.1133 25.6102 19.332 25.6102C20.5508 25.6102 21.9258 24.704 22.3945 23.5165C23.707 20.3915 19.8945 17.6415 17.2695 19.829ZM20.8008 21.3602C21.332 22.1727 21.1445 22.9227 20.207 23.704C19.4883 24.2977 18.1758 23.8602 17.8008 22.8915C17.082 21.0165 19.707 19.6727 20.8008 21.3602Z" fill="#00175B"/>
</svg>
