<svg width="40" height="40" viewBox="0 0 40 40" fill="none" xmlns="http://www.w3.org/2000/svg">
<path d="M25.876 0.812548C25.3135 1.5313 25.2197 2.0938 25.2197 4.6563C25.2197 8.12505 25.5947 9.0938 27.001 9.50005C28.001 9.81255 28.001 9.8438 28.0947 11.8438C28.1885 13.8125 28.2197 13.9063 29.0322 14C29.751 14.0938 30.001 13.8438 31.1572 11.9063L32.4697 9.68755H35.501C38.1572 9.68755 38.626 9.5938 39.251 9.0313C39.8135 8.50005 39.9072 8.0938 39.8447 6.93755C39.7197 5.2188 38.876 4.81255 38.7197 6.4063C38.5322 7.9688 38.1885 8.12505 35.2197 8.12505C33.6885 8.12505 32.2197 8.2188 31.9385 8.3438C31.626 8.43755 31.001 9.1563 30.501 9.93755L29.5947 11.375V10.375C29.5947 9.25005 28.6572 8.12505 27.751 8.12505C26.9385 8.12505 26.7822 7.5313 26.7822 4.5313C26.7822 2.25005 26.876 1.8438 27.376 1.56255C27.7197 1.37505 30.0947 1.25005 32.8447 1.25005C38.1885 1.25005 38.6572 1.4063 38.6572 3.1563C38.6572 3.8438 38.8135 4.06255 39.2822 4.06255C39.8135 4.06255 39.9072 3.8438 39.9072 2.56255C39.9072 0.0312977 39.7822 4.76837e-05 32.626 4.76837e-05H26.501L25.876 0.812548Z" fill="#00175B"/>
<path d="M9.96948 2.71875C7.96948 3.6875 6.81323 6.09375 6.78198 9.25C6.78198 10.0312 6.59448 10.7188 6.31323 10.9375C6.00073 11.2188 5.84448 11.9375 5.84448 13.2812C5.84448 15.4688 6.37573 16.25 7.81323 16.25C8.46948 16.25 8.65698 16.4062 8.65698 16.875C8.65698 17.8125 9.78198 19.8438 10.6882 20.5625C11.2507 21.0312 11.4695 21.4688 11.4695 22.2812V23.375L7.53198 23.5C3.84448 23.5938 3.56323 23.625 3.00073 24.3438C2.62573 24.8125 2.40698 25.5625 2.40698 26.4688C2.40698 27.4375 2.09448 28.5312 1.43823 29.8438C0.625734 31.5 0.438234 32.4062 0.156984 35.4688C-0.0617657 38.2188 -0.0617657 39.2188 0.219484 39.5625C0.563234 39.9375 2.90698 40 15.5632 40H30.532L31.032 39.2188C31.4695 38.5312 31.5007 38.2188 31.2195 37.25C31.032 36.625 30.8132 35.0938 30.782 33.9062C30.6882 32.2188 30.4695 31.25 29.7507 29.8438C29.1257 28.5938 28.8132 27.5 28.8132 26.5C28.8132 25.375 28.6257 24.8438 28.0945 24.3125C27.4695 23.6562 27.032 23.5938 23.5632 23.4375L19.7507 23.2812L19.657 22.375C19.5007 21.1875 21.5007 19.0625 22.7507 19.0625C23.1882 19.0625 23.9382 18.7812 24.407 18.4062C25.1882 17.7812 25.2195 17.6562 25.2195 14.5625C25.2195 12.25 25.0945 11.2188 24.7507 10.75C24.5007 10.4062 24.3132 9.46875 24.282 8.53125C24.282 6.375 23.782 5.40625 22.5007 4.9375C21.907 4.71875 21.4695 4.34375 21.4695 4.0625C21.4695 3.78125 21.157 3.25 20.7507 2.875C20.0632 2.21875 19.7195 2.1875 15.5007 2.1875C11.9695 2.1875 10.782 2.3125 9.96948 2.71875ZM19.2507 3.71875C19.5007 3.875 19.9382 4.46875 20.1882 5.0625C20.4695 5.625 20.9695 6.125 21.3132 6.1875C22.5007 6.40625 22.7195 6.875 22.7195 9.09375C22.7195 10.875 22.6257 11.2812 22.1257 11.5312C21.5945 11.8438 21.532 11.7188 21.407 10.125C21.157 7.28125 20.782 7.0625 15.6257 7C11.532 6.96875 11.3132 7 10.6257 7.6875C10.0632 8.28125 9.90698 8.75 9.90698 10.1562C9.90698 12 9.87573 12.0312 8.93823 11.5625C8.46948 11.2812 8.34448 10.875 8.34448 9.375C8.34448 6.21875 9.40698 4.4375 11.7507 3.75C12.907 3.40625 18.7195 3.375 19.2507 3.71875ZM19.532 8.84375C19.7507 9 19.907 9.8125 19.907 10.9688C19.907 12.4688 20.032 12.875 20.532 13.1875C21.0007 13.5 21.157 13.9375 21.157 15.0625V16.5625H19.282C17.782 16.5625 17.3757 16.6875 17.0945 17.1562C16.5632 18.1562 16.7195 18.9688 17.5632 19.625L18.3757 20.25L17.2195 20.625C13.6882 21.8125 9.90698 18.875 9.90698 14.9688C9.90698 13.9375 10.0632 13.5 10.532 13.1875C11.0007 12.9062 11.157 12.4688 11.157 11.4375C11.157 10.6562 11.282 9.71875 11.4382 9.28125C11.7195 8.5625 11.8132 8.5625 15.4382 8.59375C17.4695 8.59375 19.3132 8.71875 19.532 8.84375ZM8.34448 13.9688C8.34448 15.4375 7.59448 15.1562 7.46948 13.6562C7.37573 12.7188 7.46948 12.5312 7.84448 12.6875C8.15698 12.8125 8.34448 13.2812 8.34448 13.9688ZM23.6257 14.5625C23.032 15.2812 22.7195 15.0625 22.7195 13.9375C22.7195 13.1562 22.8757 12.8125 23.282 12.75C23.9382 12.625 24.1882 13.875 23.6257 14.5625ZM23.657 16.875C23.3757 17.4062 22.407 17.7812 22.407 17.375C22.407 16.8125 22.8757 16.25 23.3757 16.25C23.907 16.25 23.9382 16.3438 23.657 16.875ZM20.0632 18.125C20.1882 18.3125 19.8445 18.4375 19.282 18.4375C18.7195 18.4375 18.3757 18.3125 18.5007 18.125C18.5945 17.9375 18.9695 17.8125 19.282 17.8125C19.5945 17.8125 19.9695 17.9375 20.0632 18.125ZM18.032 22.875C18.032 23.375 17.7195 23.4375 15.532 23.4375C13.3445 23.4375 13.032 23.375 13.032 22.875C13.032 22.4062 13.3445 22.3438 15.532 22.3438C17.7195 22.3438 18.032 22.4062 18.032 22.875ZM27.0945 25.4375C27.4382 25.9062 27.407 27.25 26.907 33.9688L26.7195 36.25H22.3757C20.0007 36.25 18.032 36.1562 18.032 36.0312C18.032 35.9062 18.407 35.2812 18.8445 34.625C20.4695 32.2812 20.0007 29.0312 17.907 28.0625C16.5945 27.4688 16.157 27.9062 16.157 29.8438C16.157 31.3438 16.0945 31.5625 15.532 31.5625C14.9695 31.5625 14.907 31.3438 14.907 29.8438C14.907 28.5625 14.782 28.0625 14.407 27.9062C13.532 27.5625 12.3757 28.4062 11.7195 29.875C10.9695 31.5625 11.1257 32.7188 12.2507 34.4375C12.6882 35.0938 13.032 35.75 13.032 35.9375C13.032 36.125 11.4382 36.25 8.68823 36.25H4.31323L4.21948 35.0625C4.15698 34.1562 4.00073 33.9062 3.50073 33.9062C3.00073 33.9062 2.84448 34.1562 2.78198 35.0938C2.71948 35.8438 2.53198 36.25 2.21948 36.25C1.65698 36.25 1.62573 33.8125 2.15698 32.0312C2.50073 30.8438 2.53198 30.8438 2.65698 31.625C2.71948 32.25 2.93823 32.5 3.37573 32.5C3.96948 32.5 4.00073 32.3125 3.93823 29.0938C3.90698 27.2188 4.00073 25.5312 4.09448 25.3438C4.25073 25.0938 7.78198 25 15.5007 25C24.907 25 26.7507 25.0625 27.0945 25.4375ZM14.1882 32.7188C14.4695 32.9375 15.157 33.125 15.7195 33.125C16.9382 33.125 17.7195 32.2188 17.7195 30.7812C17.7195 30.0625 17.8132 29.9375 18.032 30.3125C18.5945 31.1562 18.3445 32.4688 17.407 33.9688C16.907 34.7812 16.4695 35.625 16.4695 35.8438C16.4695 36.0938 16.0945 36.25 15.532 36.25C14.8445 36.25 14.5945 36.0938 14.5945 35.6875C14.5945 35.4062 14.157 34.5312 13.657 33.75C12.6257 32.2188 12.532 31.5625 13.1257 30.5312C13.4695 29.875 13.5007 29.9375 13.5945 31.0938C13.657 31.7812 13.907 32.5312 14.1882 32.7188ZM29.4382 34.2812C29.657 36.1562 29.6257 36.25 29.0007 36.25C28.4382 36.25 28.3445 36.0625 28.3445 34.9062C28.3445 34.1875 28.4382 33.0312 28.5632 32.375C28.8132 30.8125 29.0945 31.4688 29.4382 34.2812ZM29.7507 38.125C29.7507 38.5312 27.9382 38.5938 15.7195 38.6875C1.93823 38.75 0.156984 38.6562 1.46948 37.8125C1.75073 37.625 7.46948 37.5312 15.8445 37.5938C27.9695 37.6562 29.7507 37.7188 29.7507 38.125Z" fill="#00175B"/>
<path d="M28.0943 3.5C28.1568 4.03125 28.4068 4.21875 28.9693 4.21875C29.5318 4.21875 29.7818 4.03125 29.8443 3.5C29.9381 2.90625 29.8131 2.8125 28.9693 2.8125C28.1256 2.8125 28.0006 2.90625 28.0943 3.5Z" fill="#00175B"/>
<path d="M30.8447 3.40625C30.8447 4.1875 31.4385 4.375 34.126 4.375C36.8135 4.375 37.4072 4.1875 37.4072 3.40625C37.4072 2.875 37.126 2.8125 34.126 2.8125C31.126 2.8125 30.8447 2.875 30.8447 3.40625Z" fill="#00175B"/>
<path d="M28.0322 6.25C28.0322 6.84375 28.251 6.875 32.7197 6.875C37.1885 6.875 37.4072 6.84375 37.4072 6.25C37.4072 5.65625 37.1885 5.625 32.7197 5.625C28.251 5.625 28.0322 5.65625 28.0322 6.25Z" fill="#00175B"/>
</svg>
