<svg width="39" height="39" viewBox="0 0 39 39" fill="none" xmlns="http://www.w3.org/2000/svg">
<path d="M28.125 0.59375C28.125 1.46875 27.5625 1.71875 26.6875 1.21875C25.9688 0.84375 25.8125 0.90625 24.625 2.125C23.4062 3.3125 23.3438 3.46875 23.7188 4.1875C24.2188 5.0625 23.9688 5.625 23.0938 5.625C22.5625 5.625 22.5 5.84375 22.5 7.5C22.5 9.15625 22.5625 9.375 23.0938 9.375C23.9688 9.375 24.2188 9.9375 23.7188 10.8125C23.3438 11.5312 23.4062 11.6875 24.625 12.875C25.8125 14.0938 25.9688 14.1562 26.6875 13.7812C27.5625 13.2812 28.125 13.5312 28.125 14.4062C28.125 14.9375 28.3438 15 30 15C31.6562 15 31.875 14.9375 31.875 14.4062C31.875 13.5312 32.4375 13.2812 33.3125 13.7812C34.0312 14.1562 34.1875 14.0938 35.375 12.875C36.5938 11.6875 36.6562 11.5312 36.2812 10.8125C35.7812 9.9375 36.0312 9.375 36.9062 9.375C37.4375 9.375 37.5 9.15625 37.5 7.5C37.5 5.84375 37.4375 5.625 36.9062 5.625C36.0312 5.625 35.7812 5.0625 36.2812 4.1875C36.6562 3.46875 36.5938 3.3125 35.375 2.125C34.1875 0.90625 34.0312 0.84375 33.3125 1.21875C32.4375 1.71875 31.875 1.46875 31.875 0.59375C31.875 0.0625 31.6562 0 30 0C28.3438 0 28.125 0.0625 28.125 0.59375ZM30.625 1.96875C30.625 2.46875 30.875 2.78125 31.4688 3C32.125 3.21875 31.8125 3.28125 30 3.28125C28.1875 3.28125 27.875 3.21875 28.5312 3C29.125 2.78125 29.375 2.46875 29.375 1.96875C29.375 1.46875 29.5625 1.25 30 1.25C30.4375 1.25 30.625 1.46875 30.625 1.96875ZM27.125 3.4375C27.5 3.4375 27.4688 3.59375 26.875 4.21875C26.4688 4.65625 26.125 4.96875 26.0938 4.90625C26.0625 4.875 25.9375 4.4375 25.8125 3.9375C25.625 3.1875 25.6875 3.09375 26.0938 3.25C26.375 3.34375 26.8438 3.4375 27.125 3.4375ZM34.25 3.625C34.1562 3.90625 34.0625 4.34375 34.0625 4.625C34.0625 5 33.875 4.9375 33.25 4.34375L32.4375 3.59375L33.1875 3.40625C34.3438 3.0625 34.4688 3.09375 34.25 3.625ZM32.0312 5.46875C33.125 6.53125 33.0938 8.375 32 9.5C30.875 10.5938 29.0312 10.625 27.9688 9.53125C26.875 8.46875 26.875 6.53125 27.9688 5.46875C28.5312 4.875 29.0625 4.6875 30 4.6875C30.9375 4.6875 31.4688 4.875 32.0312 5.46875ZM35.5312 6.875C36.0312 6.875 36.25 7.0625 36.25 7.5C36.25 7.9375 36.0312 8.125 35.5312 8.125C34.9375 8.125 34.6875 8.375 34.375 9.34375C34.1562 10 34.0938 10.8438 34.2188 11.25C34.4062 11.8438 34.3438 11.9062 33.75 11.7188C33.3438 11.5938 32.5 11.6562 31.8438 11.875C30.875 12.1875 30.625 12.4375 30.625 13.0312C30.625 13.5312 30.4375 13.75 30 13.75C29.5625 13.75 29.375 13.5312 29.375 13.0312C29.375 12.5312 29.125 12.2188 28.5312 12C27.8125 11.75 28 11.7188 29.5312 11.8125C32.8438 12 34.5625 10.2188 34.3125 6.90625C34.1875 5.46875 34.2188 5.3125 34.5 6C34.7188 6.625 35.0312 6.875 35.5312 6.875ZM25.5938 7.5625C25.5625 8.46875 25.5 8.96875 25.4062 8.65625C25.3125 8.34375 24.9688 8.125 24.5 8.125C23.9688 8.125 23.75 7.96875 23.75 7.5C23.75 7.03125 23.9688 6.875 24.5312 6.875C25.0312 6.875 25.3125 6.6875 25.3125 6.40625C25.3125 6.15625 25.375 5.9375 25.4688 5.9375C25.5625 5.9375 25.5938 6.6875 25.5938 7.5625ZM26.6875 11.625C25.625 11.9062 25.6562 11.9062 25.8438 10.8438L26.0312 9.96875L26.7812 10.6875L27.5312 11.4062L26.6875 11.625Z" fill="#00175B"/>
<path d="M6.875 10.625V11.875H4.6875H2.5V22.8125V33.75H1.25H0V35.875C0 37.125 0.15625 38.1562 0.375 38.375C0.90625 38.9062 37.8438 38.9062 38.375 38.375C38.5938 38.1562 38.75 37.125 38.75 35.875V33.75H37.5H36.25V23.75C36.25 13.9688 36.25 13.75 35.625 13.75C35 13.75 35 13.9688 35 23.75V33.75H19.375H3.75V23.4375V13.125H5.3125C6.1875 13.125 6.875 13.25 6.875 13.4375C6.875 13.5938 6.3125 13.75 5.625 13.75H4.375V23.4375V33.125H19.375H34.375V23.75C34.375 14.5938 34.375 14.375 33.75 14.375C33.125 14.375 33.125 14.5938 33.125 23.125V31.875H19.375H5.625V23.4375C5.625 15.2188 5.625 15 6.25 15C6.8125 15 6.875 15.2188 6.875 17.1875V19.375H11.875H16.875V17.1875V15H19.6875C22.2812 15 22.5 14.9688 22.5 14.375C22.5 13.7812 22.2812 13.75 19.6875 13.75C18.0312 13.75 16.875 13.625 16.875 13.4375C16.875 13.25 18.0312 13.125 19.6875 13.125C22.2812 13.125 22.5 13.0938 22.5 12.5C22.5 11.9062 22.2812 11.875 19.6875 11.875H16.875V10.625V9.375H11.875H6.875V10.625ZM15.625 14.375V18.125H11.875H8.125V14.375V10.625H11.875H15.625V14.375ZM37.5 35.875C37.5 36.3438 37.3438 36.9062 37.125 37.125C36.5938 37.6562 2.15625 37.6562 1.625 37.125C1.40625 36.9062 1.25 36.3438 1.25 35.875V35H19.375H37.5V35.875Z" fill="#00175B"/>
<path d="M12.5 13.3437L11.1875 15.4062L10.5 14.5937C9.90622 13.8437 9.78122 13.8125 9.24997 14.2187C8.65622 14.6562 8.65622 14.7187 9.59372 16C11.0937 18.0625 11.5312 17.9375 13.4062 15C14.2812 13.625 15 12.375 15 12.25C15 12.125 14.7187 11.8437 14.4062 11.6562C13.8437 11.3125 13.6562 11.4687 12.5 13.3437Z" fill="#00175B"/>
<path d="M26.875 15.9062C26.875 16.1562 25.125 16.6875 24.5625 16.5938C24.1875 16.5 23.4375 17.2188 23.4688 17.625C23.5625 18.2812 23.0625 20 22.7812 20C22.625 20 22.5 20.2812 22.5 20.625C22.5 20.9688 22.625 21.25 22.7812 21.25C23.0625 21.25 23.5625 22.9688 23.4688 23.625C23.4062 24.0312 24.1875 24.75 24.5625 24.625C25.0938 24.5 26.875 25.0625 26.875 25.3438C26.875 25.5 27.1562 25.625 27.5 25.625C27.8438 25.625 28.125 25.5 28.125 25.3438C28.125 25.0625 29.9062 24.5 30.4375 24.625C30.8125 24.75 31.5938 24.0312 31.5 23.625C31.4062 23 31.9062 21.25 32.2188 21.25C32.375 21.25 32.5 20.9688 32.5 20.625C32.5 20.2812 32.375 20 32.2188 20C31.9375 20 31.375 18.2188 31.5 17.6875C31.625 17.3125 30.9062 16.5312 30.5 16.625C29.875 16.7188 28.125 16.2188 28.125 15.9062C28.125 15.75 27.8438 15.625 27.5 15.625C27.1562 15.625 26.875 15.75 26.875 15.9062ZM29.5312 18.5938C30.0938 19.125 30.3125 19.6875 30.3125 20.5938C30.3125 21.2812 30.2188 21.9062 30.0938 21.9688C29.9375 22.0625 29.9062 21.5312 29.9375 20.7812C30.0312 19.75 29.9062 19.2812 29.4062 18.7812C28.5312 17.9062 26.5 17.875 25.625 18.75C24.75 19.625 24.7812 21.6562 25.6562 22.5312C26.1562 23.0312 26.625 23.1562 27.6562 23.0625C28.4062 23.0312 28.9375 23.0625 28.8438 23.1875C28.7812 23.3438 28.1562 23.4375 27.4688 23.4375C25.75 23.4375 24.6875 22.375 24.6875 20.625C24.6875 19.6875 24.875 19.1562 25.4688 18.5938C26.0312 18 26.5625 17.8125 27.5 17.8125C28.4375 17.8125 28.9688 18 29.5312 18.5938ZM28.2812 20.625C28.2812 21.1875 28.0938 21.4375 27.5625 21.5C27.1562 21.5625 26.7812 21.4062 26.6875 21.125C26.375 20.3125 26.8125 19.625 27.5625 19.75C28.0938 19.8125 28.2812 20.0625 28.2812 20.625Z" fill="#00175B"/>
<path d="M6.875 25.625V30.625H11.875H16.875V25.625V20.625H11.875H6.875V25.625ZM15.625 25.625V29.375H11.875H8.125V25.625V21.875H11.875H15.625V25.625Z" fill="#00175B"/>
<path d="M9.28121 23.0313C8.78121 23.5313 8.81246 23.625 9.74996 24.5938L10.75 25.625L9.74996 26.6563C8.81246 27.625 8.78121 27.7188 9.28121 28.2188C9.78121 28.7188 9.87496 28.6875 10.8437 27.75L11.875 26.75L12.9062 27.75C13.875 28.6875 13.9687 28.7188 14.4687 28.2188C14.9687 27.7188 14.9375 27.625 14 26.6563L13 25.625L14 24.5938C14.9375 23.625 14.9687 23.5313 14.4687 23.0313C13.9687 22.5313 13.875 22.5625 12.9062 23.5L11.875 24.5L10.8437 23.5C9.87496 22.5625 9.78121 22.5313 9.28121 23.0313Z" fill="#00175B"/>
</svg>
