<svg width="40" height="30" viewBox="0 0 40 30" fill="none" xmlns="http://www.w3.org/2000/svg">
<path d="M14.0938 0.396606C13.9062 0.615356 12.8438 0.896606 11.625 0.990356C8.90625 1.20911 7.125 1.92786 5.9375 3.27161C5.09375 4.24036 5 4.55286 5 6.49036C5 8.39661 5.09375 8.74036 5.9375 9.80286C6.46875 10.4591 6.875 11.2716 6.875 11.5841C6.875 11.9279 7.375 12.7091 7.96875 13.3029C8.6875 14.0216 9.0625 14.6779 9.0625 15.2091L9.03125 16.0529L8.125 15.0216C7.59375 14.4591 7.1875 13.8029 7.1875 13.5529C7.1875 12.5216 3.9375 13.3029 2.3125 14.7091C0.5625 16.2716 0 17.6779 0 20.5841C0 21.9591 0.125 23.0841 0.28125 23.0841C0.4375 23.0841 0.625 23.9279 0.6875 24.9591C0.78125 26.3654 1 27.0216 1.5625 27.6154C2.21875 28.3341 2.53125 28.3966 4.875 28.3966C7.21875 28.3966 7.53125 28.4591 8.25 29.1779L9.03125 29.9591H21.6875H34.375L37.1875 24.3341C38.7188 21.2404 40 18.4904 40 18.2404C40 17.8341 38.9375 17.7716 32.0938 17.7716H24.2188L23.2188 19.5529C22.6562 20.5529 22.1875 21.1154 22.1875 20.8029C22.1875 19.8029 20.9688 16.7716 20.125 15.6779C19.3125 14.6154 16.625 13.0841 15.5625 13.0841C15.25 13.0841 14.7812 13.5529 14.4688 14.0841C13.9688 15.0216 13.9062 15.0529 13.8125 14.4279C13.75 14.0529 14 13.3341 14.375 12.8341C14.875 12.1779 15.125 11.3029 15.2188 9.77161C15.3125 8.55286 15.6562 7.02161 16 6.27161C16.75 4.64661 16.625 2.64661 15.5938 1.02161C14.875 -0.134644 14.625 -0.259644 14.0938 0.396606ZM15.625 4.11536C15.625 4.58411 15.1875 5.74036 14.8438 6.14661C14.7812 6.20911 14.2188 5.89661 13.5938 5.42786C11.9688 4.33411 10.4688 4.39661 9.21875 5.55286C8.6875 6.05286 7.78125 6.52161 7.125 6.61536C5.96875 6.80286 5.9375 6.77161 5.9375 5.89661C5.9375 3.74036 9.03125 1.83411 12.5312 1.83411C13.375 1.83411 14.125 1.67786 14.25 1.45911C14.5312 1.02161 15.5938 3.14661 15.625 4.11536ZM13.25 6.39661L14.4688 7.20911L14.3125 9.30286C14.125 11.6154 13.75 12.4591 12.4688 13.2091C10.5938 14.3029 8.40625 13.3341 7.78125 11.1466C7.5625 10.3966 7.125 9.49036 6.78125 9.11536C5.90625 8.14661 6.5625 7.33411 8.03125 7.55286C8.59375 7.64661 9.0625 7.61536 9.0625 7.49036C9.0625 7.33411 9.34375 6.86536 9.71875 6.39661C10.5312 5.33411 11.6875 5.33411 13.25 6.39661ZM6.84375 15.1154C8.4375 17.8341 13.4375 17.8341 15.0312 15.1466L15.6875 14.0216L16.8125 14.4904C19.0312 15.3966 21.25 18.8341 21.25 21.3966C21.25 22.1154 21.1562 22.1466 19.0625 22.1466H16.875V20.5841C16.875 19.3966 16.75 19.0216 16.4062 19.0216C15.7188 19.0216 15.7188 22.7091 16.4062 22.9591C16.75 23.1154 16.875 23.6154 16.875 24.8341V26.5216H14.8438C12.9375 26.5216 12.8125 26.4591 12.625 25.7404C12.2812 24.3341 11.4062 24.0216 8.0625 24.0216C5.65625 24.0216 5 23.9279 5 23.5841C5 23.3341 5.21875 23.0841 5.46875 22.9591C5.8125 22.8341 5.9375 22.2716 5.9375 20.7404C5.9375 19.1466 5.84375 18.7091 5.46875 18.7091C5.09375 18.7091 5 19.1154 5 20.4279V22.1466H2.78125H0.53125L0.75 20.1779C1.125 17.1154 2.3125 15.4279 4.84375 14.4279C6.15625 13.9279 6.125 13.8966 6.84375 15.1154ZM12.9062 15.0216C13.1562 15.8966 12.6875 16.2091 11.1875 16.2091C10.125 16.2091 10 16.1154 10 15.4591C10 14.8029 10.1562 14.6779 11.1875 14.5529C11.8125 14.4904 12.4375 14.4279 12.5312 14.3966C12.6562 14.3654 12.8125 14.6466 12.9062 15.0216ZM38.75 18.8654C38.75 18.9591 37.625 21.2716 36.25 24.0216L33.75 29.0216H26.7188C22.8438 29.0216 19.6875 28.9279 19.6875 28.8341C19.6875 28.7091 20.8438 26.3966 22.25 23.6779L24.8438 18.7091H31.7812C35.625 18.7091 38.75 18.7716 38.75 18.8654ZM4.125 23.9279L4.21875 24.8029L7.625 24.9591C10.7188 25.1154 11.0625 25.1779 11.5 25.8029L11.9375 26.5216H9.875C8.25 26.5216 7.8125 26.6154 7.8125 26.9904C7.8125 27.3654 7.3125 27.4591 5.3125 27.4591C2.15625 27.4591 1.5625 26.9904 1.5625 24.6466V23.0841H2.78125C3.90625 23.0841 4.03125 23.1779 4.125 23.9279ZM21.25 23.2404C21.25 23.3341 20.9062 24.1154 20.4688 24.9591C19.7812 26.3029 19.5625 26.5216 18.75 26.5216C17.8125 26.5216 17.8125 26.4904 17.8125 24.8029V23.0841H19.5312C20.4688 23.0841 21.25 23.1466 21.25 23.2404ZM19.0625 27.6466C19.0625 27.7404 18.9062 28.0841 18.75 28.4279C18.4375 28.9591 18.0312 29.0216 14.0625 29.0216C9.3125 29.0216 8.75 28.9279 8.75 28.0529C8.75 27.4904 9.0625 27.4591 13.9062 27.4591C16.75 27.4591 19.0625 27.5529 19.0625 27.6466Z" fill="#00175B"/>
<path d="M28.7499 20.9279C28.7499 21.1154 28.4687 21.1779 28.1249 21.0529C27.3437 20.8029 26.5624 21.3654 26.5624 22.1779C26.5624 22.5217 26.4374 22.7717 26.2812 22.7717C25.8124 22.7717 25.5312 24.0529 25.9062 24.4279C26.0937 24.6154 26.2499 25.0842 26.2499 25.4592C26.2499 26.2404 26.9999 26.9904 27.4999 26.6779C27.6562 26.5842 27.9062 26.7092 27.9999 26.9592C28.2187 27.4904 29.9999 27.6779 29.9999 27.1467C29.9999 26.9904 30.2187 26.9279 30.4687 27.0217C31.0937 27.2717 31.8749 26.6154 31.8749 25.8654C31.8749 25.5217 32.0937 25.2717 32.3437 25.2717C32.6562 25.2717 32.8124 24.9592 32.8124 24.3342C32.8124 23.8029 32.6562 23.3967 32.4687 23.3967C32.2812 23.3967 32.2187 23.1467 32.3124 22.8342C32.5312 22.1154 31.7187 21.0842 31.0937 21.3029C30.8124 21.4279 30.6249 21.3342 30.6249 21.0529C30.6249 20.7404 30.3124 20.5842 29.6874 20.5842C29.1874 20.5842 28.7499 20.7404 28.7499 20.9279ZM28.1249 22.7717C27.7812 23.1154 27.4999 23.6779 27.4999 24.0217C27.4999 24.7092 28.5312 25.8967 29.1562 25.8967C29.3749 25.8967 29.8749 25.6779 30.2812 25.3967C30.9062 24.9592 30.9687 24.6779 30.8437 23.6779C30.7499 22.9904 30.8124 22.4592 30.9374 22.4592C31.3437 22.4592 31.4374 24.0529 31.1249 25.0217C30.5624 26.5842 27.7499 26.3654 27.3437 24.7092C27.1249 23.7717 27.7187 22.1467 28.3124 22.1467C28.6249 22.1467 28.5624 22.3342 28.1249 22.7717ZM29.9999 24.0217C29.9999 24.7717 29.2187 25.0529 28.7499 24.4592C28.4374 24.1154 28.4374 23.9279 28.7499 23.5842C29.2187 22.9904 29.9999 23.2717 29.9999 24.0217Z" fill="#00175B"/>
<path d="M23.9062 1.14656C20.4375 2.77156 19.0312 6.95906 20.7812 10.4903C22.8125 14.5216 27.9375 15.4591 31.375 12.4278C34.7187 9.49031 34.375 4.27156 30.6875 1.70906C28.9375 0.490306 25.875 0.240306 23.9062 1.14656ZM29.375 2.14656C30.0625 2.49031 30.625 2.89656 30.625 3.02156C30.625 3.42781 28.2812 4.36531 27.75 4.17781C27.4375 4.05281 27.125 3.67781 27.0312 3.36531C26.9062 3.02156 26.5312 2.45906 26.1562 2.14656L25.5 1.52156H26.8437C27.5625 1.52156 28.7187 1.80281 29.375 2.14656ZM25.9375 3.58406C25.9375 4.11531 27.4687 5.27156 28.1562 5.27156C28.5 5.27156 29.2812 4.99031 29.9062 4.64656C30.5625 4.30281 31.25 4.02156 31.4375 4.02156C31.9687 4.02156 32.1875 4.83406 31.8125 5.20906C31.625 5.39656 31.375 6.05281 31.2812 6.70906C31.0937 7.77156 31 7.86531 29.9062 7.92781C28.3437 8.02156 27.8125 8.61531 27.6875 10.3028C27.4375 13.4278 27.1562 13.7403 25.0312 12.9591C24.25 12.6778 23.9062 12.3028 23.5625 11.3653C23.3437 10.6778 23.125 10.0841 23.125 10.0216C23.125 9.99031 23.4687 9.95906 23.875 9.95906C24.75 9.95906 25.625 8.92781 25.625 7.92781C25.625 6.92781 24.75 5.89656 23.875 5.89656C23.25 5.89656 23.125 5.74031 23.125 5.02156C23.125 4.55281 22.9687 3.99031 22.7812 3.80281C22.5625 3.58406 22.75 3.24031 23.4687 2.64656L24.4687 1.80281L25.1875 2.49031C25.5937 2.86531 25.9375 3.36531 25.9375 3.58406ZM22.25 5.74031C22.3437 6.55281 22.5 6.67781 23.3437 6.77156C23.875 6.83406 24.4062 7.08406 24.5 7.36531C24.8125 8.17781 24.375 9.02156 23.625 9.02156C22.7812 9.02156 22.1875 9.55281 22.1562 10.3966C22.125 11.5216 20.9687 8.67781 20.9375 7.42781C20.9375 6.05281 21.5312 4.17781 21.875 4.55281C22.0312 4.67781 22.1875 5.20906 22.25 5.74031ZM32.7187 7.77156C32.4687 9.74031 31.5625 11.2403 30.0312 12.1778C28.2812 13.3028 28.0937 13.3028 28.4375 12.1153C28.5937 11.6153 28.625 10.9591 28.5312 10.7091C28.4375 10.4591 28.5937 9.92781 28.875 9.52156C29.25 8.92781 29.6875 8.70906 30.6875 8.64656C32 8.55281 32.0312 8.52156 32.125 7.36531C32.1875 6.64656 32.3437 6.27156 32.5625 6.39656C32.75 6.52156 32.8125 7.11531 32.7187 7.77156Z" fill="#00175B"/>
</svg>
