<svg width="36" height="40" viewBox="0 0 36 40" fill="none" xmlns="http://www.w3.org/2000/svg">
<path d="M0.8125 0.8125L0 1.65625V18.5V35.375L0.90625 36.2812C1.8125 37.1875 1.84375 37.1875 5.78125 37.1875C9.03125 37.1875 9.75 37.0938 9.90625 36.7188C10 36.4375 9.96875 36.125 9.84375 36C9.75 35.875 7.9375 35.7188 5.84375 35.625C2.1875 35.4688 2.03125 35.4375 1.65625 34.6875C1.34375 34.0938 1.25 30.25 1.25 18.3438V2.78125L2.03125 2.03125L2.78125 1.25H11.7188H20.625V3.125C20.625 6.875 21.875 8.125 25.625 8.125H27.5V13.4375C27.5 18.5312 27.5312 18.75 28.125 18.75C28.7188 18.75 28.75 18.5312 28.75 12.75V6.75L25.375 3.375L22 0H11.8125H1.65625L0.8125 0.8125ZM24.375 4.53125L26.375 6.5625H24.9062C22.9375 6.5625 22.1875 5.8125 22.1875 3.90625C22.1875 3.125 22.2188 2.5 22.2812 2.5C22.3125 2.5 23.2812 3.40625 24.375 4.53125Z" fill="#00175B"/>
<path d="M4.1563 7.06256C3.81255 8.00006 4.56255 8.15631 9.7188 8.06256C14.7813 7.96881 14.8438 7.96881 14.9375 7.25006L15.0313 6.56256H9.68755C5.12505 6.56256 4.31255 6.62506 4.1563 7.06256Z" fill="#00175B"/>
<path d="M4.15635 11.125C4.0626 11.375 4.1251 11.75 4.28135 11.9062C4.4376 12.0625 8.5626 12.1562 14.5626 12.125C24.2814 12.0312 24.5314 12.0312 24.5314 11.4062C24.5314 10.7812 24.2814 10.7812 14.4376 10.6875C5.5001 10.625 4.34385 10.6562 4.15635 11.125Z" fill="#00175B"/>
<path d="M4.12508 14.9062C4.21883 15.4374 5.00008 15.4687 14.4688 15.5624C24.5313 15.6249 24.6876 15.6249 24.6876 14.9999C24.6876 14.3749 24.5001 14.3749 14.3438 14.3749C4.68758 14.3749 4.03133 14.4062 4.12508 14.9062Z" fill="#00175B"/>
<path d="M9.5625 20.375C7.65625 23.4688 4.375 29.25 4.375 29.5625C4.375 30.5938 7.03125 32.0625 8.21875 31.6875C8.78125 31.5313 8.84375 31.5625 8.53125 31.9063C7.5625 32.9063 8.4375 35.3125 9.75 35.3125C10.0312 35.3125 10.4688 35.6563 10.75 36.0938C11.0312 36.5313 11.5312 36.875 11.8438 36.875C12.1562 36.875 12.6562 37.2188 12.9375 37.6563C13.2188 38.0938 13.875 38.5 14.5312 38.625C15.125 38.7188 15.75 39 15.9688 39.25C16.375 39.75 18.3125 39.8438 18.5938 39.3438C18.75 39.125 19.0625 39.1875 19.5625 39.5C20.625 40.2188 22.4062 40.1563 22.875 39.375C23.0938 39.0313 23.625 38.75 24.0625 38.75C25.0312 38.75 26.25 37.9375 26.25 37.3125C26.25 37.0625 26.5625 36.875 27 36.875C27.4375 36.875 28.0312 36.5313 28.375 36.0938C28.7188 35.6563 29.2812 35.3125 29.5938 35.3125C30.5938 35.3125 31.625 33.9688 31.5 32.8125C31.4062 31.875 31.4688 31.8125 32.5312 31.75C34 31.6563 35.625 30.5 35.625 29.5625C35.625 29.1563 34.4062 26.7813 32.9375 24.25C30.5938 20.2813 30.125 19.6875 29.4688 19.6875C28.2812 19.6875 26.5938 20.8438 26.375 21.8125C26 23.5 26.0625 23.4688 24.6562 22.9063C23.5625 22.5 23.0625 22.4688 21.75 22.7188C20.7812 22.9375 19.9375 22.9375 19.625 22.7813C18.875 22.375 17.4062 22.4375 16.25 22.9375C14.9375 23.4688 14.0625 23.25 14.0625 22.375C14.0312 21.5938 13.5625 20.9688 12.4375 20.2188C11.25 19.4688 10.0938 19.5313 9.5625 20.375ZM12.4062 22.3438C12.5625 22.7813 8.625 29.8438 8.03125 30.2188C7.71875 30.4063 6.25 29.6875 6.25 29.3125C6.25 29.0625 10.125 22.375 10.6875 21.6563C11.0625 21.1875 12.125 21.6563 12.4062 22.3438ZM31.7188 25.3125C33.0625 27.5625 34.0938 29.4375 34.0312 29.5C33.5625 29.9063 32.4375 30.3125 32.1875 30.1563C32.0312 30.0625 31.4062 29.1563 30.7812 28.125C29.6562 26.2813 28.9062 25.8125 28.5625 26.7188C28.4688 26.9688 28.8125 27.9375 29.3438 28.875C29.9062 29.8125 30.2188 30.6563 30.0625 30.75C29.9062 30.8438 28.0625 29.8438 25.9062 28.5938C23.7812 27.3125 21.8125 26.25 21.5625 26.25C21.2812 26.25 20.9062 26.6563 20.7188 27.1875C20.5312 27.6875 20.2188 28.125 20.0312 28.125C19.5 28.125 19.625 25.4375 20.1562 24.875C20.7812 24.25 23.1875 23.9063 24 24.3438C24.3438 24.5313 25.125 24.6875 25.75 24.6875C26.3438 24.6875 26.9375 24.8125 27.0312 25C27.3438 25.5 28.4375 25.375 28.4375 24.8438C28.4375 24.5625 28.2188 23.9375 27.9688 23.4375C27.5312 22.5938 27.5312 22.5 28.1875 21.875C28.5625 21.5313 28.9688 21.25 29.0938 21.25C29.2188 21.25 30.4062 23.0938 31.7188 25.3125ZM18.1875 26.4063C18.0938 28.0313 18.1562 28.875 18.4375 29.2188C19 29.9063 20.7188 29.8125 21.4062 29.0625C21.7188 28.7188 22.0938 28.4375 22.25 28.4375C22.75 28.4375 30 32.8125 30 33.125C30 33.875 29.125 33.6563 26.5938 32.2188C23.625 30.5 22.8125 30.2813 22.8125 31.2188C22.8125 31.625 23.5312 32.2188 25 33.0938C26.2188 33.8125 27.1875 34.5938 27.1875 34.8438C27.1875 35.5625 26.5938 35.4063 24.2812 34.0313C23.0938 33.3438 21.9375 32.8438 21.6875 32.9375C20.8125 33.2813 21.375 34.1875 23.0312 35.1563C24.0312 35.7188 24.6875 36.3125 24.6875 36.625C24.6875 37.4063 24.3125 37.3438 22.5 36.2188C21.2812 35.4688 20.8125 35.3438 20.5 35.5938C20.1562 35.875 19.875 35.7813 19.25 35.2188C18.8125 34.8125 18.4375 34.2188 18.4375 33.9063C18.4375 33.1875 17.5625 32.1875 16.9375 32.1875C16.6875 32.1875 16.2188 31.8438 15.9062 31.4375C15.3125 30.6875 14.875 30.5938 10.875 30.2188L10.0312 30.1563L10.625 29.2188C10.9375 28.6875 11.6875 27.4375 12.2812 26.4375L13.375 24.5625L14.875 24.625C15.7188 24.6563 16.625 24.5625 16.875 24.375C17.125 24.2188 17.5625 24.0625 17.8438 24.0625C18.2812 24.0625 18.3125 24.4063 18.1875 26.4063ZM11.4062 31.875C11.6875 32.3438 10.7188 33.75 10.1562 33.75C9.5625 33.75 9.5625 33.2813 10.1875 32.3438C10.75 31.5 11.0938 31.375 11.4062 31.875ZM14.6875 32.5313C14.6875 33 13.0312 35.25 12.5625 35.4688C11.4062 35.9375 12.5 33.125 13.875 32.125C14.25 31.875 14.6875 32.0938 14.6875 32.5313ZM16.875 34.1875C16.875 34.7813 14.9688 37.2188 14.5938 37.0938C13.9375 36.875 14.0625 36.3438 15.1562 34.9063C16.2188 33.5313 16.875 33.25 16.875 34.1875ZM18.2812 36.5625C18.5625 37 17.875 38.125 17.3438 38.125C16.7812 38.125 16.75 37.6875 17.1875 36.8438C17.5625 36.1875 17.9688 36.0625 18.2812 36.5625ZM21.875 38C21.875 38.5938 21.5312 38.7188 20.75 38.375C20.2812 38.1563 20 37.75 20 37.3125C20 36.5938 20 36.5938 20.9375 37.125C21.4375 37.4063 21.875 37.8125 21.875 38Z" fill="#00175B"/>
</svg>
