<svg width="38" height="38" viewBox="0 0 38 38" fill="none" xmlns="http://www.w3.org/2000/svg">
<path d="M32.8872 0.748192L32.106 1.52944H20.981H9.85596L6.94971 4.40444L4.01221 7.27944V13.1544C4.01221 18.7169 4.04346 19.0294 4.60596 19.0294C4.91846 19.0294 5.29346 18.8107 5.38721 18.5294C5.48096 18.2482 5.57471 15.9669 5.57471 13.4044V8.77944L7.63721 8.65444C10.356 8.49819 10.8872 7.90444 10.8872 5.09194V3.09194H21.5122H32.1372V12.9982V22.9357L32.9497 24.8732C33.7622 26.7482 34.5435 27.4669 35.2622 26.9982C35.4497 26.8732 36.0122 25.9669 36.5122 24.9669L37.4497 23.1232V12.6544C37.4497 5.65444 37.3247 1.93569 37.106 1.43569C36.3872 -0.126808 34.1372 -0.501808 32.8872 0.748192ZM35.3872 1.71694C35.6685 1.81069 35.8872 2.24819 35.8872 2.65444C35.8872 3.31069 35.7622 3.40444 34.6372 3.40444C33.231 3.40444 33.2622 3.43569 33.6997 2.34194C34.0122 1.52944 34.4497 1.37319 35.3872 1.71694ZM9.19971 6.71694C9.10596 6.99819 8.57471 7.15444 7.85596 7.15444H6.69971L7.91846 5.87319L9.16846 4.62319L9.26221 5.43569C9.32471 5.90444 9.29346 6.46694 9.19971 6.71694ZM35.8872 5.43569C35.8872 5.77944 35.5435 5.90444 34.6372 5.90444C33.731 5.90444 33.3872 5.77944 33.3872 5.43569C33.3872 5.09194 33.731 4.96694 34.6372 4.96694C35.5435 4.96694 35.8872 5.09194 35.8872 5.43569ZM35.8872 14.8107C35.8872 21.2169 35.7935 22.6544 35.356 23.7482L34.856 25.0607L34.1372 23.6857C33.4497 22.3732 33.4185 21.9982 33.3872 14.7169V7.15444H34.6372H35.8872V14.8107Z" fill="#00175B"/>
<path d="M11.6373 4.18562C11.5123 4.46687 11.5748 4.84187 11.7623 5.02937C12.231 5.49812 13.1373 5.06062 13.0123 4.43562C12.8873 3.71687 11.8873 3.52937 11.6373 4.18562Z" fill="#00175B"/>
<path d="M17.8873 4.18562C17.7623 4.46687 17.8248 4.84187 18.0123 5.02937C18.481 5.49812 19.3873 5.06062 19.2623 4.43562C19.1373 3.71687 18.1373 3.52937 17.8873 4.18562Z" fill="#00175B"/>
<path d="M24.1373 4.15442C23.9185 4.74817 24.231 5.27942 24.8248 5.27942C25.1373 5.27942 25.2623 5.02942 25.1998 4.59192C25.0748 3.77942 24.3873 3.46692 24.1373 4.15442Z" fill="#00175B"/>
<path d="M30.1685 4.12319C30.0747 4.37319 30.106 4.74819 30.2622 4.96694C30.606 5.52944 31.5747 5.09194 31.4497 4.43569C31.3247 3.74819 30.3872 3.52944 30.1685 4.12319Z" fill="#00175B"/>
<path d="M27.3561 8.27947C27.2311 8.40447 27.1374 8.84197 27.1374 9.24822C27.1374 9.84197 26.9811 9.96697 26.1061 9.96697C24.8873 9.96697 24.3248 10.4357 24.3248 11.4357C24.3248 12.0295 24.1686 12.1545 23.2936 12.1545C22.0748 12.1545 21.5123 12.6232 21.5123 13.6232C21.5123 14.2482 21.3561 14.342 20.2936 14.342C19.4811 14.342 19.0123 14.4982 18.8873 14.842C18.6061 15.5607 18.6686 18.8107 18.9498 19.2795C19.1686 19.5607 20.6061 19.6545 25.1373 19.592L31.0436 19.4982V13.8732V8.24822L29.3249 8.15447C28.3561 8.09197 27.4811 8.15447 27.3561 8.27947ZM29.6374 14.0295C29.6374 18.1857 29.6061 18.4045 29.0124 18.4045C28.4186 18.4045 28.3874 18.1857 28.3874 14.0295C28.3874 9.87322 28.4186 9.65447 29.0124 9.65447C29.6061 9.65447 29.6374 9.87322 29.6374 14.0295ZM27.1374 14.967C27.1374 18.1857 27.1061 18.4045 26.5123 18.4045C25.9186 18.4045 25.8873 18.1857 25.8873 14.967C25.8873 11.7482 25.9186 11.5295 26.5123 11.5295C27.1061 11.5295 27.1374 11.7482 27.1374 14.967ZM24.3248 16.0607C24.3248 18.1857 24.2623 18.4045 23.6998 18.4045C23.1373 18.4045 23.0748 18.1857 23.0748 16.0607C23.0748 13.9357 23.1373 13.717 23.6998 13.717C24.2623 13.717 24.3248 13.9357 24.3248 16.0607ZM21.5123 16.9982C21.5123 18.1857 21.4186 18.4045 20.8873 18.4045C20.3561 18.4045 20.2623 18.1857 20.2623 16.9982C20.2623 15.8107 20.3561 15.592 20.8873 15.592C21.4186 15.592 21.5123 15.8107 21.5123 16.9982Z" fill="#00175B"/>
<path d="M8.16841 10.4982C7.88716 11.2482 8.60591 11.7482 9.32466 11.2795C9.73091 11.0295 9.94966 11.0295 9.94966 11.217C9.94966 11.4357 11.2934 11.5295 13.7934 11.467C17.3559 11.3732 17.6059 11.342 17.6059 10.7482C17.6059 10.1545 17.3872 10.1232 12.9809 10.092C9.16841 10.0295 8.32466 10.1232 8.16841 10.4982Z" fill="#00175B"/>
<path d="M7.6058 13.1232C7.1058 13.8732 8.13705 14.0294 12.7933 13.9669C16.8246 13.8732 17.6058 13.8107 17.6058 13.4044C17.6058 12.9982 16.8246 12.9357 12.6996 12.8419C9.3558 12.7794 7.7308 12.8732 7.6058 13.1232Z" fill="#00175B"/>
<path d="M7.63711 15.5607C7.19961 16.2482 7.85586 16.8419 9.04336 16.8419C10.1371 16.8419 10.2621 16.7482 10.2621 16.0607C10.2621 15.3732 10.1371 15.2794 9.04336 15.2794C8.35586 15.2794 7.73086 15.4044 7.63711 15.5607Z" fill="#00175B"/>
<path d="M10.9498 15.9669C11.0435 16.6232 11.1998 16.6857 13.0748 16.6857C14.8873 16.6857 15.106 16.6232 15.106 16.0607C15.106 15.4982 14.856 15.4357 12.981 15.3419C10.9185 15.2482 10.856 15.2794 10.9498 15.9669Z" fill="#00175B"/>
<path d="M15.6998 15.7481C15.5748 16.0294 15.6373 16.4044 15.8248 16.5919C16.2935 17.0606 17.1998 16.6231 17.0748 15.9981C16.9498 15.2794 15.9498 15.0919 15.6998 15.7481Z" fill="#00175B"/>
<path d="M7.5122 18.1544C7.29345 18.3732 7.1372 18.9357 7.1372 19.4044C7.1372 20.4044 6.8872 20.4669 6.0122 19.8107C4.91845 18.9982 3.85595 19.2482 2.6372 20.5919C1.35595 22.0294 1.2622 22.4982 2.1372 23.7482L2.79345 24.6232L1.91845 24.8107C0.293451 25.1544 0.105951 25.4044 0.0122014 27.3732C-0.0815486 29.4669 0.355951 30.2794 1.6372 30.2794C2.6997 30.2794 2.79345 30.5607 2.0747 31.5294C1.2622 32.6232 1.48095 33.3419 3.0747 34.7794C4.5122 36.0607 4.8872 36.1232 5.9497 35.2794C6.8247 34.5919 7.1372 34.7169 7.1372 35.7794C7.1372 36.9669 7.9497 37.4669 9.91845 37.4669C11.9185 37.4669 12.2622 37.2482 12.606 35.6544L12.8247 34.6544L13.731 35.3107C14.9185 36.1544 15.8247 35.9357 17.106 34.4982L18.0435 33.4044H26.1685H34.2935L34.9497 32.5607C35.481 31.8732 35.5747 31.3732 35.5122 29.6857C35.4185 27.8732 35.356 27.6232 34.7935 27.6232C34.2622 27.6232 34.1372 27.8732 34.0122 29.6544L33.856 31.6857L25.8872 31.7794C18.6685 31.8419 17.8872 31.8107 17.5435 31.3107C16.9497 30.4982 17.0435 30.2794 18.0435 30.2794C19.3872 30.2794 19.6685 29.6857 19.5747 27.2794L19.481 25.1544L18.4497 24.9357C17.0747 24.6544 16.9497 24.4669 17.5435 23.7794C18.4185 22.8419 18.1997 21.7794 16.8872 20.4982C15.606 19.2482 14.3872 18.9982 13.6997 19.8107C13.0747 20.5607 12.8247 20.3732 12.4497 19.0294L12.106 17.7794H10.0122C8.7622 17.7794 7.73095 17.9357 7.5122 18.1544ZM11.1372 20.2169C11.231 20.9669 11.481 21.3419 12.1997 21.7169C13.106 22.1857 13.1997 22.1857 14.0747 21.5294L15.0122 20.8419L15.7935 21.6232L16.5747 22.4044L15.8872 23.3419C15.231 24.2169 15.231 24.3107 15.6997 25.2169C16.0747 25.9357 16.4497 26.1857 17.1997 26.2794C18.1372 26.3732 18.231 26.4669 18.3247 27.4982C18.4185 28.5919 18.3872 28.6232 17.1997 28.8419C16.1685 28.9982 15.8872 29.1857 15.606 29.9982C15.3247 30.8107 15.356 31.0919 15.9185 31.7794L16.5435 32.5919L15.7622 33.3419C15.0435 34.0919 15.0122 34.0919 14.0747 33.5607C13.2622 33.0607 13.0122 33.0607 12.1685 33.4044C11.356 33.7169 11.1997 33.9669 11.1997 34.8419C11.1997 35.8732 11.1685 35.9044 9.9497 35.9044C8.85595 35.9044 8.6997 35.8107 8.6997 35.1857C8.6997 33.4669 6.54345 32.4982 5.4497 33.6857L4.85595 34.3419L3.9497 33.4982L3.0747 32.6544L3.73095 31.9669C4.91845 30.6857 3.9497 28.7169 2.16845 28.7169C1.60595 28.7169 1.5122 28.5294 1.5122 27.4669C1.5122 26.2482 1.54345 26.2169 2.5747 26.2169C3.4497 26.2169 3.6997 26.0607 4.0122 25.2482C4.35595 24.4044 4.35595 24.1544 3.85595 23.3419C3.3247 22.4044 3.3247 22.3732 4.0747 21.6544L4.8247 20.8732L5.6372 21.4982C6.3247 22.0607 6.54345 22.0919 7.41845 21.7482C8.23095 21.4669 8.4497 21.1544 8.60595 20.1857C8.79345 19.0294 8.8247 18.9982 9.91845 19.0919C10.9497 19.1857 11.0435 19.2794 11.1372 20.2169Z" fill="#00175B"/>
<path d="M7.60571 23.0919C5.79321 23.9982 5.13696 25.0607 5.01196 27.3107C4.88696 29.4982 5.54321 30.8107 7.19946 31.8419C8.29321 32.4982 10.6057 32.6857 11.887 32.1857C13.012 31.7482 14.2932 30.3107 14.6682 28.9982C15.1682 27.3419 14.7307 25.2169 13.7932 24.8107C13.387 24.6544 13.0745 24.2794 13.0745 23.9982C13.0745 23.4044 11.012 22.4669 9.69946 22.4669C9.23071 22.4669 8.29321 22.7482 7.60571 23.0919ZM11.4495 24.4044C12.4495 24.7169 12.6995 24.9669 13.012 25.9669C13.5432 27.6544 13.4807 28.5294 12.6995 29.4982C11.7307 30.7169 10.2932 31.2482 8.94946 30.9044C6.07446 30.0919 5.51196 26.5919 7.91821 24.7169C8.88696 23.9357 9.76196 23.8732 11.4495 24.4044Z" fill="#00175B"/>
<path d="M7.91847 25.7482C6.82472 26.8107 6.88722 28.1857 8.07472 29.4045C8.91847 30.217 9.19972 30.342 10.1997 30.1857C11.6372 29.9357 12.4497 28.9982 12.4497 27.4982C12.4497 25.1545 9.60597 24.0295 7.91847 25.7482ZM10.8872 27.1545C11.231 27.7795 10.5747 28.717 9.82472 28.717C8.76222 28.717 8.32472 27.092 9.23097 26.592C9.88722 26.217 10.5122 26.4357 10.8872 27.1545Z" fill="#00175B"/>
<path d="M20.9811 22.9669C20.9186 23.1857 20.9186 23.4982 21.0123 23.6544C21.1061 23.8107 23.1998 23.9669 25.6998 23.9982C29.6061 24.0607 30.1998 23.9982 30.3873 23.5607C30.4811 23.2794 30.4811 22.9044 30.3873 22.7482C30.1061 22.2482 21.1686 22.4669 20.9811 22.9669Z" fill="#00175B"/>
<path d="M20.4183 25.6232C19.9183 26.3732 20.9496 26.5294 25.6058 26.4669C29.6371 26.3732 30.4183 26.3107 30.4183 25.9044C30.4183 25.4982 29.6371 25.4357 25.5121 25.3419C22.1683 25.2794 20.5433 25.3732 20.4183 25.6232Z" fill="#00175B"/>
<path d="M20.3561 28.2795C20.0749 28.9982 20.6686 29.4045 21.8561 29.2795C22.6686 29.217 22.9499 29.0295 23.0124 28.467C23.1061 27.842 22.9811 27.7795 21.8249 27.7795C20.9499 27.7795 20.4811 27.9357 20.3561 28.2795Z" fill="#00175B"/>
<path d="M23.7623 28.4669C23.856 29.1232 24.0123 29.1857 25.8873 29.1857C27.6998 29.1857 27.9185 29.1232 27.9185 28.5607C27.9185 27.9982 27.6685 27.9357 25.7935 27.8419C23.731 27.7482 23.6685 27.7794 23.7623 28.4669Z" fill="#00175B"/>
<path d="M28.5123 28.2481C28.3873 28.5294 28.4498 28.9044 28.6373 29.0919C29.106 29.5606 30.0123 29.1231 29.8873 28.4981C29.7623 27.7794 28.7623 27.5919 28.5123 28.2481Z" fill="#00175B"/>
</svg>
