<svg width="40" height="40" viewBox="0 0 40 40" fill="none" xmlns="http://www.w3.org/2000/svg">
<path d="M1.875 20V33.125H10C17.9062 33.125 18.125 33.1562 18.125 33.75C18.125 34.3438 17.9062 34.375 12.5 34.375H6.875V36.25V38.125H20H33.125V36.25V34.375H27.5C22.0938 34.375 21.875 34.3438 21.875 33.75C21.875 33.1562 22.0938 33.125 30 33.125H38.125V20V6.875H20H1.875V20ZM36.875 18.2812V28.4375H20H3.125V18.2812V8.125H20H36.875V18.2812ZM36.875 30.9375V31.875H20H3.125V30.9375V30H20H36.875V30.9375ZM20.625 33.75C20.625 34.1562 20.4062 34.375 20 34.375C19.5938 34.375 19.375 34.1562 19.375 33.75C19.375 33.3438 19.5938 33.125 20 33.125C20.4062 33.125 20.625 33.3438 20.625 33.75ZM31.875 36.4062C31.875 36.8125 30.3438 36.875 20 36.875C9.65625 36.875 8.125 36.8125 8.125 36.4062C8.125 36 9.65625 35.9375 20 35.9375C30.3438 35.9375 31.875 36 31.875 36.4062Z" fill="#040E50"/>
<path d="M10.375 11.625C10.4687 12.25 10.6875 12.3438 12.0625 12.4375L13.6562 12.5313L14.6562 16.125C15.9062 20.75 15.9062 21.5 14.6875 21.9375C12.1875 22.7813 12.8125 26.25 15.4375 26.25C16.4687 26.25 17.5 25.5938 17.5 24.9688C17.5 24.8125 19.1562 24.6875 21.2812 24.6875C24.9375 24.6875 25.0937 24.7188 25.6875 25.4688C26.5 26.5313 28.5 26.5625 29.1875 25.5625C29.875 24.625 29.8125 23.0313 29.125 22.4063C28.2187 21.5938 26.4062 21.7188 25.6875 22.6563C25.0937 23.4063 24.9375 23.4375 21.3437 23.4375C17.75 23.4375 17.5937 23.4063 17.2812 22.7188C16.6562 21.3438 16.9375 21.25 21.9062 21.25C26.4375 21.25 26.5937 21.2188 26.875 20.5313C27.4687 19.125 28.75 14.0313 28.5937 13.75C28.4687 13.5625 25.875 13.4375 22.4687 13.4375H16.5312L16.625 14.125C16.7187 14.8438 16.8125 14.8438 21.75 14.9375L26.7812 15L26.125 17.3438L25.4687 19.6875H21.375H17.2812L16.0937 15.3125L14.875 10.9375H12.5625C10.375 10.9375 10.2812 10.9688 10.375 11.625ZM16.1875 23.9688C16.3437 24.5 15.375 24.875 14.9375 24.4375C14.75 24.25 14.7187 23.9688 14.8437 23.75C15.125 23.3125 16 23.4688 16.1875 23.9688ZM28.0625 24.1563C28.125 24.5313 27.9687 24.6875 27.5312 24.6875C27.0625 24.6875 26.875 24.5 26.875 24.0313C26.875 23.25 27.9062 23.3438 28.0625 24.1563Z" fill="#040E50"/>
</svg>
