<svg width="38" height="38" viewBox="0 0 38 38" fill="none" xmlns="http://www.w3.org/2000/svg">
<path d="M3.32764 0.835938C2.57764 1.61719 2.51514 1.86719 2.51514 4.42969C2.51514 7.05469 2.54639 7.17969 3.45264 8.05469C4.85889 9.36719 4.70264 10.0234 3.01514 10.0234C1.98389 10.0234 1.48389 10.2109 0.827637 10.8359C0.0463867 11.6484 0.0151367 11.8047 0.0151367 15.2109V18.7734H6.26514H12.5151V15.2109C12.5151 11.8047 12.4839 11.6484 11.7026 10.8359C11.0464 10.2109 10.5464 10.0234 9.51514 10.0234C7.82764 10.0234 7.67139 9.36719 9.07764 8.05469C9.98389 7.17969 10.0151 7.05469 10.0151 4.42969C10.0151 1.86719 9.95264 1.61719 9.20264 0.835938C8.45264 0.117188 8.10889 0.0234375 6.26514 0.0234375C4.42139 0.0234375 4.07764 0.117188 3.32764 0.835938ZM8.04639 1.92969C8.51514 2.33594 8.60889 3.14844 8.17139 3.14844C7.98389 3.14844 7.76514 2.99219 7.64014 2.80469C7.42139 2.46094 5.70264 2.55469 4.57764 2.99219C4.14014 3.17969 4.04639 3.11719 4.14014 2.64844C4.35889 1.42969 6.85889 0.960938 8.04639 1.92969ZM8.04639 4.39844C8.76514 4.39844 8.82764 4.49219 8.64014 5.39844C8.35889 6.83594 7.70264 7.36719 6.26514 7.36719C4.82764 7.36719 4.17139 6.83594 3.89014 5.42969C3.70264 4.46094 3.70264 4.42969 5.04639 4.30469C5.79639 4.24219 6.60889 4.24219 6.82764 4.30469C7.07764 4.36719 7.60889 4.39844 8.04639 4.39844ZM6.89014 9.39844C6.89014 9.80469 6.67139 10.0234 6.26514 10.0234C5.85889 10.0234 5.64014 9.80469 5.64014 9.39844C5.64014 8.99219 5.85889 8.77344 6.26514 8.77344C6.67139 8.77344 6.89014 8.99219 6.89014 9.39844ZM8.14014 11.5547C8.14014 11.6797 7.98389 12.2422 7.79639 12.8047C7.48389 13.6484 7.32764 13.7734 6.26514 13.7734C5.20264 13.7734 5.04639 13.6484 4.73389 12.8047C4.20264 11.3047 4.23389 11.2734 6.26514 11.2734C7.29639 11.2734 8.14014 11.3984 8.14014 11.5547ZM3.17139 13.3984L3.67139 14.8672H6.26514H8.85889L9.39014 13.3047C9.67139 12.4297 10.0464 11.7734 10.2026 11.7734C10.7964 11.8672 11.2651 13.3984 11.2651 15.3984V17.5234H6.23389H1.20264L1.29639 15.0859C1.39014 13.5859 1.60889 12.3984 1.85889 12.0859C2.39014 11.4297 2.54639 11.5859 3.17139 13.3984Z" fill="#00175B"/>
<path d="M22.8903 0.398438C22.6403 0.648438 22.5153 1.92969 22.5153 4.08594C22.5153 7.02344 22.4528 7.39844 21.8903 7.77344C21.1716 8.21094 21.0153 10.2734 21.6403 10.8984C22.1716 11.4297 36.6091 11.4297 37.1403 10.8984C37.7653 10.2734 37.6091 8.21094 36.8903 7.77344C36.3278 7.39844 36.2653 7.02344 36.2653 4.08594C36.2653 1.92969 36.1403 0.648438 35.8903 0.398438C35.3591 -0.132812 23.4216 -0.132812 22.8903 0.398438ZM34.6403 1.64844C34.8903 1.89844 35.0153 3.05469 35.0153 4.77344V7.52344H32.5153C31.0466 7.52344 30.0153 7.64844 30.0153 7.83594C30.0153 7.99219 29.7341 8.14844 29.3903 8.14844C29.0466 8.14844 28.7653 7.99219 28.7653 7.83594C28.7653 7.64844 27.7341 7.52344 26.2653 7.52344H23.7653V4.77344C23.7653 3.05469 23.8903 1.89844 24.1403 1.64844C24.6716 1.11719 34.1091 1.11719 34.6403 1.64844ZM27.5153 9.08594C27.5153 9.27344 28.3591 9.39844 29.3903 9.39844C30.4841 9.39844 31.2653 9.27344 31.2653 9.08594C31.2653 8.86719 32.1091 8.77344 33.5466 8.83594C35.2966 8.89844 35.7966 9.02344 35.7966 9.39844C35.7966 9.80469 34.8591 9.86719 29.5778 9.96094C23.5778 10.0234 22.4841 9.89844 22.9528 9.11719C23.2341 8.67969 27.5153 8.64844 27.5153 9.08594Z" fill="#00175B"/>
<path d="M26.2654 4.39844C26.2654 4.80469 26.4841 5.02344 26.8904 5.02344C27.2966 5.02344 27.5154 4.80469 27.5154 4.39844C27.5154 3.99219 27.2966 3.77344 26.8904 3.77344C26.4841 3.77344 26.2654 3.99219 26.2654 4.39844Z" fill="#00175B"/>
<path d="M28.7654 4.39844C28.7654 4.80469 28.9841 5.02344 29.3904 5.02344C29.7966 5.02344 30.0154 4.80469 30.0154 4.39844C30.0154 3.99219 29.7966 3.77344 29.3904 3.77344C28.9841 3.77344 28.7654 3.99219 28.7654 4.39844Z" fill="#00175B"/>
<path d="M31.2654 4.39844C31.2654 4.80469 31.4841 5.02344 31.8904 5.02344C32.2966 5.02344 32.5154 4.80469 32.5154 4.39844C32.5154 3.99219 32.2966 3.77344 31.8904 3.77344C31.4841 3.77344 31.2654 3.99219 31.2654 4.39844Z" fill="#00175B"/>
<path d="M14.5466 4.83591C13.8591 5.05466 12.7029 5.55466 11.9529 5.92966C10.7654 6.52341 10.6716 6.67966 10.9841 7.24216C11.3591 7.96091 11.4216 7.96091 14.3279 6.74216C15.8591 6.11716 16.7966 5.92966 18.7029 5.92966C21.0466 5.92966 21.5466 5.71091 21.5779 4.77341C21.5779 4.27341 16.2341 4.30466 14.5466 4.83591Z" fill="#00175B"/>
<path d="M30.6716 12.4922C30.3278 12.711 30.3591 13.0547 30.9216 14.5235C31.2653 15.4922 31.5778 16.6485 31.5778 17.0547C31.5778 17.8672 32.0153 18.0235 32.7966 17.5547C33.2966 17.211 33.1091 15.3985 32.3278 13.461C31.8278 12.211 31.4528 11.9922 30.6716 12.4922Z" fill="#00175B"/>
<path d="M28.3276 19.5859C27.5776 20.3672 27.5151 20.6172 27.5151 23.1797C27.5151 25.8047 27.5464 25.9297 28.4526 26.8047C29.8589 28.1172 29.7026 28.7734 28.0151 28.7734C26.9839 28.7734 26.4839 28.9609 25.8276 29.5859C25.0464 30.3984 25.0151 30.5547 25.0151 33.9609V37.5234H31.2651H37.5151V33.9609C37.5151 30.5547 37.4839 30.3984 36.7026 29.5859C36.0464 28.9609 35.5464 28.7734 34.5151 28.7734C32.8276 28.7734 32.6714 28.1172 34.0776 26.8047C34.9839 25.9297 35.0151 25.8047 35.0151 23.1797C35.0151 20.6172 34.9526 20.3672 34.2026 19.5859C33.4526 18.8672 33.1089 18.7734 31.2651 18.7734C29.4214 18.7734 29.0776 18.8672 28.3276 19.5859ZM33.0464 20.6797C33.5151 21.0859 33.6089 21.8984 33.1714 21.8984C32.9839 21.8984 32.7651 21.7422 32.6401 21.5547C32.4214 21.2109 30.7026 21.3047 29.5776 21.7422C29.1401 21.9297 29.0464 21.8672 29.1401 21.3984C29.3589 20.1797 31.8589 19.7109 33.0464 20.6797ZM33.0464 23.1484C33.7651 23.1484 33.8276 23.2422 33.6401 24.1484C33.3589 25.5859 32.7026 26.1172 31.2651 26.1172C29.8276 26.1172 29.1714 25.5859 28.8901 24.1797C28.7026 23.2109 28.7026 23.1797 30.0464 23.0547C30.7964 22.9922 31.6089 22.9922 31.8276 23.0547C32.0776 23.1172 32.6089 23.1484 33.0464 23.1484ZM31.8901 28.1484C31.8901 28.5547 31.6714 28.7734 31.2651 28.7734C30.8589 28.7734 30.6401 28.5547 30.6401 28.1484C30.6401 27.7422 30.8589 27.5234 31.2651 27.5234C31.6714 27.5234 31.8901 27.7422 31.8901 28.1484ZM33.1401 30.3047C33.1401 30.4297 32.9839 30.9922 32.7964 31.5547C32.4839 32.3984 32.3276 32.5234 31.2651 32.5234C30.2026 32.5234 30.0464 32.3984 29.7339 31.5547C29.2026 30.0547 29.2339 30.0234 31.2651 30.0234C32.2964 30.0234 33.1401 30.1484 33.1401 30.3047ZM28.1714 32.1484L28.6714 33.6172H31.2651H33.8589L34.3901 32.0547C34.6714 31.1797 35.0464 30.5234 35.2026 30.5234C35.7964 30.6172 36.2651 32.1484 36.2651 34.1484V36.2734H31.2339H26.2026L26.2964 33.8359C26.3901 32.3359 26.6089 31.1484 26.8589 30.8359C27.3901 30.1797 27.5464 30.3359 28.1714 32.1484Z" fill="#00175B"/>
<path d="M4.73395 19.9922C4.23395 20.3359 4.42145 22.1484 5.2027 24.0859C5.7027 25.3359 6.0777 25.5547 6.85895 25.0547C7.2027 24.8359 7.17145 24.4922 6.60895 23.0234C6.2652 22.0547 5.9527 20.8984 5.9527 20.4922C5.9527 19.6797 5.5152 19.5234 4.73395 19.9922Z" fill="#00175B"/>
<path d="M1.64033 26.6484C1.39033 26.8984 1.26533 28.1797 1.26533 30.3359C1.26533 33.2734 1.20283 33.6484 0.640328 34.0234C-0.0784221 34.4609 -0.234672 36.5234 0.390328 37.1484C0.921578 37.6797 15.3591 37.6797 15.8903 37.1484C16.5153 36.5234 16.3591 34.4609 15.6403 34.0234C15.0778 33.6484 15.0153 33.2734 15.0153 30.3359C15.0153 28.1797 14.8903 26.8984 14.6403 26.6484C14.1091 26.1172 2.17158 26.1172 1.64033 26.6484ZM13.3903 27.8984C13.6403 28.1484 13.7653 29.3047 13.7653 31.0234V33.7734H11.2653C9.79658 33.7734 8.76533 33.8984 8.76533 34.0859C8.76533 34.2422 8.48408 34.3984 8.14033 34.3984C7.79658 34.3984 7.51533 34.2422 7.51533 34.0859C7.51533 33.8984 6.48408 33.7734 5.01533 33.7734H2.51533V31.0234C2.51533 29.3047 2.64033 28.1484 2.89033 27.8984C3.42158 27.3672 12.8591 27.3672 13.3903 27.8984ZM6.26533 35.3359C6.26533 35.5234 7.10908 35.6484 8.14033 35.6484C9.23408 35.6484 10.0153 35.5234 10.0153 35.3359C10.0153 35.1172 10.8591 35.0234 12.2966 35.0859C14.0466 35.1484 14.5466 35.2734 14.5466 35.6484C14.5466 36.0547 13.6091 36.1172 8.32783 36.2109C2.32783 36.2734 1.23408 36.1484 1.70283 35.3672C1.98408 34.9297 6.26533 34.8984 6.26533 35.3359Z" fill="#00175B"/>
<path d="M5.01514 30.6484C5.01514 31.0547 5.23389 31.2734 5.64014 31.2734C6.04639 31.2734 6.26514 31.0547 6.26514 30.6484C6.26514 30.2422 6.04639 30.0234 5.64014 30.0234C5.23389 30.0234 5.01514 30.2422 5.01514 30.6484Z" fill="#00175B"/>
<path d="M7.51514 30.6484C7.51514 31.0547 7.73389 31.2734 8.14014 31.2734C8.54639 31.2734 8.76514 31.0547 8.76514 30.6484C8.76514 30.2422 8.54639 30.0234 8.14014 30.0234C7.73389 30.0234 7.51514 30.2422 7.51514 30.6484Z" fill="#00175B"/>
<path d="M10.0151 30.6484C10.0151 31.0547 10.2339 31.2734 10.6401 31.2734C11.0464 31.2734 11.2651 31.0547 11.2651 30.6484C11.2651 30.2422 11.0464 30.0234 10.6401 30.0234C10.2339 30.0234 10.0151 30.2422 10.0151 30.6484Z" fill="#00175B"/>
<path d="M21.8901 31.3047C21.4526 31.4922 20.0776 31.6172 18.7651 31.6172C16.4839 31.6172 15.9839 31.836 15.9526 32.7422C15.9526 33.2735 20.7339 33.3047 22.7026 32.8047C24.1089 32.4297 24.2339 32.3047 23.8901 31.461C23.6714 30.8985 23.0464 30.8672 21.8901 31.3047Z" fill="#00175B"/>
</svg>
