<svg width="40" height="40" viewBox="0 0 40 40" fill="none" xmlns="http://www.w3.org/2000/svg">
<path d="M0.6875 0.71875C0 1.4375 0 1.46875 0 16.625C0 25 0.09375 32.0625 0.1875 32.3438C0.3125 32.5938 0.78125 33.0312 1.28125 33.2812C2.375 33.875 5.1875 33.9062 5.375 33.3438C5.71875 32.5 5.25 32.1875 3.59375 32.1875C1.71875 32.1875 1.25 31.75 1.25 30.0312V29.0625H11.875C18.75 29.0625 22.5 29.1875 22.5 29.375C22.5 29.5312 22.2188 29.6875 21.875 29.6875C21.2188 29.6875 20.625 30.5312 20.625 31.5312C20.625 32.1875 20.4688 32.1875 14.25 32.1875C7.78125 32.1875 7.34375 32.25 7.71875 33.3438C7.8125 33.625 8.71875 33.75 10.8125 33.75H13.75V34.6875C13.75 35.5938 13.6875 35.625 12.3438 35.625C10.5938 35.625 9.90625 36.4688 10.0625 38.5L10.1562 39.8438H20H29.8438L29.9375 38.375C30.0625 36.4688 29.3125 35.625 27.5 35.625C26.8125 35.625 26.25 35.5 26.25 35.3125C26.25 35.125 28.5 34.9688 31.9688 34.9375C37.5312 34.8438 37.6562 34.8125 37.9688 34.125C38.125 33.75 38.4375 33.4375 38.6562 33.4375C38.8438 33.4375 39.25 33.125 39.5 32.75C39.9375 32.125 40 30.0938 40 16.7188V1.34375L39.2812 0.6875L38.5625 0H19.9688H1.34375L0.6875 0.71875ZM38.3125 2C38.5938 2.40625 38.75 3.40625 38.75 4.75V6.875H20H1.25V4.75C1.25 2.625 1.5625 1.8125 2.5 1.46875C2.75 1.375 10.8125 1.3125 20.4062 1.34375C37.2812 1.40625 37.875 1.4375 38.3125 2ZM38.75 17.8125C38.75 24.0625 38.625 27.5 38.4375 27.5C38.25 27.5 38.125 26.6562 38.125 25.625C38.125 23.9062 38.0625 23.6875 37.3438 23.375C36.4375 22.9688 36.3125 22.1875 37.1562 22.1875C37.4688 22.1875 37.8438 21.9688 37.9375 21.6875C38.2812 20.8125 38.125 17.625 37.75 17.25C37.5312 17.0312 36.4375 16.875 35.0625 16.875C32.875 16.875 32.7812 16.9062 32.875 17.5625C32.9688 18.1875 33.1875 18.2812 34.7812 18.375L36.5625 18.4688V19.6875V20.9375H29.375H22.1875V19.6875V18.4375H26.0312C30 18.4375 30.8438 18.2188 30.5312 17.375C30.375 16.9375 29.6562 16.875 25.8125 16.875C20.625 16.875 20.625 16.875 20.625 19.5312C20.625 21.2812 21.0625 22.1875 21.875 22.1875C22.2188 22.1875 22.5 22.4062 22.5 22.6562C22.5 22.9062 22.3125 23.125 22.0625 23.125C21.125 23.125 20.625 24.0625 20.625 25.8125V27.5H10.9375H1.25V17.8125V8.125H20H38.75V17.8125ZM35 22.6562C35 23.0625 34.1562 23.125 29.375 23.125C24.5938 23.125 23.75 23.0625 23.75 22.6562C23.75 22.25 24.5938 22.1875 29.375 22.1875C34.1562 22.1875 35 22.25 35 22.6562ZM36.5625 25.9375V27.1875H29.375H22.1875V25.9375V24.6875H29.375H36.5625V25.9375ZM35 29.2188C35 29.625 34.1562 29.6875 29.375 29.6875C24.5938 29.6875 23.75 29.625 23.75 29.2188C23.75 28.8125 24.5938 28.75 29.375 28.75C34.1562 28.75 35 28.8125 35 29.2188ZM38.75 29.8125C38.75 30.2188 38.6562 30.8438 38.5312 31.1562C38.3438 31.6562 38.2812 31.625 38.125 30.9375C38.0312 30.5 37.625 30.0312 37.25 29.8438C36.25 29.4062 36.4062 29.0625 37.6562 29.0625C38.5938 29.0625 38.75 29.1562 38.75 29.8125ZM36.5625 32.3438V33.75H29.375H22.1875V32.3438V30.9375H29.375H36.5625V32.3438ZM20.9375 34.375C21.2188 34.875 21.5938 35 22.9688 35C23.9062 35 24.6875 35.125 24.6875 35.3125C24.6875 35.5 22.9062 35.625 20 35.625H15.3125V34.6875V33.75H17.9688C20.2812 33.75 20.6562 33.8125 20.9375 34.375ZM27.9375 37.0625C28.2188 37.1562 28.4375 37.5938 28.4375 38V38.75H19.8438C12.5938 38.75 11.25 38.6875 11.25 38.3125C11.25 38.0625 11.4688 37.625 11.75 37.375C12.1562 36.9375 13.3438 36.875 19.8438 36.875C24.0312 36.875 27.6562 36.9688 27.9375 37.0625Z" fill="#00175B"/>
<path d="M3.03129 2.75004C1.37504 4.56254 3.90629 7.03129 5.62504 5.31254C6.37504 4.56254 6.40629 3.81254 5.75004 2.87504C5.15629 2.03129 3.75004 1.96879 3.03129 2.75004Z" fill="#00175B"/>
<path d="M7.40629 2.75004C5.75004 4.56254 8.28129 7.03129 10 5.31254C10.75 4.56254 10.7813 3.81254 10.125 2.87504C9.53129 2.03129 8.12504 1.96879 7.40629 2.75004Z" fill="#00175B"/>
<path d="M11.7813 2.75004C10.125 4.56254 12.6563 7.03129 14.375 5.31254C15.125 4.56254 15.1563 3.81254 14.5 2.87504C13.9063 2.03129 12.5 1.96879 11.7813 2.75004Z" fill="#00175B"/>
<path d="M3.75 10.8125C3.0625 11.4375 2.5 12.1875 2.5 12.5C2.5 13.1562 4.59375 15.0937 5.09375 14.9062C5.75 14.6875 5.6875 13.7187 5.03125 13L4.375 12.2812L5 11.7187C5.65625 11.125 5.84375 10.1562 5.3125 9.84373C5.15625 9.74998 4.46875 10.1875 3.75 10.8125Z" fill="#00175B"/>
<path d="M8.49999 9.9375C7.59374 10.0312 7.34374 10.25 6.81249 11.4687C5.99999 13.3125 5.90624 14.7812 6.59374 14.9375C6.96874 15 7.28124 14.5 7.81249 13.125C8.18749 12.0937 8.62499 11.25 8.74999 11.25C8.87499 11.25 9.21874 11.5312 9.53124 11.875C10.0937 12.5 10.0937 12.5312 9.37499 13.2812C8.65624 14.0625 8.68749 15 9.46874 15C10.0312 15 11.875 13.0625 11.875 12.4687C11.875 12.2187 11.3437 11.5 10.7187 10.9062C9.74999 10.0312 9.31249 9.84375 8.49999 9.9375Z" fill="#00175B"/>
<path d="M12.9375 12.0313C12.625 12.8126 13.2188 13.1876 14.7188 13.0626C15.8438 13.0001 16.0938 12.8438 16.0938 12.3438C16.0938 11.8126 15.8438 11.7188 14.5938 11.6251C13.4688 11.5626 13.0625 11.6563 12.9375 12.0313Z" fill="#00175B"/>
<path d="M17.25 12.25C17.3438 12.9688 17.375 12.9688 23.7812 13.0625C29.1562 13.125 30.2812 13.0625 30.5938 12.6875C31.4375 11.6875 30.6562 11.5625 23.875 11.5625H17.1562L17.25 12.25Z" fill="#00175B"/>
<path d="M12.9375 14.5313C12.5937 15.4063 13.2812 15.6563 15.8125 15.5625C18.0312 15.4688 18.2812 15.4063 18.2812 14.8438C18.2812 14.2813 18.0312 14.2188 15.6875 14.125C13.5625 14.0625 13.0937 14.125 12.9375 14.5313Z" fill="#00175B"/>
<path d="M19.1876 14.5313C18.8751 15.3126 19.4688 15.6876 20.8126 15.5626C21.7813 15.5001 22.0313 15.3438 22.0313 14.8438C22.0313 14.3438 21.7813 14.1876 20.6876 14.1251C19.6876 14.0626 19.3126 14.1563 19.1876 14.5313Z" fill="#00175B"/>
<path d="M22.625 14.5312C22.2812 15.4062 22.8437 15.625 25.7812 15.625C28.75 15.625 29.2187 15.4687 28.875 14.5625C28.5937 13.875 22.875 13.8125 22.625 14.5312Z" fill="#00175B"/>
<path d="M2.93744 17.3438C2.59369 18.2188 3.24994 18.4688 5.65619 18.375C7.71869 18.2813 7.96869 18.2188 7.96869 17.6563C7.96869 17.0938 7.71869 17.0313 5.53119 16.9375C3.53119 16.875 3.09369 16.9375 2.93744 17.3438Z" fill="#00175B"/>
<path d="M9.12505 17.2813C8.3438 18.2188 9.18755 18.4688 13.1563 18.375C16.7813 18.2813 17.0313 18.25 17.0313 17.6563C17.0313 17.0625 16.7813 17.0313 13.25 16.9375C10.4063 16.875 9.37505 16.9688 9.12505 17.2813Z" fill="#00175B"/>
<path d="M23.1563 19.0312C22.9063 19.1875 22.8125 19.5312 22.9063 19.8125C23.0625 20.1875 23.5625 20.3125 25 20.3125C26.4375 20.3125 26.9375 20.1875 27.0938 19.8125C27.1875 19.5312 27.0938 19.1875 26.8438 19.0312C26.2813 18.6875 23.7188 18.6875 23.1563 19.0312Z" fill="#00175B"/>
<path d="M28.0312 18.9375C27.9062 19.0625 27.8125 19.4375 27.8125 19.75C27.8125 20.25 28 20.3438 28.8438 20.25C29.5938 20.1875 29.8438 20 29.8438 19.5313C29.8438 19.0938 29.5938 18.875 29.0625 18.8125C28.625 18.75 28.1562 18.8125 28.0312 18.9375Z" fill="#00175B"/>
<path d="M30.8438 18.9375C30.7188 19.0625 30.625 19.4375 30.625 19.75C30.625 20.25 30.9063 20.3125 33.3125 20.3125C35.9063 20.3125 35.9688 20.2812 35.875 19.5938C35.7813 18.9688 35.5938 18.9062 33.4375 18.8125C32.125 18.7812 30.9688 18.8125 30.8438 18.9375Z" fill="#00175B"/>
<path d="M2.9376 19.8438C2.6251 20.6251 3.21885 21.0001 4.5626 20.8751C5.53135 20.8126 5.78135 20.6563 5.78135 20.1563C5.78135 19.6563 5.53135 19.5001 4.4376 19.4376C3.4376 19.3751 3.0626 19.4688 2.9376 19.8438Z" fill="#00175B"/>
<path d="M6.68762 19.8438C6.34387 20.7188 6.90637 20.9375 9.65637 20.9375C12.3751 20.9375 13.2189 20.6562 12.9064 19.8125C12.6564 19.1562 6.93762 19.1875 6.68762 19.8438Z" fill="#00175B"/>
<path d="M13.8749 19.8438C13.6249 20.5 13.9999 20.9375 14.8124 20.9375C15.6562 20.9375 16.2499 20.375 16.0312 19.8125C15.8124 19.2188 14.0937 19.25 13.8749 19.8438Z" fill="#00175B"/>
<path d="M16.6875 19.8438C16.375 20.6251 16.9688 21.0001 18.4688 20.8751C19.5938 20.8126 19.8438 20.6563 19.8438 20.1563C19.8438 19.6251 19.5938 19.5313 18.3438 19.4376C17.2188 19.3751 16.8125 19.4688 16.6875 19.8438Z" fill="#00175B"/>
<path d="M2.90628 22.375C2.62503 23.125 3.40628 23.4375 5.31253 23.375C6.81253 23.2813 7.03128 23.1875 7.12503 22.5625C7.21878 21.9063 7.12503 21.875 5.15628 21.875C3.56253 21.875 3.06253 22 2.90628 22.375Z" fill="#00175B"/>
<path d="M7.65636 22.1875C7.18761 22.9688 8.18761 23.4375 10.3126 23.4375C11.7814 23.4375 12.5314 23.3125 12.8126 22.9688C13.4689 22.1562 12.8126 21.875 10.3126 21.875C8.93761 21.875 7.75011 22.0312 7.65636 22.1875Z" fill="#00175B"/>
<path d="M13.5938 22.1875C13.4688 22.375 13.5625 22.7188 13.75 22.9688C14.0313 23.3125 14.8438 23.4375 16.8438 23.4375C19.5625 23.4375 20.4063 23.1562 20.0938 22.3125C19.9063 21.7812 13.9063 21.6875 13.5938 22.1875Z" fill="#00175B"/>
<path d="M22.9686 25.625C22.5624 26.2813 23.3436 26.5938 25.1874 26.5C26.5624 26.4375 27.0311 26.2813 27.0311 25.9375C27.0311 25.3438 23.3124 25.0625 22.9686 25.625Z" fill="#00175B"/>
<path d="M27.8125 25.9375C27.8125 26.4375 28.0312 26.5625 28.9062 26.5625C29.7812 26.5625 30 26.4375 30 25.9375C30 25.4375 29.7812 25.3125 28.9062 25.3125C28.0312 25.3125 27.8125 25.4375 27.8125 25.9375Z" fill="#00175B"/>
<path d="M30.625 25.9375C30.625 26.5 30.8438 26.5625 33.2812 26.5625C35.7188 26.5625 35.9375 26.5 35.9375 25.9375C35.9375 25.375 35.7188 25.3125 33.2812 25.3125C30.8438 25.3125 30.625 25.375 30.625 25.9375Z" fill="#00175B"/>
<path d="M22.9376 32.0312C22.5938 32.875 23.2501 33.1562 25.1876 33.0625C26.7813 32.9687 27.0313 32.875 27.0313 32.3437C27.0313 31.7812 26.7813 31.7187 25.0626 31.625C23.5001 31.5625 23.0938 31.625 22.9376 32.0312Z" fill="#00175B"/>
<path d="M27.9375 32.0312C27.6562 32.7187 28.2187 33.1874 29.0937 33.0624C29.5937 32.9999 29.8437 32.7499 29.8437 32.3437C29.8437 31.5312 28.2187 31.2499 27.9375 32.0312Z" fill="#00175B"/>
<path d="M30.7499 32.0313C30.4062 32.9063 31.0624 33.1563 33.4687 33.0625C35.5312 32.9688 35.7812 32.9063 35.7812 32.3438C35.7812 31.7813 35.5312 31.7188 33.3437 31.625C31.3437 31.5625 30.9062 31.625 30.7499 32.0313Z" fill="#00175B"/>
</svg>
