<svg width="40" height="40" viewBox="0 0 40 40" fill="none" xmlns="http://www.w3.org/2000/svg">
<g clip-path="url(#clip0_130_378)">
<path d="M11.25 8.4375V16.875H5.625H0V27.6562V38.4688L0.78125 39.2188L1.53125 40H12.1875C22.5938 40 22.8125 40 22.8125 39.375C22.8125 38.75 22.5938 38.75 12.6562 38.75C2.90625 38.75 2.46875 38.7188 1.875 38.125C1.28125 37.5312 1.25 37.0938 1.25 30.1562V22.8125H14.2188H27.1875V30.1562C27.1875 37.0938 27.1562 37.5312 26.5625 38.125C26.1562 38.5312 25.5312 38.75 24.6875 38.75C23.6562 38.75 23.4375 38.8438 23.4375 39.375C23.4375 39.9375 23.6562 40 25.125 40C26.5 40 27.0312 39.8438 27.7188 39.25L28.5938 38.5L28.6875 30.8125L28.7812 23.125H33.5625C38.2188 23.125 38.375 23.0938 39.1875 22.3438L40 21.5938V10.7812V0H38.2812C36.7812 0 36.5625 0.0625 36.5625 0.625C36.5625 1.125 36.7812 1.25 37.6562 1.25H38.75V2.96875V4.6875H25.7812H12.8125V2.96875V1.25H24.2188C35.4062 1.25 35.625 1.25 35.625 0.625C35.625 0 35.4062 0 23.4375 0H11.25V8.4375ZM38.75 13.2188C38.75 22.375 39.1875 21.6875 33.0938 21.8125L28.75 21.9375V19.4062V16.875H20.7812H12.8125V11.4062V5.9375H25.7812H38.75V13.2188ZM27.1875 19.8438V21.5625H14.2188H1.25V19.8438V18.125H14.2188H27.1875V19.8438Z" fill="#040E50"/>
<path d="M16.7811 8.68753C16.2811 9.21878 16.3124 9.31253 17.1874 10.1563L18.1249 11.0625L17.1874 12.0313C16.2811 12.9688 16.2499 13.0313 16.8124 13.5313C17.3436 14.0313 17.4686 13.9688 18.8436 12.5625L20.3124 11.0625L18.8124 9.59378C17.3436 8.15628 17.2811 8.12503 16.7811 8.68753Z" fill="#040E50"/>
<path d="M21.5625 9.84375V10.625H28.125H34.6875V9.84375V9.0625H28.125H21.5625V9.84375Z" fill="#040E50"/>
<path d="M21.5625 12.1875C21.5625 12.7812 21.7812 12.8125 26.5625 12.8125C31.3438 12.8125 31.5625 12.7812 31.5625 12.1875C31.5625 11.5938 31.3438 11.5625 26.5625 11.5625C21.7812 11.5625 21.5625 11.5938 21.5625 12.1875Z" fill="#040E50"/>
<path d="M3.125 19.8438C3.125 20.4062 3.28125 20.625 3.75 20.625C4.21875 20.625 4.375 20.4062 4.375 19.8438C4.375 19.2812 4.21875 19.0625 3.75 19.0625C3.28125 19.0625 3.125 19.2812 3.125 19.8438Z" fill="#040E50"/>
<path d="M5.3125 19.8438C5.3125 20.4688 5.46875 20.625 6.09375 20.625C6.71875 20.625 6.875 20.4688 6.875 19.8438C6.875 19.2188 6.71875 19.0625 6.09375 19.0625C5.46875 19.0625 5.3125 19.2188 5.3125 19.8438Z" fill="#040E50"/>
<path d="M14.6875 2.96875C14.6875 3.53125 14.8438 3.75 15.3125 3.75C15.7812 3.75 15.9375 3.53125 15.9375 2.96875C15.9375 2.40625 15.7812 2.1875 15.3125 2.1875C14.8438 2.1875 14.6875 2.40625 14.6875 2.96875Z" fill="#040E50"/>
<path d="M16.875 2.96875C16.875 3.59375 17.0312 3.75 17.6562 3.75C18.2812 3.75 18.4375 3.59375 18.4375 2.96875C18.4375 2.34375 18.2812 2.1875 17.6562 2.1875C17.0312 2.1875 16.875 2.34375 16.875 2.96875Z" fill="#040E50"/>
<path d="M3.75 30.7812V36.875H10H16.25V30.7812V24.6875H10H3.75V30.7812ZM14.6875 28.5938C14.6875 31.2188 14.6875 31.25 14.0312 30.9062C13.4688 30.625 13.2188 30.7188 12.1562 31.75L10.9375 32.9375L9.5 32.2188L8.03125 31.5312L6.65625 32.5L5.3125 33.4688V29.7188V25.9375H10H14.6875V28.5938ZM14.6875 34.375V35.625H12.5938H10.5L12 34.0938C13.2812 32.8125 13.6562 32.5938 14.125 32.8438C14.5312 33.0625 14.6875 33.5 14.6875 34.375ZM9.09375 33.75C9.6875 34.0625 9.65625 34.125 8.78125 34.8438C8.125 35.4062 7.5 35.625 6.5625 35.625H5.21875L6.59375 34.5625C8.125 33.3438 8.25 33.3125 9.09375 33.75Z" fill="#040E50"/>
<path d="M8.43748 27.5C7.09373 28.8438 8.03123 31.5625 9.81248 31.5625C11.0312 31.5625 12.1875 30.4375 12.1875 29.2188C12.1875 27.2812 9.78123 26.1562 8.43748 27.5ZM10.5625 29.1562C10.6875 29.8438 9.71873 30.25 9.37498 29.6562C9.06248 29.1875 9.59373 28.3438 10.125 28.5312C10.3125 28.5938 10.5 28.875 10.5625 29.1562Z" fill="#040E50"/>
<path d="M17.5 25.3125C17.5 25.9062 17.7188 25.9375 21.25 25.9375C24.7812 25.9375 25 25.9062 25 25.3125C25 24.7188 24.7812 24.6875 21.25 24.6875C17.7188 24.6875 17.5 24.7188 17.5 25.3125Z" fill="#040E50"/>
<path d="M17.5 27.6562C17.5 28.4375 17.5312 28.4375 20.3125 28.4375C23.0938 28.4375 23.125 28.4375 23.125 27.6562C23.125 26.875 23.0938 26.875 20.3125 26.875C17.5312 26.875 17.5 26.875 17.5 27.6562Z" fill="#040E50"/>
<path d="M17.5 30C17.5 30.5938 17.7188 30.625 21.25 30.625C24.7812 30.625 25 30.5938 25 30C25 29.4062 24.7812 29.375 21.25 29.375C17.7188 29.375 17.5 29.4062 17.5 30Z" fill="#040E50"/>
<path d="M17.5 32.3438C17.5 33.125 17.5312 33.125 20.3125 33.125C23.0938 33.125 23.125 33.125 23.125 32.3438C23.125 31.5625 23.0938 31.5625 20.3125 31.5625C17.5312 31.5625 17.5 31.5625 17.5 32.3438Z" fill="#040E50"/>
</g>
<defs>
<clipPath id="clip0_130_378">
<rect width="40" height="40" fill="white"/>
</clipPath>
</defs>
</svg>
