<svg width="40" height="40" viewBox="0 0 40 40" fill="none" xmlns="http://www.w3.org/2000/svg">
<g clip-path="url(#clip0_130_442)">
<path d="M16.9062 0.8125C16.5312 1.28125 16.25 1.75 16.25 1.90625C16.25 2.03125 15.5 2.375 14.625 2.6875C13.7188 2.96875 12.3125 3.53125 11.5 3.9375C10.2812 4.5625 9.90625 4.625 9.125 4.34375C8.03125 3.96875 7.25 4.25 5.84375 5.59375C4.4375 6.875 3.96875 8 4.34375 9.125C4.625 9.90625 4.5625 10.3125 3.9375 11.5C3.53125 12.3125 2.96875 13.6562 2.6875 14.5312C2.3125 15.625 1.875 16.2812 1.15625 16.7188C0.15625 17.3438 0.15625 17.375 0.15625 20C0.15625 22.625 0.15625 22.6562 1.15625 23.2812C1.875 23.7188 2.3125 24.375 2.6875 25.4688C2.96875 26.3125 3.53125 27.6875 3.9375 28.5C4.53125 29.6875 4.625 30.125 4.375 30.7812C3.90625 32 4.25 32.875 5.71875 34.3125C7.25 35.7812 8.03125 36.0625 9.1875 35.625C9.875 35.375 10.3125 35.4688 11.5 36.0625C12.3438 36.4688 13.6875 37.0625 14.5312 37.3438C15.625 37.6875 16.2812 38.1562 16.7188 38.8438C17.3438 39.8438 17.375 39.8438 20 39.8438C22.625 39.8438 22.6562 39.8438 23.2812 38.8438C23.7188 38.1562 24.375 37.6875 25.4688 37.3438C26.3125 37.0625 27.6562 36.4688 28.5 36.0625C29.6875 35.4688 30.125 35.375 30.8125 35.625C31.9688 36.0625 32.75 35.7812 34.2812 34.3125C35.75 32.875 36.0938 32 35.625 30.7812C35.375 30.125 35.4688 29.6875 36.0625 28.5C36.4688 27.6562 37.0625 26.3125 37.3438 25.4688C37.6875 24.375 38.1562 23.7188 38.8438 23.2812C39.8438 22.6562 39.8438 22.625 39.8438 20C39.8438 17.375 39.8438 17.3438 38.8438 16.7188C38.1562 16.2812 37.6875 15.625 37.3438 14.5312C37.0625 13.6875 36.4688 12.3438 36.0625 11.5C35.4688 10.3125 35.375 9.875 35.625 9.1875C36.0625 8.09375 35.7812 7.25 34.5625 6C33.125 4.4375 32.0312 3.9375 30.875 4.34375C30.0938 4.625 29.6875 4.5625 28.5 3.9375C27.6875 3.53125 26.3438 2.96875 25.4688 2.6875C24.375 2.3125 23.7188 1.875 23.2812 1.15625C22.6562 0.1875 22.5938 0.15625 20.0938 0.0625C17.6875 -0.03125 17.5312 0 16.9062 0.8125ZM22.125 2.59375C22.4688 3.53125 22.7188 3.71875 24.4688 4.1875C25.5312 4.5 27.1562 5.15625 28.0312 5.65625C29.5625 6.53125 29.75 6.5625 30.7812 6.21875C31.8438 5.8125 31.9375 5.84375 33.0312 6.96875C34.1562 8.0625 34.1875 8.15625 33.7812 9.21875C33.4375 10.25 33.4688 10.4375 34.3438 11.9688C34.8438 12.8438 35.5 14.4688 35.8125 15.5312C36.2812 17.2812 36.4688 17.5312 37.4062 17.875C38.4062 18.25 38.4375 18.3125 38.4375 20C38.4375 21.6875 38.4062 21.75 37.4062 22.125C36.4688 22.4688 36.2812 22.7188 35.8125 24.4688C35.5 25.5312 34.8438 27.1562 34.3438 28.0312C33.4688 29.5625 33.4375 29.75 33.7812 30.7812C34.1875 31.8438 34.1562 31.9375 33.0312 33.0312C31.9375 34.1562 31.8438 34.1875 30.7812 33.7812C29.75 33.4375 29.5625 33.4688 28.0312 34.3438C27.1562 34.8438 25.5312 35.5 24.4688 35.8125C22.7188 36.2812 22.4688 36.4688 22.125 37.4062C21.75 38.4062 21.6875 38.4375 20 38.4375C18.3125 38.4375 18.25 38.4062 17.875 37.4062C17.5312 36.4688 17.2812 36.2812 15.5312 35.8125C14.4688 35.5 12.8438 34.8438 11.9688 34.3438C10.4375 33.4688 10.25 33.4375 9.21875 33.7812C8.15625 34.1875 8.0625 34.1562 6.96875 33.0312C5.84375 31.9375 5.8125 31.8438 6.21875 30.7812C6.5625 29.75 6.53125 29.5625 5.65625 28.0312C5.15625 27.1562 4.5 25.5312 4.1875 24.4688C3.71875 22.7188 3.53125 22.4688 2.59375 22.125C1.59375 21.75 1.5625 21.6875 1.5625 20C1.5625 18.3125 1.59375 18.25 2.59375 17.875C3.53125 17.5312 3.71875 17.2812 4.1875 15.5312C4.5 14.4688 5.15625 12.8438 5.65625 11.9688C6.53125 10.4375 6.5625 10.25 6.21875 9.21875C5.8125 8.15625 5.84375 8.0625 6.96875 6.96875C8.0625 5.84375 8.15625 5.8125 9.21875 6.21875C10.25 6.5625 10.4375 6.53125 11.9688 5.65625C12.8438 5.15625 14.4688 4.5 15.5312 4.1875C17.2812 3.71875 17.5312 3.53125 17.875 2.59375C18.25 1.59375 18.3125 1.5625 20 1.5625C21.6875 1.5625 21.75 1.59375 22.125 2.59375Z" fill="#040E50"/>
<path d="M17.8127 4.71875C6.12517 6.34375 0.593923 20 7.75017 29.4688C13.7502 37.3438 26.2502 37.3438 32.2502 29.4688C37.5627 22.4375 36.0002 12.1875 28.8127 7.28125C25.7189 5.1875 21.5002 4.1875 17.8127 4.71875ZM25.0002 7.125C27.2189 8 29.5314 9.75 31.0002 11.7188C34.5939 16.4375 34.6564 23.25 31.1252 28.0625C25.6252 35.5312 14.5939 35.6562 9.00017 28.2812C6.40642 24.9062 5.59392 20.125 6.84392 16C8.09392 11.875 11.4689 8.40625 15.6252 6.9375C18.2502 6.03125 22.3752 6.125 25.0002 7.125Z" fill="#040E50"/>
<path d="M12.0625 10.5938C10.0938 11.9062 10 12.25 10 20C10 27.75 10.0938 28.0938 12.0625 29.4062C12.875 29.9375 13.625 30 20 30C27.75 30 28.0938 29.9062 29.4062 27.9375C29.9375 27.125 30 26.375 30 20C30 13.625 29.9375 12.875 29.4062 12.0625C28.0938 10.0938 27.75 10 20 10C13.625 10 12.875 10.0625 12.0625 10.5938ZM27.0625 12.125C28.3125 13.125 28.4375 13.8125 28.4375 19.9688C28.4375 26.4062 28.2812 27.25 26.8438 28C25.6875 28.5625 14.5312 28.625 13.2812 28.0625C11.75 27.375 11.5625 26.5 11.5625 20C11.5625 11.2188 11.2188 11.5625 20 11.5625C25.5938 11.5625 26.5 11.6562 27.0625 12.125Z" fill="#040E50"/>
<path d="M19.7185 17.7188C18.281 23.2812 18.2498 23.4375 19.3748 23.4375C19.8123 23.4375 20.0623 23.0938 20.281 22.25C21.7185 16.7188 21.7498 16.5625 20.6248 16.5625C20.1873 16.5625 19.9373 16.9062 19.7185 17.7188Z" fill="#040E50"/>
<path d="M14 18.375C13.1562 19 12.5 19.7188 12.5 20C12.5 20.5625 15.375 22.8125 16.0938 22.8125C17.0938 22.8125 17 21.7812 15.9375 20.875L14.875 20L15.9375 19.125C16.6562 18.5 16.9062 18.0625 16.7812 17.7188C16.4688 16.9062 15.625 17.125 14 18.375Z" fill="#040E50"/>
<path d="M23.2188 17.7188C23.0938 18.0625 23.3438 18.5 24.0626 19.125L25.1251 20L24.0626 20.875C23.0001 21.7812 22.9063 22.8125 23.9063 22.8125C24.6251 22.8125 27.5001 20.5625 27.5001 20C27.5001 19.4375 24.6251 17.1875 23.9063 17.1875C23.6251 17.1875 23.3126 17.4375 23.2188 17.7188Z" fill="#040E50"/>
</g>
<defs>
<clipPath id="clip0_130_442">
<rect width="40" height="40" fill="white"/>
</clipPath>
</defs>
</svg>
