<svg width="40" height="40" viewBox="0 0 40 40" fill="none" xmlns="http://www.w3.org/2000/svg">
<path d="M10.25 2.375C9.78125 2.625 9.28125 3.21875 9.15625 3.6875C9 4.15625 8.90625 11.5625 8.90625 20.1875C8.90625 37.0312 8.90625 37.0312 10.5312 37.7812C11.5625 38.25 28.4375 38.25 29.4688 37.7812C31.0938 37.0312 31.0938 37.0312 31.0938 20C31.0938 2.96875 31.0938 2.96875 29.4688 2.21875C28.9688 2 25.7188 1.875 19.9062 1.875C12.7188 1.90625 10.9375 2 10.25 2.375ZM29.5 3.8125C29.7812 4.1875 30 4.75 30 5.0625C30 5.59375 29.375 5.625 20 5.625C10.625 5.625 10 5.59375 10 5.0625C10 4.75 10.2188 4.1875 10.5 3.8125C10.9688 3.125 11.0312 3.125 20 3.125C28.9688 3.125 29.0312 3.125 29.5 3.8125ZM30 20V33.125H20H10V20V6.875H20H30V20ZM30 34.9375C30 35.25 29.7812 35.8125 29.5 36.1875C29.0312 36.875 28.9688 36.875 20 36.875C11.0312 36.875 10.9688 36.875 10.5 36.1875C10.2188 35.8125 10 35.25 10 34.9375C10 34.4062 10.625 34.375 20 34.375C29.375 34.375 30 34.4062 30 34.9375Z" fill="#040E50"/>
<path d="M16.875 4.37499C16.875 4.99999 17.0312 5.03124 19.9062 4.93749C22.5312 4.84374 22.9688 4.74999 23.0625 4.28124C23.1562 3.81249 22.8438 3.74999 20.0312 3.74999C17.0625 3.74999 16.875 3.78124 16.875 4.37499Z" fill="#040E50"/>
<path d="M11.3125 12.875L11.4062 15.1562L13.6875 15.25L15.9375 15.3438V12.9688V10.625H13.5938H11.2188L11.3125 12.875ZM15 12.8125V14.0625H13.75H12.5V12.8125V11.5625H13.75H15V12.8125Z" fill="#040E50"/>
<path d="M17.5625 12.875L17.6562 15.1562H20H22.3438L22.4375 12.875L22.5312 10.625H20H17.4688L17.5625 12.875ZM21.25 12.8125V14.0625H20H18.75V12.8125V11.5625H20H21.25V12.8125Z" fill="#040E50"/>
<path d="M24.0625 12.9688V15.3438L26.3438 15.25L28.5938 15.1562L28.6875 12.875L28.7812 10.625H26.4062H24.0625V12.9688ZM27.5 12.8125V14.0625H26.25H25V12.8125V11.5625H26.25H27.5V12.8125Z" fill="#040E50"/>
<path d="M11.3748 17.9375C11.2811 18.1562 11.2498 19.25 11.3123 20.3438L11.4061 22.3438L13.6873 22.4375L15.9373 22.5312V20V17.5H13.7498C12.1873 17.5 11.4998 17.625 11.3748 17.9375ZM14.9998 20V21.25H13.7498H12.4998V20V18.75H13.7498H14.9998V20Z" fill="#040E50"/>
<path d="M17.6248 17.9062C17.5311 18.1562 17.4998 19.25 17.5623 20.3438L17.6561 22.3438H19.9998H22.3436V20V17.6562L20.0623 17.5625C18.3436 17.5 17.7498 17.5938 17.6248 17.9062ZM21.2498 20V21.25H19.9998H18.7498V20V18.75H19.9998H21.2498V20Z" fill="#040E50"/>
<path d="M24.0625 20V22.5312L26.3438 22.4375L28.5938 22.3438V20V17.6562L26.3438 17.5625L24.0625 17.4688V20ZM27.5 20V21.25H26.25H25V20V18.75H26.25H27.5V20Z" fill="#040E50"/>
<path d="M11.4688 24.9062C11.3438 25 11.25 26.0625 11.25 27.25V29.375H13.5938H15.9375V27.0312V24.6875H13.8125C12.625 24.6875 11.5625 24.7812 11.4688 24.9062ZM15 27.1875V28.4375H13.75H12.5V27.1875V25.9375H13.75H15V27.1875Z" fill="#040E50"/>
<path d="M17.7188 24.875C17.5938 25 17.5 26.0625 17.5 27.25V29.375H20H22.5312L22.4375 27.0938L22.3438 24.8438L20.1562 24.75C18.9375 24.7188 17.8438 24.75 17.7188 24.875ZM21.25 27.1875V28.4375H20H18.75V27.1875V25.9375H20H21.25V27.1875Z" fill="#040E50"/>
<path d="M24.0625 27.0312V29.375H26.4062H28.7812L28.6875 27.0938L28.5938 24.8438L26.3438 24.75L24.0625 24.6562V27.0312ZM27.5 27.1875V28.4375H26.25H25V27.1875V25.9375H26.25H27.5V27.1875Z" fill="#040E50"/>
<path d="M15.1563 35.3437C14.6876 36.0937 15.6876 36.25 20.1876 36.1875C24.0938 36.0937 24.8438 36.0312 24.8438 35.625C24.8438 35.2187 24.0626 35.1562 20.0938 35.0625C16.8751 35 15.2813 35.0937 15.1563 35.3437Z" fill="#040E50"/>
</svg>
