<svg width="40" height="40" viewBox="0 0 40 40" fill="none" xmlns="http://www.w3.org/2000/svg">
<path d="M11.9378 2.375C9.18779 3.75 7.56279 6.71875 7.90654 9.65625L8.09404 11.0938L6.68779 11.6875C3.15654 13.125 2.34404 18.4062 5.21904 21C6.62529 22.2812 7.87529 22.5 14.0628 22.5H20.0003V26.25V30L18.7503 31.25C17.594 32.4062 17.3753 32.5 15.7815 32.5C14.469 32.5 14.0628 32.5938 14.0628 32.9688C14.0628 33.3438 14.469 33.4375 15.8753 33.4375C17.5315 33.4375 17.7503 33.5312 18.3753 34.375C18.969 35.1562 19.3128 35.3125 20.3128 35.3125C21.5315 35.3125 22.8128 34.5 22.8128 33.75C22.8128 33.5938 23.6878 33.4375 24.7503 33.375C25.9378 33.3125 26.719 33.125 26.8128 32.875C26.9065 32.5938 26.4065 32.5 24.9378 32.5C23.0628 32.5 22.9378 32.4375 22.4378 31.5625C22.1565 31.0312 21.6878 30.625 21.4065 30.625C21.0003 30.625 20.9378 30.0312 20.9378 26.5938V22.5625L27.1565 22.4375L33.3753 22.3438L34.594 21.375C36.1253 20.1562 36.8753 18.6562 36.8753 16.7812C36.8753 14.1562 35.219 11.9062 32.9378 11.4062C32.4378 11.2812 31.8128 11.125 31.5315 11.0625C31.219 10.9688 30.969 10.4688 30.844 9.65625C30.6565 8.125 29.4378 6.5 28.0315 5.8125C26.7815 5.21875 24.0315 5.15625 23.0315 5.65625C22.5003 5.9375 22.344 5.9375 22.2503 5.59375C21.969 4.65625 19.1878 2.3125 17.9378 1.9375C15.8128 1.3125 13.7503 1.46875 11.9378 2.375ZM18.4065 3.4375C19.5628 4 21.2503 5.78125 21.2503 6.4375C21.2503 6.59375 21.3753 6.90625 21.5315 7.15625C21.7503 7.5 22.0628 7.46875 23.2815 6.875C26.3128 5.40625 29.5315 7.28125 29.9065 10.75C30.0628 12.1562 30.1253 12.1875 31.1565 12.1875C33.219 12.1875 35.4065 14.0312 35.8128 16.0938C36.094 17.5938 34.9065 19.9375 33.4378 20.7812C32.4065 21.375 31.8128 21.4062 20.1565 21.4062C8.15654 21.4062 7.93779 21.4062 6.87529 20.7188C4.18779 19.0312 3.81279 15.8125 6.06279 13.5625C6.65654 12.9688 7.56279 12.4688 8.18779 12.3438L9.31279 12.125L9.15654 9.875C9.00029 8 9.09404 7.4375 9.62529 6.40625C11.4065 2.90625 15.0315 1.6875 18.4065 3.4375ZM21.3753 32.0625C22.0003 32.6875 22.0003 32.9062 21.2815 33.7812C20.7815 34.4375 20.594 34.4688 19.8753 34.125C19.344 33.875 19.0628 33.5312 19.0628 33.0312C19.0628 31.6562 20.4065 31.0938 21.3753 32.0625Z" fill="#040E50"/>
<path d="M12.875 4.09375C11.2812 4.90625 10 6.875 10 8.53125C10 10.1875 10.8125 10.0625 11.0625 8.40625C11.3125 6.75 12.8438 5.1875 14.625 4.71875C15.4062 4.5 15.9375 4.15625 15.9375 3.90625C15.9375 3.21875 14.4375 3.3125 12.875 4.09375Z" fill="#040E50"/>
<path d="M19.5939 16.1562C18.9689 16.75 19.7814 16.875 24.0626 16.875C28.0314 16.875 28.7501 16.8125 28.7501 16.4062C28.7501 16 28.0314 15.9375 24.2814 15.9375C21.8126 15.9375 19.6876 16.0312 19.5939 16.1562Z" fill="#040E50"/>
<path d="M10.9375 18.4375C10.9375 19.0625 11.0625 19.0625 18.2188 19C24.4062 18.9063 25.4688 18.8438 25.4688 18.4375C25.4688 18.0313 24.4062 17.9688 18.2188 17.875C11.0625 17.8125 10.9375 17.8125 10.9375 18.4375Z" fill="#040E50"/>
<path d="M29.6875 3.4375C29.6875 3.84375 29.9062 4.0625 30.3125 4.0625C30.7188 4.0625 30.9375 3.84375 30.9375 3.4375C30.9375 3.03125 30.7188 2.8125 30.3125 2.8125C29.9062 2.8125 29.6875 3.03125 29.6875 3.4375Z" fill="#040E50"/>
<path d="M32.6563 3.8125C31.9688 4.625 31.8438 5.03125 32 5.90625C32.5313 9.21875 37.1563 9.21875 37.6875 5.90625C37.8438 5.03125 37.7188 4.625 37.0313 3.8125C36.3438 2.96875 35.9688 2.8125 34.8438 2.8125C33.7188 2.8125 33.3438 2.96875 32.6563 3.8125ZM36 4.28125C37.125 5.3125 36.4063 7.1875 34.8438 7.1875C33.3125 7.1875 32.5938 5.46875 33.6563 4.3125C34.2813 3.625 35.25 3.59375 36 4.28125Z" fill="#040E50"/>
<path d="M3.21881 3.59375C1.78131 4.59375 2.09381 7.125 3.71881 7.8125C5.50006 8.53125 7.18756 7.375 7.18756 5.46875C7.18756 3.5625 4.84381 2.46875 3.21881 3.59375ZM5.62506 4.6875C6.37506 5.4375 6.40631 5.75 5.75006 6.375C4.84381 7.28125 3.43756 6.78125 3.43756 5.59375C3.43756 5 4.21881 4.0625 4.71881 4.0625C4.87506 4.0625 5.28131 4.34375 5.62506 4.6875Z" fill="#040E50"/>
<path d="M3.125 11.25C3.125 11.6562 3.34375 11.875 3.75 11.875C4.15625 11.875 4.375 11.6562 4.375 11.25C4.375 10.8438 4.15625 10.625 3.75 10.625C3.34375 10.625 3.125 10.8438 3.125 11.25Z" fill="#040E50"/>
<path d="M35.9375 11.25C35.9375 11.6562 36.1562 11.875 36.5625 11.875C36.9688 11.875 37.1875 11.6562 37.1875 11.25C37.1875 10.8438 36.9688 10.625 36.5625 10.625C36.1562 10.625 35.9375 10.8438 35.9375 11.25Z" fill="#040E50"/>
<path d="M14.5001 24.2188C14.3751 24.5 14.4376 24.875 14.6251 25.0625C15.0938 25.5313 16.0001 25.0938 15.8751 24.4688C15.7501 23.75 14.7501 23.5625 14.5001 24.2188Z" fill="#040E50"/>
<path d="M25.3125 25.625C25.3125 26.125 25.4688 26.2812 26.0312 26.1875C26.4062 26.125 26.7188 25.875 26.7188 25.625C26.7188 25.375 26.4062 25.125 26.0312 25.0625C25.4688 24.9687 25.3125 25.125 25.3125 25.625Z" fill="#040E50"/>
<path d="M4.4374 26C4.4999 26.4062 4.7499 26.7188 4.9999 26.7188C5.2499 26.7188 5.4999 26.4062 5.5624 26C5.65615 25.4688 5.4999 25.3125 4.9999 25.3125C4.4999 25.3125 4.34365 25.4688 4.4374 26Z" fill="#040E50"/>
<path d="M35.625 27.1875C35.625 27.5938 35.8438 27.8125 36.25 27.8125C36.6562 27.8125 36.875 27.5938 36.875 27.1875C36.875 26.7812 36.6562 26.5625 36.25 26.5625C35.8438 26.5625 35.625 26.7812 35.625 27.1875Z" fill="#040E50"/>
<path d="M7.09375 27.5C6.0625 28.3125 5.78125 29.625 6.34375 30.9688C6.78125 32 6.75 32.0625 5.59375 33.3438C4.46875 34.5938 4.375 34.8125 4.375 36.5625V38.4375H9.0625H13.75V36.5625C13.75 34.8125 13.6562 34.5625 12.5625 33.3438C11.4375 32.125 11.375 31.9688 11.7812 31.25C12.4062 30.0625 12.2812 28.9062 11.375 27.8438C10.7188 27.0312 10.3438 26.875 9.21875 26.875C8.375 26.875 7.625 27.0938 7.09375 27.5ZM10.25 28.3125C10.6562 28.5938 10.9375 29.0938 10.9375 29.625C10.9375 30.6562 10.6875 31.0312 9.71875 31.5625C9.09375 31.875 8.875 31.8438 8.15625 31.3438C7.125 30.5312 6.9375 29.3125 7.78125 28.4688C8.5625 27.6875 9.3125 27.625 10.25 28.3125ZM10.4688 33.25C12.3438 34.0625 13.75 37.5 12.1875 37.5C11.6875 37.5 11.5625 37.2812 11.5625 36.5625C11.5625 35.9375 11.4062 35.625 11.0938 35.625C10.7812 35.625 10.625 35.9375 10.625 36.5625C10.625 37.4688 10.5938 37.5 9.0625 37.5C7.53125 37.5 7.5 37.4688 7.5 36.5625C7.5 35.9375 7.34375 35.625 7.03125 35.625C6.71875 35.625 6.5625 35.9375 6.5625 36.5625C6.5625 37.2812 6.4375 37.5 5.9375 37.5C4.40625 37.5 5.75 34.0625 7.59375 33.2812C8.875 32.7188 9.15625 32.7188 10.4688 33.25Z" fill="#040E50"/>
<path d="M29.5625 27.6875C28.625 28.6563 28.4688 30.375 29.2188 31.4375C29.625 32.0313 29.5938 32.1563 28.7812 32.75C27.625 33.5938 26.875 35.25 26.875 37V38.4375H31.7188H36.5625V37.0625C36.5625 35.1875 36.125 34.1563 34.8438 32.9375C33.9375 32.0938 33.8438 31.875 34.2188 31.5625C35 30.9063 34.8125 28.5313 33.9062 27.6563C32.8125 26.5313 30.7188 26.5625 29.5625 27.6875ZM33.0938 28.625C33.9375 29.7188 33.9062 30.1563 32.9688 31.125C32.0625 32.0313 31.1562 31.9375 30.25 30.875C29.5 30.0313 29.5312 29.5 30.4688 28.5938C31.4375 27.5938 32.2812 27.5938 33.0938 28.625ZM33.25 33.2813C34.3438 33.8125 35.125 34.9375 35.4688 36.4688C35.6562 37.4375 35.625 37.5 34.875 37.5C34.1875 37.5 34.0625 37.375 34.0625 36.5625C34.0625 35.9375 33.9062 35.625 33.5938 35.625C33.2812 35.625 33.125 35.9375 33.125 36.5625C33.125 37.4688 33.0625 37.5 31.7188 37.5C30.375 37.5 30.3125 37.4688 30.3125 36.5625C30.3125 35.9375 30.1562 35.625 29.8438 35.625C29.5312 35.625 29.375 35.9375 29.375 36.5625C29.375 37.375 29.25 37.5 28.5625 37.5C27.8125 37.5 27.7812 37.4375 27.9688 36.4688C28.3125 34.9688 29.0625 33.8125 30.125 33.3125C31.3438 32.6875 32 32.6875 33.25 33.2813Z" fill="#040E50"/>
<path d="M15.3125 36.25C15.3125 36.6562 15.5312 36.875 15.9375 36.875C16.3438 36.875 16.5625 36.6562 16.5625 36.25C16.5625 35.8438 16.3438 35.625 15.9375 35.625C15.5312 35.625 15.3125 35.8438 15.3125 36.25Z" fill="#040E50"/>
</svg>
