<?xml version="1.0" standalone="no"?>
<!DOCTYPE svg PUBLIC "-//W3C//DTD SVG 20010904//EN"
 "http://www.w3.org/TR/2001/REC-SVG-20010904/DTD/svg10.dtd">
<svg version="1.0" xmlns="http://www.w3.org/2000/svg"
 width="365.000000pt" height="359.000000pt" viewBox="0 0 365.000000 359.000000"
 preserveAspectRatio="xMidYMid meet">

<g transform="translate(0.000000,359.000000) scale(0.100000,-0.100000)"
fill="#000000" stroke="none">
<path d="M1354 3570 c-389 -105 -742 -342 -983 -660 -226 -299 -349 -638 -368
-1020 -6 -125 10 -342 28 -384 5 -13 6 5 1 49 -4 39 -7 167 -6 285 0 183 4
231 23 320 118 556 472 1018 971 1266 111 55 266 113 363 134 31 7 57 17 57
22 0 11 -2 10 -86 -12z"/>
<path d="M2640 3433 c0 -4 50 -37 111 -72 441 -258 747 -690 851 -1203 20 -98
23 -143 23 -343 0 -221 -8 -299 -41 -422 -4 -13 -2 -23 3 -23 11 0 39 137 53
265 26 237 -3 511 -81 747 -42 131 -166 376 -246 487 -123 170 -300 341 -473
455 -90 59 -200 119 -200 109z"/>
<path d="M630 445 c0 -12 209 -159 297 -209 518 -292 1168 -312 1698 -51 115
57 300 173 291 182 -3 4 -44 -19 -90 -50 -297 -198 -634 -298 -1001 -298 -414
0 -802 133 -1126 387 -52 41 -69 51 -69 39z"/>
</g>
</svg>
