<svg width="50" height="50" viewBox="0 0 50 50" fill="none" xmlns="http://www.w3.org/2000/svg">
<g clip-path="url(#clip0_136_147)">
<g clip-path="url(#clip1_136_147)">
<g clip-path="url(#clip2_136_147)">
<path d="M4.16667 28.4646C4.74537 28.4646 5.15046 28.2337 5.38194 27.7717C5.61343 27.3098 5.61343 26.8478 5.38194 26.3858C5.15046 25.9239 4.74537 25.6929 4.16667 25.6929C3.58796 25.6929 3.18287 25.9239 2.95139 26.3858C2.71991 26.8478 2.71991 27.3098 2.95139 27.7717C3.18287 28.2337 3.58796 28.4646 4.16667 28.4646ZM36.1328 27.2087C35.9881 27.021 35.7096 26.6601 35.2973 26.126C34.885 25.5919 34.5848 25.2021 34.3967 24.9567C34.2086 24.7112 33.9337 24.3576 33.572 23.8956C33.2104 23.4337 32.9029 23.0511 32.6497 22.7479C32.3966 22.4448 32.1036 22.1055 31.7708 21.7302C31.4381 21.3549 31.1126 21.0012 30.7943 20.6691L28.0816 23.7007C26.8808 25.0577 25.3725 25.7218 23.5569 25.6929C21.7412 25.664 20.2546 24.9567 19.0972 23.5708C18.2726 22.5747 17.8639 21.4343 17.8711 20.1494C17.8783 18.8646 18.3015 17.7314 19.1406 16.7497L22.9818 12.289C22.6635 12.1302 22.2946 12.0111 21.875 11.9317C21.4554 11.8523 21.1118 11.809 20.8442 11.8018C20.5765 11.7945 20.1678 11.7981 19.6181 11.8126C19.0683 11.827 18.7138 11.8342 18.5547 11.8342C17.2237 11.8342 16.0807 12.3106 15.1259 13.2634L11.697 16.6848H8.33333V28.4646C8.40567 28.4646 8.55758 28.461 8.78906 28.4538C9.02054 28.4466 9.17969 28.4466 9.26649 28.4538C9.3533 28.461 9.49436 28.4755 9.68967 28.4971C9.88498 28.5188 10.0333 28.5513 10.1345 28.5946C10.2358 28.6379 10.3624 28.6992 10.5143 28.7786C10.6662 28.858 10.8001 28.9555 10.9158 29.071L17.3611 35.394C19.0249 36.9964 20.667 37.7976 22.2873 37.7976C23.4158 37.7976 24.32 37.4583 25 36.7798C25.8247 37.0686 26.6385 37.0108 27.4414 36.6066C28.2444 36.2024 28.7688 35.5889 29.0148 34.766C30.0854 34.8526 31.004 34.535 31.7708 33.8132C32.0602 33.5534 32.3206 33.2249 32.5521 32.828C32.7836 32.431 32.8848 32.0665 32.8559 31.7344C33.0006 31.8788 33.3116 31.951 33.7891 31.951C34.4112 31.951 34.9682 31.7994 35.4601 31.4962C35.952 31.1931 36.31 30.8105 36.5343 30.3486C36.7585 29.8866 36.8453 29.3705 36.7947 28.8003C36.7441 28.2301 36.5234 27.6995 36.1328 27.2087ZM39.5833 28.4646H41.6667V17.3777H39.6484L36.2413 13.48C35.2865 12.3828 34.0639 11.8342 32.5738 11.8342H28.9497C27.662 11.8342 26.6059 12.3178 25.7812 13.2851L21.2457 18.547C20.8406 19.0234 20.638 19.5648 20.638 20.1711C20.638 20.7774 20.8333 21.3188 21.224 21.7952C21.8461 22.5314 22.6418 22.9067 23.6111 22.9212C24.5804 22.9356 25.3834 22.5819 26.02 21.8601L30.2083 17.1395C30.57 16.8075 30.957 16.6523 31.3694 16.6739C31.7817 16.6956 32.1217 16.8905 32.3893 17.2586C32.657 17.6267 32.7185 18.0345 32.5738 18.4821C32.8053 18.7564 33.2104 19.2111 33.7891 19.8463C34.3678 20.4815 34.8018 20.9723 35.0911 21.3188C35.5107 21.8385 36.1075 22.6 36.8815 23.6033C37.6555 24.6066 38.1221 25.2165 38.2812 25.4331C39.0336 26.3858 39.4676 27.3964 39.5833 28.4646ZM45.8333 28.4646C46.412 28.4646 46.8171 28.2337 47.0486 27.7717C47.2801 27.3098 47.2801 26.8478 47.0486 26.3858C46.8171 25.9239 46.412 25.6929 45.8333 25.6929C45.2546 25.6929 44.8495 25.9239 44.6181 26.3858C44.3866 26.8478 44.3866 27.3098 44.6181 27.7717C44.8495 28.2337 45.2546 28.4646 45.8333 28.4646ZM50 15.9918V29.8505C50 30.2258 49.8626 30.5507 49.5877 30.8249C49.3128 31.0992 48.9873 31.2364 48.6111 31.2364H39.1927C38.8021 32.1747 38.2089 32.9434 37.4132 33.5425C36.6175 34.1416 35.7133 34.5134 34.7005 34.6577C34.2231 35.3507 33.6408 35.9389 32.9536 36.4225C32.2663 36.9062 31.5249 37.2346 30.7292 37.4078C30.1215 38.1729 29.3656 38.7612 28.4614 39.1726C27.5571 39.5841 26.6276 39.7609 25.6727 39.7032C24.8047 40.194 23.8932 40.4791 22.9384 40.5585C21.9835 40.6379 21.0612 40.5368 20.1714 40.2553C19.2817 39.9738 18.4353 39.5877 17.6324 39.0968C16.8294 38.606 16.0807 38.0213 15.3863 37.3429L9.15799 31.2364H1.38889C1.01273 31.2364 0.687211 31.0992 0.412326 30.8249C0.137442 30.5507 0 30.2258 0 29.8505V15.2989C0 14.9236 0.137442 14.5988 0.412326 14.3245C0.687211 14.0502 1.01273 13.913 1.38889 13.913H10.5252C10.7277 13.7109 11.0677 13.3645 11.5451 12.8736C12.0226 12.3828 12.3662 12.0363 12.576 11.8342C12.7857 11.6321 13.104 11.3434 13.5308 10.9681C13.9576 10.5927 14.3229 10.3221 14.6267 10.156C14.9306 9.99002 15.2995 9.80596 15.7335 9.60385C16.1675 9.40175 16.616 9.261 17.079 9.1816C17.542 9.1022 18.0339 9.0625 18.5547 9.0625H21.0937C22.526 9.0625 23.8354 9.46671 25.0217 10.2751C26.208 9.46671 27.5174 9.0625 28.9497 9.0625H32.5738C33.0801 9.0625 33.5648 9.10581 34.0278 9.19243C34.4907 9.27904 34.8994 9.3837 35.2539 9.50641C35.6084 9.62912 35.9809 9.8204 36.3715 10.0802C36.7622 10.3401 37.0841 10.5639 37.3372 10.7515C37.5904 10.9392 37.9015 11.2243 38.2704 11.6069C38.6393 11.9894 38.9214 12.2926 39.1168 12.5163C39.3121 12.7401 39.6087 13.0866 40.0065 13.5557C40.4044 14.0249 40.7046 14.375 40.9071 14.606H48.6111C48.9873 14.606 49.3128 14.7431 49.5877 15.0174C49.8626 15.2917 50 15.6165 50 15.9918Z" fill="#040E50"/>
</g>
</g>
</g>
<defs>
<clipPath id="clip0_136_147">
<rect width="50" height="50" fill="white"/>
</clipPath>
<clipPath id="clip1_136_147">
<rect width="50" height="50" rx="8" fill="white"/>
</clipPath>
<clipPath id="clip2_136_147">
<rect width="50" height="31.8749" fill="white" transform="translate(0 9.0625)"/>
</clipPath>
</defs>
</svg>
