<svg width="40" height="40" viewBox="0 0 40 40" fill="none" xmlns="http://www.w3.org/2000/svg">
<path d="M15.4062 0.781251C13.4922 1.28906 11.8984 2.89063 11.4062 4.8125C11.2969 5.22656 11.25 5.67969 11.25 6.25C11.25 7.875 11.7578 9.10156 12.8906 10.2344C14.0234 11.3672 15.25 11.875 16.875 11.875C18.5 11.875 19.7266 11.3672 20.8594 10.2344C21.9922 9.10156 22.5 7.875 22.5 6.25C22.5 5.67969 22.4531 5.22656 22.3438 4.8125C21.8516 2.875 20.25 1.27344 18.3125 0.781251C17.5078 0.570313 16.2031 0.578126 15.4062 0.781251ZM18.3203 2.17188C19.6797 2.67188 20.7891 3.92969 21.0938 5.32031C21.2344 5.94531 21.1562 7.10938 20.9531 7.69531C20.4609 9.04688 19.1953 10.1641 17.8047 10.4688C17.1797 10.6094 16.0156 10.5313 15.4297 10.3281C14.0781 9.83594 12.9609 8.57031 12.6562 7.17969C12.5156 6.55469 12.5938 5.39063 12.7969 4.80469C13.2656 3.51563 14.4219 2.44531 15.7578 2.0625C16.3359 1.89844 17.7344 1.96094 18.3203 2.17188Z" fill="#1A237E"/>
<path d="M15.1563 3.90601C15.0078 4.05445 15 4.16382 15 6.24976C15 9.32007 14.8672 9.24976 17.8828 7.74195C18.9922 7.17945 19.9219 6.67163 19.9531 6.60132C20.0156 6.43726 20.0156 6.06226 19.9531 5.8982C19.9219 5.82788 18.9922 5.32007 17.8828 4.75757C15.7344 3.68726 15.4609 3.60132 15.1563 3.90601ZM17.0703 5.8357C17.4766 6.03882 17.8125 6.22632 17.8125 6.24976C17.8125 6.28882 16.3672 7.03101 16.2891 7.03101C16.2656 7.03101 16.25 6.67945 16.25 6.24976C16.25 5.82007 16.2656 5.46851 16.2891 5.46851C16.3125 5.46851 16.6641 5.63257 17.0703 5.8357Z" fill="#1A237E"/>
<path d="M28.5547 1.39839C28.3828 1.47651 28.1328 1.66401 27.9922 1.80464C27.5781 2.24995 27.5 2.5312 27.5 3.67182C27.5 4.58589 27.5156 4.70307 27.6562 4.8437C27.7578 4.94526 27.9141 4.99995 28.125 4.99995C28.6484 4.99995 28.75 4.82807 28.75 3.94526C28.75 3.0312 28.8594 2.71089 29.2188 2.58589C29.5781 2.46089 36.6719 2.46089 37.0312 2.58589C37.4922 2.74995 37.5 2.79682 37.5 6.87495C37.5 10.9531 37.4922 10.9999 37.0312 11.164C36.6719 11.289 29.5781 11.289 29.2188 11.164C28.7891 11.0078 28.75 10.8046 28.75 8.55464C28.75 6.66401 28.7422 6.55464 28.5938 6.4062C28.4922 6.30464 28.3359 6.24995 28.125 6.24995C27.9141 6.24995 27.7578 6.30464 27.6562 6.4062C27.5078 6.55464 27.5 6.66401 27.5 8.8437C27.5 11.3984 27.5234 11.4999 28.0547 12.0078C28.5859 12.5156 28.4688 12.4999 33.1406 12.4999C37.875 12.4999 37.7188 12.5156 38.2578 11.9453C38.7578 11.414 38.75 11.5312 38.75 6.87495C38.75 2.2187 38.7578 2.33589 38.2578 1.80464C37.7188 1.23432 37.875 1.24995 33.125 1.24995C29.1406 1.24995 28.8438 1.26557 28.5547 1.39839Z" fill="#1A237E"/>
<path d="M32.9297 3.89844C32.5469 4.07812 32.1562 4.47656 32 4.85938C31.9219 5.03125 31.875 5.38281 31.875 5.70312V6.25H31.4062C30.8203 6.25 30.625 6.40625 30.625 6.875C30.625 7.34375 30.8203 7.5 31.4062 7.5H31.875V8.59375C31.875 9.58594 31.8906 9.70312 32.0312 9.84375C32.1328 9.94531 32.2891 10 32.5 10C32.7109 10 32.8672 9.94531 32.9688 9.84375C33.1094 9.70312 33.125 9.58594 33.125 8.59375V7.5H33.5938C34.1797 7.5 34.375 7.34375 34.375 6.875C34.375 6.40625 34.1797 6.25 33.5938 6.25H33.125V5.97656C33.125 5.53125 33.3047 5.1875 33.5938 5.08594C33.7344 5.03906 34.1797 5 34.5781 5C35.4531 5 35.625 4.89844 35.625 4.375C35.625 4.16406 35.5703 4.00781 35.4688 3.90625C35.3281 3.76562 35.2109 3.75 34.2812 3.75C33.4375 3.75 33.1875 3.78125 32.9297 3.89844Z" fill="#1A237E"/>
<path d="M1.40625 7.03125C1.25 7.1875 1.25 7.28906 1.25 12.5C1.25 17.7109 1.25 17.8125 1.40625 17.9688C1.55469 18.1172 1.66406 18.125 5.625 18.125C9.58594 18.125 9.69531 18.1172 9.84375 17.9688C10 17.8125 10 17.7109 10 12.5C10 7.28906 10 7.1875 9.84375 7.03125C9.69531 6.88281 9.58594 6.875 5.625 6.875C1.66406 6.875 1.55469 6.88281 1.40625 7.03125ZM8.75 12.5V16.875H5.625H2.5V12.5V8.125H5.625H8.75V12.5Z" fill="#1A237E"/>
<path d="M5.15625 9.53125C5.05469 9.63281 5 9.78906 5 10C5 10.5469 5.15625 10.625 6.25 10.625C7.34375 10.625 7.5 10.5469 7.5 10C7.5 9.45312 7.34375 9.375 6.25 9.375C5.41406 9.375 5.29688 9.39062 5.15625 9.53125Z" fill="#1A237E"/>
<path d="M3.90625 12.0312C3.80469 12.1328 3.75 12.2891 3.75 12.5C3.75 12.7109 3.80469 12.8672 3.90625 12.9688C4.05469 13.1172 4.16406 13.125 5.625 13.125C7.08594 13.125 7.19531 13.1172 7.34375 12.9688C7.44531 12.8672 7.5 12.7109 7.5 12.5C7.5 12.2891 7.44531 12.1328 7.34375 12.0312C7.19531 11.8828 7.08594 11.875 5.625 11.875C4.16406 11.875 4.05469 11.8828 3.90625 12.0312Z" fill="#1A237E"/>
<path d="M3.90625 14.5312C3.80469 14.6328 3.75 14.7891 3.75 15C3.75 15.2109 3.80469 15.3672 3.90625 15.4688C4.05469 15.6172 4.16406 15.625 5.625 15.625C7.08594 15.625 7.19531 15.6172 7.34375 15.4688C7.44531 15.3672 7.5 15.2109 7.5 15C7.5 14.7891 7.44531 14.6328 7.34375 14.5312C7.19531 14.3828 7.08594 14.375 5.625 14.375C4.16406 14.375 4.05469 14.3828 3.90625 14.5312Z" fill="#1A237E"/>
<path d="M24.6328 10.6875C24.5781 10.7188 24.0781 11.3594 23.5156 12.1094C22.625 13.2969 22.5 13.5 22.5 13.7656C22.5 14.1562 22.7188 14.375 23.1094 14.375C23.2656 14.375 23.4375 14.3438 23.4922 14.3125C23.5469 14.2812 24.0469 13.6406 24.6094 12.8906C25.5 11.7031 25.625 11.5 25.625 11.2344C25.625 10.8438 25.4062 10.625 25.0234 10.625C24.8594 10.625 24.6875 10.6562 24.6328 10.6875Z" fill="#1A237E"/>
<path d="M25.8594 14.7656C25.1094 15.3281 24.4688 15.8281 24.4375 15.8828C24.4062 15.9375 24.375 16.1094 24.375 16.2656C24.375 16.6562 24.5938 16.875 24.9844 16.875C25.25 16.875 25.4531 16.75 26.6406 15.8594C27.3906 15.2969 28.0312 14.7969 28.0625 14.7422C28.0938 14.6875 28.125 14.5156 28.125 14.3516C28.125 13.9688 27.9062 13.75 27.5156 13.75C27.25 13.75 27.0469 13.875 25.8594 14.7656Z" fill="#1A237E"/>
<path d="M15.4219 18.0395C11.0156 21.6723 10.9687 21.7114 9.57031 22.5161C7.99219 23.4223 7.70312 23.6411 7.375 24.2348C7.17187 24.6098 7.14844 24.7192 7.14844 25.3676V26.0864L6.78125 26.2895C6.03125 26.6958 5.63281 27.2973 5.625 28.0083C5.625 28.6645 5.75781 28.9848 6.20312 29.4223C6.88281 30.0864 7.67969 30.1645 8.59375 29.6801L9.05469 29.438L9.27344 29.5942C10.1719 30.2192 11.1328 30.2817 12.1406 29.7661C12.5 29.5864 12.625 29.5551 12.6719 29.6255C12.7109 29.6801 12.9922 30.1645 13.2969 30.7036C13.6094 31.2426 14 31.8286 14.1641 32.0083C15.2266 33.1645 17.2031 32.4692 17.3984 30.8755C17.4609 30.3442 17.3437 30.0317 16.6719 28.852C16.3437 28.2739 16.0937 27.7895 16.1094 27.7739C16.1172 27.7583 18.2344 26.9614 20.8047 25.9926C23.375 25.0239 25.5469 24.1723 25.6328 24.102C25.9687 23.7895 25.875 23.5708 24.2109 20.6645C23.3516 19.1567 22.5547 17.852 22.4531 17.7505C22.2031 17.5317 21.8594 17.5317 21.6016 17.7583C21.1953 18.102 21.2578 18.2583 22.7734 20.8911C23.5391 22.2114 24.1484 23.2973 24.1328 23.313C24.0859 23.352 14.25 27.0317 14.1953 27.0317C14.1641 27.0317 13.4609 27.4145 12.6406 27.8911C11.4062 28.602 11.0937 28.7505 10.8281 28.7505C10.4453 28.7505 10.0937 28.5473 9.82812 28.188C9.50781 27.7583 8.51562 25.9848 8.4375 25.7036C8.34375 25.3911 8.44531 24.9692 8.67187 24.7036C8.83594 24.5005 11.0234 23.1958 11.1016 23.2505C11.1328 23.2661 11.5 23.8833 11.9219 24.6176C12.3359 25.3442 12.7578 26.0005 12.8437 26.063C13.0391 26.1958 13.4297 26.2036 13.6016 26.0708C13.7578 25.9458 13.9062 25.6723 13.9062 25.4926C13.9062 25.4145 13.5312 24.7036 13.0781 23.9223C12.625 23.1333 12.2656 22.4614 12.2812 22.4223C12.2969 22.3911 14.0391 20.938 16.1484 19.188C19.8203 16.1645 20 16.0317 20.0859 16.1958C20.3594 16.7192 20.8672 16.8833 21.2578 16.5708C21.5625 16.3286 21.5 15.9301 21.0625 15.1723C20.6562 14.477 20.5391 14.3755 20.1328 14.3755C19.8984 14.3755 19.3672 14.7895 15.4219 18.0395ZM8.07812 27.9067L8.28906 28.2817L8.03125 28.438C7.625 28.688 7.4375 28.7114 7.20312 28.5395C6.96094 28.3598 6.88281 27.9536 7.04687 27.7583C7.10156 27.688 7.26562 27.5551 7.42187 27.4614C7.73437 27.2661 7.6875 27.2348 8.07812 27.9067ZM15.5312 29.5942C15.8359 30.1333 16.0937 30.6411 16.0937 30.7192C16.0937 30.9301 15.7422 31.2505 15.5234 31.2505C15.2109 31.2505 15.0312 31.0395 14.3906 29.9145L13.7734 28.8442L14.25 28.5708C14.8125 28.2426 14.6797 28.1333 15.5312 29.5942Z" fill="#1A237E"/>
<path d="M28.5938 17.7031C27.8828 17.8438 27.1172 18.0078 26.8906 18.0547C26.3594 18.1641 26.1719 18.3438 26.1719 18.75C26.1719 19.1875 26.375 19.375 26.8594 19.375C27.0703 19.375 27.9375 19.2344 28.7969 19.0625C30.5391 18.7109 30.6641 18.6484 30.6641 18.125C30.6641 17.7578 30.4688 17.5234 30.1172 17.4688C29.9844 17.4453 29.3047 17.5547 28.5938 17.7031Z" fill="#1A237E"/>
<path d="M3.28125 20.1562C3.125 20.3125 3.125 20.4141 3.125 27.0312V33.75H2.34374C1.21093 33.75 1.22656 33.7266 1.26562 35.2969C1.28906 36.4688 1.29687 36.5469 1.51562 36.9922C1.81249 37.5938 2.40624 38.1875 3.00781 38.4844L3.47656 38.7109H12.5H21.5234L21.9922 38.4844C22.5937 38.1875 23.1875 37.5938 23.4844 36.9922C23.7031 36.5469 23.7109 36.4688 23.7344 35.2969C23.7734 33.7266 23.7891 33.75 22.6562 33.75H21.875V30.5156V27.2734L21.6719 27.1172C21.4062 26.9062 21.0937 26.9062 20.8281 27.1172L20.625 27.2734V30.5156V33.75H12.5H4.375V27.5V21.25H7.14062H9.91406L10.0703 21.0469C10.2812 20.7812 10.2812 20.4688 10.0703 20.2031L9.91406 20H6.67187C3.53906 20 3.42968 20.0078 3.28125 20.1562ZM22.4687 35.5234C22.4062 36.1641 22.2187 36.5938 21.8672 36.9297C21.4687 37.3047 21.0781 37.4375 20.1797 37.4844L19.375 37.5234V37.0391C19.375 36.4453 19.2187 36.25 18.75 36.25C18.2812 36.25 18.125 36.4453 18.125 37.0312V37.5H12.5H6.875V37.0312C6.875 36.4453 6.71875 36.25 6.25 36.25C5.78125 36.25 5.625 36.4453 5.625 37.0391V37.5234L4.82031 37.4844C3.30468 37.4062 2.67187 36.8594 2.53124 35.5234L2.47656 35H12.5H22.5234L22.4687 35.5234Z" fill="#1A237E"/>
<path d="M28.5547 20.7734C28.3828 20.8515 28.1328 21.039 27.9922 21.1796C27.4844 21.7109 27.5 21.5937 27.5 26.2656C27.5 30.9999 27.4844 30.8437 28.0547 31.3828C28.5859 31.8906 28.4687 31.8749 33.1406 31.8749C37.875 31.8749 37.7187 31.8906 38.2578 31.3203C38.6719 30.8749 38.75 30.5937 38.75 29.4531C38.75 28.539 38.7344 28.4218 38.5937 28.2812C38.3828 28.0703 37.8672 28.0703 37.6562 28.2812C37.5234 28.414 37.5 28.539 37.5 29.1796C37.5 30.0937 37.3906 30.414 37.0312 30.539C36.6719 30.664 29.5781 30.664 29.2187 30.539C28.7578 30.3749 28.75 30.3281 28.75 26.2499C28.75 22.1718 28.7578 22.1249 29.2187 21.9609C29.5781 21.8359 36.6719 21.8359 37.0312 21.9609C37.4609 22.1171 37.5 22.3203 37.5 24.5703C37.5 26.4609 37.5078 26.5703 37.6562 26.7187C37.7578 26.8203 37.9141 26.8749 38.125 26.8749C38.3359 26.8749 38.4922 26.8203 38.5937 26.7187C38.7422 26.5703 38.75 26.4609 38.75 24.2968C38.75 21.789 38.7344 21.6796 38.2578 21.1796C37.7187 20.6093 37.875 20.6249 33.125 20.6249C29.1406 20.6249 28.8437 20.6406 28.5547 20.7734Z" fill="#1A237E"/>
<path d="M32.125 23.914C30.5312 24.5312 30.0937 26.8046 31.3281 28.0468C32.5781 29.289 34.8594 28.8437 35.4609 27.2265C35.9609 25.8905 35.3359 24.3749 34.1016 23.914C33.5234 23.6952 32.6953 23.6952 32.125 23.914ZM33.7344 25.2343C34.75 25.8515 34.3125 27.4218 33.125 27.4218C31.9375 27.4218 31.5 25.8515 32.5156 25.2343C32.8516 25.0312 33.3984 25.0312 33.7344 25.2343Z" fill="#1A237E"/>
</svg>
