<svg width="40" height="40" viewBox="0 0 40 40" fill="none" xmlns="http://www.w3.org/2000/svg">
<path d="M3.35938 2.375C2.32812 2.59375 1.4375 3.30469 0.960938 4.28125L0.664062 4.875V15.7344V26.6016L0.914062 27.1328C1.39844 28.1484 2.35156 28.9141 3.42188 29.1328C3.69531 29.1875 5.44531 29.2188 8.63281 29.2188H13.4375V30.8516V32.4922L11.1172 32.5156C8.89844 32.5391 8.76562 32.5469 8.34375 32.7188C7.75 32.9609 7.10156 33.5625 6.82031 34.125C6.60938 34.5625 6.60156 34.5938 6.60156 35.9531C6.60156 37.2891 6.60938 37.3438 6.78125 37.5156L6.96094 37.6953H20H33.0391L33.2188 37.5156C33.3906 37.3438 33.3984 37.2891 33.3984 35.9531C33.3984 34.5938 33.3906 34.5625 33.1797 34.125C32.8984 33.5625 32.25 32.9609 31.6562 32.7188C31.2344 32.5469 31.1016 32.5391 28.8906 32.5156L26.5625 32.4922V30.8516V29.2188H31.3906C36.6797 29.2188 36.8203 29.2031 37.6172 28.75C38.1797 28.4297 38.7891 27.7578 39.0859 27.1328L39.3359 26.6016V15.7344V4.875L39.0391 4.28125C38.5391 3.26562 37.6094 2.54688 36.5312 2.35156C35.8359 2.22656 3.94531 2.24219 3.35938 2.375ZM36.8125 3.85156C37.3281 4.10938 37.7422 4.54688 37.9453 5.07031C38.0781 5.40625 38.0859 6.00781 38.1094 15.3906C38.125 22.1484 38.1016 25.5312 38.0469 25.8984C37.9453 26.5547 37.6719 27.0391 37.2031 27.3984C36.5078 27.9297 37.7422 27.8906 19.8438 27.875L3.63281 27.8516L3.27344 27.6875C2.75781 27.4453 2.38281 27.0781 2.13281 26.5781L1.91406 26.1328L1.89062 16.1328C1.875 9.34375 1.89844 5.96094 1.95312 5.58594C2.09375 4.66406 2.60938 4.03125 3.45312 3.74219C3.85156 3.60156 4.53906 3.60156 20.1172 3.61719L36.3672 3.63281L36.8125 3.85156ZM25.2344 30.8594V32.5H20H14.7656V30.8594V29.2188H20H25.2344V30.8594ZM31.1328 33.9688C31.8984 34.3203 32.1016 34.6875 32.1094 35.7188V36.4062H20H7.89062V35.7422C7.89062 35.0547 8 34.6406 8.26562 34.3516C8.46094 34.1328 8.96094 33.8984 9.36719 33.8281C9.5625 33.7969 14.4531 33.7734 20.2344 33.7812L30.7422 33.7891L31.1328 33.9688Z" fill="#1A237E"/>
<path d="M3.53906 4.84375C3.39844 4.92188 3.22656 5.08594 3.14844 5.21094C3.01562 5.41406 3.00781 5.89062 3.00781 14.7031V23.9766L3.1875 24.1562L3.36719 24.3359H20H36.6328L36.8125 24.1562L36.9922 23.9766V14.7031C36.9922 5.89062 36.9844 5.41406 36.8516 5.21094C36.7734 5.08594 36.6016 4.92188 36.4609 4.84375C36.2188 4.6875 35.9297 4.6875 20 4.6875C4.07031 4.6875 3.78125 4.6875 3.53906 4.84375ZM35.7031 14.5312V23.0469H34.1406H32.5781L32.5625 17.2188L32.5391 11.3906L32.3203 11.2031C32.1016 11.0234 32.0703 11.0156 30.6562 11.0156H29.2031L28.9766 11.2422L28.75 11.4688V17.2578V23.0469H28.0469H27.3438V19.6953V16.3359L27.1562 16.1172L26.9688 15.8984L25.6172 15.875C24.1484 15.8438 23.9766 15.8672 23.75 16.0938C23.6016 16.2422 23.5938 16.3672 23.5938 19.6484V23.0469H22.8516H22.1094V18.7969V14.5391L21.9062 14.3828C21.7109 14.2344 21.5938 14.2188 20.3047 14.2188C18.8203 14.2188 18.5938 14.2656 18.4453 14.5859C18.3828 14.7109 18.3594 16.0469 18.3594 18.9062V23.0469H17.6562H16.9609L16.9375 20.8516L16.9141 18.6562L16.7266 18.5078C16.5625 18.375 16.4062 18.3594 15.0547 18.3594C13.0156 18.3594 13.2031 18.1016 13.2031 20.875V23.0469H8.75H4.29688V14.5312V6.01562H20H35.7031V14.5312ZM31.25 17.6953V23.0469H30.6641H30.0781V17.6953V12.3438H30.6641H31.25V17.6953ZM20.7812 19.2969V23.0469H20.2344H19.6875V19.2969V15.5469H20.2344H20.7812V19.2969ZM26.0156 20.1172V23.0469H25.4688H24.9219V20.1172V17.1875H25.4688H26.0156V20.1172ZM15.625 21.3672V23.0469H15.0781H14.5312V21.3672V19.6875H15.0781H15.625V21.3672Z" fill="#1A237E"/>
<path d="M9.90625 7.45312C9.82812 7.50781 9.69531 7.71094 9.60937 7.90625C9.48437 8.20312 9.39844 8.28125 9.09375 8.39844C8.75781 8.52344 8.71875 8.52344 8.39062 8.39844C7.875 8.20312 7.67969 8.28125 7 8.97656C6.35156 9.64844 6.30469 9.77344 6.52344 10.3516C6.64062 10.6484 6.64062 10.6875 6.48437 11.0312C6.35937 11.3203 6.26562 11.4141 6.04687 11.4844C5.52344 11.6562 5.46875 11.7891 5.46875 12.8516C5.46875 13.9062 5.49219 13.9609 6.10156 14.2344C6.3125 14.3281 6.41406 14.4453 6.51562 14.7109C6.64062 15.0312 6.64062 15.0859 6.52344 15.3516C6.29687 15.8984 6.35156 16.0547 6.96094 16.6875C7.64844 17.3906 7.89844 17.4922 8.38281 17.2812C8.71875 17.1328 8.71875 17.1328 9.11719 17.3047C9.4375 17.4531 9.53125 17.5312 9.60937 17.7656C9.77344 18.2578 9.98437 18.3594 10.9062 18.3594C11.3516 18.3594 11.7969 18.3203 11.9062 18.2734C12.0859 18.1875 12.3437 17.7891 12.3437 17.5859C12.3437 17.5391 12.5312 17.4141 12.75 17.3203L13.1641 17.1406L13.5234 17.2891C14.0156 17.5 14.2031 17.4141 14.9141 16.6797C15.3984 16.1875 15.4687 16.0703 15.4687 15.8281C15.4687 15.6641 15.4141 15.4375 15.3516 15.3125C15.2187 15.0469 15.25 14.9219 15.4922 14.7734C15.6172 14.6953 19.3672 11.8672 20.2734 11.1641C20.3203 11.1328 21.4531 11.5781 22.7969 12.1562C24.2656 12.7812 25.3516 13.2031 25.5 13.2031C25.7187 13.2031 25.9766 13 27.4297 11.6875C28.7031 10.5312 29.1094 10.1953 29.1406 10.2969C29.3047 10.8516 29.8437 11.0234 30.2266 10.6406C30.4062 10.4609 30.4687 10.2734 30.6484 9.3125C30.9687 7.63281 30.9062 7.5625 29.125 7.59375C28.0391 7.61719 27.9687 7.625 27.7812 7.80469C27.3828 8.17969 27.6172 8.875 28.1641 8.92188C28.4375 8.94531 28.4375 8.94531 26.9141 10.3281C26.0703 11.0938 25.3359 11.7188 25.2812 11.7188C25.2266 11.7188 24.125 11.2578 22.8359 10.7031C21.3437 10.0625 20.3906 9.6875 20.2187 9.6875C20.0078 9.6875 19.6641 9.91406 18.2422 11.0078L16.5234 12.3203L16.4141 12.0078C16.3281 11.75 16.25 11.6719 15.9297 11.5391C15.6094 11.3984 15.5312 11.3281 15.3984 10.9922C15.25 10.6484 15.25 10.5938 15.3516 10.3906C15.4141 10.2656 15.4687 10.0312 15.4687 9.875C15.4687 9.60938 15.3984 9.51562 14.8125 8.92188C14.0937 8.20312 14.0156 8.17969 13.3906 8.4375C13.1875 8.52344 13.1016 8.51562 12.7891 8.39844C12.4766 8.28125 12.4062 8.21094 12.2969 7.91406C12.0937 7.39062 11.9766 7.34375 10.9375 7.34375C10.3203 7.35156 10 7.38281 9.90625 7.45312ZM11.2891 9C11.4297 9.30469 11.4922 9.35156 12.0156 9.53906C12.3281 9.65625 12.625 9.78125 12.6797 9.82812C12.8594 9.96875 13.1641 9.99219 13.4766 9.88281C13.75 9.78906 13.7969 9.78906 13.9219 9.89844C14.0469 10.0078 14.0469 10.0391 13.9453 10.2422C13.7812 10.5469 13.7969 10.8125 13.9922 11.1953C14.0859 11.375 14.2187 11.6953 14.2969 11.9141C14.4062 12.25 14.4766 12.3359 14.7891 12.5C15.25 12.75 15.2891 12.9922 14.8906 13.125C14.5625 13.2266 14.4219 13.3906 14.2969 13.7891C14.2422 13.9609 14.1172 14.2656 14.0156 14.4688C13.8047 14.8828 13.7812 15.125 13.9219 15.4219C13.9922 15.5859 13.9844 15.6484 13.875 15.7734C13.75 15.9062 13.7266 15.9062 13.3984 15.7891C13.0547 15.6719 13.0469 15.6719 12.5625 15.9062C12.2891 16.0391 11.9531 16.1797 11.8203 16.2031C11.5469 16.2656 11.2734 16.5469 11.2031 16.8516C11.125 17.1406 10.7969 17.0938 10.6641 16.7734C10.5391 16.4766 10.3437 16.2891 10.0781 16.2109C9.96875 16.1797 9.64062 16.0469 9.34375 15.9141C8.82031 15.6797 8.80469 15.6719 8.46875 15.7969C8.14844 15.9062 8.125 15.9062 8 15.7734C7.89062 15.6484 7.88281 15.5859 7.95312 15.4219C8.08594 15.1484 8.07031 14.7578 7.92187 14.5469C7.85937 14.4531 7.73437 14.1797 7.65625 13.9375C7.46875 13.4062 7.38281 13.2891 7.05469 13.1484C6.67969 13 6.69531 12.7031 7.08594 12.5234C7.39062 12.375 7.42187 12.3281 7.80469 11.4062C8.0625 10.7734 8.09375 10.5938 7.96875 10.2656C7.90625 10.1016 7.91406 10.0234 8.00781 9.91406C8.125 9.78906 8.16406 9.78906 8.48437 9.89844C8.80469 10.0078 8.84375 10.0078 9.17187 9.84375C9.36719 9.75781 9.72656 9.60156 9.97656 9.50781C10.3672 9.35938 10.4531 9.28906 10.5859 9.00781C10.7109 8.75 10.7891 8.67969 10.9375 8.67188C11.0937 8.67188 11.1719 8.74219 11.2891 9Z" fill="#1A237E"/>
<path d="M9.94531 10.0625C8.78125 10.4766 8.02344 11.5703 8.03125 12.8516C8.03125 14.0312 8.60937 14.9609 9.67187 15.4844C10.1484 15.7188 10.25 15.7422 10.9375 15.7422C11.6094 15.7422 11.7266 15.7188 12.1875 15.5C12.8359 15.1953 13.3203 14.7109 13.625 14.0625C13.8359 13.6094 13.8672 13.4766 13.8672 12.8438C13.8672 12.1875 13.8516 12.1016 13.5703 11.5469C13.2344 10.8672 12.8437 10.4766 12.1875 10.1719C11.6094 9.89844 10.5469 9.85156 9.94531 10.0625ZM11.6328 11.3984C12.1719 11.6719 12.5781 12.2969 12.5781 12.8438C12.5781 13.1484 12.3906 13.6094 12.1328 13.8984C11.4219 14.7266 10.1328 14.5938 9.5625 13.625C9.08594 12.8125 9.4375 11.7578 10.3125 11.375C10.6953 11.2109 11.2734 11.2188 11.6328 11.3984Z" fill="#1A237E"/>
</svg>
