<?xml version="1.0" standalone="no"?>
<!DOCTYPE svg PUBLIC "-//W3C//DTD SVG 20010904//EN"
 "http://www.w3.org/TR/2001/REC-SVG-20010904/DTD/svg10.dtd">
<svg version="1.0" xmlns="http://www.w3.org/2000/svg"
 width="50.000000pt" height="50.000000pt" viewBox="0 0 50.000000 50.000000"
 preserveAspectRatio="xMidYMid meet">

<g transform="translate(0.000000,50.000000) scale(0.100000,-0.100000)"
fill="#000000" stroke="none">
<path d="M163 383 c-7 -2 -13 -18 -13 -34 0 -27 2 -28 24 -18 21 10 32 6 85
-30 34 -23 61 -45 61 -49 0 -8 -114 -92 -125 -92 -3 0 -5 5 -5 10 0 6 6 10 14
10 24 0 29 20 10 35 -11 8 -29 15 -41 15 -21 0 -23 -5 -23 -48 0 -90 26 -92
141 -14 117 79 117 90 5 165 -81 54 -104 62 -133 50z"/>
<path d="M150 280 c0 -13 7 -20 20 -20 12 0 34 -7 50 -15 28 -15 60 -11 60 6
0 13 -76 49 -105 49 -18 0 -25 -5 -25 -20z"/>
</g>
</svg>
