<svg width="18" height="52" viewBox="0 0 18 52" fill="none" xmlns="http://www.w3.org/2000/svg">
<g clip-path="url(#clip0_5_17)">
<mask id="mask0_5_17" style="mask-type:luminance" maskUnits="userSpaceOnUse" x="0" y="0" width="18" height="52">
<path d="M18 0H0V52H18V0Z" fill="white"/>
</mask>
<g mask="url(#mask0_5_17)">
<path d="M9 5C10.3807 5 11.5 3.88071 11.5 2.5C11.5 1.11929 10.3807 0 9 0C7.61929 0 6.5 1.11929 6.5 2.5C6.5 3.88071 7.61929 5 9 5Z" fill="white"/>
<path fill-rule="evenodd" clip-rule="evenodd" d="M9.00004 10C8.7239 10 8.50004 10.2239 8.50004 10.5V50.2816L0.819461 43.903C0.607026 43.7265 0.291792 43.7557 0.115366 43.9682C-0.06106 44.1806 -0.0318692 44.4958 0.180566 44.6723L8.68057 51.7315L9.00002 51.9968L9.31946 51.7315L17.8195 44.6723C18.0319 44.4958 18.0611 44.1806 17.8847 43.9682C17.7082 43.7557 17.393 43.7265 17.1806 43.903L9.50004 50.2816V10.5C9.50004 10.2239 9.27618 10 9.00004 10Z" fill="white"/>
</g>
</g>
<defs>
<clipPath id="clip0_5_17">
<rect width="18" height="52" fill="white"/>
</clipPath>
</defs>
</svg>
