<svg width="50" height="50" viewBox="0 0 50 50" fill="none" xmlns="http://www.w3.org/2000/svg">
<g clip-path="url(#clip0_136_144)">
<path d="M30.8594 27.1976C30.8594 32.0515 34.7945 35.9867 39.6484 35.9867C44.5023 35.9867 48.4375 32.0507 48.4375 27.1976H47.1289L41.4219 12.6687C41.7804 12.398 42.0713 12.0479 42.2719 11.6458C42.4725 11.2438 42.5773 10.8008 42.5781 10.3515C42.5781 8.73436 41.2656 7.42187 39.6484 7.42187C39.2203 7.42187 38.8172 7.51874 38.4508 7.6828C37.8529 7.45011 37.2568 7.21287 36.6625 6.97108C34.4219 6.05234 31.8148 4.99453 29.1 4.38515C28.7822 3.55522 28.2203 2.84116 27.4883 2.33722C26.7563 1.83328 25.8887 1.56316 25 1.5625C24.1112 1.56322 23.2436 1.83346 22.5116 2.33755C21.7796 2.84163 21.2176 3.55586 20.9 4.38593C18.1844 4.99453 15.5773 6.05234 13.3367 6.97187C12.8266 7.18124 12.1086 7.46405 11.5484 7.68358C11.1726 7.51229 10.7646 7.42307 10.3516 7.42187C9.57456 7.42187 8.82938 7.73053 8.27996 8.27995C7.73054 8.82937 7.42188 9.57455 7.42188 10.3515C7.42286 10.8007 7.52767 11.2436 7.72811 11.6455C7.92855 12.0475 8.21919 12.3977 8.57734 12.6687L2.87031 27.1976H1.5625C1.5625 32.0515 5.49766 35.9867 10.3516 35.9867C15.2055 35.9867 19.1406 32.0515 19.1406 27.1976H17.832L12.125 12.6695C12.4833 12.3984 12.7741 12.0481 12.9747 11.646C13.1752 11.2439 13.2802 10.8009 13.2812 10.3515C13.2812 10.2836 13.2648 10.2195 13.2609 10.1523L13.9914 9.85624C16.0469 9.01171 18.4273 8.04061 20.8703 7.44765C21.0912 8.05877 21.4449 8.61332 21.9058 9.0714C22.3667 9.52948 22.9235 9.8797 23.5359 10.0969V14.575H22.6375V28.6625H21.6609V35.5601C16.8148 36.4593 13.2812 39.2593 13.2812 42.5781H11.8164V45.5077H8.88672V48.4374H41.1133V45.5077H38.1836V42.5781H36.7188C36.7188 39.2593 33.1836 36.4593 28.3398 35.5601V28.6625H27.3633V14.5742H26.4648V10.0961C27.0771 9.87878 27.6337 9.52849 28.0945 9.07043C28.5552 8.61236 28.9088 8.05788 29.1297 7.44686C31.5734 8.03983 33.9523 9.01092 36.0094 9.85545C36.2594 9.95858 36.4953 10.0531 36.7391 10.1523C36.7344 10.2195 36.7188 10.2836 36.7188 10.3515C36.7197 10.8007 36.8245 11.2436 37.025 11.6455C37.2254 12.0475 37.5161 12.3977 37.8742 12.6687L32.1672 27.1968H30.8594V27.1976ZM10.3516 8.88671C10.5468 8.88225 10.741 8.91687 10.9227 8.98852C11.1044 9.06018 11.2699 9.16743 11.4096 9.30397C11.5493 9.44052 11.6602 9.6036 11.736 9.78363C11.8117 9.96367 11.8507 10.157 11.8506 10.3523C11.8506 10.5477 11.8115 10.741 11.7357 10.921C11.6598 11.101 11.5488 11.264 11.409 11.4005C11.2693 11.5369 11.1037 11.6441 10.922 11.7157C10.7402 11.7872 10.546 11.8217 10.3508 11.8172C9.96804 11.8082 9.60398 11.6499 9.33648 11.376C9.06899 11.1021 8.91928 10.7344 8.91938 10.3516C8.91948 9.96871 9.06939 9.6011 9.33703 9.32735C9.60468 9.0536 9.96881 8.89544 10.3516 8.88671M16.3195 27.1976H4.38125L9.86719 13.2328C10.0258 13.2594 10.1859 13.2812 10.3516 13.2812C10.5172 13.2812 10.6766 13.2594 10.8344 13.232L16.3195 27.1976ZM39.6484 8.88671C39.8437 8.88225 40.0379 8.91687 40.2196 8.98852C40.4013 9.06018 40.5668 9.16743 40.7065 9.30397C40.8461 9.44052 40.9571 9.6036 41.0328 9.78363C41.1086 9.96367 41.1476 10.157 41.1475 10.3523C41.1475 10.5477 41.1084 10.741 41.0325 10.921C40.9567 11.101 40.8457 11.264 40.7059 11.4005C40.5662 11.5369 40.4006 11.6441 40.2189 11.7157C40.0371 11.7872 39.8429 11.8217 39.6477 11.8172C39.2649 11.8082 38.9009 11.6499 38.6334 11.376C38.3659 11.1021 38.2162 10.7344 38.2163 10.3516C38.2164 9.96871 38.3663 9.6011 38.6339 9.32735C38.9016 9.0536 39.2657 8.89544 39.6484 8.88671ZM39.1648 13.2328C39.3244 13.2625 39.4862 13.2787 39.6484 13.2812C39.8133 13.2812 39.9734 13.2594 40.1313 13.232L45.6164 27.1968H33.6773L39.1648 13.2328Z" fill="#040E50"/>
</g>
<defs>
<clipPath id="clip0_136_144">
<rect width="50" height="50" rx="8" fill="white"/>
</clipPath>
</defs>
</svg>
