<svg width="40" height="40" viewBox="0 0 40 40" fill="none" xmlns="http://www.w3.org/2000/svg">
<path d="M10.1797 0.773438C9.36719 1.07031 8.77344 1.60938 8.375 2.42188L8.16406 2.85156L8.14062 5.17188L8.11719 7.5H7.02344C6.03906 7.5 5.92188 7.51562 5.78125 7.65625C5.625 7.8125 5.625 7.91406 5.625 17.8125C5.625 27.7109 5.625 27.8125 5.78125 27.9688C5.92188 28.1094 6.03906 28.125 7.03125 28.125H8.11719L8.14062 32.6328L8.16406 37.1484L8.39062 37.6172C8.6875 38.2188 9.28125 38.8125 9.88281 39.1094L10.3516 39.3359H20H29.6484L30.1172 39.1094C30.7188 38.8125 31.3125 38.2188 31.6094 37.6172L31.8359 37.1484L31.8594 32.6328L31.8828 28.125H32.9688C33.9609 28.125 34.0781 28.1094 34.2188 27.9688C34.375 27.8125 34.375 27.7109 34.375 17.8125C34.375 7.91406 34.375 7.8125 34.2188 7.65625C34.0781 7.51562 33.9609 7.5 32.9766 7.5H31.8828L31.8594 5.17188L31.8359 2.85156L31.6094 2.38281C31.3125 1.78125 30.7188 1.1875 30.1172 0.890625L29.6484 0.664062L20.1172 0.648438C10.9766 0.632812 10.5703 0.632812 10.1797 0.773438ZM29.4141 2.05469C29.8359 2.24219 30.2188 2.625 30.4219 3.04688C30.5703 3.375 30.5859 3.55469 30.6094 5.44531L30.6406 7.5H20H9.35938L9.39062 5.44531C9.42188 3.17969 9.45312 3.03125 9.94531 2.51562C10.25 2.19531 10.5312 2.03906 10.9609 1.95312C11.1406 1.92188 15.2969 1.89844 20.1953 1.89844C28.5938 1.91406 29.1172 1.92188 29.4141 2.05469ZM33.125 10.625V12.5H20H6.875V10.625V8.75H20H33.125V10.625ZM33.125 20.3125V26.875H20H6.875V20.3125V13.75H20H33.125V20.3125ZM30.625 30V31.875H20H9.375V30V28.125H20H30.625V30ZM30.6094 34.8594C30.5781 36.8438 30.5234 37.0703 29.9453 37.5859C29.3594 38.1172 29.9375 38.0859 20 38.0859C10.0625 38.0859 10.6406 38.1172 10.0547 37.5859C9.47656 37.0703 9.42188 36.8438 9.39062 34.8594L9.35938 33.125H20H30.6406L30.6094 34.8594Z" fill="#1A237E"/>
<path d="M17.0312 3.28125C16.9297 3.38281 16.875 3.53906 16.875 3.75C16.875 3.96094 16.9297 4.11719 17.0312 4.21875C17.1797 4.36719 17.2891 4.375 20 4.375C22.7109 4.375 22.8203 4.36719 22.9688 4.21875C23.0703 4.11719 23.125 3.96094 23.125 3.75C23.125 3.53906 23.0703 3.38281 22.9688 3.28125C22.8203 3.13281 22.7109 3.125 20 3.125C17.2891 3.125 17.1797 3.13281 17.0312 3.28125Z" fill="#1A237E"/>
<path d="M24.5312 3.28125C24.4297 3.38281 24.375 3.53906 24.375 3.75C24.375 3.96094 24.4297 4.11719 24.5312 4.21875C24.6328 4.32031 24.7891 4.375 25 4.375C25.2109 4.375 25.3672 4.32031 25.4688 4.21875C25.5703 4.11719 25.625 3.96094 25.625 3.75C25.625 3.53906 25.5703 3.38281 25.4688 3.28125C25.3672 3.17969 25.2109 3.125 25 3.125C24.7891 3.125 24.6328 3.17969 24.5312 3.28125Z" fill="#1A237E"/>
<path d="M25.7812 10.1562C25.6797 10.2578 25.625 10.4141 25.625 10.625C25.625 10.8359 25.6797 10.9922 25.7812 11.0938C25.8828 11.1953 26.0391 11.25 26.25 11.25C26.4609 11.25 26.6172 11.1953 26.7188 11.0938C26.8203 10.9922 26.875 10.8359 26.875 10.625C26.875 10.4141 26.8203 10.2578 26.7188 10.1562C26.6172 10.0547 26.4609 10 26.25 10C26.0391 10 25.8828 10.0547 25.7812 10.1562Z" fill="#1A237E"/>
<path d="M28.2812 10.1562C28.1797 10.2578 28.125 10.4141 28.125 10.625C28.125 10.8359 28.1797 10.9922 28.2812 11.0938C28.3828 11.1953 28.5391 11.25 28.75 11.25C28.9609 11.25 29.1172 11.1953 29.2188 11.0938C29.3203 10.9922 29.375 10.8359 29.375 10.625C29.375 10.4141 29.3203 10.2578 29.2188 10.1562C29.1172 10.0547 28.9609 10 28.75 10C28.5391 10 28.3828 10.0547 28.2812 10.1562Z" fill="#1A237E"/>
<path d="M30.7812 10.1562C30.6797 10.2578 30.625 10.4141 30.625 10.625C30.625 10.8359 30.6797 10.9922 30.7812 11.0938C30.8828 11.1953 31.0391 11.25 31.25 11.25C31.4609 11.25 31.6172 11.1953 31.7188 11.0938C31.8203 10.9922 31.875 10.8359 31.875 10.625C31.875 10.4141 31.8203 10.2578 31.7188 10.1562C31.6172 10.0547 31.4609 10 31.25 10C31.0391 10 30.8828 10.0547 30.7812 10.1562Z" fill="#1A237E"/>
<path d="M21.4766 15.0781C21.2812 15.1953 17.5 24.0625 17.5 24.4062C17.5 24.7734 17.7266 25 18.0938 25C18.2422 25 18.4297 24.9688 18.5078 24.9219C18.7188 24.8125 22.5 15.9609 22.5 15.5938C22.5 15.2188 22.2734 15 21.8984 15C21.7344 15 21.5469 15.0391 21.4766 15.0781Z" fill="#1A237E"/>
<path d="M13.2656 17.9531L11.5625 19.6562V20V20.3438L13.2656 22.0469C14.9219 23.7031 14.9766 23.75 15.2812 23.75C15.6953 23.75 15.9375 23.5078 15.9375 23.0859C15.9375 22.7969 15.8672 22.7109 14.5547 21.3906L13.1719 20L14.5547 18.6094C15.8828 17.2656 15.9375 17.2031 15.9375 16.9062C15.9375 16.4844 15.6953 16.25 15.2734 16.25C14.9766 16.25 14.8984 16.3125 13.2656 17.9531Z" fill="#1A237E"/>
<path d="M24.2344 16.4297C24.1172 16.5547 24.0625 16.7109 24.0625 16.9141C24.0625 17.2031 24.1328 17.2891 25.4453 18.6094L26.8281 20L25.4453 21.3906C24.0938 22.75 24.0625 22.7891 24.0625 23.1094C24.0625 23.5469 24.2656 23.75 24.7031 23.75C25.0312 23.75 25.0547 23.7266 26.7344 22.0469L28.4375 20.3438V20V19.6562L26.7344 17.9531C25.0781 16.2969 25.0234 16.25 24.7188 16.25C24.4922 16.25 24.3594 16.2969 24.2344 16.4297Z" fill="#1A237E"/>
<path d="M19.1797 33.8984C18.5 34.2109 18.125 34.8359 18.125 35.6406C18.1328 36.75 18.8828 37.5 20 37.5C21.125 37.5 21.875 36.75 21.875 35.625C21.875 34.8125 21.4609 34.1641 20.7656 33.875C20.3594 33.7031 19.5703 33.7188 19.1797 33.8984ZM20.3906 35.2344C20.7266 35.5703 20.4766 36.1719 20 36.1719C19.7031 36.1719 19.4531 35.9219 19.4531 35.625C19.4531 35.3281 19.7031 35.0781 20 35.0781C20.1328 35.0781 20.3047 35.1484 20.3906 35.2344Z" fill="#1A237E"/>
<path d="M12.0312 35.1562C11.9297 35.2578 11.875 35.4141 11.875 35.625C11.875 35.8359 11.9297 35.9922 12.0312 36.0938C12.1797 36.2422 12.2891 36.25 13.75 36.25C15.2109 36.25 15.3203 36.2422 15.4688 36.0938C15.5703 35.9922 15.625 35.8359 15.625 35.625C15.625 35.4141 15.5703 35.2578 15.4688 35.1562C15.3203 35.0078 15.2109 35 13.75 35C12.2891 35 12.1797 35.0078 12.0312 35.1562Z" fill="#1A237E"/>
<path d="M24.5312 35.1562C24.4297 35.2578 24.375 35.4141 24.375 35.625C24.375 35.8359 24.4297 35.9922 24.5312 36.0938C24.6797 36.2422 24.7891 36.25 26.25 36.25C27.7109 36.25 27.8203 36.2422 27.9688 36.0938C28.0703 35.9922 28.125 35.8359 28.125 35.625C28.125 35.4141 28.0703 35.2578 27.9688 35.1562C27.8203 35.0078 27.7109 35 26.25 35C24.7891 35 24.6797 35.0078 24.5312 35.1562Z" fill="#1A237E"/>
</svg>
