<svg width="50" height="50" viewBox="0 0 50 50" fill="none" xmlns="http://www.w3.org/2000/svg">
<g clip-path="url(#clip0_136_136)">
<g clip-path="url(#clip1_136_136)">
<path fill-rule="evenodd" clip-rule="evenodd" d="M24.5105 0.0496048C24.0877 0.152146 23.6356 0.420398 22.423 1.28833C21.9291 1.6419 21.4447 1.90006 21.1181 1.98392C20.713 2.08793 20.2614 2.03872 19.1303 1.76735C18.6294 1.64716 18.5251 1.63389 18.0565 1.63066C17.5535 1.62719 17.5311 1.63027 17.3274 1.73031C17.0623 1.86044 16.6864 2.21305 16.4545 2.54906C16.3561 2.69158 16.1106 3.11419 15.9088 3.48821C14.9609 5.24536 14.7703 5.39765 13.0637 5.76186C11.5652 6.08165 11.1328 6.39088 10.9 7.30902C10.8304 7.58361 10.7916 8.01388 10.7198 9.30901C10.6443 10.6693 10.4382 11.0431 9.27005 11.9369C7.61192 13.2056 7.52463 13.6358 8.48268 15.8166C9.05254 17.1138 9.13085 17.5324 8.92831 18.1988C8.88651 18.3363 8.68608 18.795 8.48297 19.2183C8.01429 20.1946 7.9563 20.3618 7.93655 20.7931C7.92345 21.0794 7.93322 21.1655 7.99832 21.3384C8.16661 21.7853 8.51758 22.1873 9.37774 22.9188C10.4864 23.8616 10.7734 24.2197 10.9153 24.8374C10.962 25.041 10.9836 25.3739 11.0048 26.2154C11.0345 27.3951 11.0505 27.5085 11.2407 27.8841C11.2868 27.9751 11.4238 28.1394 11.5451 28.2492C11.9259 28.5938 12.2625 28.727 13.869 29.1689C14.4977 29.3418 14.9756 29.5344 15.2573 29.7284C15.5661 29.9411 15.7986 30.2784 16.237 31.1499C16.729 32.1281 16.8536 32.3272 17.143 32.5979C17.506 32.9375 17.6465 32.9789 18.4323 32.9786C19.041 32.9784 19.1211 32.9699 19.8819 32.8253C20.768 32.6568 21.372 32.6061 21.7251 32.6705C22.0457 32.729 22.5313 32.9912 22.9959 33.3565C23.9457 34.1034 24.2853 34.3299 24.6346 34.4494C25.2354 34.6551 25.8791 34.4527 26.8611 33.7495C28.0553 32.8943 28.5018 32.632 28.9342 32.5316C29.2641 32.455 29.7534 32.5079 30.6549 32.7176C31.418 32.8951 31.4865 32.905 31.9613 32.9066C32.4425 32.9082 32.4707 32.9042 32.6723 32.8053C32.9501 32.669 33.3206 32.3142 33.5651 31.9502C33.674 31.7882 33.9191 31.3657 34.1099 31.0113C34.9502 29.4502 35.2516 29.1723 36.4058 28.8948C36.6975 28.8247 37.1568 28.7141 37.4265 28.649C38.2556 28.4489 38.6883 28.182 38.9158 27.7303C39.1399 27.2854 39.1816 26.9994 39.28 25.2311C39.3416 24.1259 39.4729 23.7519 39.9783 23.2421C40.1359 23.0831 40.4822 22.7855 40.748 22.5807C41.3445 22.1209 41.7674 21.7188 41.9195 21.4666C42.2864 20.8583 42.2028 20.2703 41.5332 18.7509C40.7944 17.0747 40.7918 16.7916 41.5019 15.3529C41.9277 14.4903 42.0722 14.0654 42.0722 13.6765C42.0722 13.0243 41.7317 12.5437 40.5872 11.5803C39.7804 10.9012 39.4275 10.5262 39.2344 10.1432C39.0678 9.81284 39.0251 9.48589 38.9937 8.30207C38.9778 7.70168 38.9467 7.13977 38.9245 7.0534C38.8141 6.62273 38.5619 6.30119 38.1332 6.0446C37.8198 5.85702 37.4458 5.72453 36.5246 5.4746C35.2956 5.14117 34.8648 4.95667 34.5272 4.61909C34.2804 4.37224 34.1457 4.1532 33.7329 3.32715C33.3177 2.49619 33.1378 2.2031 32.8912 1.95597C32.5667 1.63066 32.2321 1.52075 31.5855 1.52701C31.1506 1.5312 31.0211 1.5491 29.6886 1.78875C29.4622 1.82945 29.0918 1.87193 28.8654 1.8831C28.0744 1.92218 27.7647 1.78567 26.6611 0.911412C25.6117 0.080099 25.1491 -0.105262 24.5105 0.0496048ZM26.3063 3.43477C29.7616 3.75481 33.1021 5.45194 35.3937 8.05154C37.2802 10.1917 38.4455 12.7989 38.8008 15.675C38.8788 16.3064 38.9058 17.6187 38.8542 18.2704C38.6131 21.3137 37.452 24.1031 35.4724 26.3943C34.212 27.8532 32.4888 29.1336 30.7265 29.9208C28.1148 31.0873 25.3442 31.4311 22.5512 30.9353C20.0077 30.4836 17.7419 29.3783 15.7301 27.6078C13.3621 25.5237 11.7428 22.511 11.2594 19.2899C11.046 17.8677 11.071 16.2452 11.3286 14.816C11.8871 11.7159 13.5385 8.80654 15.8912 6.77749C17.3855 5.48877 19.2218 4.4813 21.0274 3.95954C22.2157 3.6162 22.9174 3.49554 24.3736 3.38416C24.6548 3.36265 25.8719 3.39454 26.3063 3.43477ZM24.3557 5.14042C21.7605 5.32123 19.5549 6.14442 17.5555 7.67853C15.4773 9.27297 13.9093 11.6526 13.261 14.1957C12.9497 15.4168 12.8436 16.3695 12.8788 17.6256C12.9029 18.4829 12.9517 18.9105 13.1178 19.7215C13.861 23.3493 16.2295 26.4425 19.5272 28.0921C20.2802 28.4687 20.8984 28.7143 21.5998 28.9155C23.8697 29.5664 26.0977 29.567 28.3961 28.9175C30.41 28.3483 32.5165 27.0488 33.9026 25.5206C35.6571 23.586 36.685 21.3884 37.0447 18.8025C37.1234 18.2375 37.1519 16.9469 37.1001 16.3013C36.738 11.7907 33.9427 7.91249 29.7389 6.08816C28.1616 5.40366 26.0112 5.02507 24.3557 5.14042ZM32.033 12.2034L33.0348 13.2056L27.9616 18.2789L22.8883 23.3521L19.9332 20.397L16.9781 17.4419L17.9866 16.4332C18.5413 15.8784 19.0053 15.4244 19.0178 15.4244C19.0303 15.4244 19.9063 16.2901 20.9645 17.3481L22.8884 19.2718L26.9238 15.2365C29.1432 13.017 30.9753 11.2011 30.9952 11.2011C31.015 11.2011 31.482 11.6521 32.033 12.2034ZM36.786 30.0955C36.4235 30.2384 36.2516 30.3474 36.0112 30.5866C35.735 30.8614 35.4309 31.3274 34.9864 32.1567C34.543 32.984 34.286 33.3766 34.0022 33.6602C33.3738 34.2879 32.924 34.3202 30.9949 33.8765C30.3573 33.7298 29.902 33.6925 29.5713 33.7599C29.0615 33.8639 28.6531 34.0932 27.5232 34.9097C27.2279 35.1231 26.8616 35.3703 26.709 35.4589C26.5564 35.5476 26.4316 35.6346 26.4316 35.6523C26.4316 35.6701 26.5743 35.9296 26.7487 36.2291C26.9231 36.5286 27.3074 37.1924 27.6028 37.7042C27.8981 38.216 28.4378 39.1502 28.802 39.7801C29.1662 40.41 29.617 41.1911 29.8038 41.5159C29.9906 41.8408 30.3528 42.4689 30.6086 42.9118C30.8646 43.3547 31.3758 44.2405 31.7447 44.8803C32.1137 45.52 32.5886 46.3414 32.8001 46.7056C33.0116 47.0698 33.4393 47.8107 33.7507 48.352C34.59 49.8116 34.701 49.9985 34.7282 49.9973C34.7419 49.9967 34.8805 49.7028 35.0362 49.3441C35.2951 48.7482 35.5937 48.0648 36.5959 45.7751C36.7897 45.3321 37.0857 44.6557 37.2537 44.2718C37.511 43.6837 37.572 43.5719 37.6413 43.5609C37.7324 43.5464 38.0168 43.5624 41.7143 43.7895C43.1218 43.876 44.4792 43.9578 44.7308 43.9714L45.1883 43.9961L44.9425 43.5703C44.8073 43.3361 44.3294 42.5082 43.8804 41.7307C43.4315 40.9531 42.7914 39.8439 42.4582 39.2659C42.1249 38.6878 41.5531 37.6972 41.1875 37.0647C40.822 36.4322 40.3135 35.5523 40.0575 35.1094C39.8015 34.6665 39.2902 33.7807 38.9212 33.1409C37.3454 30.4089 37.1134 30.0137 37.0794 30.004C37.0597 29.9985 36.9277 30.0396 36.786 30.0955ZM12.7447 30.2539C12.7183 30.2965 12.4206 30.8107 12.0831 31.3966C10.9506 33.3627 10.4108 34.2991 9.94259 35.1094C9.68669 35.5523 9.14224 36.4945 8.73275 37.2032C8.32323 37.9118 7.75144 38.9023 7.46203 39.4043C7.17263 39.9063 6.56851 40.9531 6.11955 41.7307C5.67059 42.5082 5.19264 43.3361 5.05746 43.5703L4.81165 43.9961L5.26909 43.9714C5.5207 43.9578 6.87814 43.876 8.28562 43.7895C11.9831 43.5624 12.2675 43.5464 12.3586 43.5609C12.4279 43.5719 12.4889 43.6837 12.7463 44.2718C12.9142 44.6557 13.1927 45.2919 13.365 45.6856C13.5373 46.0793 13.8121 46.7074 13.9755 47.0814C14.1389 47.4554 14.4879 48.2503 14.7509 48.8478C15.0139 49.4454 15.2291 49.95 15.2291 49.9693C15.2291 50.0841 15.3637 49.8882 15.7764 49.1731C16.0314 48.7314 16.477 47.9592 16.7666 47.4572C17.5122 46.165 18.8207 43.8986 19.3806 42.9297C19.6423 42.4769 20.4607 41.0596 21.1993 39.7801C21.9379 38.5006 22.7955 37.015 23.105 36.4789L23.6677 35.5041L23.4838 35.3729C23.3826 35.3007 23.0825 35.07 22.8167 34.86C21.7408 34.0101 21.4814 33.8925 20.6829 33.8925C20.212 33.8925 20.1417 33.9017 18.7846 34.1414C17.5999 34.3507 16.9624 34.3026 16.497 33.969C16.124 33.7016 15.9658 33.4682 15.4259 32.3893C14.9912 31.5206 14.8678 31.3145 14.6279 31.056C14.319 30.7234 13.9176 30.5152 13.1251 30.2766L12.7928 30.1766L12.7447 30.2539Z" fill="#040E50"/>
</g>
</g>
<defs>
<clipPath id="clip0_136_136">
<rect width="50" height="50" fill="white"/>
</clipPath>
<clipPath id="clip1_136_136">
<rect width="50" height="50" rx="8" fill="white"/>
</clipPath>
</defs>
</svg>
