<svg width="40" height="40" viewBox="0 0 40 40" fill="none" xmlns="http://www.w3.org/2000/svg">
<g clip-path="url(#clip0_42_575)">
<path d="M20.7813 0.585938C19.0625 1.00781 17.5391 2.39062 16.9766 4.05469C16.875 4.35938 16.7578 4.5625 16.7031 4.55469C16.6484 4.54688 16.3594 4.44531 16.0547 4.34375C15.3594 4.09375 14.3828 4.07031 13.6875 4.28125C12.2109 4.74219 11.0938 6.29688 11.0938 7.89844V8.34375L10.7266 8.42969C10.5156 8.48438 10.1641 8.60938 9.92969 8.71875L9.51563 8.90625H5.93751H2.35938L1.94532 9.125C1.42969 9.39844 1.11719 9.8125 1.01563 10.3984C0.960944 10.6875 0.937506 14.2578 0.953131 20.9062L0.976569 30.9766L1.14844 31.2891C1.34376 31.6562 1.64844 31.9531 2.03126 32.1562C2.28907 32.2969 2.60938 32.3047 7.75782 32.3281L13.2031 32.3516V34.1406V35.9219L11.7031 35.9531C10.0078 35.9766 9.85938 36.0156 9.17188 36.6562C8.64063 37.1484 8.41407 37.6953 8.37501 38.5703C8.35157 39.0781 8.36719 39.3359 8.43751 39.4141C8.52344 39.5156 9.91407 39.5312 20 39.5312C30.0859 39.5312 31.4766 39.5156 31.5625 39.4141C31.6328 39.3359 31.6484 39.0781 31.625 38.5703C31.5859 37.6953 31.3594 37.1484 30.8281 36.6562C30.1406 36.0156 29.9922 35.9766 28.3047 35.9531L26.7969 35.9219V34.1406V32.3516L32.25 32.3281C37.3906 32.3047 37.7109 32.2969 37.9688 32.1562C38.3516 31.9531 38.6563 31.6562 38.8516 31.2891L39.0234 30.9766L39.0469 20.9062C39.0625 14.2578 39.0391 10.6875 38.9844 10.3984C38.8828 9.8125 38.5703 9.39844 38.0547 9.125L37.6406 8.90625H34.7266H31.8047L31.75 8.72656C31.6328 8.35156 31.0625 7.57031 30.5859 7.11719C29.8281 6.40625 28.8594 5.92969 27.9141 5.79688L27.5469 5.74219L27.4453 5.09375C27.2422 3.80469 26.7266 2.82031 25.7578 1.89844C24.7188 0.914062 23.5547 0.460938 22.0703 0.476562C21.6016 0.476562 21.0156 0.53125 20.7813 0.585938ZM23.2422 1.46094C24 1.64844 24.5859 2.00781 25.2734 2.69531C26.1953 3.61719 26.6328 4.64844 26.6406 5.875C26.6406 6.14844 26.6797 6.35938 26.75 6.42969C26.8125 6.49219 27.0938 6.5625 27.375 6.59375C29.2188 6.78125 30.6719 7.98438 31.2031 9.75781C31.3594 10.2891 31.3672 11.375 31.2109 11.9453C30.8516 13.3125 29.7734 14.4766 28.4531 14.9375L27.9297 15.1172H19.4141H10.8984L10.3906 14.875C9.78126 14.5781 9.24219 14.0547 8.93751 13.4531C8.72657 13.0469 8.71094 12.9375 8.71094 12.1875C8.71094 11.4453 8.73438 11.3281 8.92969 10.9141C9.39063 9.99219 10.2266 9.38281 11.2891 9.21875C11.5938 9.17188 11.875 9.09375 11.9141 9.05469C11.9609 9.00781 11.9922 8.58594 11.9922 8.10156C11.9922 7.28125 12.0078 7.19531 12.2344 6.71875C12.5703 6.03125 12.9375 5.625 13.5313 5.3125C13.9453 5.09375 14.125 5.03906 14.6484 5.01562C15.3906 4.97656 15.9609 5.14844 16.5703 5.58594C17.2422 6.07031 17.4766 5.92969 17.6563 4.92188C17.9141 3.47656 19.1641 2.04688 20.5938 1.5625C21.5 1.25781 22.2891 1.22656 23.2422 1.46094ZM8.34376 10.1562L8.10157 10.5469H5.46094C2.82032 10.5469 2.82032 10.5469 2.70313 10.7188C2.59376 10.875 2.57813 11.9141 2.57813 20.2891C2.57813 29.5859 2.57813 29.6875 2.73438 29.8438C2.89063 30 2.99219 30 20 30C37.0078 30 37.1094 30 37.2656 29.8438C37.4219 29.6875 37.4219 29.5859 37.4219 20.2891C37.4219 11.9141 37.4063 10.875 37.2969 10.7188C37.1797 10.5469 37.1719 10.5469 34.6797 10.5469H32.1875V10.3281C32.1875 10.2109 32.1641 10.0391 32.1406 9.9375L32.0938 9.76562H34.7578C37.6641 9.76562 37.7188 9.77344 38.0156 10.2109C38.1563 10.4219 38.1641 10.7422 38.1641 20.6016C38.1641 30.7656 38.1641 30.7734 38 30.9922C37.9141 31.1094 37.7188 31.2734 37.5703 31.3438C37.3203 31.4766 36.3203 31.4844 20 31.4844C3.67969 31.4844 2.67969 31.4766 2.42969 31.3438C2.28126 31.2734 2.08594 31.1094 2.00001 30.9922C1.83594 30.7734 1.83594 30.7656 1.83594 20.6016C1.83594 10.75 1.84376 10.4219 1.98438 10.2109C2.28126 9.77344 2.28126 9.77344 5.56251 9.76562H8.58594L8.34376 10.1562ZM7.81251 12.1406C7.81251 13.375 8.17188 14.1953 9.05469 15.0234C9.48438 15.4141 10.25 15.8594 10.5078 15.8594C10.5703 15.8594 10.625 15.8828 10.625 15.9141C10.625 15.9453 10.3594 16.2344 10.0391 16.5703L9.45313 17.1719V18.2891V19.4141L9.14844 19.5859C8.60938 19.8984 8.35938 20.7266 8.62501 21.3516C8.96094 22.1641 10.0781 22.4453 10.7734 21.8984C11.2891 21.4844 11.4688 20.8047 11.2188 20.2109C11.1016 19.9297 10.6016 19.4531 10.4297 19.4531C10.3359 19.4531 10.3125 19.2812 10.3125 18.5V17.5391L11.0703 16.7812L11.8359 16.0156H13.3203H14.8047L14.0234 16.7969L13.2422 17.5781L13.2188 19.5625L13.1953 21.5469L13.0156 21.5938C12.75 21.6562 12.3672 22.1328 12.2656 22.5078C11.875 23.9453 13.6484 24.9688 14.6953 23.9141C15.3828 23.2266 15.1953 22.0156 14.3438 21.6094L14.0625 21.4766V19.7422V18.0078L15.0547 17.0156L16.0547 16.0156H17.1875H18.3203L17.5156 16.8203L16.7188 17.6172V20.5625V23.5L16.375 23.7031C14.9844 24.5156 15.7344 26.6719 17.3281 26.4531C18.6172 26.2812 19.0547 24.5859 18.0234 23.7969C17.875 23.6875 17.7188 23.5938 17.6719 23.5938C17.6016 23.5938 17.5781 22.8594 17.5781 20.8047V18.0078L18.5703 17.0156L19.5703 16.0156H20H20.4297L21.4219 17.0078L22.4219 18.0078V20.7969C22.4219 22.8594 22.3984 23.5938 22.3281 23.5938C22.2813 23.5938 22.125 23.6875 21.9766 23.7969C20.9453 24.5859 21.3828 26.2812 22.6719 26.4531C24.25 26.6719 25.0156 24.5703 23.6563 23.7266L23.2813 23.4922V20.5547V17.6172L22.4844 16.8203L21.6797 16.0156H22.8125H23.9453L24.9375 17.0078L25.9375 18.0078V19.7422V21.4766L25.6563 21.6094C24.8047 22.0156 24.6172 23.2266 25.3047 23.9141C26.3516 24.9688 28.125 23.9453 27.7344 22.5078C27.6328 22.1328 27.25 21.6562 26.9844 21.5938L26.8047 21.5469L26.7813 19.5625L26.7578 17.5781L25.9844 16.8047L25.2109 16.0234L26.6484 16L28.0859 15.9766L28.8828 16.7578L29.6875 17.5391V18.4922C29.6875 19.2812 29.6641 19.4531 29.5703 19.4531C29.5078 19.4531 29.3281 19.5703 29.1719 19.7031C28.0469 20.6953 28.9375 22.4297 30.4297 22.1562C30.7656 22.0938 31.2344 21.6953 31.375 21.3516C31.6406 20.7266 31.3906 19.8984 30.8516 19.5859L30.5469 19.4141V18.2891V17.1641L29.8047 16.4141L29.0703 15.6641L29.4844 15.4453C30.8203 14.75 31.8516 13.3438 32.1328 11.8516L32.2188 11.4062H34.3906H36.5625V20.2734V29.1406H20H3.43751V20.2734V11.4062H5.62501H7.81251V12.1406ZM10.2891 20.4062C10.5234 20.625 10.5156 20.8984 10.2734 21.1328C10.0391 21.3672 9.85157 21.375 9.57813 21.1641C9.32813 20.9688 9.31251 20.6641 9.54688 20.4141C9.75782 20.1875 10.0547 20.1875 10.2891 20.4062ZM30.4453 20.4062C30.6719 20.6172 30.6719 20.9141 30.4531 21.1484C30.2344 21.3828 29.9609 21.375 29.7266 21.1328C29.4844 20.8984 29.4766 20.6484 29.7031 20.4141C29.9141 20.1875 30.2109 20.1875 30.4453 20.4062ZM14.0938 22.5C14.3203 22.7188 14.2891 23.1094 14.0313 23.3359C13.9141 23.4297 13.75 23.5156 13.6719 23.5156C13.4141 23.5156 13.1016 23.1797 13.1016 22.9062C13.1016 22.3516 13.6875 22.1094 14.0938 22.5ZM26.75 22.5C26.9766 22.7188 26.9453 23.1094 26.6875 23.3359C26.5703 23.4297 26.4063 23.5156 26.3281 23.5156C26.0703 23.5156 25.7578 23.1797 25.7578 22.9062C25.7578 22.3516 26.3438 22.1094 26.75 22.5ZM17.5391 24.5703C17.75 24.7734 17.7891 25.1172 17.6328 25.3203C17.5156 25.4766 17.2344 25.625 17.0703 25.625C16.8672 25.625 16.4844 25.1953 16.4844 24.9609C16.4844 24.6797 16.8047 24.375 17.1094 24.375C17.2578 24.375 17.4219 24.4453 17.5391 24.5703ZM23.3203 24.5703C23.4297 24.6719 23.5156 24.8516 23.5156 24.9609C23.5156 25.1953 23.1328 25.625 22.9297 25.625C22.7422 25.625 22.3672 25.4141 22.3125 25.2734C22.1484 24.8438 22.4531 24.375 22.8906 24.375C23.0391 24.375 23.2031 24.4453 23.3203 24.5703ZM25.9375 34.1406V35.9375H20H14.0625V34.1406V32.3438H20H25.9375V34.1406ZM29.6719 36.9062C30.2813 37.1719 30.7813 37.9062 30.7813 38.5312V38.75H20H9.21876V38.4766C9.21876 38.1094 9.37501 37.75 9.68751 37.3906C9.98438 37.0547 10.2734 36.8906 10.7266 36.7969C10.9063 36.7656 15.1719 36.7422 20.1953 36.7422C28.9297 36.7578 29.3516 36.7656 29.6719 36.9062Z" fill="#1A237E"/>
<path d="M21.3672 2.63281C21.0391 2.71094 20.8984 3.16406 21.1328 3.35938C21.2109 3.42188 21.5234 3.46094 21.9766 3.46875C22.8516 3.48438 23.2656 3.64844 23.7813 4.17969C24.1172 4.51562 24.4531 5.20312 24.4531 5.53906C24.4531 5.71875 24.6953 5.9375 24.8984 5.9375C24.9844 5.9375 25.1172 5.86719 25.1953 5.78125C25.3281 5.63281 25.3359 5.57812 25.25 5.17188C24.9922 3.92969 24.125 3.00781 22.9297 2.70312C22.4922 2.58594 21.7109 2.55469 21.3672 2.63281Z" fill="#1A237E"/>
</g>
<defs>
<clipPath id="clip0_42_575">
<rect width="40" height="40" fill="white"/>
</clipPath>
</defs>
</svg>
