<svg width="40" height="40" viewBox="0 0 40 40" fill="none" xmlns="http://www.w3.org/2000/svg">
<path d="M7.92969 1.39844C7.28906 1.6875 6.84375 2.39062 6.84375 3.125C6.84375 3.85938 7.28906 4.5625 7.92969 4.85156C8.34375 5.04688 9.15625 5.04688 9.57031 4.85156C9.90625 4.70312 10.4219 4.1875 10.5078 3.91406C10.5547 3.75 10.5781 3.75 13.4062 3.75H16.25V5V6.25H8.90625C1.66406 6.25 1.5625 6.25 1.40625 6.40625C1.25 6.5625 1.25 6.66406 1.25 18.75C1.25 30.8359 1.25 30.9375 1.40625 31.0938C1.5625 31.25 1.66406 31.25 8.59375 31.25H15.625V33.125V35H12.3438C9.16406 35 9.05469 35.0078 8.90625 35.1562C8.75781 35.3047 8.75 35.4141 8.75 36.875C8.75 38.3359 8.75781 38.4453 8.90625 38.5938C9.0625 38.75 9.16406 38.75 20 38.75C30.8359 38.75 30.9375 38.75 31.0938 38.5938C31.2422 38.4453 31.25 38.3359 31.25 36.875C31.25 35.4141 31.2422 35.3047 31.0938 35.1562C30.9453 35.0078 30.8359 35 27.6562 35H24.375V33.125V31.25H31.4062C38.3359 31.25 38.4375 31.25 38.5938 31.0938C38.75 30.9375 38.75 30.8359 38.75 18.75C38.75 6.66406 38.75 6.5625 38.5938 6.40625C38.4375 6.25 38.3359 6.25 31.0938 6.25H23.75V5V3.75H26.5938C29.4219 3.75 29.4453 3.75 29.4922 3.91406C29.5781 4.1875 30.0938 4.70312 30.4297 4.85156C30.6328 4.94531 30.9219 5 31.25 5C31.875 5 32.2812 4.82812 32.6641 4.39844C32.9922 4.03125 33.1562 3.61719 33.1562 3.125C33.1562 2.63281 32.9922 2.21875 32.6641 1.85156C32.2812 1.42188 31.875 1.25 31.25 1.25C30.9219 1.25 30.6328 1.30469 30.4297 1.39844C30.0938 1.54688 29.5781 2.0625 29.4922 2.33594C29.4453 2.5 29.4297 2.5 26.125 2.5C22.9141 2.5 22.8047 2.50781 22.6562 2.65625C22.5078 2.80469 22.5 2.91406 22.5 4.53125V6.25H20H17.5V4.53125C17.5 2.91406 17.4922 2.80469 17.3438 2.65625C17.1953 2.50781 17.0859 2.5 13.875 2.5C10.5703 2.5 10.5547 2.5 10.5078 2.33594C10.4219 2.0625 9.90625 1.54688 9.57031 1.39844C9.36719 1.30469 9.07812 1.25 8.75 1.25C8.42188 1.25 8.13281 1.30469 7.92969 1.39844ZM9.14062 2.73438C9.22656 2.82031 9.29688 2.99219 9.29688 3.125C9.29688 3.25781 9.22656 3.42969 9.14062 3.51562C8.80469 3.85156 8.20312 3.60156 8.20312 3.125C8.20312 2.82812 8.45312 2.57812 8.75 2.57812C8.88281 2.57812 9.05469 2.64844 9.14062 2.73438ZM31.6406 2.73438C31.7266 2.82031 31.7969 2.99219 31.7969 3.125C31.7969 3.25781 31.7266 3.42969 31.6406 3.51562C31.5547 3.60156 31.3828 3.67188 31.25 3.67188C31.1172 3.67188 30.9453 3.60156 30.8594 3.51562C30.7734 3.42969 30.7031 3.25781 30.7031 3.125C30.7031 2.99219 30.7734 2.82031 30.8594 2.73438C30.9453 2.64844 31.1172 2.57812 31.25 2.57812C31.3828 2.57812 31.5547 2.64844 31.6406 2.73438ZM16.25 10.5312V13.5547L15.4609 14.3359C14.2812 15.5078 14.2422 15.6484 14.8828 16.3203C15.1172 16.5703 15.3125 16.7969 15.3125 16.8203C15.3125 16.8516 15.0312 16.875 14.6875 16.875C13.875 16.875 13.75 16.9766 13.75 17.6562V18.125H10.5938C7.44531 18.125 7.42969 18.125 7.38281 17.9609C7.29688 17.6875 6.78125 17.1719 6.44531 17.0234C6.03125 16.8281 5.21875 16.8281 4.80469 17.0234C3.67188 17.5391 3.35938 19.0859 4.21094 20.0234C4.59375 20.4531 5 20.625 5.625 20.625C5.95312 20.625 6.24219 20.5703 6.44531 20.4766C6.78125 20.3281 7.29688 19.8125 7.38281 19.5391C7.42969 19.375 7.44531 19.375 10.5938 19.375H13.75V19.8438C13.75 20.5234 13.875 20.625 14.6875 20.625C15.0312 20.625 15.3125 20.6484 15.3125 20.6797C15.3125 20.7031 15.1172 20.9297 14.8828 21.1797C14.2266 21.8594 14.2656 21.9844 15.5625 23.25C16.8203 24.4922 16.8906 24.5156 17.5703 23.8672C17.8203 23.6328 18.0469 23.4375 18.0703 23.4375C18.1016 23.4375 18.125 23.7188 18.125 24.0625C18.125 25.0234 18.0859 25 20 25C21.9141 25 21.875 25.0234 21.875 24.0625C21.875 23.7188 21.8984 23.4375 21.9297 23.4375C21.9531 23.4375 22.1797 23.6328 22.4297 23.8672C23.1094 24.5156 23.1797 24.4922 24.4375 23.25C25.7344 21.9844 25.7734 21.8594 25.1172 21.1797C24.8828 20.9297 24.6875 20.7031 24.6875 20.6797C24.6875 20.6484 24.9688 20.625 25.3125 20.625C26.125 20.625 26.25 20.5234 26.25 19.8438V19.375H29.4062C32.5547 19.375 32.5703 19.375 32.6172 19.5391C32.7031 19.8125 33.2188 20.3281 33.5547 20.4766C33.9688 20.6719 34.7812 20.6719 35.1953 20.4766C35.8359 20.1875 36.2812 19.4844 36.2812 18.75C36.2812 18.0156 35.8359 17.3125 35.1953 17.0234C34.7812 16.8281 33.9688 16.8281 33.5547 17.0234C33.2188 17.1719 32.7031 17.6875 32.6172 17.9609C32.5703 18.125 32.5547 18.125 29.4062 18.125H26.25V17.6562C26.25 16.9766 26.125 16.875 25.3125 16.875C24.9688 16.875 24.6875 16.8516 24.6875 16.8203C24.6875 16.7969 24.8828 16.5703 25.1172 16.3203C25.7578 15.6484 25.7188 15.5078 24.5391 14.3359L23.75 13.5547V10.5312V7.5H30.625H37.5V17.5V27.5H20H2.5V17.5V7.5H9.375H16.25V10.5312ZM22.5 10.5234V13.5469L22.25 13.8047C22.1094 13.9453 21.9688 14.0625 21.9375 14.0625C21.9062 14.0625 21.875 13.7812 21.875 13.4375C21.875 12.4766 21.9141 12.5 20 12.5C18.0859 12.5 18.125 12.4766 18.125 13.4375C18.125 13.7812 18.1016 14.0625 18.0703 14.0625C18.0391 14.0625 17.8984 13.9531 17.7578 13.8125L17.5 13.5625V10.5312V7.5H20H22.5V10.5234ZM20.625 14.3203C20.625 14.9922 20.6875 15.0781 21.3828 15.3594C22.0625 15.6406 22.2812 15.6094 22.7266 15.1953L23.0938 14.8516L23.5 15.2578L23.9062 15.6719L23.5547 16.0156C23.1328 16.4297 23.1172 16.6016 23.4062 17.3359C23.7031 18.0938 23.75 18.125 24.4297 18.125H25V18.75V19.375H24.4297C23.7578 19.375 23.6719 19.4375 23.3906 20.1328C23.1094 20.8125 23.1406 21.0312 23.5547 21.4688L23.8984 21.8359L23.5 22.2422L23.0938 22.6484L22.7266 22.3047C22.2812 21.8828 22.0859 21.8672 21.3828 22.1562C20.6875 22.4375 20.5469 22.625 20.5469 23.25V23.75H19.9609H19.375V23.1797C19.375 22.5078 19.3047 22.4062 18.5625 22.1094C17.8828 21.8359 17.7109 21.8594 17.2812 22.2891L16.9062 22.6562L16.5312 22.2734L16.1484 21.8828L16.4766 21.5156C16.7109 21.25 16.7969 21.0859 16.7969 20.8984C16.7969 20.5781 16.3047 19.4922 16.1328 19.4219C16.0625 19.3984 15.7734 19.375 15.5 19.375H15V18.75V18.125H15.5703C16.2422 18.125 16.3281 18.0625 16.6094 17.3672C16.8906 16.6875 16.8594 16.4688 16.4453 16.0312L16.1016 15.6641L16.5078 15.2578L16.9062 14.8438L17.2734 15.2031C17.7031 15.625 17.8984 15.6562 18.5625 15.3828C19.3047 15.0938 19.375 14.9922 19.375 14.3203V13.75H20H20.625V14.3203ZM6.01562 18.3594C6.10156 18.4453 6.17188 18.6172 6.17188 18.75C6.17188 18.8828 6.10156 19.0547 6.01562 19.1406C5.67969 19.4766 5.07812 19.2266 5.07812 18.75C5.07812 18.4531 5.32812 18.2031 5.625 18.2031C5.75781 18.2031 5.92969 18.2734 6.01562 18.3594ZM34.7656 18.3594C34.8516 18.4453 34.9219 18.6172 34.9219 18.75C34.9219 18.8828 34.8516 19.0547 34.7656 19.1406C34.6797 19.2266 34.5078 19.2969 34.375 19.2969C34.2422 19.2969 34.0703 19.2266 33.9844 19.1406C33.8984 19.0547 33.8281 18.8828 33.8281 18.75C33.8281 18.6172 33.8984 18.4453 33.9844 18.3594C34.0703 18.2734 34.2422 18.2031 34.375 18.2031C34.5078 18.2031 34.6797 18.2734 34.7656 18.3594ZM37.5 29.375V30H20H2.5V29.375V28.75H20H37.5V29.375ZM23.125 33.125V35H20H16.875V33.125V31.25H20H23.125V33.125ZM30 36.875V37.5H20H10V36.875V36.25H20H30V36.875Z" fill="#1A237E"/>
<path d="M3.90625 8.90625C3.80469 9.00781 3.75 9.16406 3.75 9.375C3.75 9.58594 3.80469 9.74219 3.90625 9.84375C4.05469 9.99219 4.16406 10 5.78125 10H7.5V12.6562C7.5 15.2109 7.50781 15.3203 7.65625 15.4688C7.80469 15.6172 7.91406 15.625 10 15.625C12.0859 15.625 12.1953 15.6172 12.3438 15.4688C12.4453 15.3672 12.5 15.2109 12.5 15C12.5 14.7891 12.4453 14.6328 12.3438 14.5312C12.1953 14.3828 12.0859 14.375 10.4688 14.375H8.75V11.7188C8.75 9.16406 8.74219 9.05469 8.59375 8.90625C8.44531 8.75781 8.33594 8.75 6.25 8.75C4.16406 8.75 4.05469 8.75781 3.90625 8.90625Z" fill="#1A237E"/>
<path d="M31.4062 8.90625C31.2578 9.05469 31.25 9.16406 31.25 11.7188V14.375H29.5312C27.9141 14.375 27.8047 14.3828 27.6562 14.5312C27.5547 14.6328 27.5 14.7891 27.5 15C27.5 15.2109 27.5547 15.3672 27.6562 15.4688C27.8047 15.6172 27.9141 15.625 30 15.625C32.0859 15.625 32.1953 15.6172 32.3438 15.4688C32.4922 15.3203 32.5 15.2109 32.5 12.6562V10H34.2188C35.8359 10 35.9453 9.99219 36.0938 9.84375C36.1953 9.74219 36.25 9.58594 36.25 9.375C36.25 9.16406 36.1953 9.00781 36.0938 8.90625C35.9453 8.75781 35.8359 8.75 33.75 8.75C31.6641 8.75 31.5547 8.75781 31.4062 8.90625Z" fill="#1A237E"/>
<path d="M19 16.414C18.4375 16.6328 17.875 17.2031 17.6563 17.789C17.4297 18.3984 17.4609 19.3984 17.7266 19.914C18.5 21.3984 20.6094 21.7265 21.7969 20.5469C22.2813 20.0547 22.5 19.5 22.5 18.75C22.5 17.2656 21.4688 16.2422 19.9766 16.2578C19.6094 16.2578 19.2734 16.3125 19 16.414ZM20.6094 17.7344C21.625 18.3515 21.1875 19.9219 20 19.9219C19.3359 19.9219 18.8281 19.414 18.8281 18.75C18.8281 18.3281 19.0391 17.9531 19.3906 17.7344C19.5469 17.6406 19.7891 17.5781 20 17.5781C20.2109 17.5781 20.4531 17.6406 20.6094 17.7344Z" fill="#1A237E"/>
</svg>
