<svg width="40" height="40" viewBox="0 0 40 40" fill="none" xmlns="http://www.w3.org/2000/svg">
<path d="M19.0703 3.17188C16.8437 3.77344 15.7344 6.24219 16.7578 8.32813C16.9297 8.67969 17.1719 9.01563 17.4219 9.25C17.6406 9.46094 17.8125 9.63281 17.7969 9.64844C17.7812 9.65625 17.5547 9.78125 17.2891 9.91406C15.9141 10.6406 14.875 11.9375 14.4453 13.4766C14.2891 14.0156 14.2656 14.2969 14.2656 15.4453C14.2578 16.6328 14.2734 16.8047 14.3984 16.9297C14.5312 17.0625 14.8516 17.0703 20 17.0703C25.1406 17.0703 25.4687 17.0625 25.6016 16.9297C25.8047 16.7266 25.8047 14.5234 25.6016 13.6484C25.2344 12.0938 24.1328 10.6641 22.7109 9.91406C22.4453 9.78125 22.2187 9.65625 22.2109 9.64844C22.1953 9.64063 22.375 9.44531 22.6094 9.20313C23.9766 7.79688 23.9609 5.50781 22.5781 4.13281C21.6562 3.21094 20.3047 2.83594 19.0703 3.17188ZM21.0469 4.41406C21.5156 4.63281 22.0078 5.125 22.2812 5.64063C22.4297 5.92188 22.4609 6.09375 22.4609 6.67969C22.4609 7.3125 22.4375 7.42188 22.2266 7.79688C21.8906 8.41406 21.3437 8.875 20.7266 9.0625C20.0937 9.25781 19.9062 9.25781 19.2734 9.0625C18.6562 8.875 18.1094 8.41406 17.7734 7.79688C17.5625 7.42188 17.5391 7.3125 17.5391 6.67969C17.5391 6.09375 17.5703 5.92188 17.7187 5.64063C18.0937 4.92969 18.7578 4.39844 19.4844 4.21094C19.8828 4.10938 20.6016 4.20313 21.0469 4.41406ZM21.125 10.5156C22.7109 10.9219 24.0781 12.2891 24.4844 13.875C24.5625 14.1641 24.6094 14.6797 24.6094 15.1484V15.9375H24.0703H23.5312L23.5 15.0313C23.4766 14.1953 23.4609 14.1172 23.2891 13.9766C23.0391 13.7734 22.7656 13.7891 22.5391 14.0234C22.3516 14.2031 22.3437 14.2656 22.3437 15.0781V15.9375H20H17.6562V15.0781C17.6562 14.2656 17.6484 14.2031 17.4609 14.0234C17.2344 13.7891 16.9609 13.7734 16.7109 13.9766C16.5391 14.1172 16.5234 14.1953 16.5 15.0313L16.4687 15.9375H15.9297H15.3906V15.1484C15.3906 14.6875 15.4375 14.1641 15.5156 13.8828C15.9297 12.2891 17.1797 11.0078 18.7891 10.5391C19.3906 10.3594 20.4922 10.3516 21.125 10.5156Z" fill="#1A237E"/>
<path d="M13.1406 12.5705C11.0938 13.7971 9.24219 15.8361 8.19531 18.008C7.98438 18.4377 7.8125 18.8283 7.8125 18.8752C7.8125 18.9221 8.07812 18.883 8.5 18.7658L9.1875 18.5705L9.42188 18.133C9.92188 17.1643 10.5938 16.2736 11.5234 15.3518C12.0391 14.8361 12.6641 14.2736 12.9062 14.1096C13.3047 13.8361 13.3594 13.7736 13.4453 13.4064C13.4922 13.1877 13.6094 12.8361 13.6953 12.633C13.7812 12.4299 13.8359 12.2424 13.8125 12.2268C13.7891 12.2033 13.4922 12.3596 13.1406 12.5705Z" fill="#1A237E"/>
<path d="M26.2891 12.5315C26.3516 12.6722 26.4531 13.0237 26.5234 13.305C26.6484 13.7893 26.6797 13.8284 27.0938 14.1097C27.3438 14.2737 27.9609 14.8362 28.4766 15.3518C29.4219 16.2893 30.1484 17.2503 30.6328 18.219C30.8203 18.594 30.8984 18.6722 31.0547 18.6722C31.1641 18.6722 31.4688 18.7425 31.7266 18.8284C31.9922 18.9222 32.2188 18.9768 32.2344 18.9612C32.25 18.9456 32.0391 18.4768 31.7578 17.9222C30.6797 15.7815 29.2188 14.1487 27.1953 12.805C26.2578 12.18 26.125 12.1409 26.2891 12.5315Z" fill="#1A237E"/>
<path d="M19.4141 18.9531C19.3281 18.9688 19.0625 19.0234 18.8281 19.0703C18.5938 19.1172 18.1016 19.2969 17.7422 19.4688C16.4297 20.0938 15.3359 21.4922 15.0391 22.9297C14.375 26.1172 16.75 29.0625 20 29.0625C23.2422 29.0625 25.625 26.1172 24.9609 22.9297C24.5859 21.1484 23.0781 19.5547 21.3359 19.1016C20.8359 18.9766 19.7031 18.8828 19.4141 18.9531ZM21.4063 20.3125C23.625 21.2734 24.5469 23.6016 23.5391 25.7031C22.7969 27.2422 21.0469 28.1797 19.4375 27.9062C17.6953 27.6094 16.3438 26.2422 16.0859 24.5156C15.8438 22.8906 16.7656 21.1953 18.2969 20.4531C18.9453 20.1328 19.2266 20.0781 20.1172 20.1016C20.8203 20.125 21.0547 20.1562 21.4063 20.3125Z" fill="#1A237E"/>
<path d="M21.5234 22.5078C21.4375 22.5547 20.9062 23.0547 20.3438 23.6094L19.3203 24.625L18.8672 24.1484C18.4922 23.75 18.3672 23.6719 18.1484 23.6719C17.8125 23.6719 17.5781 23.9062 17.5781 24.2344C17.5781 24.4453 17.6953 24.6016 18.3438 25.25C19.4297 26.3359 19.2969 26.3594 20.9922 24.6641C22.1641 23.5 22.3438 23.2812 22.3438 23.0703C22.3438 22.6328 21.8828 22.3125 21.5234 22.5078Z" fill="#1A237E"/>
<path d="M8.67969 19.7344C7.44531 20.0625 6.46094 21.0625 6.13281 22.3047C5.80469 23.5625 6.15625 24.9141 7.03906 25.7969C7.25781 26.0156 7.42188 26.1953 7.40625 26.2109C7.39063 26.2188 7.17188 26.3359 6.91406 26.4766C5.94531 26.9844 5.08594 27.8516 4.5625 28.8594C4.03906 29.8438 3.96875 30.1875 3.92969 31.8359C3.89063 33.2891 3.89063 33.3203 4.0625 33.4766C4.23438 33.6328 4.34375 33.6328 9.64844 33.6328C14.9531 33.6328 15.0625 33.6328 15.2344 33.4766C15.4063 33.3203 15.4063 33.2891 15.375 31.875C15.3281 30.2422 15.2109 29.7188 14.6484 28.6953C14.2344 27.9453 13.1094 26.8516 12.375 26.4766L11.8125 26.1875L12.2266 25.7813C13.5938 24.4297 13.625 22.2188 12.3047 20.7969C11.3594 19.7734 10 19.375 8.67969 19.7344ZM10.6719 20.9688C11.7109 21.4453 12.3203 22.5938 12.1016 23.6719C11.9375 24.4844 11.3906 25.1797 10.625 25.5313C8.80469 26.3828 6.65625 24.5625 7.21875 22.6406C7.66406 21.0938 9.25781 20.3203 10.6719 20.9688ZM10.7578 27.0625C12.8984 27.6328 14.2891 29.5156 14.2969 31.8516V32.5H13.7109H13.125V31.6406C13.125 30.6641 13.0313 30.4688 12.5625 30.4688C12.1016 30.4688 12.0313 30.6172 12.0313 31.6172V32.5H9.64844H7.26563V31.6563C7.26563 30.6406 7.1875 30.4688 6.71875 30.4688C6.25 30.4688 6.17188 30.6406 6.17188 31.6563V32.5H5.57813H4.97656L5.01563 31.5781C5.04688 30.8672 5.10156 30.5391 5.25781 30.0781C5.50781 29.375 6.05469 28.5547 6.59375 28.0781C7.03125 27.6875 7.88281 27.2344 8.47656 27.0703C8.99219 26.9297 10.25 26.9297 10.7578 27.0625Z" fill="#1A237E"/>
<path d="M29.4766 19.7268C27.8438 20.1721 26.7969 21.5393 26.7969 23.2346C26.7969 24.3205 27.1797 25.2502 27.9063 25.8987C28.0781 26.0549 28.2031 26.1955 28.1875 26.2033C28.1797 26.219 27.9453 26.344 27.6797 26.4768C26.6172 27.0393 25.7578 27.9377 25.2344 29.0237C24.8125 29.9065 24.6875 30.4846 24.6328 31.8518C24.5781 33.258 24.6328 33.469 25.0703 33.594C25.2578 33.6565 27.0781 33.6721 30.5938 33.6565C35.625 33.633 35.8516 33.6252 36.0078 33.4846C36.1641 33.344 36.1719 33.258 36.1719 32.133C36.1719 30.6799 36.0547 30.0783 35.5859 29.1018C35.0156 27.9299 34.1641 27.0315 33.0781 26.469L32.586 26.2112L33.0156 25.7658C34.3516 24.3674 34.375 22.2033 33.0625 20.7737C32.1875 19.8127 30.7344 19.3908 29.4766 19.7268ZM31.461 21.0158C32.3281 21.4455 32.8516 22.2737 32.8516 23.2424C32.8516 24.6174 31.7344 25.7346 30.3516 25.7346C29.3672 25.7346 28.5547 25.219 28.1172 24.3283C27.6406 23.3674 27.8281 22.2502 28.586 21.4924C29.3828 20.6955 30.4297 20.5158 31.461 21.0158ZM31.5235 27.0705C32.3438 27.2815 32.9531 27.6408 33.6328 28.3205C34.6016 29.2815 34.9453 30.1096 35.0469 31.6877L35.1016 32.5002H34.4609H33.8281V31.6565C33.8281 30.6408 33.75 30.469 33.2813 30.469C32.8125 30.469 32.7344 30.6408 32.7344 31.6565V32.5002H30.3906H28.0469V31.6408C28.0469 30.6643 27.9531 30.469 27.4844 30.469C27.0235 30.469 26.9531 30.6174 26.9531 31.6174V32.5002H26.3672H25.7813V31.758C25.7813 30.8049 25.8828 30.344 26.2656 29.5471C26.8125 28.3908 27.9219 27.4612 29.1797 27.1018C29.7735 26.9299 30.9063 26.9143 31.5235 27.0705Z" fill="#1A237E"/>
<path d="M12.5781 34.6641C12.5781 34.7501 13.4688 35.2969 14.1797 35.6485C17.2188 37.1563 21.0938 37.3985 24.3047 36.2813C25.4766 35.8751 27.4219 34.8672 27.4219 34.6641C27.4219 34.6329 26.9453 34.6094 26.3672 34.6094C25.4766 34.6094 25.2578 34.6329 25.0156 34.7579C24.5156 35.0157 23.1484 35.461 22.3594 35.6329C21.2578 35.8594 19.4375 35.9141 18.2969 35.7501C17.2188 35.5938 16.2578 35.3204 15.4297 34.9376C14.8203 34.6641 14.7812 34.6563 13.6953 34.6251C13.0781 34.6172 12.5781 34.6329 12.5781 34.6641Z" fill="#1A237E"/>
</svg>
