<svg width="50" height="51" viewBox="0 0 50 51" fill="none" xmlns="http://www.w3.org/2000/svg">
<g clip-path="url(#clip0_136_139)">
<g clip-path="url(#clip1_136_139)">
<g clip-path="url(#clip2_136_139)">
<path d="M15.4427 25.1815C12.6302 25.2683 10.3299 26.3784 8.54167 28.5121H5.05208C3.62847 28.5121 2.43056 28.1608 1.45833 27.4583C0.486111 26.7557 0 25.7279 0 24.3749C0 18.2516 1.07639 15.1899 3.22917 15.1899C3.33333 15.1899 3.71094 15.3721 4.36198 15.7363C5.01302 16.1006 5.85937 16.4692 6.90104 16.8422C7.94271 17.2151 8.97569 17.4016 10 17.4016C11.1632 17.4016 12.3177 17.2021 13.4635 16.8032C13.3767 17.445 13.3333 18.0174 13.3333 18.5205C13.3333 20.9316 14.0365 23.152 15.4427 25.1815ZM43.3333 41.7561C43.3333 43.8377 42.6997 45.4813 41.4323 46.6869C40.1649 47.8925 38.4809 48.4953 36.3802 48.4953H13.6198C11.5191 48.4953 9.83507 47.8925 8.56771 46.6869C7.30035 45.4813 6.66667 43.8377 6.66667 41.7561C6.66667 40.8368 6.69705 39.9391 6.75781 39.0631C6.81858 38.1871 6.9401 37.2417 7.1224 36.2269C7.30469 35.2122 7.53472 34.2711 7.8125 33.4038C8.09028 32.5365 8.46354 31.6908 8.93229 30.8669C9.40104 30.0429 9.93924 29.3404 10.5469 28.7592C11.1545 28.1781 11.8967 27.7141 12.7734 27.3672C13.6502 27.0203 14.6181 26.8468 15.6771 26.8468C15.8507 26.8468 16.224 27.0333 16.7969 27.4062C17.3698 27.7792 18.0035 28.1955 18.6979 28.6552C19.3924 29.1149 20.3212 29.5312 21.4844 29.9041C22.6476 30.2771 23.8194 30.4635 25 30.4635C26.1806 30.4635 27.3524 30.2771 28.5156 29.9041C29.6788 29.5312 30.6076 29.1149 31.3021 28.6552C31.9965 28.1955 32.6302 27.7792 33.2031 27.4062C33.776 27.0333 34.1493 26.8468 34.3229 26.8468C35.3819 26.8468 36.3498 27.0203 37.2266 27.3672C38.1033 27.7141 38.8455 28.1781 39.4531 28.7592C40.0608 29.3404 40.599 30.0429 41.0677 30.8669C41.5365 31.6908 41.9097 32.5365 42.1875 33.4038C42.4653 34.2711 42.6953 35.2122 42.8776 36.2269C43.0599 37.2417 43.1814 38.1871 43.2422 39.0631C43.303 39.9391 43.3333 40.8368 43.3333 41.7561ZM16.6667 8.52886C16.6667 10.3676 16.0156 11.9375 14.7135 13.2384C13.4115 14.5394 11.8403 15.1899 10 15.1899C8.15972 15.1899 6.58854 14.5394 5.28646 13.2384C3.98437 11.9375 3.33333 10.3676 3.33333 8.52886C3.33333 6.69013 3.98437 5.12027 5.28646 3.81928C6.58854 2.51829 8.15972 1.8678 10 1.8678C11.8403 1.8678 13.4115 2.51829 14.7135 3.81928C16.0156 5.12027 16.6667 6.69013 16.6667 8.52886ZM35 18.5205C35 21.2786 34.0234 23.6334 32.0703 25.5848C30.1172 27.5363 27.7604 28.5121 25 28.5121C22.2396 28.5121 19.8828 27.5363 17.9297 25.5848C15.9766 23.6334 15 21.2786 15 18.5205C15 15.7624 15.9766 13.4076 17.9297 11.4561C19.8828 9.50461 22.2396 8.52886 25 8.52886C27.7604 8.52886 30.1172 9.50461 32.0703 11.4561C34.0234 13.4076 35 15.7624 35 18.5205ZM50 24.3749C50 25.7279 49.5139 26.7557 48.5417 27.4583C47.5694 28.1608 46.3715 28.5121 44.9479 28.5121H41.4583C39.6701 26.3784 37.3698 25.2683 34.5573 25.1815C35.9635 23.152 36.6667 20.9316 36.6667 18.5205C36.6667 18.0174 36.6233 17.445 36.5365 16.8032C37.6823 17.2021 38.8368 17.4016 40 17.4016C41.0243 17.4016 42.0573 17.2151 43.099 16.8422C44.1406 16.4692 44.987 16.1006 45.638 15.7363C46.2891 15.3721 46.6667 15.1899 46.7708 15.1899C48.9236 15.1899 50 18.2516 50 24.3749ZM46.6667 8.52886C46.6667 10.3676 46.0156 11.9375 44.7135 13.2384C43.4115 14.5394 41.8403 15.1899 40 15.1899C38.1597 15.1899 36.5885 14.5394 35.2865 13.2384C33.9844 11.9375 33.3333 10.3676 33.3333 8.52886C33.3333 6.69013 33.9844 5.12027 35.2865 3.81928C36.5885 2.51829 38.1597 1.8678 40 1.8678C41.8403 1.8678 43.4115 2.51829 44.7135 3.81928C46.0156 5.12027 46.6667 6.69013 46.6667 8.52886Z" fill="#040E50"/>
</g>
</g>
</g>
<defs>
<clipPath id="clip0_136_139">
<rect width="50" height="50" fill="white" transform="translate(0 0.181641)"/>
</clipPath>
<clipPath id="clip1_136_139">
<rect y="0.181641" width="50" height="50" rx="8" fill="white"/>
</clipPath>
<clipPath id="clip2_136_139">
<rect width="50" height="46.6275" fill="white" transform="translate(0 1.8678)"/>
</clipPath>
</defs>
</svg>
