<svg width="15" height="9" viewBox="0 0 15 9" fill="none" xmlns="http://www.w3.org/2000/svg">
<g clip-path="url(#clip0_1_2)">
<path fill-rule="evenodd" clip-rule="evenodd" d="M6.98272 0.601997C5.59126 1.38006 4.65509 2.83435 4.65509 4.5C4.65509 6.16565 5.59127 7.61994 6.98272 8.398C6.29802 8.78087 5.50307 9 4.65517 9C2.08419 9 0 6.98528 0 4.5C0 2.01472 2.08419 0 4.65517 0C5.50307 0 6.29801 0.219128 6.98272 0.601997Z" fill="#160803"/>
<path d="M10.3448 9C12.9158 9 15 6.98528 15 4.5C15 2.01472 12.9158 0 10.3448 0C7.77382 0 5.68963 2.01472 5.68963 4.5C5.68963 6.98528 7.77382 9 10.3448 9Z" fill="#040E50"/>
</g>
<defs>
<clipPath id="clip0_1_2">
<rect width="15" height="9" fill="white"/>
</clipPath>
</defs>
</svg>
