<svg width="40" height="40" viewBox="0 0 40 40" fill="none" xmlns="http://www.w3.org/2000/svg">
<path d="M6.67188 0.945312C6.16406 1.09375 5.67969 1.5 5.42969 1.98438L5.19531 2.45312L5.17188 4.23438L5.14062 6.01562H3.99219C2.32812 6.01562 1.80469 6.24219 1.35156 7.17188L1.13281 7.61719V20.8594V34.1016L1.3125 34.4688C1.41406 34.6641 1.64844 34.9688 1.83594 35.1484C2.46094 35.7266 2.14844 35.7031 9.85938 35.7031H16.7188V37.2656C16.7188 38.7266 16.7266 38.8359 16.875 38.9844C17.0312 39.1406 17.1328 39.1406 22.0312 39.1406C26.9297 39.1406 27.0312 39.1406 27.1875 38.9844C27.3359 38.8359 27.3438 38.7266 27.3438 37.2656V35.7031H30.1406C33.3516 35.7031 33.5234 35.6797 34.1172 35.1328C34.7422 34.5625 34.7969 34.3672 34.8281 32.3281L34.8594 30.5625L36.125 30.5312C37.2422 30.5078 37.4219 30.4844 37.7031 30.3359C38.1406 30.1016 38.5078 29.7266 38.7031 29.2969L38.8672 28.9453V15.6953V2.45312L38.6328 1.98438C38.375 1.48438 37.8906 1.08594 37.3594 0.9375C36.9922 0.835938 7.02344 0.84375 6.67188 0.945312ZM37.1875 2.07031C37.3047 2.13281 37.4844 2.28125 37.5703 2.39062C37.7266 2.59375 37.7344 2.6875 37.7344 4.96875V7.34375H28.1328H18.5312L17.2969 6.09375C16.375 5.15625 15.9922 4.82031 15.7891 4.76562C15.4141 4.66406 10.6719 4.66406 10.2969 4.76562C10.1406 4.8125 9.92188 4.95312 9.8125 5.08594C9.61719 5.3125 9.60938 5.36719 9.60938 6.33594V7.34375H7.92188H6.24219L6.26562 5.01562C6.28906 2.4375 6.29688 2.42969 6.82031 2.10938C7.0625 1.95312 7.33594 1.95312 22.0156 1.95312C35.0547 1.95312 36.9922 1.96875 37.1875 2.07031ZM16.6172 7C17.25 7.67188 17.8672 8.26562 17.9844 8.32812C18.1641 8.42188 19.7344 8.4375 27.9688 8.4375H37.7344V18.625V28.8047L37.5703 29.0156C37.2109 29.4688 37.3984 29.4531 31.9766 29.4453H26.9922L27.4062 29.2578C27.7578 29.0938 27.8438 29.0156 27.9844 28.6953C28.1172 28.3984 28.1328 28.2734 28.0703 28.0469C28.0312 27.8906 26.7891 25.5938 25.3125 22.9375C22.7969 18.4062 22.6172 18.1016 22.3516 17.9922C22.1094 17.8906 22.0312 17.8828 21.7578 17.9766C21.4531 18.0859 21.4141 18.1406 20.0938 20.5078C16.1953 27.4922 15.9766 27.9062 15.9844 28.2812C15.9922 28.75 16.1953 29.0469 16.6797 29.2656L17.0703 29.4453H12.0703C7.25 29.4531 7.0625 29.4453 6.82031 29.2969C6.67969 29.2188 6.50781 29.0547 6.42969 28.9297C6.29688 28.7266 6.28906 28.2031 6.26562 18.5781L6.25 8.4375H8.15625H10.0625L10.3047 8.23438C10.6172 7.97656 10.7031 7.63281 10.7031 6.61719V5.78125H13.0781H15.4531L16.6172 7ZM5.17188 18.0312L5.19531 28.9531L5.42969 29.4219C5.6875 29.9219 6.17188 30.3203 6.70312 30.4688C6.89062 30.5156 9.03125 30.5469 12.6328 30.5469C18.2734 30.5469 18.2734 30.5469 18.3594 30.7109C18.4141 30.7969 18.4688 31.0625 18.4922 31.2969L18.5391 31.7188H18.1562C17.6094 31.7188 17.25 31.8438 16.9844 32.1172C16.7578 32.3516 16.7578 32.3516 16.7344 33.4844L16.7109 34.6094H9.91406C2.53906 34.6094 2.78125 34.625 2.4375 34.1797L2.26562 33.9609V20.8828C2.26562 8.71094 2.27344 7.78125 2.39844 7.57031C2.625 7.1875 2.89062 7.10938 4.07812 7.10938H5.15625L5.17188 18.0312ZM21.4844 21.5469V22.6953L21.1953 22.8516C20.6328 23.1562 20.2812 24.0078 20.4609 24.6641C20.6797 25.4766 21.2578 25.8828 22.1172 25.8438C22.5312 25.8203 22.7031 25.7734 22.9453 25.6016C23.8906 24.9453 23.8672 23.4844 22.8984 22.8906L22.5859 22.6953L22.5781 21.5312C22.5781 20.8906 22.5938 20.3828 22.6094 20.3984C22.6562 20.4453 26.9531 28.2031 26.9531 28.2344C26.9531 28.2578 26.8203 28.3125 26.6641 28.3672C25.5078 28.7422 24.5547 29.9688 24.4688 31.1797L24.4297 31.7188H22.0312H19.6328L19.5938 31.1719C19.5078 30.0469 18.7109 28.9375 17.6172 28.4219L17.1016 28.1875L17.25 27.9375C17.3281 27.8047 18.3047 26.0547 19.4141 24.0391C20.5234 22.0312 21.4453 20.3906 21.4609 20.3906C21.4766 20.3906 21.4844 20.9062 21.4844 21.5469ZM22.4141 23.9531C22.5078 24.0703 22.5781 24.2031 22.5781 24.2578C22.5781 24.4609 22.2578 24.7656 22.0391 24.7656C21.5781 24.7656 21.3594 24.3203 21.6406 23.9609C21.8672 23.6797 22.1953 23.6797 22.4141 23.9531ZM33.7344 32.2188C33.6953 34.7422 33.9062 34.6094 30.1016 34.6094H27.3516L27.3281 33.4844C27.3047 32.4062 27.2969 32.3438 27.1094 32.1406C26.8359 31.8516 26.4844 31.7188 25.9688 31.7188H25.5234L25.5703 31.2969C25.6562 30.4688 25.2188 30.5469 29.7734 30.5469H33.7656L33.7344 32.2188ZM26.25 35.4297V38.0469H22.0312H17.8125V35.4297V32.8125H22.0312H26.25V35.4297Z" fill="#1A237E"/>
<path d="M27.6172 3.32812C27.0312 3.63281 26.7656 4.11719 26.8125 4.78125C26.8672 5.57031 27.4531 6.09375 28.2656 6.09375C29 6.09375 29.4922 5.71875 29.6875 5.01562C29.8516 4.375 29.5312 3.64062 28.9609 3.36719C28.5547 3.17188 27.9531 3.15625 27.6172 3.32812ZM28.5625 4.49219C28.7734 4.8125 28.2578 5.17969 27.9844 4.90625C27.8516 4.77344 27.8672 4.5625 28.0156 4.41406C28.1797 4.25 28.4297 4.28906 28.5625 4.49219Z" fill="#1A237E"/>
<path d="M30.9297 3.42164C30 4.01539 30.0547 5.44508 31.0156 5.93727C31.3516 6.10914 31.9688 6.14039 32.3203 6.00758C33.0469 5.73414 33.3984 4.77321 33.0547 4.01539C32.8203 3.50758 32.4219 3.24977 31.8047 3.21852C31.3438 3.19508 31.25 3.21852 30.9297 3.42164ZM31.9844 4.42164C32.2422 4.67164 32.0859 4.99977 31.7031 4.99977C31.4063 4.99977 31.2734 4.74196 31.4453 4.48414C31.5859 4.26539 31.8047 4.24196 31.9844 4.42164Z" fill="#1A237E"/>
<path d="M34.5703 3.3125C34.0625 3.53906 33.75 4.04688 33.75 4.64844C33.75 5.07812 33.8594 5.36719 34.125 5.64844C34.4375 5.98438 34.7109 6.09375 35.2031 6.09375C36.0703 6.09375 36.6406 5.52344 36.6406 4.65625C36.6406 4.41406 36.5938 4.11719 36.5312 4C36.3828 3.71875 36.0234 3.39062 35.7578 3.28906C35.4531 3.17188 34.8516 3.1875 34.5703 3.3125ZM35.4531 4.39062C35.5078 4.44531 35.5469 4.55469 35.5469 4.64844C35.5469 4.74219 35.5078 4.85156 35.4531 4.90625C35.3984 4.96094 35.2891 5 35.1953 5C35.1016 5 34.9922 4.96094 34.9375 4.90625C34.8828 4.85156 34.8438 4.74219 34.8438 4.64844C34.8438 4.55469 34.8828 4.44531 34.9375 4.39062C34.9922 4.33594 35.1016 4.29688 35.1953 4.29688C35.2891 4.29688 35.3984 4.33594 35.4531 4.39062Z" fill="#1A237E"/>
<path d="M20.3281 12.2656C20 12.4688 19.8437 12.8359 19.8437 13.4375V13.9062H16.3281H12.8203L12.7187 13.5703C12.5781 13.1016 11.9453 12.4844 11.4609 12.3516C10.2656 12.0156 9.09373 12.6406 8.82811 13.7578C8.4453 15.3594 9.84373 16.6797 11.4375 16.2188C11.9375 16.0703 12.414 15.6875 12.6094 15.2734L12.7422 15H15.0625H17.375L16.7969 15.3516C14.7031 16.6484 13.0625 18.7422 12.375 20.9922L12.1797 21.6406H11.7031C11.0547 21.6406 10.7187 21.8125 10.5312 22.2422C10.3984 22.5469 10.3828 22.7344 10.4062 23.9453C10.4297 25.1719 10.4453 25.3203 10.5937 25.5234C10.914 25.9531 11.1562 26.0156 12.6172 26.0156C14.7109 26.0156 14.7656 25.9531 14.7656 23.7891C14.7656 22.5156 14.75 22.3594 14.6094 22.125C14.4297 21.8281 14.0469 21.6406 13.6328 21.6406C13.3672 21.6406 13.3594 21.6328 13.4062 21.4219C13.5703 20.7578 14.2187 19.4453 14.7578 18.7188C15.539 17.6484 16.6172 16.7031 17.7578 16.0938C18.3359 15.7812 19.5156 15.3125 19.7187 15.3125C19.7812 15.3125 19.8594 15.4609 19.914 15.6562C19.9687 15.875 20.0859 16.0703 20.2422 16.2031L20.4844 16.4062H22.0078C23.3047 16.4062 23.5625 16.3828 23.7578 16.2734C24.0078 16.125 24.2187 15.7422 24.2187 15.4453V15.25L24.6328 15.3672C25.2578 15.5391 26.8515 16.3516 27.4219 16.7891C28.789 17.8203 29.914 19.3281 30.5078 20.9062C30.7578 21.5781 30.7578 21.6406 30.4687 21.6406C30.0937 21.6406 29.7031 21.8438 29.5312 22.125C29.3906 22.3594 29.375 22.5156 29.375 23.8281C29.375 25.9766 29.414 26.0156 31.539 26.0156C32.9844 26.0156 33.2344 25.9531 33.5469 25.5234C33.6953 25.3281 33.7109 25.1719 33.7344 24.0312C33.7656 22.5938 33.7031 22.2422 33.3594 21.9141C33.1406 21.7031 33.0547 21.6797 32.5156 21.6562L31.914 21.625L31.6953 20.9531C30.9453 18.6016 29.289 16.5234 27.2031 15.3047L26.6797 15H29.039C31.3672 15 31.3984 15 31.4453 15.1641C31.5312 15.4219 32.0312 15.9297 32.3672 16.1094C33.0547 16.4531 34.039 16.3438 34.6406 15.8516C35.4765 15.1562 35.5469 13.6719 34.7812 12.8672C34.2422 12.2969 33.1953 12.0938 32.4375 12.4219C31.9453 12.6328 31.4765 13.1406 31.3359 13.5859L31.2422 13.9062H27.7344H24.2187V13.4375C24.2187 12.8359 24.0625 12.4688 23.7344 12.2656C23.5 12.125 23.3437 12.1094 22.0312 12.1094C20.7187 12.1094 20.5625 12.125 20.3281 12.2656ZM23.125 14.2969V15.3906H22.0312H20.9375V14.2969V13.2031H22.0312H23.125V14.2969ZM11.414 13.5781C11.7187 13.8516 11.8047 14.375 11.6015 14.7578C11.4687 15.0234 11.0937 15.2344 10.7656 15.2344C10.3515 15.2344 9.84373 14.7188 9.84373 14.2969C9.84373 14.2031 9.89842 14.0156 9.96092 13.875C10.2187 13.3359 10.9687 13.1797 11.414 13.5781ZM33.7422 13.4766C33.8672 13.5391 34.0234 13.7188 34.1015 13.875C34.5703 14.8672 33.3047 15.7031 32.5859 14.875C32.3906 14.6562 32.3437 14.5312 32.3437 14.25C32.3437 13.9453 32.3828 13.8516 32.6094 13.625C32.8281 13.4062 32.9375 13.3594 33.1953 13.3594C33.375 13.3594 33.625 13.4141 33.7422 13.4766ZM13.6719 23.8281V24.9219H12.5781H11.4844V23.8281V22.7344H12.5781H13.6719V23.8281ZM32.6015 23.4922C32.6328 23.9141 32.6562 24.4062 32.6562 24.5859V24.9219H31.5625H30.4687V24.6641C30.4687 24.5156 30.4453 24.0234 30.414 23.5703L30.3672 22.7344H31.4609H32.5547L32.6015 23.4922Z" fill="#1A237E"/>
</svg>
