<svg width="41" height="51" viewBox="0 0 61 61" fill="none" xmlns="http://www.w3.org/2000/svg">
<path d="M4.78005 0.368176C3.47893 0.860317 2.38881 1.89382 1.69722 3.27182C0.841534 4.96971 0.900143 3.5671 0.900143 24.1756C0.900143 44.784 0.841534 43.3814 1.69722 45.0793C2.40053 46.4819 3.50238 47.5031 4.8621 47.9953C5.44819 48.2044 5.89362 48.229 9.70319 48.229H13.8996L14.2044 47.9461C14.4388 47.7492 14.5326 47.5154 14.5794 47.1094C14.6381 46.605 14.6029 46.4942 14.2864 46.1251L13.9348 45.7068L9.78524 45.6453C5.72951 45.5838 5.63574 45.5838 5.21375 45.3008C4.61594 44.9194 4.08846 44.2427 3.72509 43.4307L3.42032 42.754L3.38516 30.9056L3.36171 19.0696H28.798H54.2342V25.2829V31.4962H53.7067C53.0737 31.4962 52.558 31.7054 52.0422 32.1606L51.6671 32.4928L50.6356 32.0622L49.6041 31.6315L49.5338 31.0287C49.4283 30.2043 49.1352 29.6014 48.5843 29.1093C47.9162 28.5064 47.3652 28.3834 45.4898 28.4449C43.9542 28.4818 43.8253 28.5064 43.2978 28.8263C42.571 29.2816 42.0436 30.2043 42.0436 31.041C42.0436 31.5577 42.0084 31.6438 41.7271 31.7669C41.5395 31.8407 41.0706 32.0499 40.6721 32.2467C39.9688 32.5789 39.9454 32.5789 39.7461 32.3451C39.1131 31.6069 37.601 31.287 36.675 31.6807C36.1592 31.9145 34.1431 33.9569 33.8383 34.5721C33.346 35.5933 33.4632 36.7744 34.1548 37.7341L34.5533 38.2878L34.1431 39.2844L33.7328 40.2932L33.1585 40.3671C32.3848 40.4778 31.8104 40.7731 31.3299 41.339C30.7907 41.9665 30.6734 42.471 30.6734 44.1935V45.6453H27.1569C23.2653 45.6453 23.1129 45.6699 22.7495 46.3958C22.5268 46.851 22.6089 47.4539 22.9254 47.8845L23.1481 48.1675L28.4463 48.229L33.7328 48.2906L34.1431 49.361L34.5651 50.4437L34.2369 50.8374C33.768 51.428 33.6039 51.9447 33.6039 52.7814C33.6039 53.8149 33.8383 54.2209 35.2684 55.685C36.3819 56.8292 36.5343 56.9523 37.1321 57.0876C37.9995 57.2845 38.7966 57.0999 39.5234 56.5216C40.0391 56.1033 40.0509 56.091 40.426 56.3002C40.6369 56.4109 41.0706 56.5955 41.3871 56.7185L41.9849 56.9277L42.0553 57.6167C42.1491 58.4902 42.6062 59.3269 43.2392 59.7698C43.708 60.0897 43.7901 60.102 45.5953 60.1389C47.7638 60.1881 48.2327 60.0651 48.8539 59.3392C49.3345 58.7609 49.5455 58.2072 49.5455 57.5551V57.0261L50.6122 56.5463L51.6789 56.0787L51.9836 56.3863C52.558 56.94 53.062 57.1368 53.8943 57.1368C54.5038 57.1368 54.7617 57.0753 55.1837 56.8169C55.7932 56.4355 57.5163 54.6146 57.7859 54.0609C58.2665 53.0766 58.1258 51.7848 57.4577 50.9604L57.0591 50.4806L57.4929 49.3487L57.9148 48.229H58.454C59.4856 48.2167 60.5171 47.4293 60.7984 46.4204C60.8804 46.1251 60.9156 45.2147 60.8922 44.0335C60.857 42.1388 60.857 42.1142 60.5171 41.5974C60.0716 40.933 59.3332 40.4778 58.5361 40.3917L57.9148 40.3302L57.4929 39.2844L57.0709 38.2385L57.4694 37.6972C57.95 37.0328 58.1493 36.3069 58.0672 35.5318C57.9852 34.8182 57.7976 34.4244 57.1764 33.6862L56.6958 33.1203V19.5986C56.6958 8.15633 56.6606 5.95399 56.5199 5.22808C56.1097 3.18569 54.9141 1.4755 53.3199 0.651157L52.429 0.18362L28.9269 0.159016C5.83501 0.134407 5.4013 0.134407 4.78005 0.368176ZM52.3236 3.07496C53.0269 3.49328 53.3902 3.94851 53.8474 4.98201L54.1756 5.72023L54.2108 11.0969L54.2459 16.4858H28.798H3.34999L3.38516 11.0354L3.42032 5.59719L3.76025 4.83437C4.12363 4.01003 4.8621 3.17339 5.5068 2.89041C5.82329 2.74276 9.50392 2.71815 28.798 2.70585H51.714L52.3236 3.07496ZM47.0839 32.1114C47.166 33.637 47.166 33.637 48.9008 34.203C49.3579 34.3506 50.1081 34.6951 50.577 34.9535C51.843 35.6671 52.2298 35.6302 53.1675 34.732L53.8943 34.043L54.7734 34.9535L55.6408 35.8517L55.0664 36.4791C54.0466 37.5742 54.0232 37.8325 54.75 39.3459C55.0313 39.9487 55.3829 40.8469 55.5236 41.3514C55.9104 42.6801 56.1097 42.8647 57.3756 42.9385L58.3954 43L58.4306 44.3165L58.4658 45.6453H57.5515C56.1331 45.6453 55.9456 45.8298 55.4533 47.54C55.336 47.9461 55.0196 48.7335 54.7382 49.2995C54.0232 50.7513 54.0466 50.9973 54.9492 51.9939L55.676 52.7691L54.8789 53.6426C54.4335 54.1101 53.9998 54.5039 53.906 54.5039C53.8122 54.5039 53.4254 54.1963 53.0503 53.8272C52.2063 52.9905 51.8547 52.9413 50.7763 53.5688C50.3895 53.8026 49.5103 54.1963 48.8422 54.43C47.2246 55.0083 47.1542 55.0944 47.0956 56.4847L47.0605 57.5921L45.8062 57.5551L44.5637 57.5182L44.5051 56.4478C44.4348 55.119 44.259 54.9099 43.0047 54.5162C42.5359 54.3685 41.6919 53.9994 41.141 53.7041C39.6992 52.9167 39.4179 52.9413 38.4801 53.8887L37.7534 54.6146L36.9094 53.7287C36.4405 53.2366 36.0655 52.7814 36.0655 52.7198C36.0655 52.6583 36.3585 52.2892 36.7219 51.9078C37.5776 51.0097 37.601 50.6528 36.9094 49.3364C36.6515 48.8319 36.2999 47.9338 36.1241 47.3432C35.6904 45.8914 35.5145 45.7314 34.2134 45.6453L33.1936 45.5838V44.2919V43L34.2017 42.9631C35.4911 42.9139 35.7021 42.7417 36.0655 41.4498C36.2061 40.9453 36.5578 40.0472 36.8391 39.4566C37.5541 37.9433 37.5424 37.6357 36.7102 36.6883C36.3585 36.2823 36.0655 35.9009 36.0655 35.8394C36.0655 35.7778 36.4288 35.3472 36.8743 34.892L37.6948 34.043L38.3981 34.732C39.4062 35.704 39.6054 35.7286 41.0589 34.9658C41.6919 34.6213 42.5945 34.2276 43.0516 34.0922C44.2238 33.7354 44.4348 33.4648 44.4817 32.259C44.5051 31.7423 44.5403 31.2378 44.5637 31.1517C44.6106 31.041 44.9271 31.0041 45.818 31.0287L47.0253 31.0656L47.0839 32.1114Z" fill="#1A237E"/>
<path d="M10.383 5.69585C9.11701 6.26181 8.31993 7.22149 7.98 8.59949C7.52285 10.5188 8.40198 12.5366 10.1016 13.4225C10.6057 13.6809 10.8518 13.7178 11.8599 13.7178C12.8445 13.7178 13.1259 13.6686 13.5713 13.4348C14.4387 12.9919 15.0365 12.3644 15.4585 11.4662C15.8101 10.728 15.8453 10.5435 15.8453 9.59608C15.8336 8.78404 15.775 8.41494 15.5757 7.9474C15.1772 7.02463 14.5911 6.36024 13.7706 5.90501C13.1259 5.5359 12.9031 5.48669 12.0357 5.44978C11.1918 5.41287 10.9339 5.44978 10.383 5.69585ZM12.6335 8.2796C12.8563 8.42724 13.1259 8.77174 13.2548 9.03012C13.5244 9.62069 13.3837 10.2236 12.8563 10.7649C12.5398 11.0848 12.3991 11.134 11.8599 11.134C11.3207 11.134 11.18 11.0848 10.8753 10.7772C10.4416 10.3343 10.254 9.73142 10.3947 9.21467C10.5236 8.74713 10.6994 8.51337 11.1566 8.21808C11.6255 7.92279 12.1529 7.9351 12.6335 8.2796Z" fill="#1A237E"/>
<path d="M20.8272 5.62149C19.7723 6.0029 19.0572 6.6919 18.4711 7.87304C18.2367 8.34058 18.2015 8.61126 18.1898 9.59554C18.1898 11.0105 18.436 11.6502 19.362 12.6222C20.206 13.5081 21.0265 13.8157 22.351 13.7541C23.5232 13.6926 24.2383 13.3727 25.0236 12.5361C27.4969 9.90313 25.6683 5.38772 22.1401 5.41233C21.7064 5.42463 21.1203 5.51076 20.8272 5.62149ZM22.8316 8.18063C23.5936 8.59895 23.8983 9.84161 23.3943 10.506C22.6558 11.4903 21.2726 11.3673 20.7803 10.2845C20.5459 9.76779 20.5459 9.43559 20.7569 9.00497C21.2023 8.10681 22.058 7.76231 22.8316 8.18063Z" fill="#1A237E"/>
<path d="M34.8114 5.58527C33.6979 5.95438 32.7249 6.92636 32.303 8.1075C31.9748 9.04257 32.0216 10.6174 32.4202 11.4418C32.7836 12.1923 33.5337 12.992 34.2488 13.3857L34.8349 13.7179L41.0474 13.7548C47.9633 13.7917 47.8929 13.8041 48.983 12.9674C50.1083 12.0939 50.7648 10.3837 50.5069 8.95645C50.249 7.50463 49.4636 6.39731 48.2563 5.79443L47.6116 5.47454L41.4577 5.44993C36.64 5.43763 35.1982 5.46224 34.8114 5.58527ZM47.2013 8.18132C48.3266 8.7842 48.3266 10.4083 47.2013 11.0111C46.92 11.1711 45.9823 11.1957 41.2818 11.1957C35.1279 11.1957 35.2334 11.208 34.7763 10.4206C34.3191 9.63314 34.6239 8.52582 35.3975 8.18132C35.9719 7.91064 46.709 7.91064 47.2013 8.18132Z" fill="#1A237E"/>
<path d="M44.2708 36.8476C42.9814 37.1552 41.6452 37.9303 40.6957 38.9392C37.648 42.1258 37.8708 47.3056 41.188 50.2093C41.9265 50.8614 43.4386 51.6242 44.3646 51.8087C45.361 52.0056 47.1778 51.8949 48.1507 51.5627C50.1669 50.8983 51.9486 49.0404 52.6753 46.875C53.0739 45.6569 53.1794 43.7376 52.8981 42.5688C52.2768 39.985 50.4248 37.8688 48.0804 37.0814C46.8965 36.6876 45.3492 36.5892 44.2708 36.8476ZM46.6269 39.3698C48.139 39.6651 49.405 40.6863 50.0966 42.175C50.5185 43.0609 50.542 43.1716 50.542 44.2789C50.5303 45.9399 50.2489 46.6535 49.1471 47.8101C48.0452 48.9666 47.3654 49.2619 45.7947 49.2742C44.7866 49.2742 44.6108 49.2373 43.8957 48.8805C41.8913 47.8839 40.7309 45.6816 41.0942 43.5776C41.4693 41.4737 42.8408 39.9358 44.7983 39.419C45.5485 39.2222 45.8533 39.2222 46.6269 39.3698Z" fill="#1A237E"/>
<path d="M19.1275 26.2425C18.8462 26.4886 18.6938 27.0423 17.6037 31.8653C16.9238 34.8058 16.3729 37.4019 16.3729 37.6233C16.3729 38.8414 18.2953 39.2228 18.7173 38.0909C18.7759 37.9309 19.3503 35.4579 20.0067 32.5912C21.2843 26.993 21.3078 26.7347 20.7686 26.2302C20.3466 25.8611 19.5495 25.8611 19.1275 26.2425Z" fill="#1A237E"/>
<path d="M11.7312 26.932C11.403 27.0796 8.23816 30.7092 7.80445 31.4351C7.48796 31.9764 7.49968 32.9607 7.83962 33.4159C8.51948 34.3264 11.2624 37.4884 11.5437 37.673C12.0595 38.0298 12.5869 37.956 13.0441 37.4761C13.4778 37.0209 13.5598 36.5164 13.302 36.012C13.2316 35.8644 12.54 35.0154 11.7781 34.1172C11.0162 33.2314 10.395 32.444 10.395 32.3824C10.395 32.3209 11.0045 31.5581 11.7547 30.6846C13.2902 28.8759 13.513 28.5068 13.3957 27.9039C13.2668 27.1411 12.3994 26.6367 11.7312 26.932Z" fill="#1A237E"/>
<path d="M24.8597 26.9316C24.4377 27.1284 24.1095 27.6698 24.1095 28.1865C24.1095 28.691 24.0509 28.6171 26.489 31.4839C26.8524 31.9268 27.1571 32.3328 27.1571 32.382C27.1571 32.4312 26.5359 33.2064 25.774 34.1045C25.0003 35.0027 24.3205 35.8639 24.2501 36.0116C23.6875 37.1066 24.9183 38.3493 25.9381 37.7341C26.2311 37.5618 29.4429 33.8092 29.7476 33.2802C30.0055 32.8619 30.0407 31.9391 29.818 31.5454C29.6656 31.2501 26.6648 27.6821 26.1842 27.2145C25.8677 26.9069 25.2348 26.7716 24.8597 26.9316Z" fill="#1A237E"/>
<path d="M18.0843 45.8293C17.592 46.1 17.4396 46.383 17.4279 46.9736C17.4279 47.7364 17.8967 48.2285 18.6469 48.2285C19.3737 48.2285 19.7722 47.8594 19.8543 47.1089C19.9129 46.6167 19.8777 46.4937 19.5847 46.1492C19.1744 45.6694 18.5766 45.5463 18.0843 45.8293Z" fill="#1A237E"/>
</svg>
