<svg width="24" height="24" viewBox="0 0 24 24" fill="none" xmlns="http://www.w3.org/2000/svg">
<g clip-path="url(#clip0_6_28)">
<path d="M9.35158 0.0890648C8.39064 0.370315 7.63126 1.14375 7.38283 2.09531C7.34064 2.25469 7.31251 2.57344 7.31251 2.86875V3.375H4.84689C2.1047 3.375 2.1047 3.375 1.48126 3.68906C1.03126 3.91875 0.539077 4.40625 0.309389 4.86563C-0.0187359 5.51719 1.41332e-05 5.09063 1.41332e-05 11.8031C1.41332e-05 18.5344 -0.0187359 18.1078 0.314077 18.7688C0.534389 19.2047 1.02658 19.7016 1.47658 19.9313C2.10939 20.2594 1.98751 20.25 5.90158 20.25H9.42189V19.3125V18.3797L6.01408 18.3656C2.78439 18.3516 2.5922 18.3469 2.43751 18.2625C2.20783 18.1406 2.11408 18.0516 1.99689 17.8359C1.89845 17.6484 1.89845 17.6438 1.88439 13.3219L1.87033 9H6.46876H11.0625V9.9375V10.875H12H12.9375V9.9375V9H17.5313H22.125V9.96094V10.9219H23.0625H24V8.33907C24 5.47031 24 5.48438 23.686 4.85625C23.461 4.40625 22.9688 3.91406 22.5188 3.68906C21.8953 3.375 21.8953 3.375 19.1531 3.375H16.6875V2.87813C16.6875 2.29688 16.6078 1.95 16.3735 1.48125C16.1485 1.03125 15.6563 0.539065 15.2063 0.314065C14.5828 2.24709e-06 14.5688 2.24709e-06 11.9719 0.00468975C9.89064 0.00468975 9.60001 0.0140647 9.35158 0.0890648ZM14.2735 1.99688C14.6297 2.18906 14.761 2.43281 14.7985 2.98125L14.8266 3.375H12H9.17345L9.20158 2.98125C9.24845 2.32969 9.46876 2.025 9.98439 1.91719C10.0735 1.89844 11.0344 1.88438 12.1172 1.88906C14.0344 1.89844 14.0906 1.90313 14.2735 1.99688ZM21.586 5.37188C21.9891 5.5875 22.0875 5.8125 22.1156 6.54844L22.1391 7.125H12H1.86095L1.88439 6.54844C1.9172 5.70938 2.1047 5.40938 2.67189 5.29219C2.76095 5.27344 7.01251 5.26406 12.1172 5.26875L21.3985 5.27344L21.586 5.37188Z" fill="#040F51"/>
<path d="M16.3125 10.9453C15.0141 11.1844 13.8422 11.775 12.9047 12.6703C12.3328 13.2188 11.9297 13.7625 11.5781 14.4469C11.0812 15.4313 10.875 16.2984 10.875 17.4375C10.875 18.5766 11.0812 19.4438 11.5781 20.4281C12.525 22.2844 14.2734 23.5688 16.3547 23.9297C16.875 24.0234 18.0094 24.0188 18.5437 23.9297C19.1766 23.8219 19.8234 23.6016 20.4281 23.2969C22.2844 22.35 23.5687 20.6016 23.9297 18.5203C24.0187 18.0094 24.0187 16.8656 23.9297 16.3547C23.7703 15.4313 23.4094 14.5219 22.8937 13.7438C22.5562 13.2422 21.8953 12.5484 21.3797 12.1594C20.6062 11.5781 19.5187 11.1141 18.5437 10.9453C18.0281 10.8563 16.8047 10.8563 16.3125 10.9453ZM17.9766 12.8156C18.6187 12.8672 19.4437 13.1719 20.0672 13.5984C20.4516 13.8563 21.0187 14.4234 21.2766 14.8078C21.5437 15.1969 21.8109 15.7734 21.9469 16.2422C22.0406 16.5703 22.0547 16.7203 22.0547 17.4375C22.0547 18.3984 21.9891 18.7031 21.6094 19.4766C20.9062 20.925 19.4297 21.9469 17.8594 22.0688C16.6687 22.1672 15.5672 21.8484 14.6391 21.1453C13.8094 20.5219 13.2281 19.6594 12.9281 18.6328C12.8344 18.3047 12.8203 18.1547 12.8203 17.4375C12.8203 16.7203 12.8344 16.5703 12.9281 16.2422C13.1625 15.4313 13.5703 14.7375 14.1516 14.1516C14.7422 13.5656 15.4547 13.1531 16.2375 12.9375C16.5937 12.8391 17.2922 12.7547 17.5312 12.7781C17.5969 12.7875 17.7984 12.8016 17.9766 12.8156Z" fill="#040F51"/>
<path d="M16.5 16.5V18.375H18.375H20.25V17.4375V16.5H19.3125H18.375V15.5625V14.625H17.4375H16.5V16.5Z" fill="#040F51"/>
</g>
<defs>
<clipPath id="clip0_6_28">
<rect width="24" height="24" fill="white"/>
</clipPath>
</defs>
</svg>
