<svg width="318" height="318" viewBox="0 0 318 318" fill="none" xmlns="http://www.w3.org/2000/svg">
<g clip-path="url(#clip0_11_854)">
<path d="M125.154 0L125.439 1.32599C53.5336 17.0988 1.34319 82.6417 1.34319 157.174C1.33858 166.74 2.18496 176.334 3.85473 185.681L2.52996 185.918C0.851002 176.487 -0.00458963 166.814 1.85154e-05 157.169C1.85154e-05 120.222 12.6911 84.1353 35.7412 55.5629C58.4739 27.3952 90.2224 7.66306 125.154 0ZM230.128 13.2975C284.329 40.7672 318 95.8974 318 157.174C318 170.611 316.358 183.96 313.124 196.852L311.822 196.517C315.028 183.732 316.657 170.499 316.657 157.174C316.657 96.4138 283.271 41.7489 229.526 14.5118L230.128 13.2975ZM55.8841 277.81C84.4955 302.855 121.12 316.646 159 316.646C193.426 316.641 226.135 305.619 253.583 284.77L254.393 285.859C226.706 306.88 193.72 317.995 159 318C120.793 318 83.8607 304.093 55.0056 278.838L55.8841 277.81Z" fill="#040E50"/>
</g>
<defs>
<clipPath id="clip0_11_854">
<rect width="318" height="318" fill="white"/>
</clipPath>
</defs>
</svg>
