<svg width="52" height="54" viewBox="0 0 52 54" fill="none" xmlns="http://www.w3.org/2000/svg">
<rect y="0.751831" width="51.7253" height="52.8259" rx="14.307" fill="#253073"/>
<g clip-path="url(#clip0_1_281)">
<path d="M25.4688 12.3417C25.4688 14.1479 25.5219 14.3339 26 14.3339C26.4781 14.3339 26.5312 14.1479 26.5312 12.3417C26.5312 10.5354 26.4781 10.3495 26 10.3495C25.5219 10.3495 25.4688 10.5354 25.4688 12.3417Z" fill="white"/>
<path d="M20.6875 13.5635C20.6875 14.3073 21.1656 15.1307 21.6172 15.1307C22.2016 15.1307 22.3609 14.626 22.0156 13.776C21.6172 12.8729 20.6875 12.687 20.6875 13.5635Z" fill="white"/>
<path d="M30.0378 13.6698C29.5862 14.6526 29.6393 15.1307 30.2503 15.1307C30.8081 15.1307 31.3128 14.4135 31.3128 13.5635C31.3128 12.7667 30.4097 12.8464 30.0378 13.6698Z" fill="white"/>
<path d="M14.9239 15.0245C14.738 15.5292 16.863 17.787 17.5536 17.787C18.3505 17.787 18.0849 16.937 16.9161 15.7417C15.7208 14.5198 15.1895 14.3339 14.9239 15.0245Z" fill="white"/>
<path d="M35.0839 15.7417C33.9151 16.937 33.6495 17.787 34.4464 17.787C35.137 17.787 37.262 15.5292 37.0761 15.0245C36.8104 14.3339 36.2792 14.5198 35.0839 15.7417Z" fill="white"/>
<path d="M22.6538 15.8745C20.7944 16.5386 19.8381 17.2026 19.9444 17.7339C20.0772 18.2917 20.4491 18.2651 22.4147 17.4151C25.3897 16.1401 29.2678 16.6448 31.7116 18.5839C34.1819 20.5495 35.4303 23.1526 35.4303 26.3136C35.4038 29.0229 34.4209 31.0948 32.0038 33.4057C31.0475 34.3089 30.1975 35.3448 30.0913 35.7167C29.9584 36.2479 29.7459 36.3542 28.8428 36.4339C27.9397 36.487 27.7272 36.6198 27.7272 37.0448C27.7272 37.4698 27.9397 37.6026 28.7366 37.6557L29.7194 37.7354V39.1432C29.7194 39.887 29.5866 40.6573 29.4006 40.8432C28.9491 41.2948 23.0522 41.2948 22.6006 40.8432C22.4147 40.6573 22.2819 39.887 22.2819 39.1167V37.7089H24.5131C26.7444 37.7089 27.1428 37.5229 26.8772 36.6995C26.7975 36.487 26.0538 36.3807 24.4069 36.3807C22.1491 36.3807 22.0694 36.3542 21.91 35.7167C21.8303 35.3714 20.9272 34.2823 19.9178 33.2995C17.4475 30.9354 16.5975 29.1026 16.5975 26.1542C16.5975 24.4011 16.7038 23.7635 17.3147 22.462C17.7131 21.612 18.4038 20.4964 18.8288 19.9917C19.7319 18.9823 19.7584 18.5042 18.9084 18.3714C18.51 18.3182 18.085 18.6636 17.3944 19.5932C16.1991 21.2401 15.7741 22.2495 15.4022 24.3479C14.7381 27.8807 15.9334 31.1745 18.9084 34.2026L20.8209 36.1151L20.9006 38.5854L21.0069 41.0292L22.3616 42.3839C24.0616 44.0573 24.5928 44.3495 26.0006 44.3495C27.3819 44.3495 27.9397 44.0573 29.6397 42.3839L31.0475 41.0292V38.9839C31.0475 37.8682 31.1538 36.6729 31.2866 36.3276C31.4194 35.9823 32.2959 34.9464 33.2522 34.0167C36.1741 31.2011 37.2897 27.6948 36.5194 23.8964C35.7756 20.3901 33.8366 17.9464 30.5163 16.3792C28.285 15.3167 24.8319 15.1042 22.6538 15.8745ZM27.86 42.3573C27.86 42.4104 27.4881 42.676 27.0366 42.9151C26.16 43.3667 25.3897 43.287 24.5397 42.6495C24.0616 42.2776 24.1678 42.251 25.9475 42.2245C26.9834 42.2245 27.86 42.2776 27.86 42.3573Z" fill="white"/>
<path d="M24.4053 20.0448C24.246 20.4432 24.1397 20.8417 24.1397 20.9745C24.1397 21.5057 23.5022 21.5323 22.6522 21.0807L21.7491 20.6026L20.8194 21.5057C19.81 22.4885 19.6772 22.9667 20.2881 23.6307C20.846 24.2682 20.5272 24.9057 19.5178 25.1714C18.721 25.3839 18.6944 25.4635 18.6147 26.8979L18.535 28.3854L19.4647 28.5448C20.6069 28.7573 20.7928 29.2354 20.2085 30.2448C19.7569 31.0417 19.7569 31.0417 20.6866 31.9979C21.6694 33.0073 22.1475 33.1401 22.8116 32.5292C23.4491 31.9448 24.0866 32.2901 24.2991 33.3526L24.4585 34.2557H25.9991H27.5397L27.6991 33.3526C27.9116 32.2901 28.5491 31.9448 29.1866 32.5292C29.8506 33.1401 30.3288 33.0073 31.3116 31.9979C32.2413 31.0417 32.2413 31.0417 31.7897 30.2448C31.2053 29.2354 31.3913 28.7573 32.5335 28.5448L33.4631 28.3854L33.3835 26.8979C33.3038 25.4635 33.2772 25.3839 32.4803 25.1714C31.471 24.9057 31.1522 24.2682 31.71 23.6307C32.321 22.9667 32.1881 22.4885 31.1788 21.5057L30.2491 20.6026L29.3194 21.0807C28.2835 21.6385 28.1241 21.5854 27.6991 20.3635C27.4335 19.5667 27.3272 19.5135 26.0522 19.4339C24.7772 19.3542 24.6444 19.4073 24.4053 20.0448ZM26.5303 21.3729C26.5303 21.9307 26.7694 22.1698 27.646 22.5682C28.6819 23.0198 28.8413 23.0464 29.4256 22.6745C30.2491 22.1167 30.5944 22.5151 30.2225 23.4979C29.771 24.6667 30.4881 26.287 31.4178 26.287C32.4538 26.287 32.3475 27.2432 31.3381 27.4292C30.6741 27.562 30.4881 27.801 30.2225 28.7042C29.9569 29.5807 29.9569 29.8995 30.2225 30.3245C30.6741 31.0682 30.2756 31.387 29.3194 31.0417C28.1506 30.6167 26.5303 31.3339 26.5303 32.2635C26.5303 32.7417 26.3975 32.9276 25.9991 32.9276C25.6006 32.9276 25.4678 32.7417 25.4678 32.2635C25.4678 31.3339 23.8475 30.6167 22.6788 31.0417C21.7225 31.387 21.3241 31.0682 21.7756 30.3245C22.0413 29.8995 22.0413 29.5807 21.7756 28.7042C21.51 27.801 21.3241 27.562 20.66 27.4292C19.6506 27.2432 19.5444 26.287 20.5803 26.287C21.51 26.287 22.2272 24.6667 21.7756 23.4979C21.4038 22.5151 21.7491 22.1167 22.5725 22.6745C23.1569 23.0464 23.3163 23.0198 24.3522 22.5682C25.2288 22.1698 25.4678 21.9307 25.4678 21.3729C25.4678 20.8948 25.6006 20.7089 25.9991 20.7089C26.3975 20.7089 26.5303 20.8948 26.5303 21.3729Z" fill="white"/>
<path d="M24.0069 24.2158C22.3866 25.4908 22.2007 27.7752 23.6351 29.2096C25.0163 30.5643 26.9819 30.5643 28.3632 29.2096C29.7975 27.7752 29.6116 25.4908 27.9913 24.2158C26.9819 23.4189 25.0163 23.4189 24.0069 24.2158ZM27.3538 25.4643C28.2038 26.3143 28.2835 26.7127 27.8319 27.7221C27.1413 29.183 24.8569 29.183 24.1663 27.7221C23.7147 26.7127 23.7944 26.3143 24.6444 25.4643C25.6272 24.4814 26.371 24.4814 27.3538 25.4643Z" fill="white"/>
<path d="M13.25 20.9467C13.25 21.478 14.6313 22.1951 15.0828 21.903C15.8531 21.4248 14.9766 20.442 13.8078 20.442C13.4359 20.442 13.25 20.6014 13.25 20.9467Z" fill="white"/>
<path d="M37.1038 20.7342C36.5725 21.0264 36.4663 21.6373 36.9178 21.903C37.3694 22.1951 38.7506 21.478 38.7506 20.9467C38.7506 20.3889 37.8741 20.2826 37.1038 20.7342Z" fill="white"/>
<path d="M10.5938 25.7557C10.5938 26.2339 10.7797 26.287 12.5859 26.287C14.3922 26.287 14.5781 26.2339 14.5781 25.7557C14.5781 25.2776 14.3922 25.2245 12.5859 25.2245C10.7797 25.2245 10.5938 25.2776 10.5938 25.7557Z" fill="white"/>
<path d="M37.4219 25.7557C37.4219 26.2339 37.6078 26.287 39.4141 26.287C41.2203 26.287 41.4062 26.2339 41.4062 25.7557C41.4062 25.2776 41.2203 25.2245 39.4141 25.2245C37.6078 25.2245 37.4219 25.2776 37.4219 25.7557Z" fill="white"/>
</g>
<defs>
<clipPath id="clip0_1_281">
<rect width="34" height="34" fill="white" transform="translate(9 10.3495)"/>
</clipPath>
</defs>
</svg>
