<svg width="52" height="53" viewBox="0 0 52 53" fill="none" xmlns="http://www.w3.org/2000/svg">
<rect y="0.0123291" width="51.7253" height="52.8259" rx="14.307" fill="#253073"/>
<g clip-path="url(#clip0_1_323)">
<path d="M26.0156 10.2877C26.0156 11.5713 26.0641 11.7408 26.5 11.7408C26.9359 11.7408 26.9844 11.5713 26.9844 10.2877C26.9844 9.00413 26.9359 8.83459 26.5 8.83459C26.0641 8.83459 26.0156 9.00413 26.0156 10.2877Z" fill="white"/>
<path d="M21.1719 11.208C21.1719 11.7651 22.625 13.194 23.182 13.194C23.8602 13.194 23.6664 12.3948 22.7945 11.5471C21.8984 10.6752 21.1719 10.5299 21.1719 11.208Z" fill="white"/>
<path d="M30.1803 11.5713C29.3084 12.4674 29.1631 13.194 29.8412 13.194C30.3982 13.194 31.8271 11.7408 31.8271 11.1838C31.8271 10.5057 31.0279 10.6994 30.1803 11.5713Z" fill="white"/>
<path d="M24.0781 13.5815C22.5039 14.2596 20.9297 16.2698 20.9297 17.5776C20.9297 18.0135 20.8328 18.0619 20.2758 17.9408C19.8883 17.8682 18.3867 17.7229 16.8852 17.626C13.7367 17.4565 13.4219 17.5776 13.4219 19.0307C13.4219 19.6604 13.325 19.9752 13.0828 19.9752C12.9133 19.9752 12.4773 20.2658 12.1141 20.6049L11.4844 21.2588V29.1783V37.0979L12.1141 37.7518L12.768 38.3815H26.5H40.232L40.8859 37.7518L41.5156 37.0979V29.1783V21.2588L40.8859 20.6049C40.5227 20.2658 40.0867 19.9752 39.9172 19.9752C39.675 19.9752 39.5781 19.6604 39.5781 19.0307C39.5781 17.5776 39.2633 17.4565 36.1148 17.626C34.6133 17.7229 33.1359 17.8682 32.7969 17.9408C32.2398 18.0619 32.143 17.9651 31.9008 17.0205C31.5375 15.6643 30.3992 14.3323 29.0914 13.7026C27.832 13.0971 25.3617 13.0244 24.0781 13.5815ZM28.3891 14.744C29.9391 15.5674 30.9078 17.1174 30.9078 18.7885C30.9078 20.0963 30.0602 21.8401 29.0914 22.4698C28.5102 22.833 28.1227 23.608 27.8562 24.8432C27.7836 25.2065 27.5656 25.5455 27.3719 25.6182C27.0812 25.7393 27.0086 25.376 26.9359 23.7049C26.8875 22.058 26.9359 21.6705 27.2266 21.6705C27.7352 21.6705 29.4062 19.951 29.4062 19.4424C29.4062 19.0549 29.1398 19.0065 26.5 19.0065C23.7875 19.0065 23.5938 19.0307 23.5938 19.4666C23.5938 19.733 24.1508 20.5807 24.8047 21.3799C25.9672 22.7604 26.0156 22.8815 26.0156 24.3104C26.0156 25.5213 25.943 25.7393 25.6523 25.6424C25.4586 25.5455 25.2164 25.2065 25.1437 24.8432C24.8773 23.5596 24.4898 22.8573 23.7875 22.3729C22.2617 21.283 21.6078 18.5705 22.4555 16.9237C22.843 16.1729 23.8844 15.1315 24.6836 14.6955C25.3617 14.308 27.6141 14.3323 28.3891 14.744ZM19.1133 19.0307C20.6391 19.2729 20.9297 19.3698 20.9297 19.7815C20.9297 20.6533 21.6805 22.0338 22.7219 23.1237C23.3758 23.7776 23.8602 24.5526 23.957 25.0612C24.2477 26.4658 24.6594 26.7565 26.4758 26.7565C27.3477 26.7565 28.1953 26.6596 28.3406 26.5627C28.7281 26.2963 29.1641 25.4002 29.1641 24.819C29.1641 24.5526 29.6484 23.8018 30.2297 23.1721C31.3922 21.9127 31.8523 21.1619 32.0703 20.1205C32.2398 19.2244 32.7969 19.0549 36.018 18.8369L38.3672 18.6916L38.3187 26.7807L38.2461 34.8698L35.9453 35.0393C33.3781 35.2088 30.6172 35.7416 28.5344 36.444C27.7836 36.7104 27.1055 36.9283 27.057 36.9283C27.0328 36.9283 26.9844 35.0635 26.9844 32.8112C26.9844 28.8635 27.0086 28.694 27.4687 28.694C27.7836 28.694 27.9531 28.5244 27.9531 28.2096C27.9531 27.7737 27.7836 27.7252 26.5 27.7252C25.2164 27.7252 25.0469 27.7737 25.0469 28.2096C25.0469 28.5244 25.2164 28.694 25.5312 28.694C25.9914 28.694 26.0156 28.8635 26.0156 32.8354C26.0156 36.2744 25.9672 36.9526 25.6766 36.8557C23.1336 35.8627 18.75 34.9908 16.4008 34.9908C15.1656 34.9908 14.8508 34.9182 14.6328 34.5307C14.3664 34.0221 14.2695 19.8299 14.5359 19.1518C14.7297 18.6674 16.425 18.6432 19.1133 19.0307ZM27.1539 20.4112C26.9117 20.6533 26.7422 21.0166 26.7422 21.1862C26.7422 21.4041 26.5242 21.3073 26.1367 20.944C25.2891 20.1448 25.3617 19.9752 26.5484 19.9752C27.493 19.9752 27.5172 19.9994 27.1539 20.4112ZM13.7852 35.7174C13.9789 35.8627 15.3109 36.1049 16.7398 36.226C18.1687 36.3471 20.1789 36.6619 21.1719 36.9041L22.9883 37.3643L18.2172 37.3401C13.9789 37.2916 13.3977 37.2432 13.0102 36.8557C12.6227 36.4682 12.5742 35.8143 12.5742 29.2026C12.5742 23.1479 12.6227 21.9127 12.9375 21.5494C13.2523 21.1619 13.3008 21.8643 13.3734 28.258C13.4219 34.1432 13.4945 35.4752 13.7852 35.7174ZM40.4258 29.1783C40.4258 35.8143 40.3773 36.4682 39.9898 36.8557C39.6023 37.2432 39.0211 37.2916 34.7828 37.3401L30.0117 37.3643L31.8281 36.9041C32.8211 36.6619 34.8312 36.3471 36.2602 36.226C37.6891 36.1049 39.0211 35.8627 39.2148 35.7174C39.5297 35.4752 39.5781 34.2401 39.5781 28.258C39.5781 21.4283 39.6023 21.1135 40.0141 21.501C40.3773 21.8885 40.4258 22.5908 40.4258 29.1783Z" fill="white"/>
<path d="M15.8438 20.9198C15.8438 21.4768 16.3039 21.6705 17.6602 21.6705C18.7984 21.6705 19.0891 21.4768 18.8469 20.8471C18.7258 20.5565 18.3625 20.4596 17.2727 20.4596C16.0375 20.4596 15.8438 20.508 15.8438 20.9198Z" fill="white"/>
<path d="M15.8438 22.8572C15.8438 23.5111 15.9406 23.5596 18.3625 23.7533L20.4938 23.9229L20.3969 23.3416C20.3484 22.8572 20.1547 22.7361 19.2344 22.5908C18.6289 22.5182 17.6359 22.4213 17.0063 22.4213C16.0133 22.3971 15.8438 22.4697 15.8438 22.8572Z" fill="white"/>
<path d="M15.8438 26.2721C15.8438 26.8533 15.8438 26.8533 18.532 27.2166C19.6703 27.3619 21.4141 27.701 22.3828 27.9432C24.3203 28.4518 24.5625 28.4275 24.5625 27.7252C24.5625 27.3619 24.2477 27.1682 23.3031 26.9018C21.3898 26.3447 18.0961 25.7877 16.9094 25.7877C15.9891 25.7877 15.8438 25.8604 15.8438 26.2721Z" fill="white"/>
<path d="M33.7664 26.0537C31.9743 26.3443 29.1407 27.0225 28.6321 27.2889C28.1719 27.5068 28.0508 28.0881 28.4141 28.306C28.5352 28.4029 29.7461 28.185 31.1266 27.8459C32.4829 27.531 34.3961 27.192 35.3649 27.0951C37.036 26.9498 37.1571 26.9014 37.1571 26.3685C37.1571 25.8357 37.0602 25.7873 36.1399 25.8115C35.5586 25.8357 34.493 25.9326 33.7664 26.0537Z" fill="white"/>
<path d="M15.8438 28.6451C15.8438 29.2264 16.0859 29.2991 18.3867 29.5412C19.1859 29.6381 20.6875 29.9045 21.7531 30.1709C24.2719 30.7764 24.6109 30.7764 24.5141 30.0983C24.4414 29.6381 24.1266 29.4686 22.2617 29.0084C21.075 28.6936 19.1375 28.3787 17.975 28.3061C15.9164 28.1366 15.8438 28.1608 15.8438 28.6451Z" fill="white"/>
<path d="M33.8867 28.3549C33.6203 28.4034 32.7969 28.5729 32.0703 28.7182C29.2852 29.2752 28.1953 29.6627 28.1953 30.1713C28.1953 30.7768 28.8734 30.7768 31.2953 30.1713C32.3367 29.9049 33.8141 29.6385 34.6133 29.5416C36.8898 29.2995 37.1562 29.2268 37.1562 28.694C37.1562 28.258 37.0109 28.2096 35.7758 28.2338C35.0008 28.258 34.1531 28.3065 33.8867 28.3549Z" fill="white"/>
<path d="M15.8438 31.0685C15.8438 31.6497 15.868 31.6497 18.9195 32.0856C19.9852 32.231 21.632 32.5458 22.5523 32.8122C23.9813 33.1997 24.2477 33.2239 24.5625 32.9091C24.8531 32.6185 24.8531 32.5216 24.5625 32.231C24.0539 31.7466 20.2031 30.8747 17.8539 30.7052C15.9164 30.5599 15.8438 30.5841 15.8438 31.0685Z" fill="white"/>
<path d="M32.7 31.0177C29.4305 31.599 28.1953 32.0592 28.1953 32.6162C28.1953 33.0521 28.3164 33.0763 29.2367 32.9795C29.7937 32.931 31.0773 32.6888 32.0945 32.4709C33.1117 32.2529 34.6375 31.9865 35.4852 31.8896C36.8414 31.7443 37.0352 31.6474 37.1078 31.1631C37.1805 30.6545 37.1078 30.6302 35.8969 30.6545C35.1945 30.6545 33.7414 30.824 32.7 31.0177Z" fill="white"/>
</g>
<defs>
<clipPath id="clip0_1_323">
<rect width="31" height="31" fill="white" transform="translate(11 8.35022)"/>
</clipPath>
</defs>
</svg>
