<svg width="52" height="54" viewBox="0 0 52 54" fill="none" xmlns="http://www.w3.org/2000/svg">
<rect y="0.751953" width="51.7253" height="52.8259" rx="14.307" fill="#253073"/>
<g clip-path="url(#clip0_1_300)">
<path d="M17.2506 13.5988C12.3256 15.7738 12.2006 16.0238 15.4756 16.9988L17.7506 17.6988L17.7756 18.9488C17.7756 19.6488 17.7756 20.7488 17.7506 21.4238C17.5756 26.5738 22.7256 28.8238 25.1756 24.6488C25.8006 23.5988 25.8506 23.2488 25.9006 20.6738C25.9006 19.1238 25.9756 17.7988 26.0256 17.7488C26.0756 17.6738 26.4256 17.5738 26.8256 17.4738C27.4006 17.3238 27.5006 17.3738 27.5006 17.7988C27.5006 18.0738 27.3256 18.4238 27.1256 18.5988C26.8756 18.7988 26.7506 19.3738 26.7506 20.2488C26.7506 21.4488 26.8006 21.5988 27.3506 21.7488C27.6756 21.8238 28.2756 21.8488 28.6506 21.7988C29.3256 21.7238 29.3756 21.6488 29.4506 20.3988C29.5006 19.5238 29.4006 18.9238 29.1506 18.5488C28.4756 17.5988 28.6506 16.8988 29.6256 16.4988C30.5506 16.0988 30.7006 15.8238 30.2006 15.3988C29.5756 14.8988 22.2756 11.8488 21.7256 11.8738C21.4006 11.8738 19.3756 12.6488 17.2506 13.5988ZM24.9506 14.3988L28.0506 15.6988L26.9006 16.0238C25.9006 16.3238 25.5756 16.3238 24.6256 15.9738C23.1756 15.4988 20.8006 15.4988 19.0256 15.9738C17.8256 16.3238 17.5006 16.3238 16.6506 16.0238L15.7006 15.6988L18.5256 14.4238C20.1006 13.7238 21.5006 13.1238 21.6256 13.1238C21.7756 13.0988 23.2756 13.6738 24.9506 14.3988ZM24.0006 17.0738C24.5006 17.1988 24.6506 17.4238 24.7006 18.0988L24.7756 18.9738H21.8756H19.0006V18.1488C19.0006 17.5238 19.1506 17.2738 19.5756 17.0988C20.2256 16.8488 23.1006 16.8238 24.0006 17.0738ZM24.5006 20.5988C25.4506 22.0738 23.5756 25.5988 21.8506 25.5988C21.1006 25.5988 19.7756 24.4488 19.3506 23.4238C19.1506 22.9738 19.0006 22.1488 19.0006 21.5988C19.0006 20.2988 19.4506 20.0988 22.2006 20.1738C23.7256 20.1988 24.3256 20.3238 24.5006 20.5988Z" fill="white"/>
<path d="M15.8758 26.9736C14.5758 27.3236 13.0258 28.6986 12.9758 29.5236C12.9758 29.7736 12.8258 31.9986 12.6508 34.4736C12.4758 36.9486 12.4008 39.1236 12.4508 39.2986C12.5258 39.5236 14.4508 39.5986 20.9008 39.5986H29.2508L30.2508 40.5986C31.7258 42.0736 33.0508 42.6736 35.2758 42.7986C37.7008 42.9486 39.3008 42.4486 40.8508 41.0486C42.3008 39.7736 43.1508 38.3486 43.4508 36.5986C44.1258 32.8486 42.0758 29.1486 38.5758 27.8486C36.2508 26.9736 33.0508 27.3486 31.3758 28.6986L30.6258 29.2986L30.1758 28.5486C29.6258 27.6486 27.8258 26.8236 26.2758 26.7736C25.2008 26.7236 25.1258 26.7486 25.1758 27.3486C25.4508 30.1736 25.3758 30.7736 24.6258 31.9736C23.5758 33.6486 23.2508 33.6986 23.2508 32.1236C23.2508 31.4236 23.3758 30.8486 23.5008 30.8486C23.6508 30.8486 23.7508 30.2236 23.7508 29.4736V28.0986H21.7508H19.7508V29.4736C19.7508 30.5236 19.8258 30.8486 20.1258 30.8486C20.4258 30.8486 20.5008 31.1986 20.5008 32.3986V33.9736L19.7508 32.8486C18.6758 31.2486 18.2258 29.5736 18.4008 27.9236L18.5758 26.5986L17.8508 26.6236C17.4508 26.6236 16.5758 26.7736 15.8758 26.9736ZM18.1258 32.5486C18.9258 34.0236 21.3758 36.8486 21.8508 36.8486C22.4258 36.8486 25.2758 33.7236 25.9508 32.3486C26.4508 31.3236 26.6258 30.5986 26.6258 29.4486V27.9236L27.5508 28.1736C28.6758 28.4486 29.5008 29.1986 29.5008 29.9236C29.5008 30.2236 29.2258 31.0236 28.9008 31.6736C28.0758 33.2986 27.8508 35.1736 28.3258 36.9236C28.6508 38.2736 28.6508 38.3486 28.2258 38.3486C27.8508 38.3486 27.7508 38.0986 27.7008 36.8986C27.6258 35.6736 27.5508 35.4736 27.1258 35.4736C26.7008 35.4736 26.6258 35.6736 26.5508 36.8986L26.4758 38.3486H21.7508H17.0008V36.8486C17.0008 35.5236 16.9508 35.3486 16.5008 35.3486C16.0508 35.3486 16.0008 35.5236 16.0008 36.8486V38.3486H14.8758H13.7508V37.2486C13.7508 35.7736 14.2258 29.8236 14.4008 29.2736C14.5508 28.7736 15.3008 28.3236 16.3758 28.0986L17.1258 27.9486L17.2508 29.5986C17.3508 30.7236 17.6258 31.6236 18.1258 32.5486ZM36.5758 29.0486C37.0508 29.5736 37.7508 31.1736 37.7508 31.7236C37.7508 32.0236 37.3758 32.0986 35.7508 32.0986H33.7508L33.9008 31.3986C34.2508 29.9736 35.2008 28.5986 35.8508 28.5986C36.0258 28.5986 36.3508 28.7986 36.5758 29.0486ZM22.7508 29.3486C22.7508 29.4736 22.3508 29.5986 21.8758 29.5986C21.4008 29.5986 21.0008 29.4736 21.0008 29.3486C21.0008 29.1986 21.4008 29.0986 21.8758 29.0986C22.3508 29.0986 22.7508 29.1986 22.7508 29.3486ZM32.9008 30.5986L32.3758 32.0986H31.1758H29.9758L30.4508 31.3986C31.2258 30.3486 32.7008 29.1236 33.2758 29.0986C33.3508 29.0986 33.2008 29.7736 32.9008 30.5986ZM39.4508 29.7236C40.3008 30.2736 41.5008 31.5986 41.5008 31.9736C41.5008 32.0486 40.9758 32.0986 40.3008 32.0986H39.1258L38.8508 31.0236C38.7008 30.4486 38.5008 29.7736 38.3758 29.5236C38.1258 28.9486 38.3508 28.9736 39.4508 29.7236ZM22.2258 34.0236C22.2508 34.9986 21.9508 35.6236 21.6508 35.1486C21.6008 35.0486 21.6008 33.9986 21.7008 32.8486C21.8508 30.8486 21.8758 30.7986 22.0258 31.8486C22.1258 32.4736 22.2258 33.4486 22.2258 34.0236ZM32.2508 35.0986V36.8486H30.9008C29.4008 36.8486 29.2508 36.6986 29.2508 35.0986C29.2508 33.4986 29.4008 33.3486 30.9008 33.3486H32.2508V35.0986ZM38.1508 34.2236C38.2258 34.6986 38.2258 35.4986 38.1508 35.9736L37.9758 36.8486H35.7508H33.5008V35.0986V33.3486H35.7508H37.9758L38.1508 34.2236ZM42.3258 34.2986C42.4258 34.7986 42.4258 35.6486 42.3258 36.1736L42.1758 37.0986H40.7508H39.3008V35.2236V33.3486H40.7508H42.1758L42.3258 34.2986ZM32.7758 39.2736C32.9508 39.9486 33.1508 40.6236 33.2008 40.7986C33.2508 40.9486 33.1758 41.0986 33.0508 41.0986C32.7258 41.0986 30.5508 39.1486 30.2258 38.5736C30.0008 38.1486 30.0758 38.0986 31.2008 38.0986H32.4508L32.7758 39.2736ZM37.7508 38.5236C37.7258 39.1486 36.9008 40.9236 36.4258 41.2986C36.2008 41.4986 35.8258 41.5986 35.5758 41.5486C35.1008 41.4736 34.1758 39.9236 33.9008 38.7736L33.7508 38.0986H35.7508C37.5008 38.0986 37.7508 38.1486 37.7508 38.5236ZM41.5008 38.2986C41.5008 38.7236 40.0008 40.2736 39.0508 40.7986L38.0258 41.3736L38.5008 40.2986C38.7758 39.6986 39.0008 38.9736 39.0008 38.6486C39.0008 38.1486 39.1258 38.0986 40.2508 38.0986C40.9508 38.0986 41.5008 38.1736 41.5008 38.2986Z" fill="white"/>
</g>
<defs>
<clipPath id="clip0_1_300">
<rect width="32" height="32" fill="white" transform="translate(12 11.3496)"/>
</clipPath>
</defs>
</svg>
