<svg width="52" height="54" viewBox="0 0 52 54" fill="none" xmlns="http://www.w3.org/2000/svg">
<rect y="0.342773" width="51.7253" height="52.8259" rx="14.307" fill="#253073"/>
<path d="M25.0547 11.7907C24.1586 13.6118 24.0141 13.6985 21.6727 13.9876C20.3719 14.161 20.1406 14.2766 20.1406 14.7969C20.1406 15.1438 20.7477 16.011 21.4703 16.7626L22.8289 18.1212L22.4531 20.0579C22.1641 21.6477 22.1641 22.0524 22.4531 22.2258C22.8578 22.486 23.0602 22.4282 25.1414 21.3587L26.5 20.6649L27.8875 21.3587C29.9398 22.4282 30.1422 22.486 30.5469 22.2258C30.8359 22.0524 30.8359 21.6477 30.5469 20.0579L30.1711 18.1212L31.5297 16.7626C32.2523 16.011 32.8594 15.1438 32.8594 14.7969C32.8594 14.2766 32.6281 14.161 31.3562 13.9876C28.9859 13.6985 28.8414 13.6118 27.9453 11.7907C27.3094 10.5766 26.9047 10.0852 26.5 10.0852C26.0953 10.0852 25.6906 10.5766 25.0547 11.7907ZM27.2227 13.8141C27.6852 14.8547 27.8297 14.9704 29.1594 15.1438L30.6047 15.3462L29.6797 16.3001C28.8125 17.1962 28.7547 17.3985 28.8703 18.6993L29.0148 20.1446L27.7719 19.5376C26.4133 18.8727 26.6734 18.8438 24.1586 20.1446C24.0719 20.1735 24.043 19.5665 24.1297 18.7571C24.2453 17.3985 24.1875 17.1962 23.3203 16.3001L22.3953 15.3462L23.8406 15.1438C25.1703 14.9704 25.3148 14.8547 25.7773 13.8141C26.0664 13.2071 26.3844 12.6868 26.5 12.6868C26.6156 12.6868 26.9336 13.2071 27.2227 13.8141Z" fill="white"/>
<path d="M14.793 16.1264C14.0992 17.5139 14.0414 17.5717 12.4805 17.7451C11.093 17.9186 10.8906 18.0342 10.8906 18.5834C10.8906 18.9303 11.3531 19.6529 11.9023 20.2021C12.9141 21.185 12.9141 21.2139 12.7406 23.0061C12.5672 24.6537 12.5961 24.8271 13.0875 24.8271C13.4055 24.8271 14.1859 24.5092 14.8797 24.1045L16.0938 23.4107L17.3367 24.1045C18.0016 24.5092 18.782 24.8271 19.1 24.8271C19.5914 24.8271 19.6203 24.6537 19.4469 23.0061C19.2734 21.2139 19.2734 21.185 20.2852 20.2021C20.8344 19.6529 21.2969 18.9303 21.2969 18.5834C21.2969 18.0342 21.0945 17.9186 19.707 17.7451C18.1461 17.5717 18.0883 17.5139 17.3945 16.1264C16.8742 15.1436 16.4984 14.71 16.0938 14.71C15.6891 14.71 15.3133 15.1436 14.793 16.1264ZM16.7297 18.1787C17.1055 18.8725 17.4234 19.0459 18.1461 19.0459H19.0711L18.4641 19.7107C18.0305 20.1732 17.8281 20.7514 17.8281 21.474C17.8281 22.4279 17.7414 22.5436 17.3367 22.3412C17.0477 22.2256 16.4984 22.11 16.0938 22.11C15.6891 22.11 15.1398 22.2256 14.8797 22.3412C14.4461 22.5436 14.3594 22.4279 14.3594 21.474C14.3594 20.7514 14.157 20.1732 13.7234 19.7107L13.1164 19.0459H14.0414C14.7641 19.0459 15.082 18.8725 15.4578 18.1787C15.718 17.7162 16.007 17.3115 16.0938 17.3115C16.1805 17.3115 16.4695 17.7162 16.7297 18.1787Z" fill="white"/>
<path d="M35.6055 16.1264C34.9117 17.5139 34.8539 17.5717 33.293 17.7451C31.9055 17.9186 31.7031 18.0342 31.7031 18.5834C31.7031 18.9303 32.1656 19.6529 32.7148 20.2021C33.7266 21.185 33.7266 21.2139 33.5531 23.0061C33.3797 24.6537 33.4086 24.8271 33.9 24.8271C34.218 24.8271 34.9984 24.5092 35.6922 24.1045L36.9062 23.4107L38.1492 24.1045C38.8141 24.5092 39.5945 24.8271 39.9125 24.8271C40.4039 24.8271 40.4328 24.6537 40.2594 23.0061C40.0859 21.2139 40.0859 21.185 41.0977 20.2021C41.6469 19.6529 42.1094 18.9303 42.1094 18.5834C42.1094 18.0342 41.907 17.9186 40.5195 17.7451C38.9586 17.5717 38.9008 17.5139 38.207 16.1264C37.6867 15.1436 37.3109 14.71 36.9062 14.71C36.5016 14.71 36.1258 15.1436 35.6055 16.1264ZM37.5422 18.1787C37.918 18.8725 38.2359 19.0459 38.9586 19.0459H39.8836L39.2766 19.7107C38.843 20.1732 38.6406 20.7514 38.6406 21.474C38.6406 22.4279 38.5539 22.5436 38.1492 22.3412C37.8602 22.2256 37.3109 22.11 36.9062 22.11C36.5016 22.11 35.9523 22.2256 35.6922 22.3412C35.2586 22.5436 35.1719 22.4279 35.1719 21.474C35.1719 20.7514 34.9695 20.1732 34.5359 19.7107L33.9289 19.0459H34.8539C35.5766 19.0459 35.8945 18.8725 36.2703 18.1787C36.5305 17.7162 36.8195 17.3115 36.9062 17.3115C36.993 17.3115 37.282 17.7162 37.5422 18.1787Z" fill="white"/>
<path d="M23.9562 24.538C21.7883 25.8676 21.1523 29.163 22.5977 31.3309C23.0312 31.909 23.3203 32.4294 23.2625 32.4583C23.2047 32.4872 22.8289 32.6895 22.3953 32.8919C20.7477 33.7301 19.5625 35.0309 18.5797 37.0255L17.5969 39.0489L16.4406 37.488C14.3016 34.684 13.6656 32.9208 13.55 29.3653C13.4344 26.3301 13.4055 26.2723 12.7406 26.2723C12.0469 26.2723 12.0469 26.3301 12.0469 28.9317C12.0469 33.47 13.2609 36.4762 16.2094 39.4536C18.1172 41.3614 19.9094 42.402 22.5398 43.1825C23.8117 43.5583 24.3031 43.5872 24.6211 43.327C25.257 42.7778 24.8234 42.2575 23.407 41.9106C21.268 41.3614 19.2734 40.234 19.2734 39.5692C19.2734 37.8637 21.4992 34.9442 23.4648 34.0481C24.2164 33.7012 25.2859 33.4989 26.5 33.4989C27.7141 33.4989 28.7836 33.7012 29.5352 34.0481C31.5008 34.9442 33.7266 37.8637 33.7266 39.5692C33.7266 40.234 31.732 41.3614 29.593 41.9106C28.1766 42.2575 27.743 42.7778 28.3789 43.327C28.6969 43.5872 29.1883 43.5583 30.4602 43.1825C33.0906 42.402 34.8828 41.3614 36.7906 39.4536C39.7969 36.4473 41.0687 33.0942 40.8953 28.7294C40.8086 26.6192 40.7508 26.4169 40.2016 26.3301C39.5945 26.2434 39.5656 26.3591 39.45 29.3653C39.3344 32.9208 38.6984 34.6551 36.5594 37.488L35.4031 39.0489L34.4203 37.0255C33.4375 35.0309 32.2523 33.7301 30.6047 32.8919C30.1711 32.6895 29.7953 32.4872 29.7375 32.4583C29.6797 32.4294 29.9688 31.909 30.4023 31.3309C31.8477 29.163 31.2117 25.8676 29.0437 24.538C27.743 23.7575 25.257 23.7575 23.9562 24.538ZM28.6969 26.388C29.5062 27.1973 29.6797 27.602 29.6797 28.5848C29.6797 29.5676 29.5062 29.9723 28.6969 30.7817C27.8875 31.5911 27.4828 31.7645 26.5 31.7645C25.5172 31.7645 25.1125 31.5911 24.3031 30.7817C23.4937 29.9723 23.3203 29.5676 23.3203 28.5848C23.3203 27.602 23.4937 27.1973 24.3031 26.388C25.1125 25.5786 25.5172 25.4051 26.5 25.4051C27.4828 25.4051 27.8875 25.5786 28.6969 26.388Z" fill="white"/>
<path d="M25.9219 43.0381C25.9219 43.4139 26.1242 43.6162 26.5 43.6162C26.8758 43.6162 27.0781 43.4139 27.0781 43.0381C27.0781 42.6623 26.8758 42.46 26.5 42.46C26.1242 42.46 25.9219 42.6623 25.9219 43.0381Z" fill="white"/>
</svg>
