<svg width="52" height="54" viewBox="0 0 52 54" fill="none" xmlns="http://www.w3.org/2000/svg">
<rect y="0.342773" width="51.7253" height="52.8259" rx="14.307" fill="#006380"/>
<path d="M18.1603 29.0947C17.8338 29.0947 17.5147 29.1915 17.2432 29.3729C16.9717 29.5543 16.7601 29.8122 16.6352 30.1138C16.5102 30.4154 16.4775 30.7474 16.5412 31.0676C16.6049 31.3878 16.7622 31.682 16.993 31.9128C17.2239 32.1437 17.518 32.3009 17.8383 32.3646C18.1585 32.4283 18.4904 32.3956 18.7921 32.2707C19.0937 32.1457 19.3515 31.9342 19.5329 31.6627C19.7143 31.3912 19.8111 31.072 19.8111 30.7455C19.8111 30.3077 19.6372 29.8878 19.3276 29.5782C19.018 29.2687 18.5982 29.0947 18.1603 29.0947ZM18.1603 31.5709C17.9971 31.5709 17.8375 31.5225 17.7018 31.4318C17.566 31.3411 17.4602 31.2122 17.3978 31.0614C17.3353 30.9106 17.3189 30.7446 17.3508 30.5845C17.3826 30.4244 17.4612 30.2773 17.5767 30.1619C17.6921 30.0465 17.8392 29.9678 17.9993 29.936C18.1594 29.9041 18.3254 29.9205 18.4762 29.983C18.627 30.0454 18.7559 30.1512 18.8466 30.287C18.9373 30.4227 18.9857 30.5823 18.9857 30.7455C18.9857 30.9644 18.8988 31.1744 18.744 31.3292C18.5892 31.484 18.3792 31.5709 18.1603 31.5709Z" fill="white"/>
<path d="M34.6684 29.0947C34.3419 29.0947 34.0227 29.1915 33.7512 29.3729C33.4798 29.5543 33.2682 29.8122 33.1432 30.1138C33.0183 30.4154 32.9856 30.7474 33.0493 31.0676C33.113 31.3878 33.2702 31.682 33.5011 31.9128C33.732 32.1437 34.0261 32.3009 34.3463 32.3646C34.6666 32.4283 34.9985 32.3956 35.3001 32.2707C35.6018 32.1457 35.8596 31.9342 36.041 31.6627C36.2224 31.3912 36.3192 31.072 36.3192 30.7455C36.3192 30.3077 36.1453 29.8878 35.8357 29.5782C35.5261 29.2687 35.1062 29.0947 34.6684 29.0947ZM34.6684 31.5709C34.5051 31.5709 34.3456 31.5225 34.2098 31.4318C34.0741 31.3411 33.9683 31.2122 33.9058 31.0614C33.8433 30.9106 33.827 30.7446 33.8588 30.5845C33.8907 30.4244 33.9693 30.2773 34.0847 30.1619C34.2002 30.0465 34.3472 29.9678 34.5074 29.936C34.6675 29.9041 34.8334 29.9205 34.9842 29.983C35.1351 30.0454 35.264 30.1512 35.3547 30.287C35.4454 30.4227 35.4938 30.5823 35.4938 30.7455C35.4938 30.9644 35.4068 31.1744 35.252 31.3292C35.0972 31.484 34.8873 31.5709 34.6684 31.5709Z" fill="white"/>
<path d="M22.7 31.1582H30.1286V31.9836H22.7V31.1582Z" fill="white"/>
<path d="M22.7 29.5074H30.1286V30.3329H22.7V29.5074Z" fill="white"/>
<path d="M25.1763 23.3169H27.6525V24.1423H25.1763V23.3169Z" fill="white"/>
<path d="M38.7953 27.0312V26.2058C38.7943 25.8777 38.6636 25.5634 38.4316 25.3314C38.1996 25.0994 37.8853 24.9687 37.5572 24.9677H35.9229L35.0686 21.9715L34.8127 20.9521C34.7456 20.6844 34.591 20.4469 34.3734 20.2772C34.1558 20.1074 33.8877 20.0153 33.6118 20.0153H30.1286V18.3645C30.1279 18.1458 30.0408 17.9362 29.8861 17.7815C29.7315 17.6269 29.5219 17.5397 29.3032 17.5391H23.5253C23.3066 17.5397 23.0971 17.6269 22.9424 17.7815C22.7878 17.9362 22.7006 18.1458 22.6999 18.3645V20.0153H19.2167C18.9408 20.0153 18.6727 20.1074 18.4552 20.2772C18.2376 20.4469 18.0829 20.6844 18.0158 20.9521L17.764 21.9674L16.9056 24.9677H15.2713C14.9432 24.9687 14.6289 25.0994 14.3969 25.3314C14.1649 25.5634 14.0342 25.8777 14.0332 26.2058V27.0312C14.0339 27.2403 14.0876 27.4458 14.1894 27.6284C14.2912 27.811 14.4377 27.9648 14.6151 28.0753C14.242 28.4587 14.0333 28.9725 14.0332 29.5074V34.4598C14.0338 34.633 14.0708 34.8041 14.1419 34.9619C14.213 35.1198 14.3166 35.2609 14.4459 35.376V36.9361C14.4469 37.2641 14.5776 37.5785 14.8096 37.8104C15.0416 38.0424 15.3559 38.1732 15.684 38.1742H18.9856C19.3137 38.1732 19.628 38.0424 19.86 37.8104C20.092 37.5785 20.2228 37.2641 20.2237 36.9361V35.698H32.6048V36.9361C32.6058 37.2641 32.7365 37.5785 32.9685 37.8104C33.2005 38.0424 33.5148 38.1732 33.8429 38.1742H37.1445C37.4726 38.1732 37.7869 38.0424 38.0189 37.8104C38.2509 37.5785 38.3816 37.2641 38.3826 36.9361V35.376C38.5119 35.2609 38.6155 35.1198 38.6866 34.9619C38.7577 34.8041 38.7948 34.633 38.7953 34.4598V29.5074C38.7953 28.9725 38.5865 28.4587 38.2134 28.0753C38.3909 27.9648 38.5374 27.811 38.6391 27.6284C38.7409 27.4458 38.7947 27.2403 38.7953 27.0312ZM23.5253 18.3645H29.3032V20.0153H23.5253V18.3645ZM18.8164 21.1543C18.8385 21.0649 18.89 20.9854 18.9625 20.9285C19.0351 20.8717 19.1246 20.8407 19.2167 20.8407H33.6118C33.704 20.8407 33.7934 20.8717 33.866 20.9285C33.9386 20.9854 33.99 21.0649 34.0121 21.1543L34.14 21.6661H18.6885L18.8164 21.1543ZM18.4697 22.4915H34.3588L35.7702 27.4439H23.9009C23.8039 26.8672 23.5057 26.3434 23.0591 25.9657C22.6126 25.588 22.0467 25.3808 21.4618 25.3808C20.877 25.3808 20.3111 25.588 19.8645 25.9657C19.418 26.3434 19.1198 26.8672 19.0228 27.4439H17.0583L18.4697 22.4915ZM23.0549 27.4439H19.8688C19.9589 27.0898 20.1645 26.7758 20.4529 26.5515C20.7414 26.3272 21.0964 26.2055 21.4618 26.2055C21.8273 26.2055 22.1822 26.3272 22.4707 26.5515C22.7592 26.7758 22.9648 27.0898 23.0549 27.4439ZM14.8586 26.2058C14.8586 26.0963 14.9021 25.9914 14.9795 25.914C15.0569 25.8366 15.1619 25.7931 15.2713 25.7931H16.6704L16.1999 27.4439H15.2713C15.1619 27.4439 15.0569 27.4004 14.9795 27.323C14.9021 27.2456 14.8586 27.1407 14.8586 27.0312V26.2058ZM19.3983 36.9361C19.3983 37.0455 19.3548 37.1505 19.2775 37.2279C19.2001 37.3053 19.0951 37.3488 18.9856 37.3488H15.684C15.5746 37.3488 15.4696 37.3053 15.3922 37.2279C15.3148 37.1505 15.2713 37.0455 15.2713 36.9361V35.698H19.3983V36.9361ZM37.5572 36.9361C37.5572 37.0455 37.5137 37.1505 37.4363 37.2279C37.3589 37.3053 37.254 37.3488 37.1445 37.3488H33.8429C33.7334 37.3488 33.6285 37.3053 33.5511 37.2279C33.4737 37.1505 33.4302 37.0455 33.4302 36.9361V35.698H37.5572V36.9361ZM37.9699 34.4598C37.9699 34.5693 37.9264 34.6743 37.849 34.7517C37.7716 34.8291 37.6667 34.8725 37.5572 34.8725H15.2713C15.1619 34.8725 15.0569 34.8291 14.9795 34.7517C14.9021 34.6743 14.8586 34.5693 14.8586 34.4598V34.0471H37.9699V34.4598ZM37.9699 33.2217H14.8586V29.5074C14.8596 29.1794 14.9903 28.865 15.2223 28.633C15.4543 28.4011 15.7686 28.2703 16.0967 28.2693H36.7318C37.0599 28.2703 37.3742 28.4011 37.6062 28.633C37.8382 28.865 37.9689 29.1794 37.9699 29.5074V33.2217ZM37.9699 27.0312C37.9699 27.1407 37.9264 27.2456 37.849 27.323C37.7716 27.4004 37.6667 27.4439 37.5572 27.4439H36.6286L36.1582 25.7931H37.5572C37.6667 25.7931 37.7716 25.8366 37.849 25.914C37.9264 25.9914 37.9699 26.0963 37.9699 26.2058V27.0312Z" fill="white"/>
</svg>
