<svg width="52" height="53" viewBox="0 0 52 53" fill="none" xmlns="http://www.w3.org/2000/svg">
<rect y="0.0122681" width="51.7253" height="52.8259" rx="14.307" fill="#F15A2B"/>
<path d="M36.1173 35.1508C35.6218 35.1609 35.1352 35.0192 34.7227 34.7446C34.4157 34.544 34.0569 34.4372 33.6901 34.4372C33.3234 34.4372 32.9645 34.544 32.6575 34.7446C32.2408 35.0099 31.7571 35.1508 31.2632 35.1508C30.7692 35.1508 30.2855 35.0099 29.8688 34.7446C29.5618 34.5438 29.2029 34.4368 28.836 34.4368C28.4692 34.4368 28.1103 34.5438 27.8033 34.7446C27.3866 35.0099 26.9029 35.1508 26.4089 35.1508C25.9149 35.1508 25.4312 35.0099 25.0145 34.7446C24.7077 34.5439 24.3491 34.437 23.9825 34.437C23.6159 34.437 23.2572 34.5439 22.9504 34.7446C22.5726 34.9957 22.1317 35.1352 21.6783 35.1472L21.6533 34.4334C21.9883 34.4254 22.3135 34.3194 22.5888 34.1285C23.0054 33.8633 23.489 33.7224 23.9828 33.7224C24.4767 33.7224 24.9603 33.8633 25.3768 34.1285C25.6838 34.3292 26.0427 34.4361 26.4094 34.4361C26.7762 34.4361 27.135 34.3292 27.442 34.1285C27.8588 33.8631 28.3426 33.722 28.8367 33.722C29.3309 33.722 29.8147 33.8631 30.2315 34.1285C30.5385 34.3292 30.8973 34.4361 31.2641 34.4361C31.6308 34.4361 31.9897 34.3292 32.2967 34.1285C32.7134 33.8633 33.1971 33.7225 33.691 33.7225C34.185 33.7225 34.6687 33.8633 35.0854 34.1285C35.3931 34.3297 35.7528 34.4368 36.1205 34.4368C36.4881 34.4368 36.8478 34.3297 37.1556 34.1285C37.5676 33.8548 38.0534 33.7133 38.548 33.7231V34.4369C38.1797 34.4268 37.8179 34.5345 37.515 34.7442C37.1015 35.0192 36.6137 35.1611 36.1173 35.1508Z" fill="white"/>
<path d="M16.7035 35.1509C16.2082 35.1611 15.7216 35.0193 15.3093 34.7447C15.0065 34.5348 14.6447 34.427 14.2764 34.437V33.7231C14.7718 33.7128 15.2585 33.8546 15.6709 34.1293C15.9735 34.3393 16.3353 34.4471 16.7035 34.437C17.0719 34.4471 17.4338 34.3392 17.7365 34.129C18.148 33.8544 18.6339 33.7128 19.1285 33.7231C19.6111 33.7123 20.0858 33.8475 20.4902 34.1111L20.13 34.7272C19.8346 34.5284 19.4844 34.4269 19.1285 34.437C18.7617 34.4271 18.4012 34.5347 18.0998 34.744C17.687 35.0194 17.1996 35.1614 16.7035 35.1509Z" fill="white"/>
<path d="M36.1181 32.652C35.6223 32.6621 35.1354 32.5204 34.7225 32.2458C34.4152 32.045 34.0561 31.9381 33.689 31.9381C33.3219 31.9381 32.9628 32.045 32.6555 32.2458C32.2388 32.511 31.7552 32.6519 31.2613 32.6519C30.7674 32.6519 30.2838 32.511 29.8671 32.2458C29.5603 32.0452 29.2016 31.9383 28.8349 31.9383C28.4682 31.9383 28.1095 32.0452 27.8026 32.2458C27.386 32.5111 26.9024 32.652 26.4085 32.652C25.9146 32.652 25.4309 32.5111 25.0143 32.2458C24.7074 32.0452 24.3487 31.9383 23.982 31.9383C23.6154 31.9383 23.2567 32.0452 22.9498 32.2458C22.5375 32.5205 22.0509 32.6623 21.5556 32.652C21.0603 32.6623 20.5737 32.5205 20.1615 32.2458C19.8589 32.0359 19.4973 31.9281 19.1292 31.9382C18.7613 31.9282 18.3997 32.036 18.0973 32.2458C17.6857 32.5202 17.1999 32.662 16.7053 32.652C16.2099 32.6623 15.7232 32.5206 15.3108 32.2458C15.0076 32.0355 14.6452 31.9277 14.2764 31.9382V31.2243C14.7717 31.2141 15.2582 31.3558 15.6705 31.6305C15.9733 31.8404 16.3352 31.9482 16.7035 31.9382C17.0715 31.9482 17.433 31.8404 17.7354 31.6305C18.147 31.3561 18.6328 31.2143 19.1274 31.2243C19.6231 31.2138 20.1101 31.3555 20.5227 31.6305C20.8253 31.8405 21.1871 31.9483 21.5553 31.9382C21.9235 31.9483 22.2853 31.8405 22.5879 31.6305C23.0045 31.3652 23.4881 31.2242 23.982 31.2242C24.476 31.2242 24.9596 31.3652 25.3762 31.6305C25.6831 31.8312 26.0419 31.9381 26.4086 31.9381C26.7754 31.9381 27.1341 31.8312 27.4411 31.6305C27.8577 31.3652 28.3413 31.2242 28.8352 31.2242C29.3292 31.2242 29.8128 31.3652 30.2294 31.6305C30.5363 31.8312 30.8951 31.9381 31.2618 31.9381C31.6286 31.9381 31.9873 31.8312 32.2943 31.6305C32.7113 31.3653 33.1953 31.2244 33.6895 31.2244C34.1837 31.2244 34.6677 31.3653 35.0848 31.6305C35.3922 31.8311 35.7515 31.938 36.1186 31.938C36.4858 31.938 36.845 31.8311 37.1525 31.6305C37.5652 31.356 38.0521 31.2143 38.5477 31.2243V31.9382C38.1787 31.9277 37.816 32.0355 37.5126 32.2458C37.1 32.5202 36.6135 32.6619 36.1181 32.652Z" fill="white"/>
<path d="M36.1179 30.1539C35.6225 30.164 35.1358 30.0223 34.7233 29.7477C34.4206 29.5378 34.0587 29.43 33.6904 29.4401C33.4201 29.4308 33.1517 29.4884 32.9091 29.6078L32.5942 28.9653C32.935 28.7983 33.311 28.7159 33.6904 28.7251C34.1864 28.715 34.6736 28.8571 35.0863 29.1324C35.3941 29.3336 35.7538 29.4407 36.1214 29.4407C36.4891 29.4407 36.8488 29.3336 37.1565 29.1324C37.5684 28.8584 38.054 28.7167 38.5486 28.7262V29.4401C38.1803 29.43 37.8185 29.5376 37.5156 29.7474C37.1021 30.0223 36.6144 30.1642 36.1179 30.1539Z" fill="white"/>
<path d="M31.2592 30.1538C30.7646 30.1642 30.2787 30.0225 29.8671 29.748C29.5601 29.5471 29.2012 29.4402 28.8344 29.4402C28.4675 29.4402 28.1086 29.5471 27.8016 29.748C27.3849 30.0132 26.9012 30.1541 26.4072 30.1541C25.9133 30.1541 25.4295 30.0132 25.0129 29.748C24.7059 29.5473 24.347 29.4404 23.9803 29.4404C23.6135 29.4404 23.2547 29.5473 22.9477 29.748C22.5354 30.0222 22.0492 30.1638 21.5542 30.1538C21.0589 30.164 20.5723 30.0223 20.16 29.7476C19.8572 29.5377 19.4954 29.4299 19.1271 29.4399C18.7602 29.43 18.3998 29.5376 18.0984 29.7469C17.686 30.022 17.1991 30.1641 16.7035 30.1538C16.2082 30.164 15.7216 30.0223 15.3093 29.7476C15.0065 29.5377 14.6447 29.4299 14.2764 29.4399V28.7261C14.7718 28.7158 15.2585 28.8575 15.6709 29.1322C15.9735 29.3422 16.3353 29.45 16.7035 29.4399C17.0719 29.45 17.4338 29.3421 17.7365 29.1319C18.148 28.8573 18.6339 28.7157 19.1285 28.7261C19.6238 28.7158 20.1104 28.8576 20.5227 29.1322C20.8253 29.3422 21.1871 29.45 21.5553 29.4399C21.9236 29.4499 22.2854 29.3422 22.5882 29.1322C23.0049 28.867 23.4886 28.7261 23.9826 28.7261C24.4765 28.7261 24.9603 28.867 25.3769 29.1322C25.6839 29.3329 26.0428 29.4398 26.4095 29.4398C26.7763 29.4398 27.1351 29.3329 27.4421 29.1322C27.8589 28.8668 28.3427 28.7258 28.8369 28.7258C29.331 28.7258 29.8148 28.8668 30.2316 29.1322C30.546 29.3438 30.9189 29.4512 31.2977 29.4396C31.3253 29.4399 31.3528 29.4385 31.3802 29.4353L31.4751 30.1427C31.4034 30.1511 31.3313 30.1548 31.2592 30.1538Z" fill="white"/>
<path d="M36.1181 27.6545C35.6223 27.6646 35.1354 27.5229 34.7225 27.2483C34.4152 27.0475 34.0561 26.9405 33.689 26.9405C33.3219 26.9405 32.9628 27.0475 32.6555 27.2483C32.2388 27.5135 31.7552 27.6544 31.2613 27.6544C30.7674 27.6544 30.2838 27.5135 29.8671 27.2483C29.5603 27.0476 29.2016 26.9407 28.8349 26.9407C28.4682 26.9407 28.1095 27.0476 27.8026 27.2483C27.386 27.5136 26.9024 27.6545 26.4085 27.6545C25.9146 27.6545 25.4309 27.5136 25.0143 27.2483C24.7074 27.0476 24.3487 26.9407 23.982 26.9407C23.6154 26.9407 23.2567 27.0476 22.9498 27.2483C22.5375 27.523 22.0509 27.6648 21.5556 27.6545C21.0603 27.6648 20.5737 27.523 20.1615 27.2483C19.8589 27.0384 19.4973 26.9306 19.1292 26.9406C18.7613 26.9306 18.3997 27.0384 18.0973 27.2483C17.6857 27.5227 17.1999 27.6644 16.7053 27.6545C16.2099 27.6648 15.7232 27.523 15.3108 27.2483C15.0076 27.0379 14.6452 26.9301 14.2764 26.9406V26.2267C14.7717 26.2165 15.2582 26.3583 15.6705 26.6329C15.9733 26.8428 16.3352 26.9506 16.7035 26.9406C17.0715 26.9506 17.433 26.8428 17.7354 26.6329C18.147 26.3585 18.6328 26.2168 19.1274 26.2267C19.6231 26.2162 20.1101 26.358 20.5227 26.6329C20.8253 26.8429 21.1871 26.9507 21.5553 26.9406C21.9235 26.9507 22.2853 26.8429 22.5879 26.6329C23.0045 26.3676 23.4881 26.2267 23.982 26.2267C24.476 26.2267 24.9596 26.3676 25.3762 26.6329C25.6831 26.8336 26.0419 26.9405 26.4086 26.9405C26.7754 26.9405 27.1341 26.8336 27.4411 26.6329C27.8577 26.3676 28.3413 26.2267 28.8352 26.2267C29.3292 26.2267 29.8128 26.3676 30.2294 26.6329C30.5363 26.8336 30.8951 26.9405 31.2618 26.9405C31.6286 26.9405 31.9873 26.8336 32.2943 26.6329C32.7113 26.3677 33.1953 26.2268 33.6895 26.2268C34.1837 26.2268 34.6677 26.3677 35.0848 26.6329C35.3922 26.8336 35.7515 26.9404 36.1186 26.9404C36.4858 26.9404 36.845 26.8336 37.1525 26.6329C37.5652 26.3584 38.0521 26.2167 38.5477 26.2267V26.9406C38.1787 26.9302 37.816 27.038 37.5126 27.2483C37.1 27.5226 36.6135 27.6644 36.1181 27.6545Z" fill="white"/>
<path d="M31.0322 27.3521L30.3586 27.1158C30.5321 26.6174 30.603 26.0891 30.567 25.5626C30.531 25.0361 30.3888 24.5224 30.1491 24.0522L27.6974 19.2511C27.6731 19.2037 27.6599 19.1515 27.6584 19.0983C27.657 19.0451 27.6675 18.9922 27.6892 18.9436C27.7109 18.895 27.7431 18.8518 27.7836 18.8173C27.8241 18.7827 27.8719 18.7577 27.9233 18.7439L32.8093 17.4411C32.9686 17.3995 33.1049 17.2967 33.1887 17.155C33.2725 17.0134 33.2969 16.8444 33.2568 16.6848C33.2166 16.5252 33.115 16.3879 32.9741 16.3028C32.8332 16.2177 32.6645 16.1917 32.5045 16.2304L26.5909 17.6439C26.4644 17.6738 26.3466 17.7323 26.2465 17.8151C26.1463 17.8978 26.0666 18.0025 26.0134 18.121C25.9602 18.2395 25.935 18.3687 25.9398 18.4985C25.9445 18.6283 25.9791 18.7553 26.0408 18.8696L27.7969 22.1319C27.8415 22.2149 27.8515 22.312 27.8247 22.4023C27.798 22.4925 27.7367 22.5685 27.6542 22.6138L25.3877 23.8631L25.0432 23.2377L26.9999 22.1591L25.413 19.208C25.2995 18.9973 25.2359 18.7633 25.2273 18.5242C25.2186 18.285 25.2651 18.0471 25.363 17.8287C25.461 17.6104 25.6079 17.4175 25.7924 17.265C25.9768 17.1125 26.1938 17.0045 26.4267 16.9493L32.3375 15.5362C32.6816 15.4493 33.0461 15.5026 33.3509 15.6844C33.6557 15.8662 33.8758 16.1617 33.9628 16.5058C34.0497 16.8499 33.9964 17.2145 33.8146 17.5193C33.6327 17.8241 33.3373 18.0441 32.9931 18.1311L28.5336 19.3197L30.7852 23.7271C31.0687 24.2834 31.2367 24.8913 31.2792 25.5143C31.3216 26.1373 31.2376 26.7624 31.0322 27.3521Z" fill="white"/>
<path d="M23.7962 23.9313L19.4587 26.3214L19.8031 26.9463L24.1406 24.5562L23.7962 23.9313Z" fill="white"/>
<path d="M34.2654 24.9781C33.7359 24.9781 33.2183 24.8211 32.7781 24.5269C32.3379 24.2327 31.9948 23.8147 31.7922 23.3255C31.5895 22.8364 31.5365 22.2981 31.6398 21.7788C31.7431 21.2595 31.9981 20.7825 32.3724 20.4082C32.7468 20.0338 33.2238 19.7788 33.7431 19.6755C34.2624 19.5722 34.8006 19.6252 35.2898 19.8279C35.779 20.0305 36.197 20.3736 36.4912 20.8138C36.7853 21.254 36.9423 21.7716 36.9423 22.3011C36.9416 23.0108 36.6593 23.6913 36.1574 24.1931C35.6556 24.695 34.9751 24.9773 34.2654 24.9781ZM34.2654 20.3379C33.8771 20.3379 33.4975 20.4531 33.1747 20.6688C32.8519 20.8845 32.6003 21.1911 32.4517 21.5498C32.3031 21.9085 32.2642 22.3032 32.34 22.6841C32.4157 23.0649 32.6027 23.4147 32.8772 23.6892C33.1518 23.9638 33.5016 24.1507 33.8824 24.2265C34.2632 24.3022 34.6579 24.2633 35.0166 24.1148C35.3753 23.9662 35.6819 23.7146 35.8976 23.3917C36.1133 23.0689 36.2285 22.6893 36.2285 22.3011C36.2278 21.7806 36.0208 21.2817 35.6528 20.9137C35.2848 20.5456 34.7858 20.3386 34.2654 20.3379Z" fill="white"/>
</svg>
