<svg width="52" height="54" viewBox="0 0 52 54" fill="none" xmlns="http://www.w3.org/2000/svg">
<rect y="0.751831" width="51.7253" height="52.8259" rx="14.307" fill="#F0BB1F"/>
<path d="M14.9044 19.9835C14.578 19.9835 14.3109 19.7165 14.305 19.3901V15.6574C14.305 15.3251 14.572 15.058 14.9044 15.058H18.637C18.9634 15.058 19.2304 15.3251 19.2304 15.6574V16.957H33.5914V15.6574C33.5914 15.331 33.8584 15.064 34.1848 15.058H37.9175C38.2439 15.058 38.5109 15.3251 38.5168 15.6574V19.3901C38.5168 19.7165 38.2498 19.9835 37.9175 19.9835H36.6179V34.3444H37.9175C38.2439 34.3444 38.5109 34.6115 38.5168 34.9379V38.6705C38.5168 38.9969 38.2498 39.264 37.9175 39.2699H34.1848C33.8584 39.2699 33.5914 39.0029 33.5914 38.6705V37.3709H19.2304V38.6705C19.2304 38.9969 18.9634 39.264 18.637 39.2699H14.9044C14.578 39.2699 14.3109 39.0029 14.305 38.6705V34.9379C14.305 34.6115 14.572 34.3444 14.9044 34.3444H16.204V19.9835H14.9044ZM37.33 18.7966V16.2449H34.7783V18.7966H37.33ZM34.7783 38.083H37.33V35.5313H34.7783V38.083ZM19.2304 34.9379V36.1841H33.5914V34.9379C33.5914 34.6115 33.8584 34.3444 34.1848 34.3444H35.431V19.9835H34.1848C33.8584 19.9835 33.5914 19.7165 33.5914 19.3901V18.1439H19.2304V19.3901C19.2304 19.7165 18.9634 19.9835 18.637 19.9835H17.3908V34.3444H18.637C18.9634 34.3444 19.2304 34.6115 19.2304 34.9379ZM15.4919 35.5313V38.083H18.0436V35.5313H15.4919ZM18.0436 18.7966V16.2449H15.4919V18.7966H18.0436Z" fill="white"/>
</svg>
