<svg width="47" height="46" viewBox="0 0 47 46" fill="none" xmlns="http://www.w3.org/2000/svg">
<path d="M16.6718 9.72266L16.0624 10.3555V15.6992C16.0624 20.3164 16.0156 21.0664 15.7109 21.0664C15.1249 21.0664 14.4218 20.1758 14.4218 19.4492C14.4218 19.0977 14.6328 18.5117 14.914 18.1602C15.8984 16.918 14.8906 16.3555 13.8593 17.5742C13.3906 18.1367 13.2499 18.5352 13.2499 19.4727C13.2499 20.5039 13.3437 20.7383 14.0468 21.4414C14.539 21.9336 15.0781 22.2383 15.4531 22.2383C16.039 22.2383 16.0624 22.2852 16.0624 23.6914C16.0624 24.7461 15.9921 25.0742 15.8281 24.8164C15.7109 24.6289 15.5937 24.3008 15.5937 24.0898C15.5937 23.8555 15.1718 23.5508 14.5156 23.293C13.6015 22.9414 13.3437 22.9414 12.8749 23.1758C12.1484 23.5742 11.914 23.3398 12.3124 22.6133C12.5468 22.1445 12.5468 21.8867 12.1953 20.9961C11.8906 20.1523 11.6562 19.918 11.1171 19.8008C10.2499 19.6367 10.2499 19.2148 11.1171 19.0508C11.6562 18.9336 11.8906 18.6992 12.1953 17.8555C12.5468 16.9648 12.5468 16.707 12.3124 16.2383C11.914 15.5117 12.1484 15.2773 12.8749 15.6758C13.3437 15.9102 13.6015 15.9102 14.4921 15.5586C15.3359 15.2305 15.5703 15.0195 15.6874 14.457C15.9453 13.1445 15.8749 12.8633 15.2421 12.8633C14.8203 12.8633 14.6562 12.9805 14.6562 13.332C14.6562 13.5898 14.4453 14.0117 14.1874 14.2695C13.7421 14.7148 13.6718 14.7148 13.1796 14.3867C12.4531 13.8711 12.0078 13.9414 11.3046 14.6914C10.5781 15.4414 10.5312 15.8398 11.0234 16.5195C11.3046 16.9414 11.3046 17.082 10.9999 17.5039C10.789 17.8086 10.3906 18.0195 10.0624 18.0195C9.49995 18.0195 9.47651 18.0664 9.54682 19.3555C9.61714 20.5508 9.68745 20.7148 10.1328 20.7852C10.4374 20.832 10.8124 21.0898 10.9999 21.3477C11.3046 21.7695 11.3046 21.9102 11.0234 22.332C10.5312 23.0117 10.5781 23.4102 11.3046 24.1602C12.0078 24.9102 12.4531 24.9805 13.1796 24.4648C13.6718 24.1367 13.7421 24.1367 14.1874 24.582C14.4453 24.8398 14.6562 25.2617 14.6562 25.5195C14.6562 25.8945 14.8203 25.9883 15.3593 25.9883H16.0624V31.0039V35.9961L16.6718 36.6289L17.3046 37.2383H23.5624H29.8203L30.4531 36.6289L31.0625 35.9961V30.6523C31.0625 26.0352 31.1093 25.2852 31.414 25.2852C32 25.2852 32.7031 26.1758 32.7031 26.9023C32.7031 27.2539 32.4921 27.8398 32.2109 28.1914C31.2265 29.4336 32.2343 29.9961 33.2656 28.7773C33.7343 28.2148 33.875 27.8164 33.875 26.8789C33.875 25.8477 33.7812 25.6133 33.0781 24.9102C32.5859 24.418 32.0468 24.1133 31.6718 24.1133C31.0859 24.1133 31.0625 24.0664 31.0625 22.6367C31.0625 21.6055 31.1328 21.2773 31.2968 21.5352C31.414 21.7227 31.5312 22.0508 31.5312 22.2617C31.5312 22.4961 31.9531 22.8008 32.6093 23.0586C33.5234 23.4102 33.7812 23.4102 34.25 23.1758C34.9765 22.7773 35.2109 23.0117 34.8125 23.7383C34.5781 24.207 34.5781 24.4648 34.9296 25.3555C35.2343 26.1992 35.4687 26.4336 36.0078 26.5508C36.3828 26.6211 36.6875 26.7852 36.6875 26.9258C36.6875 27.0664 36.3828 27.2305 36.0078 27.3008C35.4687 27.418 35.2343 27.6523 34.9296 28.4961C34.5781 29.3867 34.5781 29.6445 34.8125 30.1133C35.2109 30.8398 34.9765 31.0742 34.25 30.6758C33.7812 30.4414 33.5234 30.4414 32.6328 30.793C31.789 31.1211 31.5546 31.332 31.4375 31.8945C31.1796 33.207 31.25 33.4883 31.8828 33.4883C32.3046 33.4883 32.4687 33.3711 32.4687 33.0195C32.4687 32.7617 32.6796 32.3398 32.9375 32.082C33.3828 31.6367 33.4531 31.6367 33.9453 31.9648C34.6484 32.457 35.0468 32.4102 35.7968 31.6836C36.5234 30.9805 36.6171 30.5352 36.1015 29.832C35.8203 29.4102 35.8203 29.2695 36.125 28.8477C36.3125 28.5898 36.6875 28.332 36.9921 28.2852C37.4375 28.2148 37.5078 28.0508 37.5781 26.8555C37.6484 25.5664 37.625 25.5195 37.0625 25.5195C36.7343 25.5195 36.3359 25.3086 36.125 25.0039C35.8203 24.582 35.8203 24.4414 36.1015 24.0195C36.6171 23.3164 36.5234 22.8711 35.7968 22.168C35.0468 21.4414 34.6484 21.3945 33.9453 21.8867C33.4531 22.2148 33.3828 22.2148 32.9375 21.7695C32.6796 21.5117 32.4687 21.0898 32.4687 20.832C32.4687 20.457 32.3046 20.3633 31.7656 20.3633H31.0625V15.3477V10.3555L30.4531 9.72266L29.8203 9.11328H23.5624H17.3046L16.6718 9.72266ZM29.5859 10.5898C29.9843 10.9883 30.0078 11.8086 30.0078 23.1758C30.0078 34.543 29.9843 35.3633 29.5859 35.7617C29.2109 36.1367 28.625 36.1836 23.5624 36.1836C18.4999 36.1836 17.914 36.1367 17.539 35.7617C17.1406 35.3867 17.1171 34.5195 17.0468 23.5508C16.9999 16.0039 17.0703 11.5273 17.2343 11.1289C17.3515 10.7773 17.7031 10.4023 17.9843 10.2852C18.289 10.168 20.914 10.0977 23.8437 10.1211C28.6015 10.168 29.2109 10.2148 29.5859 10.5898Z" fill="#21386D"/>
<path d="M21.6873 11.457C21.6873 11.8789 21.8513 11.9258 23.5623 11.9258C25.2732 11.9258 25.4373 11.8789 25.4373 11.457C25.4373 11.0352 25.2732 10.9883 23.5623 10.9883C21.8513 10.9883 21.6873 11.0352 21.6873 11.457Z" fill="#21386D"/>
<path d="M19.8592 21.8398C19.3201 22.3789 18.8748 22.9883 18.8748 23.1758C18.8748 23.668 20.7732 25.5195 21.2654 25.5195C21.9217 25.5195 21.7576 24.8164 20.9373 23.9492L20.1873 23.1758L20.9373 22.4023C21.3592 21.9805 21.6873 21.4414 21.6873 21.2305C21.6873 20.5273 20.8904 20.8086 19.8592 21.8398Z" fill="#21386D"/>
<path d="M23.4451 21.1131C23.1404 22.0506 22.6248 24.3944 22.6248 24.9335C22.6248 25.4256 22.7185 25.5428 23.1404 25.4725C23.5623 25.4256 23.7263 25.121 24.0779 23.7616C24.6404 21.535 24.6404 20.8319 24.031 20.8319C23.7732 20.8319 23.492 20.9725 23.4451 21.1131Z" fill="#21386D"/>
<path d="M25.4373 21.2305C25.4373 21.4414 25.7654 21.9805 26.1873 22.4023L26.9373 23.1758L26.1873 23.9492C25.367 24.793 25.2029 25.5195 25.8357 25.5195C26.3279 25.5195 28.2498 23.668 28.2498 23.1992C28.2498 22.707 26.3513 20.832 25.8592 20.832C25.6248 20.832 25.4373 20.9961 25.4373 21.2305Z" fill="#21386D"/>
<path d="M32.9845 13.3789C33.0314 13.6836 33.2189 13.918 33.4064 13.918C33.5939 13.918 33.7814 13.6836 33.8283 13.3789C33.8986 12.9805 33.7814 12.8633 33.4064 12.8633C33.0314 12.8633 32.9142 12.9805 32.9845 13.3789Z" fill="#21386D"/>
<path d="M32.9845 15.2539C33.0314 15.5586 33.2189 15.793 33.4064 15.793C33.5939 15.793 33.7814 15.5586 33.8283 15.2539C33.8986 14.8555 33.7814 14.7383 33.4064 14.7383C33.0314 14.7383 32.9142 14.8555 32.9845 15.2539Z" fill="#21386D"/>
<path d="M32.9845 17.1289C33.0314 17.4336 33.2189 17.668 33.4064 17.668C33.5939 17.668 33.7814 17.4336 33.8283 17.1289C33.8986 16.7305 33.7814 16.6133 33.4064 16.6133C33.0314 16.6133 32.9142 16.7305 32.9845 17.1289Z" fill="#21386D"/>
<path d="M13.2498 29.1523C13.2498 29.5742 13.367 29.7383 13.7185 29.7383C14.0701 29.7383 14.1873 29.5742 14.1873 29.1523C14.1873 28.7305 14.0701 28.5664 13.7185 28.5664C13.367 28.5664 13.2498 28.7305 13.2498 29.1523Z" fill="#21386D"/>
<path d="M13.2498 31.0273C13.2498 31.4492 13.367 31.6133 13.7185 31.6133C14.0701 31.6133 14.1873 31.4492 14.1873 31.0273C14.1873 30.6055 14.0701 30.4414 13.7185 30.4414C13.367 30.4414 13.2498 30.6055 13.2498 31.0273Z" fill="#21386D"/>
<path d="M13.2498 32.9023C13.2498 33.3242 13.367 33.4883 13.7185 33.4883C14.0701 33.4883 14.1873 33.3242 14.1873 32.9023C14.1873 32.4805 14.0701 32.3164 13.7185 32.3164C13.367 32.3164 13.2498 32.4805 13.2498 32.9023Z" fill="#21386D"/>
<circle cx="23.7408" cy="23.127" r="22.4215" stroke="#21386D" stroke-width="0.711792"/>
</svg>
