<svg width="49" height="48" viewBox="0 0 49 48" fill="none" xmlns="http://www.w3.org/2000/svg">
<path d="M17.2634 12.9795L16.6734 13.5899V23.742V33.8942L17.2634 34.5046L17.8737 35.1353H24.3027H30.7318L31.3421 34.5046L31.9321 33.8942V23.742V13.5899L31.3421 12.9795L30.7318 12.3488H24.3027H17.8737L17.2634 12.9795ZM30.5487 14.1799C30.7521 14.5664 30.8132 16.7637 30.8132 23.2741V31.88H24.3027H17.772L17.833 23.0706C17.8737 15.9092 17.9551 14.1799 18.1789 13.895C18.423 13.5899 19.0537 13.5695 24.3841 13.6102L30.2842 13.6712L30.5487 14.1799ZM30.6097 33.2635C30.6097 33.8535 29.9994 33.9146 24.3027 33.9146C18.6061 33.9146 17.9958 33.8535 17.9958 33.2635C17.9958 33.1821 20.8237 33.1008 24.3027 33.1008C27.7817 33.1008 30.6097 33.1821 30.6097 33.2635Z" fill="#21386D"/>
<path d="M23.7745 17.9041C23.7135 18.0668 23.6931 18.5958 23.7338 19.0841C23.7949 19.8775 23.8559 19.9792 24.3035 19.9792C24.7918 19.9792 24.8121 19.9182 24.8121 18.8603C24.8121 17.8634 24.7714 17.7413 24.3442 17.6803C24.1 17.6396 23.8559 17.7413 23.7745 17.9041Z" fill="#21386D"/>
<path d="M20.9053 19.0024C20.0915 19.3076 21.1698 20.9962 22.0853 20.8538C22.7974 20.7521 22.7974 20.1621 22.1056 19.4703C21.4749 18.86 21.3529 18.7989 20.9053 19.0024Z" fill="#21386D"/>
<path d="M26.5006 19.4703C25.8089 20.1621 25.8089 20.7521 26.521 20.8538C27.4772 20.9962 28.4944 19.3076 27.6399 18.9821C27.172 18.799 27.172 18.799 26.5006 19.4703Z" fill="#21386D"/>
<path d="M23.0201 20.7109C22.5115 21.0161 22.0639 21.9926 22.0639 22.8268C22.0639 24.1085 23.5288 25.2072 24.8309 24.8816C25.726 24.6578 26.5398 23.6813 26.5398 22.8268C26.5398 21.952 26.0922 20.9957 25.5429 20.6906C25.0343 20.4261 23.4881 20.4261 23.0201 20.7109ZM25.014 22.1147C25.5633 22.7251 25.1564 23.5389 24.3019 23.5389C23.4474 23.5389 23.0405 22.7251 23.5898 22.1147C23.7933 21.8909 24.1188 21.7078 24.3019 21.7078C24.485 21.7078 24.8105 21.8909 25.014 22.1147Z" fill="#21386D"/>
<path d="M19.4603 22.6635C19.5213 23.2128 19.5823 23.2332 20.5386 23.2332C21.4948 23.2332 21.5558 23.1925 21.5558 22.7245C21.5558 22.2566 21.4744 22.2159 20.4775 22.1549C19.3992 22.0938 19.3992 22.0938 19.4603 22.6635Z" fill="#21386D"/>
<path d="M27.0302 22.4191C26.7657 23.0905 27.1115 23.355 28.1084 23.294C29.0036 23.2329 29.085 23.1922 29.146 22.6633C29.2071 22.1343 29.1867 22.114 28.1695 22.114C27.4371 22.114 27.1115 22.1953 27.0302 22.4191Z" fill="#21386D"/>
<path d="M21.1701 24.7801C20.7835 25.0853 20.6411 25.3702 20.6818 25.7567C20.7632 26.5095 21.4346 26.5502 22.1467 25.7974C23.1639 24.7191 22.3501 23.8443 21.1701 24.7801Z" fill="#21386D"/>
<path d="M26.0731 24.494C25.7679 24.7788 25.9511 25.3078 26.5207 25.8571C27.2328 26.5488 27.8431 26.4878 27.9245 25.7554C28.0262 24.9416 26.5817 23.965 26.0731 24.494Z" fill="#21386D"/>
<path d="M23.7745 25.6351C23.7135 25.7979 23.6931 26.2861 23.7338 26.7134C23.7949 27.4051 23.8559 27.5068 24.3035 27.5068C24.7714 27.5068 24.8121 27.4458 24.8121 26.4896C24.8121 25.5944 24.7511 25.4723 24.3442 25.4113C24.0797 25.3706 23.8559 25.4723 23.7745 25.6351Z" fill="#21386D"/>
<circle cx="24.5" cy="24.1751" r="23.292" stroke="#21386D" stroke-width="0.739428"/>
</svg>
