<svg width="47" height="46" viewBox="0 0 47 46" fill="none" xmlns="http://www.w3.org/2000/svg">
<circle cx="23.5722" cy="23.127" r="22.4215" stroke="#21386D" stroke-width="0.711792"/>
<path d="M11.8721 13.1711C11.6823 13.3609 11.619 14.6055 11.619 17.4953C11.619 20.9758 11.6612 21.5664 11.9354 21.5664C12.1885 21.5664 12.2518 21.1656 12.2518 19.2461V16.9258H24.0643H35.8768V25.3633V33.8008H24.0643H12.2518V31.4805C12.2518 29.5398 12.2096 29.1602 11.9354 29.1602C11.6612 29.1602 11.619 29.5398 11.6612 31.7547L11.7245 34.3281H24.0643H36.4042L36.4675 23.9078C36.4885 16.3984 36.4464 13.4031 36.2776 13.2133C35.9401 12.8125 12.2729 12.7703 11.8721 13.1711ZM35.6237 13.8039C35.7714 13.9516 35.8768 14.5633 35.8768 15.175V16.293H24.0643H12.2518V15.175C12.2518 14.5633 12.3573 13.9516 12.505 13.8039C12.8635 13.4453 35.2651 13.4453 35.6237 13.8039Z" fill="#21386D"/>
<path d="M13.5592 14.2258C12.9686 14.8164 13.4115 15.8711 14.2553 15.8711C15.1412 15.8711 15.4998 14.943 14.867 14.3102C14.4873 13.9094 13.9178 13.8672 13.5592 14.2258Z" fill="#21386D"/>
<path d="M16.3863 14.3102C15.7535 14.943 16.1121 15.8711 16.998 15.8711C17.5676 15.8711 17.9472 15.4914 17.9472 14.9219C17.9472 14.0359 17.0191 13.6773 16.3863 14.3102Z" fill="#21386D"/>
<path d="M19.2333 14.268C19.0856 14.4367 19.0013 14.8375 19.0435 15.175C19.1067 15.7023 19.1911 15.7656 19.845 15.7656C20.4989 15.7656 20.5833 15.7023 20.6466 15.175C20.731 14.5 20.3724 13.9727 19.845 13.9727C19.6341 13.9727 19.3599 14.0992 19.2333 14.268Z" fill="#21386D"/>
<path d="M15.9004 18.9518C14.6769 19.3947 12.9683 20.9768 12.3144 22.2846C11.5129 23.8455 11.4074 26.0815 12.0402 27.79C12.673 29.4775 14.4449 31.2705 16.0269 31.7979C17.7355 32.3674 20.2457 32.1775 21.7222 31.376C26.4472 28.7815 26.4472 21.9471 21.7222 19.3525C20.7308 18.8252 20.33 18.7197 18.6847 18.6775C17.3769 18.6354 16.5121 18.7197 15.9004 18.9518ZM21.0894 19.9643C24.6543 21.7783 25.5613 26.3135 22.9668 29.2666C20.0558 32.5572 15.0566 31.9666 13.116 28.0854C10.5214 22.8963 15.9636 17.3697 21.0894 19.9643Z" fill="#21386D"/>
<path d="M16.7026 20.934C16.344 21.2926 16.0065 21.9254 15.9221 22.3262C15.7322 23.3598 15.9643 25.0895 16.3651 25.7223C16.9768 26.6504 16.7237 27.1145 15.3737 27.4731C14.0026 27.8317 13.4541 28.2325 14.0237 28.4434C14.4455 28.6122 16.1963 28.1903 16.8502 27.7684C17.2088 27.5364 17.3143 27.2622 17.3143 26.5661C17.2932 26.0809 17.1666 25.4481 16.9979 25.1528C16.8291 24.8575 16.7026 24.077 16.6815 23.402C16.6815 22.3051 16.7447 22.0942 17.2932 21.5458C17.6307 21.2083 18.0737 20.934 18.2635 20.934C18.8752 20.934 19.7612 21.5247 20.0143 22.0942C20.6471 23.4442 19.9721 25.7223 18.8119 26.2286C17.9893 26.5872 17.9682 27.0512 18.7697 27.0512C19.1494 27.0512 19.4869 27.22 19.6557 27.4731C19.8244 27.7262 20.4362 28.0426 21.1112 28.2114C22.5877 28.6122 23.0096 28.6122 23.0096 28.2114C23.0096 28.0215 22.5244 27.7684 21.7018 27.5153C20.2041 27.0934 19.9932 26.7137 20.5838 25.5958C21.4065 23.9926 21.1533 21.7778 20.0354 20.8497C19.0651 20.027 17.5674 20.0692 16.7026 20.934Z" fill="#21386D"/>
<path d="M27.4393 20.8281V23.043H26.912C26.4057 23.043 26.3846 22.9797 26.3846 21.8828C26.3846 20.9969 26.3214 20.7227 26.0682 20.7227C25.8151 20.7227 25.7518 21.018 25.7518 22.1992V23.6758H30.287H34.8221V21.6719C34.8221 20.0266 34.7589 19.668 34.5057 19.668C34.2526 19.668 34.1893 20.0055 34.1893 21.3555C34.1893 23.0219 34.1893 23.043 33.662 23.043C33.1557 23.043 33.1346 22.9797 33.1346 21.8828C33.1346 20.9969 33.0714 20.7227 32.8182 20.7227C32.5651 20.7227 32.5018 20.9969 32.5018 21.8828C32.5018 22.9797 32.4807 23.043 31.9745 23.043C31.4682 23.043 31.4471 23.0008 31.4471 21.6719C31.4471 20.5961 31.3839 20.3008 31.1307 20.3008C30.8776 20.3008 30.8143 20.5961 30.8143 21.6719C30.8143 23.0008 30.7932 23.043 30.287 23.043C29.8229 23.043 29.7596 22.9586 29.7596 22.1992C29.7596 21.5875 29.6753 21.3555 29.4432 21.3555C29.2112 21.3555 29.1268 21.5875 29.1268 22.1992C29.1268 22.9586 29.0846 23.043 28.5995 23.043H28.0721V20.8281C28.0721 18.993 28.0089 18.6133 27.7557 18.6133C27.5026 18.6133 27.4393 18.993 27.4393 20.8281Z" fill="#21386D"/>
<path d="M25.7518 27.0517V28.7603L27.7135 28.697L29.6542 28.6337V27.0517V25.4696L27.7135 25.4063L25.7518 25.3431V27.0517ZM29.1268 27.0517V28.1063H27.7557H26.3846V27.0517V25.997H27.7557H29.1268V27.0517Z" fill="#21386D"/>
<path d="M30.8143 27.0517V28.7603L32.776 28.697L34.7167 28.6337V27.0517V25.4696L32.776 25.4063L30.8143 25.3431V27.0517ZM34.1893 27.0517V28.1063H32.8182H31.4471V27.0517V25.997H32.8182H34.1893V27.0517Z" fill="#21386D"/>
<path d="M25.7518 29.582C25.7518 29.9828 25.8995 30.0039 27.7557 30.0039C29.612 30.0039 29.7596 29.9828 29.7596 29.582C29.7596 29.1812 29.612 29.1602 27.7557 29.1602C25.8995 29.1602 25.7518 29.1812 25.7518 29.582Z" fill="#21386D"/>
<path d="M30.8143 29.582C30.8143 29.9828 30.962 30.0039 32.8182 30.0039C34.6745 30.0039 34.8221 29.9828 34.8221 29.582C34.8221 29.1812 34.6745 29.1602 32.8182 29.1602C30.962 29.1602 30.8143 29.1812 30.8143 29.582Z" fill="#21386D"/>
<path d="M25.7518 30.7422C25.7518 30.9953 26.1104 31.0586 27.7557 31.0586C29.401 31.0586 29.7596 30.9953 29.7596 30.7422C29.7596 30.4891 29.401 30.4258 27.7557 30.4258C26.1104 30.4258 25.7518 30.4891 25.7518 30.7422Z" fill="#21386D"/>
<path d="M30.8143 30.7422C30.8143 30.9953 31.1729 31.0586 32.8182 31.0586C34.4635 31.0586 34.8221 30.9953 34.8221 30.7422C34.8221 30.4891 34.4635 30.4258 32.8182 30.4258C31.1729 30.4258 30.8143 30.4891 30.8143 30.7422Z" fill="#21386D"/>
</svg>
