<svg width="47" height="46" viewBox="0 0 47 46" fill="none" xmlns="http://www.w3.org/2000/svg">
<circle cx="23.3679" cy="23.127" r="22.4215" stroke="#21386D" stroke-width="0.711792"/>
<g clip-path="url(#clip0_1_496)">
<path d="M13.7957 12.5341C13.4542 12.8755 13.4363 13.1271 13.4363 16.1818V19.488L12.9691 19.7216C12.1605 20.1708 11.9988 20.7458 11.9988 23.3693C11.9988 25.5794 12.0347 25.9029 12.5378 27.3224C13.0949 28.9216 13.2207 29.856 12.8972 30.0537C12.6277 30.2154 12.6636 34.6896 12.9332 34.9591C13.0769 35.1029 14.1011 35.1748 16.3292 35.1748C19.0605 35.1748 19.5277 35.1388 19.7433 34.8693C20.1207 34.4201 20.1027 30.3412 19.7074 30.0896C19.4558 29.9279 19.4738 29.8021 19.7972 28.688L20.1566 27.4482H23.4089H26.6613L27.416 28.9755C28.0089 30.1974 28.1347 30.5927 27.991 30.8623C27.7394 31.3474 27.7574 34.6896 28.0269 34.9591C28.3324 35.2646 34.4777 35.2646 34.7832 34.9591C35.0707 34.6716 35.0707 31.1677 34.7832 30.7005C34.6214 30.431 34.6214 30.2513 34.7832 29.874C34.9449 29.5326 34.9988 27.1427 34.9988 21.0693V12.7318L34.6035 12.4623C34.2441 12.2107 32.9503 12.1748 24.1816 12.1748C14.3886 12.1748 14.155 12.1748 13.7957 12.5341ZM33.8847 13.181C34.28 13.4505 34.28 13.4865 34.28 18.7513C34.28 23.3334 34.2441 24.0341 34.0105 24.0341C33.7769 24.0341 33.741 23.3873 33.741 19.2185C33.741 15.1576 33.705 14.349 33.4535 14.0076L33.1839 13.6123H24.2355C17.5332 13.6123 15.2511 13.6662 15.0894 13.8279C14.9457 13.9716 14.8738 15.0318 14.8738 17.4216C14.8738 20.2966 14.8378 20.7998 14.6042 20.7998C14.3707 20.7998 14.3347 20.2607 14.3347 17.0263C14.3347 13.6482 14.3707 13.2529 14.6582 13.0912C14.8558 12.9654 18.2699 12.8935 24.2175 12.8935C32.3214 12.8935 33.5253 12.9294 33.8847 13.181ZM32.6269 14.5466C32.7886 14.7083 32.8425 15.9841 32.8425 19.2185V23.6748H32.4113C32.1597 23.6748 31.9082 23.5849 31.8542 23.4951C31.8003 23.3873 31.5488 23.3154 31.2972 23.3154C30.9199 23.3154 30.866 23.2255 30.866 22.6865C30.866 22.1115 30.9199 22.0576 31.3871 22.0576C31.9441 22.0576 32.4113 21.6623 32.2136 21.3388C32.1597 21.249 31.8363 21.1591 31.5308 21.1591C31.0816 21.1591 30.8839 21.0333 30.6503 20.6201C30.3988 20.1888 30.2191 20.081 29.716 20.081C29.0691 20.081 28.53 20.4584 28.53 20.9076C28.53 21.1052 28.1707 21.1591 26.7152 21.1591C24.9542 21.1591 24.9183 21.1591 24.9722 21.5544C25.0261 21.9498 25.116 21.9677 26.7871 22.0216L28.53 22.0755V23.4591L28.5121 24.8427L28.1527 24.3396C27.5058 23.4771 26.0683 23.7287 25.7449 24.7529C25.6371 25.0943 25.4753 25.1123 21.091 25.1123C15.916 25.1123 16.2574 25.238 16.0417 23.4052C15.88 22.1115 15.7183 14.906 15.8441 14.5826C15.9339 14.3669 17.1558 14.331 24.1816 14.331C30.3449 14.331 32.4652 14.3849 32.6269 14.5466ZM13.616 24.8248C13.7238 24.9326 13.8855 24.8966 14.0652 24.7529C14.2628 24.5912 14.3347 24.1599 14.3347 23.0998C14.3347 22.0396 14.3886 21.6802 14.5683 21.7341C14.8917 21.8599 15.2152 22.9201 15.2152 23.9982C15.2332 24.8427 15.323 25.0583 15.8621 25.7052C16.2035 26.1005 16.491 26.6037 16.491 26.8193C16.491 27.0349 16.5988 27.3583 16.7425 27.556C16.9582 27.8255 17.048 27.8615 17.2277 27.6638C17.3535 27.556 17.8566 27.4482 18.3417 27.4482C18.9707 27.4482 19.2042 27.5201 19.1324 27.6638C19.0964 27.7896 18.9527 28.3287 18.8269 28.8318L18.5753 29.7841H16.2933H14.0292L13.9035 28.9037C13.8496 28.4185 13.58 27.4482 13.3464 26.7115C12.9691 25.6154 12.8972 25.0763 12.8972 23.2255C12.8972 21.7341 12.9691 20.9794 13.1308 20.8177C13.3105 20.638 13.3644 20.9974 13.4003 22.6326C13.4183 23.7466 13.5261 24.7349 13.616 24.8248ZM29.9316 23.6029C29.9496 24.9685 30.0574 26.1724 30.1472 26.2623C30.4886 26.6037 30.866 25.9927 30.866 25.0763C30.866 23.8724 31.2972 23.9982 31.3691 25.2201C31.405 25.7052 31.4949 26.1724 31.5847 26.2623C31.8902 26.5677 32.3035 25.9927 32.3035 25.256C32.3035 24.3037 32.7347 24.4294 32.8066 25.3998C32.8425 25.7771 32.9324 26.1724 33.0222 26.2623C33.2917 26.5318 33.741 26.0107 33.741 25.4357C33.741 25.0943 33.8128 24.9326 33.9746 24.9685C34.1183 25.0224 34.2082 25.5794 34.2441 26.7294C34.28 28.113 34.2261 28.6162 33.9027 29.4607L33.5253 30.5029H31.3871H29.2488L27.8832 27.7896C26.9847 25.9568 26.5894 25.0044 26.7152 24.8787C27.0207 24.5732 27.398 24.8787 27.973 25.9029C28.6378 27.0529 28.8175 27.1966 29.1589 26.9091C29.3746 26.7294 29.4285 26.1005 29.4285 23.8185C29.4285 21.6083 29.4824 20.9615 29.6621 21.0154C29.8238 21.0693 29.8957 21.788 29.9316 23.6029ZM26.0863 26.2802C26.1761 26.5138 25.6191 26.5498 21.8097 26.5498C18.0722 26.5498 17.4074 26.5138 17.3175 26.2802C17.2277 26.0466 17.7847 26.0107 21.5941 26.0107C25.3316 26.0107 25.9964 26.0466 26.0863 26.2802ZM19.1503 32.4076C19.1863 33.6474 19.1324 34.0966 18.9347 34.2583C18.773 34.4021 17.9105 34.456 16.2035 34.4201L13.7058 34.3662L13.6519 32.5154L13.598 30.6646L16.3472 30.7185L19.0964 30.7724L19.1503 32.4076ZM34.1902 32.9287V34.3662H31.4949H28.7996L28.7457 32.8748L28.6917 31.3833L31.441 31.4373L34.1902 31.4912V32.9287Z" fill="#253073"/>
<path d="M28.6558 15.5894L28.4582 16.1285H26.6972C25.098 16.1285 24.9363 16.1644 24.9363 16.4699C24.9363 16.9371 25.2777 17.0269 26.9847 17.0269C28.4042 17.0269 28.4761 17.0449 28.6738 17.4761C28.8714 17.8894 29.2308 18.0152 29.9675 17.9433C30.1113 17.9253 30.3988 17.7097 30.5964 17.4582C30.8121 17.2066 31.1535 17.0269 31.441 17.0269C31.9441 17.0269 32.3933 16.6136 32.2136 16.3082C32.1597 16.2183 31.8363 16.1285 31.5308 16.1285C31.0816 16.1285 30.8839 16.0027 30.6503 15.5894C30.3808 15.1222 30.2371 15.0503 29.6082 15.0503C28.9433 15.0503 28.8355 15.1042 28.6558 15.5894ZM29.8777 16.4878C29.8777 16.7214 29.7699 16.9371 29.6621 16.973C29.5003 17.0269 29.4285 16.8652 29.4285 16.4878C29.4285 16.1105 29.5003 15.9488 29.6621 15.9847C29.7699 16.0386 29.8777 16.2542 29.8777 16.4878Z" fill="#253073"/>
<path d="M18.5572 16.434C17.7665 16.8473 17.0478 17.5661 16.6525 18.3387C16.365 18.8778 16.3111 19.309 16.347 20.495L16.4009 21.9684L20.1564 22.0223C22.9415 22.0583 23.9657 22.0043 24.1634 21.8426C24.5048 21.5551 24.397 19.4168 23.9837 18.4465C23.6603 17.6739 22.8158 16.8114 22.0072 16.4161C21.1986 16.0387 19.2939 16.0387 18.5572 16.434ZM19.9048 17.2786C19.9048 17.6918 20.4079 17.7637 20.6775 17.3864C20.8931 17.0809 21.0009 17.045 21.4861 17.2247C21.9892 17.4043 22.0431 17.4762 21.9353 17.9614C21.8275 18.5004 21.8454 18.5184 22.3665 18.4106C22.8337 18.3208 22.9415 18.3747 23.1212 18.752C23.3907 19.3629 23.3728 19.7223 23.0493 19.7223C22.6361 19.7223 22.7079 20.459 23.1392 20.5668C23.3368 20.6208 23.4986 20.7825 23.4986 20.9083C23.4986 21.0879 23.265 21.1598 22.69 21.1598C21.9712 21.1598 21.8454 21.1059 21.6837 20.6747C21.54 20.2973 21.5759 20.1356 21.8993 19.7942C22.097 19.5786 22.2228 19.309 22.1509 19.2012C21.9712 18.8958 21.4322 18.9676 21.0728 19.3629C20.8751 19.5786 20.5158 19.7223 20.1384 19.7223C19.4736 19.7223 18.8267 20.2434 18.8267 20.8004C18.8267 21.1059 18.7009 21.1598 18.0181 21.1598C17.1197 21.1598 16.9939 20.9442 17.6048 20.459C18.0001 20.1176 17.9283 19.7223 17.4431 19.7223C17.2275 19.7223 17.1915 19.6145 17.2993 19.2372C17.479 18.5184 17.6947 18.3208 18.2158 18.4286C18.629 18.5004 18.665 18.4645 18.6111 17.9973C18.5751 17.602 18.665 17.4403 19.0064 17.2606C19.5993 16.9551 19.9048 16.9731 19.9048 17.2786ZM20.7673 20.9262C20.8033 21.0879 20.6415 21.1598 20.2822 21.1598C19.7431 21.1598 19.5814 20.9981 19.8509 20.7286C20.0486 20.5489 20.6775 20.6747 20.7673 20.9262Z" fill="#253073"/>
<path d="M25.7806 18.104C25.6549 18.4274 25.4392 18.6431 25.2595 18.6431C24.8283 18.6431 24.8463 19.3079 25.2775 19.4517C25.4572 19.5056 25.6549 19.7032 25.7088 19.9009C25.9244 20.7095 27.3799 20.7095 27.8111 19.9009C27.9908 19.5774 28.1705 19.5415 29.9494 19.5415C31.4408 19.5415 31.9439 19.4876 32.1236 19.272C32.5369 18.7688 32.1236 18.6431 30.0931 18.6431H28.0806L27.7752 18.104C27.5056 17.6368 27.3619 17.5649 26.733 17.5649C26.0681 17.5649 25.9603 17.6188 25.7806 18.104ZM27.0025 19.0024C27.0025 19.236 26.8947 19.4517 26.7869 19.4876C26.6252 19.5415 26.5533 19.3798 26.5533 19.0024C26.5533 18.6251 26.6252 18.4634 26.7869 18.4993C26.8947 18.5532 27.0025 18.7688 27.0025 19.0024Z" fill="#253073"/>
</g>
<defs>
<clipPath id="clip0_1_496">
<rect width="23" height="23" fill="white" transform="translate(11.9988 12.1758)"/>
</clipPath>
</defs>
</svg>
